<?xml version="1.0" encoding="UTF-8"?>
<!DOCTYPE svg PUBLIC "-//W3C//DTD SVG 1.1//EN" "http://www.w3.org/Graphics/SVG/1.1/DTD/svg11.dtd">
<!-- Creator: CorelDRAW -->
<svg xmlns="http://www.w3.org/2000/svg" xml:space="preserve" width="297mm" height="210mm" version="1.1" style="shape-rendering:geometricPrecision; text-rendering:geometricPrecision; image-rendering:optimizeQuality; fill-rule:evenodd; clip-rule:evenodd"
viewBox="0 0 29700 21000"
 xmlns:xlink="http://www.w3.org/1999/xlink">
 <defs>
  <style type="text/css">
   <![CDATA[
    .str1 {stroke:black;stroke-width:10;stroke-miterlimit:3.864;stroke-opacity:0.501961}
    .str3 {stroke:black;stroke-width:50;stroke-miterlimit:22.9256}
    .str5 {stroke:#434242;stroke-width:10;stroke-miterlimit:22.9256}
    .str0 {stroke:black;stroke-width:10;stroke-miterlimit:22.9256}
    .str2 {stroke:black;stroke-width:10;stroke-miterlimit:3.864}
    .str6 {stroke:#2B2A29;stroke-width:7.62;stroke-miterlimit:22.9256}
    .str4 {stroke:black;stroke-width:7.62;stroke-miterlimit:22.9256}
    .fil5 {fill:none}
    .fil0 {fill:#FEFEFE}
    .fil7 {fill:#D9DADA}
    .fil4 {fill:#FEFEFE;fill-rule:nonzero}
    .fil3 {fill:#D9DADA;fill-rule:nonzero}
    .fil6 {fill:#434242;fill-rule:nonzero}
    .fil2 {fill:black;fill-rule:nonzero}
    .fil1 {fill:#FEFEFE;fill-rule:nonzero;fill-opacity:0.501961}
   ]]>
  </style>
 </defs>
 <g id="Plan_x0020_1">
  <metadata id="CorelCorpID_0Corel-Layer"/>
  <path class="fil0 str0" d="M1000 1000l27700 0 0 17585.26 -27700 0 0 -17585.26zm11305.25 4018.23c24.9,-35.1 57.76,-75.6 103.35,-52.25 39.02,19.99 64.48,-8.39 104.29,10.26 37.12,17.4 48.81,8.07 75.42,-18.66 42.27,-42.44 75.48,6.14 121.05,-14 45.37,-20.06 90.33,-26.36 136.87,-5.59l53.98 10.94 0 0c40.99,14.92 129.88,-178.86 157.83,-128.3 34.12,61.72 32.38,37.26 92.18,44.79 18.56,2.34 25.15,18.35 32.59,34.06 14.83,31.27 43.01,-17.06 63.32,-21.46 38.37,-8.31 64.98,-57.7 94.52,-38.01 23.8,15.86 74.08,39.56 102.43,16.8 78.54,-63.06 76.02,-0.14 159.22,30.79 51.25,19.05 132.08,-5.81 186.22,-3.73 88.21,3.4 122.07,108.05 163.88,-9.33 26.27,-73.77 16.07,-24.36 63.32,-41.06 30.46,-10.76 51.46,-60.98 86.59,-71.84 43.44,-13.43 78.78,5.31 122.91,13.06 51.77,9.09 182.01,-72.76 220.67,-36.39 52.79,49.66 64.2,2.88 125.71,10.26 49.38,5.92 55.2,-62.01 107.07,-70.91 42.38,-7.27 36.69,41.94 49.35,68.11 25.56,52.79 40.34,5.38 77.29,0.94 56,-6.73 46.28,-16.66 33.52,-60.65 -8.86,-30.55 15.52,-27.02 26.07,-52.25 10.9,-26.05 -10.75,-84.7 2.79,-125.03 10.53,-31.38 -16.61,-58.88 16.76,-75.58 45.26,-22.66 70.76,-72.26 63.32,-123.17 -10.14,-69.36 -77.5,-66.91 23.28,-118.5 33.82,-17.31 18.34,-40.08 14.89,-67.18 -3.19,-25.09 27.09,-34.44 40.04,-53.18 41.41,-59.94 19.48,22.05 75.42,-19.6 15.82,-11.78 30.91,-24.68 49.35,-31.72 36.32,-13.88 53.99,-13.65 79.15,-49.45 21.67,-30.85 57.66,-56.09 86.59,-81.18 18.29,-15.86 26.52,-31.98 39.11,-51.32 6.46,-9.92 33.15,-16.11 34.45,-16.8 22.23,21.44 33.23,58.57 70.76,55.99 88.58,-6.11 54.45,-10.35 87.53,60.65 31.97,68.59 46.51,165.81 153.63,154.89 66.28,-6.75 41.4,-57.39 80.08,-74.65 20.51,-9.14 84.76,1.83 107.08,7.47 0,42.51 49.33,43.89 67.04,71.84 33.62,53.02 10.42,29.86 67.97,29.86 0,14.87 20.52,31.35 25.14,49.45 6.69,26.25 -29.64,51.15 -46.55,68.12 -40.89,67.67 -30.85,52.1 9.31,92.37 58.94,59.12 67.82,-109.72 135.94,-25.19 50.57,62.77 56.28,-92.38 114.53,-92.38 0,19 -12.96,49.31 12.1,54.12 8.74,1.67 52.61,-6.05 54.01,6.53 5.89,52.93 52.05,7.11 81.01,22.4 10.59,5.6 28.74,73.58 44.69,91.44 16.93,18.97 -24.18,48 -30.73,65.31 -36,95.15 6.77,44.79 74.49,44.79 64.04,0 45.55,-27.36 81.01,-71.85 36,-45.18 29.7,-32.83 73.56,-52.25 15.45,-6.84 27.54,-49.1 33.52,-65.31 17.26,-46.72 62.85,30.67 65.18,-0.94 3.23,-43.64 103.08,-55.41 137.8,-72.77 57.73,-15.51 45.98,3.22 76.35,33.59 22.33,22.33 35.77,-23.05 50.28,-32.66 34.28,-22.73 114.62,-10.63 56.8,-54.12 -36.06,-27.11 -5.95,-44.66 21.42,-69.98 7.46,-6.91 32.14,10.46 56.8,-10.26 17.14,-14.41 22.7,-38.6 37.24,-55.99 19.94,-23.87 62.92,-54.94 90.32,-70.91 36.36,-21.21 22.29,-54.7 37.25,-86.78 20.45,-48.72 -37.92,-29.09 -2.8,-72.78 25.54,-31.76 -4.13,-38.98 46.56,-17.72 35.12,14.72 57.12,0.02 93.11,5.59 36.18,5.59 60.9,17.73 98.7,17.73 81.78,0 -10.12,-59.34 83.8,-71.84 48.07,-6.4 58.73,-46.65 88.46,-78.38 53.5,-57.07 94.09,35.95 148.04,62.51 26.55,13.08 55.78,1.87 84.74,1.87 42.43,0 18.62,-19.36 18.62,-43.85 22.59,-7.64 54.54,-0.66 76.35,-14 10.11,-6.19 -10.27,-65.16 -0.93,-87.71 19.32,-39.86 49.39,-73.6 89.39,-93.3 33.76,-16.62 30.62,-33.92 36.31,-65.32 7.44,-41.11 27.23,-16.92 39.11,-43.85 9.02,-20.42 -7.2,-38.7 -1.86,-55.99 9.6,-31.03 39.66,-42.27 49.34,-83.04 5.82,-24.48 39.78,-12.88 55.87,-39.19 15.81,-25.87 70.51,-80.7 45.63,-110.1 -50.7,-59.93 14.97,-67.76 22.34,-126.9 36.89,-65.07 -36.35,-100.57 32.59,-155.82 38.79,-31.1 48.68,-89.77 84.73,-114.77 26,-18.02 58.14,-29.37 80.08,-49.45 28.18,-25.81 -37.41,-69.99 37.25,-99.84 54.85,-21.94 22.23,-93.02 96.83,-112.9 75.04,-69.6 36.51,-87.33 72.63,-166.09 53.75,-117.16 -7.48,-202.51 155.5,-132.49 111.94,48.1 91.12,9.86 190.88,-19.6 26.92,-7.95 40.21,-41.65 67.97,-53.18l103.35 -42.92c37.87,-15.73 51.33,-4.94 88.46,0 46.54,6.19 105.16,-61.59 157.36,-48.52 51.24,12.82 92.39,-8.74 155.49,-20.53 75.72,-10.77 134.25,-10.17 211.37,-34.52 146.37,-46.2 95.09,106.47 199.26,150.22 50.98,21.42 181,-73.08 200.19,-34.52 10.67,21.42 33.34,101.72 49.35,108.23l84.73 34.53c10.92,4.44 -11.55,47.84 0,65.31 3.36,5.07 51.23,-17.69 84.73,14 18.5,17.51 29.22,-16.48 40.97,-27.06 25.63,-23.05 50.91,-27.32 82.87,-37.32l293.3 79.31c51.59,13.94 3.18,101.37 70.77,135.29 124.77,62.6 147.19,-175.03 277.47,-149.29 31.37,6.19 117.83,-50.37 143.4,-70.91 71.03,-57.09 122.33,8.72 188.08,25.19l139.29 47.03c1.2,-3.31 1.77,-5.12 2.24,-6.91 12.96,-49.42 38.86,-46.5 26.07,-100.77 -7.06,-29.98 31.16,-41.59 38.18,-69.04 5.43,-21.25 -33.7,-37.21 -0.93,-56.92l128.49 1.86c42.07,7.22 87.73,22.58 125.7,-4.66 52.39,-37.6 128.5,62.74 128.5,-41.06 0,-48.02 75.33,-115.08 84.73,-78.37 9.59,37.5 74.03,29.48 103.35,71.84 33.57,48.52 130.35,51.66 169.47,105.44 25.07,34.48 56.52,273.66 142.46,237 51.18,-21.82 23.99,7.83 50.28,26.12 52.25,36.34 82.29,-72.76 113.6,-32.65 22.67,29.03 37.92,6.81 63.31,5.59 30.04,-1.45 17.69,29.77 17.69,50.39 0,55.5 45.69,101.36 6.52,155.82 -9.81,13.63 25.18,41.18 29.8,58.79 7.64,29.16 -0.47,47.09 15.83,75.57 52.03,6.57 43.61,45.23 57.73,87.71 9.99,30.09 71.51,102.94 64.24,110.1 14.2,21.31 -3.21,94.45 0.94,124.1 3.54,25.36 60.06,29.9 88.45,45.72 53.3,36.84 58.45,16.51 73.56,81.18 7.5,32.07 10.55,91.36 31.66,116.63 26.95,32.24 91.5,6.18 125.7,25.2 74.76,41.59 65.36,41.05 155.5,41.05 56.76,0 87.36,43.86 122.9,43.86 72.04,0 65.18,13.14 65.18,-58.79 0,-62.61 5.03,-188.41 79.15,-94.24 23.09,29.33 126.04,21.49 118.25,-16.79 -0.92,-4.57 80.96,-48.41 92.18,-33.59 11.93,15.74 53.06,56.48 62.39,13.99 3.28,-14.94 96.16,-81.69 113.59,-87.71 70.32,-24.27 90.99,43.76 181.57,6.54 37.44,-21.44 86.07,-104.52 123.84,-36.39 12.73,22.95 39.91,59.14 67.97,38.25 22.21,-16.55 47.63,10.01 60.52,-15.86 6.91,-13.85 29.35,-29.29 44.7,-18.66 17.12,11.84 -4.46,62.46 24.21,57.85 33.57,-5.41 56.25,-39.19 97.76,-25.19l32.15 11.71c2.38,-7.41 8.36,-12.83 21.86,-13.58 59.98,-3.34 -6.79,-46.37 11.17,-78.38 15.52,-27.68 30.99,-53.88 55.42,-71.54l0 0c11.93,-8.63 26.01,-15.22 43.28,-18.97 58.62,-12.73 85.49,-29.19 134.08,-65.31 36.65,-27.25 55.9,-56.37 87.53,-2.8 23.36,39.56 34.58,48.52 81.01,48.52 76.04,0 136.41,-22.74 88.45,65.31 -10.48,19.24 -76.27,90.63 -56.8,107.31 20.33,17.41 78.16,52.51 60.53,85.84 -4.73,8.93 -9.79,16.7 -14.83,23.56 56.55,18.58 117.2,48.21 174.98,58.55 39.43,7.07 52.12,-16.46 53.07,17.73l1.87 67.18c0.51,18.13 -28.05,33.26 -22.35,50.38l29.79 89.58c8.45,25.41 52.15,19.93 52.15,49.45 0,42.34 -0.31,94.73 13.03,134.36 18.09,53.77 77.91,80.26 96.84,137.16 1.72,30.27 41.65,136.23 79.14,136.23 16.24,-32.48 59.54,-83.97 100.57,-83.97 24.98,0 37.35,19.59 58.66,19.59 18.19,0 27.81,-29.86 40.97,-29.86 8.74,17.48 58.11,52.93 78.21,56.92 32.99,6.54 61.12,-45.58 107.08,-55.05 40.47,-8.33 79.2,9.06 51.21,55.98 7.86,13.24 48.54,9.33 64.25,9.33l0.93 0.94c0,61.15 7.3,133.62 67.04,173.55 30.27,20.24 37.14,-5.54 64.25,38.25 18.77,30.34 44.02,32.36 75.42,40.12 2.34,9.52 4.08,45.14 1.86,54.12 -59.39,0 6.52,88.59 6.52,121.3 0,42.95 2.49,24.06 33.52,33.59 23.27,7.15 47.6,46.2 49.35,71.85 1.03,15.07 -23.43,9.62 -22.35,20.52 0.96,9.63 32.33,24.87 27,45.72 -3.31,12.92 -6.26,26.1 -3.72,40.13 3.56,19.73 27.35,48.15 6.52,69.04 -22.51,22.56 1.97,49.46 29.79,49.46l45.45 28.69c31.11,-19.93 105.54,22.23 142.64,34.75 164.9,55.68 214.43,-176.79 377.1,-129.69 20.57,5.95 82.89,91.44 94.98,37.32 4.29,-19.24 -19.59,-37.8 5.58,-42.92 19.7,-4.01 27.01,9.21 47.49,8.4 17.72,-0.7 49.81,-55.56 47.49,7.46 -2,54.41 4.97,54.74 40.97,18.66 42.59,-42.67 50.31,7.86 65.88,41.06l-7.22 62.51c13.11,20.05 33.52,32.26 33.52,56.92 0,52.01 55.56,-5.1 62.38,55.05 3.22,28.36 12.44,61.74 19.55,88.64 5.32,20.09 7.19,44.43 34.46,39.19 48.51,-9.31 42.83,-8.59 42.83,37.33 0,44.9 -6.39,92.79 -40.97,125.03 -5.09,13.71 -17.43,22.77 -16.76,37.32 3.03,65 -48.71,52.48 -60.52,99.84 -5.37,21.56 -78.87,51.85 -40.97,82.11 21.51,17.16 48.36,13.84 61.45,41.98 11.64,25.01 18.73,17.69 40.04,24.26 31.92,9.83 6.53,54.12 39.11,54.12 39.98,0 37.67,-12.97 57.72,23.33l32.59 41.99 0 0 -65.17 49.45c-65.73,29.85 -89.48,187.5 -132.22,248.2 -64.18,91.13 -197.91,43.28 -275.61,105.43 -53.48,42.79 11.17,124.81 11.17,173.55 0,151.55 -99.53,98.7 -208.57,145.56 -116.93,50.24 -130.63,128.08 -195.54,225.8 -42.67,64.22 -93.36,79.89 -165.74,97.98 -96.48,24.11 -266.95,52.15 -342.65,-28.93 -95.53,-41.98 -237.49,-196.62 -346.38,-92.37 -75.9,72.66 -59.88,279.81 -158.29,294.85 -100.84,15.42 -131.47,2.5 -213.22,-49.46 -50.37,-32.01 -96.59,18.78 -139.67,38.26 -28.48,28.58 -26.34,55.98 -73.56,55.98 -27.45,0 -56.69,8.99 -74.49,29.86 -37.88,44.38 -33.83,123.35 -69.83,153.96 -31.78,27.03 -72.31,53.96 -98.7,86.77 -35.54,44.21 -31.93,80.61 -34.45,139.96 -2.6,61.29 -48.71,125.3 -110.81,140.9l-0.93 0.93 2.8 76.51c-14.22,76.34 -0.58,142.17 -91.25,181.02 -70.12,30.05 -152.05,4.55 -215.09,61.58 -38.67,34.97 -53.81,91.29 -94.98,124.1 -55.38,44.15 -109.82,62.85 -169.46,97.04 -70.01,40.15 -108.88,134.43 -139.67,205.27 0,114.54 46.18,205.46 60.52,313.51 14.24,107.22 -40.96,224.22 -40.96,333.11 0,101.16 -231.49,123.98 -306.34,153.02 -27.44,10.65 -31.04,67.67 -42.83,94.24 -23.94,53.98 -39.84,108.45 -75.43,157.69 -20.22,27.99 -129.49,121.49 -127.56,135.29l16.76 119.43c-5,86.42 -84.31,105.72 -114.53,173.55 -25.95,58.27 12.67,120.2 21.42,177.29 6.61,43.09 -6.88,103.38 -20.49,143.69 -16.75,49.65 -84.72,63.35 -116.39,102.64 -23.71,29.4 -20.07,65.39 -38.17,89.57 -19.12,62.3 -35.21,188.84 -92.18,225.8 -61.94,40.2 -176.97,71.54 -224.4,122.24 -39.43,42.14 -73.88,83.42 -106.15,132.49 -34.36,52.23 -102.9,131.59 -146.19,176.35 -22.86,68.82 106.58,74.58 136.88,107.3 58.73,63.44 -22.67,116.91 -50.28,167.02 -20.91,37.93 -12.11,94.5 -12.11,137.16 0,88.53 -88.28,47.4 -99.63,115.7 -18.8,113.2 -141.39,46.77 -180.63,133.43 28.56,114.86 89.03,164.91 36.31,287.39 -47.34,110 -152.18,76.81 -234.64,124.1 -66.91,38.36 -82.47,128.46 -120.12,188.47 -10.9,58.58 -15.43,116.98 -43.76,170.76 -12.09,22.97 -62.56,98.41 -56.8,120.36 18.62,70.95 123.09,74.2 144.33,125.97 33.53,81.69 -10.62,90.91 -56.8,137.16 -28.12,28.15 -45.96,65.05 -70.77,97.04 -54.8,36.53 -160.34,-0.64 -188.08,30.79 -29.01,32.89 20.25,157.54 -4.66,170.75 -125.78,66.75 -109,248.2 -275.61,178.21 -34.63,-14.55 -69.83,-3.27 -105.22,0 -67.73,6.25 -102.01,132.74 -122.9,190.35 4.22,55.69 30.31,68.85 18.62,130.63 -7.61,40.27 -52.97,101.06 -72.63,139.03 -37.55,72.53 -132.56,166.72 -129.42,245.39 3.4,85.4 43.85,107.68 89.38,167.02 19.41,50.48 50.1,81.21 53.08,138.1 1.98,37.72 -13.44,120.44 -45.63,142.76 -109,75.6 -215.12,-72.79 -305.41,84.9 -34.86,60.9 -75.42,140.7 -75.42,211.81 0,40.89 26.12,82.08 22.35,121.3 -5.2,14.36 -61.59,74.02 -74.49,78.38l7.45 161.42 -0.93 0.93c-55.69,0 -90.24,62.68 -143.39,54.12 -72.3,-11.64 -72.5,-49.16 -114.53,38.25 -43.94,91.41 -172.84,289.15 -289.58,165.16 -17.81,-18.92 -30.37,-65.91 -38.18,-73.72 -26.19,15.92 -118.8,35.07 -149.91,33.6 -35.23,-2.96 -95.88,-92.61 -143.39,-113.84 -53.08,-23.73 -91.92,33 -118.25,72.78 -44.6,67.36 -164.05,-106.53 -230.92,-97.97 -99.03,12.67 -144.99,36.84 -229.05,82.11 -77.14,41.53 -166.71,130.81 -147.12,215.54l32.59 140.89c10.3,44.58 -112.42,37.25 -138.74,38.26 -57.72,2.21 -13.58,97.78 -32.59,144.62l-38.17 59.72c-68.52,10.24 -75.48,120.49 -146.19,94.24 -33.94,-12.59 -38.88,-61.88 -85.66,-31.73 -55.22,35.59 -73.96,114.15 -156.43,34.53 -45.85,-44.27 -104.43,-118.9 -162.02,-143.7 -33.57,-14.45 -60.37,-32.2 -84.08,-49.4l-51.86 -3.78c-46.37,-15.45 -82.33,-44.12 -131.29,-28.93 -48.16,14.93 -29.34,76.74 -38.17,112.91 -10.02,41.07 -27.87,44.75 -63.32,65.31 -127.5,33.97 -221.34,-36.55 -334.27,-60.65 -108.99,-23.25 -126.11,-31.45 -212.3,32.66 -43.95,32.68 -124.64,38.53 -179.7,34.52l-58.66 124.1 0 0c-15.23,1 -59.86,36.35 -61.46,1.87 -0.38,-8.18 5.87,-42.26 -1.86,-45.73 -10.36,-4.66 -21.13,13.38 -27,19.6 -18.6,19.67 -20.36,-6.04 -21.42,-19.6 -1.08,-13.9 -23.77,-13.81 -34.45,-16.79 -61.86,-27.18 -39.78,-25.27 -58.66,-72.78 -4.42,-11.11 -76.36,-74.64 -85.66,-74.64 -2.56,-7.84 -24.95,11.54 -27.94,13.99 -15.05,12.31 -32.38,18.52 -48.41,28.93 -23.44,15.21 -39.68,39.38 -67.98,44.78 -35.36,6.76 -93.49,-68.15 -126.63,-88.64 -34.49,-21.34 -33.27,-56.47 -40.04,-91.44l-42.09 7.52 -45.85 59.79 -44.1 49.47 -28.28 52.09 -51.04 3.75c-39.27,0 -43.73,-23.3 -66.11,-41.99 -2.78,-22.59 -16.18,-50.44 -27,-70.91 -7.67,-14.53 -7.32,-52.69 -13.97,-61.58l-111.73 0c-48.52,0 -103.14,18.16 -150.85,6.53 -113,8.6 -179.99,108.4 -297.02,141.82 -34.6,9.88 -72.82,-8.9 -100.56,13.07l-120.12 95.17 -4.65 0c-34.56,-51.66 -116.95,-72.43 -175.05,-83.04 -92.74,-16.95 -81.81,-105.39 -148.98,-136.23 -48.5,0 -108.2,-41.34 -121.05,-93.31 -13.78,-3.41 -50.21,26.66 -54,41.99 -15.76,0 -92.38,-38.83 -95.91,-53.19 -48.97,-12.11 -83.69,120.52 -151.77,104.51 -36.81,-8.66 -215.19,-57.38 -216.95,-19.6 -2.78,59.88 -23.32,62.41 -67.04,94.24 -70.87,51.58 -79.08,28.96 -141.53,51.32 -36.45,13.04 26.33,132.25 72.62,143.69 0,20.46 -90.24,63.72 -105.21,73.72 -26.72,22.62 -35.97,29.66 -67.04,19.59 -26.04,-8.45 -19.44,5.43 -37.25,23.33 -36.04,36.2 -4.39,73.25 -35.38,111.97 -17.04,21.28 -37.01,35.56 -60.52,50.38 -39.04,24.63 -57.58,68.84 -87.53,100.77 -27.73,29.55 -130.03,90.46 -169.46,80.25 -31.01,-8.02 -44.52,-52.03 -63.32,-74.65l-306.34 195.01c0,28.32 56.42,105.33 80.08,121.3 36.49,24.65 -51.28,23 -54.94,14 -32.05,-78.85 -165.28,19.52 -214.15,-33.59 -15.78,-17.14 -130.36,-23.71 -130.36,11.19 0,32.07 -54.12,9.47 -75.42,6.53 -20.93,-2.88 -101.28,-8.5 -112.67,-23.32 -12.64,-16.45 -6.7,-69.1 -13.96,-91.44l-40.04 -123.17 -121.05 0.94c-6.73,27.24 -78.75,115.46 -97.77,139.96 -27.9,61.69 -56.59,68.84 -31.65,142.76 13.85,41.04 17.59,83.17 49.35,114.76 -0.3,1.19 -0.64,1.61 -0.94,2.8 -91.96,18.23 -376.32,-47.88 -300.75,154.89 18.42,49.44 68.87,81.09 -23.28,66.25 -60.7,-9.78 -2.7,-82.77 -108.01,-22.39 -34.92,20.03 -82.03,1.25 -119.18,-4.67 -34.45,-5.48 -69.67,-38.25 -96.84,-41.06 -15.07,-1.55 -52.98,74.33 -67.04,86.78l0 0c-14.8,4.93 -28.18,9.67 -43.76,10.26 -10.96,0.42 -21.97,-0.93 -32.59,-0.93 -33.69,0 -34.37,16.86 -47.48,43.85 -53.56,37.12 -124.16,10.46 -178.78,28.93 -67.88,22.94 26.54,126.26 -42.83,141.83 -24.99,5.6 -72.11,-13.66 -90.32,-30.8 -33.78,-31.77 -81.65,-13.64 -89.39,-60.64 -6.58,-39.9 -141.2,-32.26 -171.32,-78.38 -66.85,-102.38 -177.26,47.4 -198.33,-38.26 -8.37,0 -2.23,42.27 -1.86,49.45l2.79 53.19c1.85,35.4 4.82,89.5 -30.73,109.17 -4.16,8.36 -63.2,90.41 -67.97,48.52 -4.42,-38.77 -33.98,-9.69 -30.73,15.86 2.1,16.54 11.16,37.24 5.59,54.12 -5.26,15.92 -37.81,13.57 -48.42,28.92 -7.9,11.45 30.66,43.21 14.9,69.98 -26.34,44.76 -51.51,5.06 -66.11,70.92 -13.54,61.05 -103.3,55.17 -120.11,93.3 -5.21,11.81 25.44,52.72 -4.66,54.12 -56.69,2.65 -22.17,-33.19 -55.87,18.66 -8.81,13.57 -35,4.67 -48.42,4.67 -46.69,0 -68.47,69.66 -120.11,43.85 -44.98,-22.49 -39.2,-84.5 -81.01,1.87 -20.01,90.27 -1.9,139.58 -101.49,100.77 -74.16,-28.91 -49.95,109.53 -48.42,137.16 3.38,60.95 -52.41,14.16 -85.66,8.4 -27.18,-4.7 -49.51,5.6 -75.42,5.6 -18.06,0 -36.18,-97.75 -71.7,-118.5l-78.21 -45.72c-3.13,-1.82 -58.88,50.41 -70.77,65.31 -44.62,55.96 -16.35,54.98 -82.87,10.26 -69.16,-46.48 -140.31,19.96 -198.86,11.4 -17.44,-39.78 -42.32,-36.29 -86.99,-44.99 -67.91,-13.23 -170.95,-198.5 -268.16,-98.9 -124.6,127.67 -179.37,-156.51 -267.23,-7.47 -70.17,119.04 -119.64,112.04 -223.47,32.66 -45.26,-34.6 -100.87,-16.25 -136.88,-43.85 -80.71,-61.87 -38.97,-68.78 -142.46,-48.52 -26.14,5.12 -57.44,27.61 -80.08,6.53 -16.95,-15.77 -31.7,-19.06 -53.07,-5.6 -108.79,68.55 -65.41,-14.74 -130.36,-17.73 -107.74,-4.97 -127.3,196.91 -252.33,60.65 -60.67,-66.12 -57.54,-33.01 -81.94,-125.96 -10.74,-40.94 -61.93,20.2 -79.14,24.26 -32.9,7.76 -46.8,-62.28 -74.49,-74.65 -64.48,-28.82 -63.96,53.22 -133.15,-27.06 -60.48,-70.18 -112.04,-23.11 -164.81,-59.71 -32.14,-22.29 -18.98,-36.45 -71.7,-28.93 -41.94,5.98 -51.81,34.28 -89.38,2.8 -67.21,-56.32 -78.33,-177.12 -107.08,-257.53 -41.77,-116.82 -114.43,-112.57 -182.5,-193.14 -45.97,-54.41 -82.14,-111.43 -159.22,-98.91 -126.27,20.51 -213.8,11.33 -332.41,-40.12 -30.01,-13.01 -67.3,-51.09 -94.98,-20.52 -32.14,35.5 12.5,86.32 -9.31,108.23 -60.16,60.42 -88.11,-111.14 -133.15,-29.86 -29.57,53.36 -44.22,-43.87 -46.56,-60.65 -8.82,-63.08 -109.65,64.67 -147.11,-16.79 -48.11,-104.62 130.92,-1.3 144.32,-69.05 10.25,-51.81 -93.2,12.96 -94.97,-25.19 -2.01,-43.24 68.04,-58.36 56.79,-106.37 -18.42,-78.54 -82,115.29 -109.87,40.12 -5,-13.51 -4.19,-68.19 -24.21,-69.05 -57.71,-2.5 -27.38,69.36 -34.45,97.04 -8.92,34.91 -68.49,31.24 -57.73,-13.06 8.33,-34.29 37.78,-55.29 20.49,-87.71 -9.22,-17.29 -39.18,42.83 -53.08,52.25 -19.01,12.88 -32.02,-36.95 -25.14,-51.32 40.35,-84.2 16.45,-58.21 -67.97,-60.64 -29.03,-0.83 -48.24,-48.18 -49.35,-74.65 -1.69,-40.09 125.58,-73.14 60.52,-89.57 -28.53,-7.2 -72.15,23.39 -85.66,7.46 -24.54,-28.95 -15.8,-94.26 9.31,-119.43 56.55,-56.68 -90.49,-39.67 -110.8,-63.45 -20.6,-24.11 32.81,-41.59 8.38,-74.65 -21.45,-29.03 -156.23,18.76 -116.39,-28.92 22.28,-26.67 37.19,-9.28 54,-49.45 25.59,-61.14 -22.84,-21.66 -39.1,-49.46 -7,-11.98 55.41,-79.37 -11.18,-59.71 -43.49,12.84 -82.47,15.75 -123.83,29.86l-7.45 -42.93c8.48,-22.71 18.82,-39.87 3.72,-64.38 -23.89,-38.75 29.8,-24.63 29.8,-48.52 0,-15.43 -14.16,-30.15 -18.63,-44.78 -6.16,-20.13 5.3,-51.39 -7.44,-67.19 -23.22,-28.82 -82.24,28.11 -70.77,-46.65 3.11,-20.33 22.37,-30.35 -5.59,-41.05 -31.89,0 -50.58,-21.88 -77.28,6.53 -21.8,23.18 -39.04,5.12 -44.69,-17.73 -14.18,-57.38 -45.64,-14.35 -85.67,-57.85 -27.27,-29.62 -31.33,-25.19 -69.83,-25.19 -57.29,0 -24.74,-53.39 -69.83,-67.18 -82.62,-25.26 -124.84,-76.62 -196.47,-111.97 -82.8,-40.87 -153.64,15.07 -153.64,-120.37 -81.42,0 -83.08,37.25 -135.91,-45.24 -4.75,-13.1 -11.19,-25.74 -22.38,-36.87 -26.68,-26.53 -66.41,-18.44 -85.66,-55.05 -18.65,-35.46 -34.74,-50.28 -64.25,-76.51 -38.62,-34.34 -27.72,-74.28 -26.96,-113.81 0.37,-19.29 -1.67,-38.52 -13.07,-56.94 -20.52,-33.13 -41.73,-52.93 -31.66,-96.11 3.21,-13.8 26.61,-35.74 15.83,-45.72 -19.78,-18.31 -36.77,-22.36 -38.18,-51.32 -1.4,-28.76 -33.8,-30.54 -52.14,-42.92 -25.87,-17.46 -27.18,-60.04 -57.73,-67.18 -49.5,-11.58 -73.76,14.78 -108.94,-38.25 -14.33,-21.6 -33.25,-99.05 -76.35,-50.39 -50.73,57.27 -50.86,-16.34 -74.49,5.6 -14.71,13.66 -39.81,18.56 -42.84,-9.33 -3.79,-34.87 -52.93,1.41 -64.24,-30.79 -18.39,-52.35 4.26,-93.17 -73.56,-30.79 -27.53,22.06 -52.11,-14.71 -61.45,-36.39 -29.49,-68.42 -58.98,-136.87 -88.46,-205.28 -21.98,-51.01 -92.25,-44.43 -95.91,-70.91 -2.61,-18.89 18.5,-37.73 -3.72,-51.32 -44.64,-27.31 -94.07,-4.07 -137.81,-34.52 -10.46,-7.28 -21.67,-6.87 -33.27,-4.54l0 0 -20.73 -44.92c-26.7,-21.31 -91.85,-4.82 -126.63,-17.72 -36.2,-13.44 -50.96,-73.42 -85.67,-96.11 -26.64,-17.4 -40.14,-37.37 -62.38,-59.72 -21.99,-22.08 -28.97,-75.91 -23.28,-106.37 0,-11.49 -1.86,-21.51 -1.86,-31.72l-0.93 -0.93c-58.91,-14.88 -35.42,-53.14 -40.04,-101.71 -7.5,-78.93 -30.26,-62.51 -94.04,-62.51 -35.91,0 -29.39,-51.84 -30.73,-77.45 -3.62,-68.73 -58.59,-38.4 -68.9,-84.91 -6.15,-27.72 -19.6,-27.13 -40.97,-43.85 -21.54,-16.87 -35.21,-28.22 -39.11,-55.99 -8.09,-2 -19.46,-11.11 -31.66,-13.99 -7.93,-1.88 -42.6,-2.36 -45.62,-8.4 -1.92,0 -3.25,-0.39 -3.73,-1.87 -15.48,0 -30.52,-45.53 -31.66,-57.85 -5.91,-66.01 -111.7,-27.55 -107.08,-87.7 4.24,-55.31 -18.8,-62.64 18.63,-110.11 3.5,-4.43 8.87,-23.03 13.96,-22.39 18.1,2.27 64.3,71.92 81.94,25.19 16.35,-43.33 4.88,-97.51 17.69,-139.02 5.45,-17.69 24.21,-40.68 24.21,-56.92 -39.65,0 -159.07,-3.23 -189.95,-18.66 -88.84,-44.42 22.86,-76.16 -8.38,-110.1 -31.33,-34.05 -35.39,-28.95 -59.59,4.66 -22.16,30.76 -53.08,-62.86 -46.55,-83.04 -16.04,-48.3 -109.88,-98.32 -109.88,-141.83 0,-35.16 44.39,-81.96 36.32,-114.77l-1.86 0c-1.5,-4.54 -64.66,-2.79 -74.49,-2.79 -4.32,-13.25 0.37,-102.79 5.58,-104.51l0 -2.8c101.44,-25.08 92.11,-25.71 113.6,-123.16 11.83,-53.69 17.93,-152.5 -50.28,-162.36 -0.74,-2.59 -19.68,-17.08 -23.28,-22.39 -21.94,-9.16 -65.83,-37.45 -81.01,-55.98 -9.72,-11.88 -25.18,-48.75 -37.24,-54.12 -46.73,-20.85 -124.93,9.78 -181.57,-10.27 -9.45,-3.35 -35.35,-14.44 -36.31,-13.06 -26.46,38.28 -49.01,50.39 -98.7,50.39 -62.86,0 -73.85,22.83 -120.12,51.32 -20.66,12.71 -46.87,-4.74 -69.83,5.59 -38.57,17.34 -23.57,21.91 -70.77,18.67 -30.82,-2.12 -55.3,-6.51 -62.38,-41.06l-40.04 -31.72 0 0c25.28,-22.28 51.48,-27.24 69.84,-56.92 11.44,-18.48 24.72,-44.89 41.9,-58.78 18.98,-15.36 40.51,-19.19 55.86,-40.13 21.2,-28.93 35.62,-60.75 67.04,-80.24 44.43,-27.57 40.53,-113.79 61.99,-149 2.44,-0.93 7.21,-3.7 14.37,-8.69 15.87,-11.04 29.01,-17.41 48.41,-15.86 16.74,1.34 23.82,47.07 57.73,13.06 21.4,-21.46 31.67,-14.07 54.94,-26.12 16.85,-8.72 7.69,-31.7 22.35,-41.06l7.76 -41.96c32.7,-70.24 45.58,-7.56 87.21,-16.82 48.33,-10.74 9.19,-283.65 98.7,-283.65 27.17,109.88 47.14,36.57 126.63,57.85 18.46,4.94 42.29,27.7 58.66,16.79 40.88,-27.25 -14.3,-90.3 67.97,-46.65 71.28,37.83 102.92,34.9 190.88,13.99 24.75,-5.88 114.57,150.56 146.19,31.73 22.83,-75.56 88.64,67.52 125.7,15.86 23.05,-32.15 113.6,-9.54 113.6,-45.72 -74.8,0 -89.19,-71.54 -130.36,-112.9 -14.68,-14.74 -35.51,-52.81 -62.38,-40.12 -15.6,7.37 -44.89,40.12 -59.6,40.12 -8.2,-33.16 -56.97,-41.08 -1.86,-67.18 42.63,-20.18 100.9,-67.53 147.12,-72.78 35.55,-4.04 146.18,-6.78 146.18,-60.65 -29.38,-9.72 -50.58,-53.76 -71.69,-58.78 -20.07,-4.78 -52.27,19.64 -55.87,-12.13 -1.35,-11.99 -82.07,-14.75 -63.32,-46.66 12.14,-20.64 30.95,-8.21 0.94,-22.39 -30.17,-14.25 -39.11,-39.41 -39.11,-72.78 27.99,-20.57 38.57,-5.91 64.25,-15.86 14.61,-5.67 -0.92,-36.01 12.1,-45.72 31.23,-23.28 83.33,15.42 64.25,-52.25 -16.95,-60.08 181.15,-17.25 110.8,-95.18 -38.83,-43.03 -10.06,-76.51 -75.42,-76.51 -33.49,0 -79.7,0.83 -112.67,6.53 -26.57,4.6 -54.96,16.75 -81,18.67 -13.53,1 -19.68,-23.12 -27.01,-36.39 -22.66,-40.99 24.17,-32.24 37.25,-61.59 16.68,-37.46 12.13,-66.72 -13.97,-99.84 -29.75,-68.2 -79.02,-11.46 -125.7,-48.51 -6.2,-4.91 -27.93,-92.37 -27.93,-101.71 0,-28.2 66.73,5 81.01,-28.92 12.59,-29.88 -2.99,-60.36 2.79,-90.51 3.87,-20.18 24.82,-30.88 15.83,-54.12 -7.31,-18.9 -24.34,-123.06 7.45,-121.3 37.55,2.09 38.18,39.45 85.66,26.13 64.1,-17.97 30.53,-76.1 47.49,-116.64 9.69,-23.14 40.53,-12.97 44.69,-27.99 3.39,-12.21 -24.79,-58.7 -27.93,-75.58 -6.06,-79.31 -45.49,-133.9 -68.91,-204.34 -17.82,-53.63 -107.07,-79.01 -107.07,-139.96 40.06,0 58.36,6.39 66.11,-38.25 3,-17.33 8.4,-37.73 7.44,-55.05 -3.37,-60.74 -28.69,-34 21.42,-78.38 8.07,-7.14 -20.4,-24.08 -25.14,-27.06 -20.24,-12.76 -25.63,-48.99 -35.38,-69.98 7.84,-47.24 55.97,-100.89 115.46,-76.51 32.3,13.24 122.05,227.67 132.21,90.5 7.96,-107.38 116.46,-70.76 144.33,-0.93l110.8 -45.72c33.23,-13.71 -13.56,-51.34 37.25,-79.31l132.22 -72.78c30.81,-16.96 25.01,-55.05 61.45,-55.05 37.91,0 78.19,-104.84 104.28,-135.29 49.46,-57.74 -34.9,-105.06 -50.28,-163.29 9.26,-18.57 22.35,-54 40.04,-66.25 35.49,-24.56 5.9,37.5 43.77,19.6 19.87,-9.38 72.05,-38.11 75.42,-61.59 30.5,-6.04 58.37,-45.06 33.52,-72.78 -5.9,-6.59 36.05,-64.26 43.76,-68.11 0,-1.29 -56.34,-13.61 -67.97,-34.52 -12.73,-22.87 -23.35,-41.07 -29.8,-67.18 -1.89,-0.47 -3.26,-1.85 -3.72,-3.74 -22.33,-5.52 -47.34,8.36 -66.11,-8.39 -60.29,-53.78 1.26,-36.09 16.76,-83.98 9.42,-29.08 -15.67,-77.39 -31.66,-98.91 10.13,-16.91 25.14,-35.44 25.14,-55.98 -1.71,-0.42 -1.44,-0.16 -1.86,-1.87 -24.04,0 -52.7,-13.82 -63.32,-37.32 10.41,-62.7 -23.55,-65.87 -67.04,-95.17 -28.88,-19.47 -37.26,-1.49 -64.25,13.99 -43.35,24.85 -96.51,35.46 -146.18,35.46 -50.3,0 -97.47,-51.02 -134.08,-82.11 -19.15,-21.67 -100.14,-83.97 -127.57,-83.97 -11.78,35.6 -16.27,63.29 -59.59,41.98 -30.52,-15 -48.07,2.65 -60.52,-33.59 -13.24,-38.52 -243.96,-50.69 -243.96,-96.1 9.11,-2.29 43.08,-13.42 45.63,-22.4 83.61,-11.83 43.42,-132.88 68.9,-161.42 20.26,-22.71 23.55,74.8 67.97,80.25 40.96,5.02 116.7,-151.18 155.5,-139.96 50.34,14.57 30.2,-30.79 81.94,-30.79 20.99,0 83.8,-31.49 86.59,-51.32l-34.45 -62.52c-17.59,-31.94 -17.65,-46.72 21.42,-52.25 2,-14.22 -0.51,-29.45 2.79,-43.85 1.06,-45.19 23.8,-54.57 65.18,-35.46 47.89,22.13 109.53,-28.57 166.67,-25.19 14.42,0.85 23.15,14.9 44.69,13.99 18.34,-0.77 34.42,-11.19 52.15,-11.19 0,148.53 211.63,85.39 292.37,129.69 57.92,31.77 104.47,246.89 133.15,311.65l308.2 -9.33c28.34,-58.42 17.86,-97.92 68.9,-145.56 15.47,-14.43 71.38,-71.85 90.32,-71.85 -12.88,17.24 -11.5,104.77 -2.79,126.9 8.64,21.98 1.28,50.23 22.34,58.78 134.09,54.43 311.63,-21.81 444.15,-52.25 43.56,-3.09 86.94,-20.38 130.36,-27.06 80.29,-12.34 187.04,-29.86 266.3,-29.86l0.93 -0.93c-1.25,-5.06 -59.45,-55.34 -67.97,-65.32 -43.36,-50.73 -35.3,-127.45 -38.18,-192.21 -1.62,-36.64 -2.98,-67.05 -14.9,-101.7 -14.65,-42.61 -55.42,-72.04 -42.06,-122.26 5.13,-11.58 25.23,-40.99 36.47,-49.43 8.56,-6.44 52.97,-31.12 34.46,-45.72 -9.32,-7.34 -34.46,-25.44 -34.46,-37.32 0,-45.02 -24.04,-24.09 -44.69,-54.12 -9.77,-14.2 -2.64,-20.22 2.79,-32.65 4.4,-10.1 3.73,-21.99 3.73,-33.59l-158.29 -122.24c8.97,-13.07 19.24,-39.56 21.41,-55.05 30.03,-7.38 60.13,29.2 95.91,16.8 27.79,-9.62 53.4,-40.44 82.87,-52.25 25.85,-10.35 88.65,6.65 92.18,-5.6 6.35,-22.04 47.64,-97.6 65.18,-106.37l0 -1.87c1.43,-0.47 0.93,0.02 0.93,-1.86 1.43,-0.48 0.93,0.02 0.93,-1.87 -63.64,-21.06 -18.71,-58.78 -2.79,-97.04l31.66 -81.18 -81.01 -38.25 97.77 -150.23 -69.84 -55.98 176.91 -164.22 60.53 -39.19 0 0c43.99,-20.27 117.46,-75.59 166.67,-69.05 16.34,2.17 28.29,18.59 42.83,17.73 23.79,-1.4 40.44,-27.99 71.7,-27.99 63.18,0 25.06,53.07 44.69,84.91 33.23,53.92 131.2,57.89 187.15,60.65l140.03 -4.04c32.63,29.64 61.19,68.72 84.37,111.34 48.34,88.85 132.64,97.9 183.43,173.55 29.99,44.67 50.77,54.69 85.67,87.71 43.62,41.27 56.72,133.07 83.8,187.55 55.51,111.65 182.85,134.84 286.78,177.28 37.32,15.23 64.2,54.16 80.08,90.51 8.59,19.68 10.99,45.75 16.76,66.25 8.05,28.56 35.74,43.93 41.9,70.91 26.72,116.91 112.07,-6.83 181.57,27.99 58.62,29.37 118.42,109.92 175.05,152.09 54.83,40.82 100.28,66.04 146.19,117.57 28.36,31.83 60.67,83.19 102.42,96.1 69.58,21.52 143.03,7.16 205.78,53.19 16.03,11.75 31.48,19.77 46.76,25.08 54.61,19 107.51,-0.59 178.57,3.84 55.43,3.45 115.25,-8.14 172.25,2.8 63,12.09 71.79,3 127.57,-17.73 101.25,-37.65 109.96,26.33 202.05,-71.84 32.03,-34.15 95.93,39.07 126.63,52.25 45.44,19.52 91.36,-33.31 128.5,-50.39 101.25,-46.59 327.05,7.12 452.96,48.17 15.46,5.04 28.81,12.19 41.46,14.35 51.75,8.84 79.77,32.68 137.81,18.66 127.58,-30.83 189.44,5.21 306.34,36.39 89.6,23.89 164.6,14.96 252.33,-12.13 123.36,-38.09 180.46,-85.56 311.92,-88.64 58.29,-1.37 83.29,-52.88 132.22,-60.65 57.26,-9.1 70.41,42.99 108.01,49.45 103.43,17.77 122.01,-14.77 207.64,-58.78 108.95,-56 240.07,22.39 351.97,22.39 130.04,0 263.34,-59.06 352.89,-148.36 40.01,-39.9 14.97,-129.76 83.8,-144.62 49.64,-10.72 123.85,-70.71 175.98,-60.65 73.57,14.2 147.15,28.44 220.73,42.65 4.64,-8.93 6.49,-20.02 13.92,-26.79 51.26,-46.71 -2.7,-46.65 -29.8,-46.65 -103.81,0 -53.66,-82.92 -98.7,-131.56 -18.58,-20.07 -41.08,-13.67 -64.25,-19.6 -23.67,-6.06 -29.11,-22.55 -34.45,-42.92 -3.16,-12.08 -169.55,-46.54 -119.18,-97.04 35.14,-35.23 18.74,-37.38 -12.11,-70.91 -13.64,-14.82 -2.84,-23.78 8.38,-36.39 11.66,-13.11 1.05,-31.76 -2.79,-48.52 -19.18,-83.68 -4.96,-49.54 35.38,-109.17 31.65,-46.79 -20.4,-66.08 -3.72,-98.9 16.33,-32.14 44.3,-37.08 22.35,-76.52 -18.75,-33.69 -85.47,-85.31 -54.01,-125.03 23.91,-30.18 70.67,-25.07 84.73,-41.05 22.25,-25.28 48.58,18.75 64.25,7.46 29.23,-21.06 83.15,-60.7 85.66,-100.77 1.07,-17.17 -21.81,-24.72 -26.07,-41.99 -7.16,-28.97 -8.37,-64.17 13.04,-83.04 57,-50.24 22.65,-41.47 9.31,-82.11l0 0z"/>
  <path class="fil1 str1" d="M25354.89 16761.92l2749.49 0 0 1592.9 -2749.49 0 0 -1592.9z"/>
  <path class="fil2" d="M28283.11 18261.92c0,-17.45 4.47,-34.48 13.46,-51.13 8.93,-16.61 21.77,-29.59 38.43,-38.86 16.69,-9.26 34.1,-13.92 52.16,-13.92 17.92,0 35.18,4.56 51.69,13.74 16.56,9.12 29.4,21.92 38.53,38.43 9.17,16.51 13.73,33.77 13.73,51.74 0,18.01 -4.56,35.27 -13.73,51.78 -9.13,16.51 -21.97,29.35 -38.53,38.53 -16.51,9.17 -33.77,13.78 -51.69,13.78 -18.06,0 -35.47,-4.66 -52.16,-13.97 -16.66,-9.36 -29.5,-22.34 -38.43,-38.95 -8.99,-16.65 -13.46,-33.68 -13.46,-51.17zm17.22 0c0,14.62 3.76,28.88 11.24,42.7 7.48,13.83 18.2,24.65 32.13,32.46 13.92,7.81 28.41,11.71 43.46,11.71 15,0 29.35,-3.85 43.08,-11.52 13.74,-7.67 24.46,-18.39 32.13,-32.17 7.67,-13.79 11.52,-28.18 11.52,-43.18 0,-14.96 -3.85,-29.36 -11.52,-43.14 -7.67,-13.78 -18.39,-24.5 -32.13,-32.12 -13.73,-7.62 -28.08,-11.43 -43.08,-11.43 -15.05,0 -29.54,3.9 -43.46,11.66 -13.93,7.76 -24.65,18.58 -32.13,32.46 -7.48,13.87 -11.24,28.08 -11.24,42.57zm103.57 -33.35l5.08 -16.94c11.53,2.78 20.7,8.61 27.52,17.55 6.87,8.98 10.3,19.85 10.3,32.59 0,16.19 -5.22,29.31 -15.71,39.42 -10.49,10.11 -24.98,15.15 -43.55,15.15 -12.14,0 -22.68,-2.31 -31.61,-6.92 -8.99,-4.56 -15.71,-11.15 -20.28,-19.61 -4.56,-8.52 -6.82,-18.25 -6.82,-29.16 0,-12.23 2.92,-22.39 8.8,-30.48 5.88,-8.09 13.88,-13.6 23.94,-16.56l4.23 16.37c-6.91,2.77 -12.23,6.82 -15.89,12.23 -3.72,5.41 -5.55,11.71 -5.55,19 0,10.58 3.76,19.33 11.28,26.2 7.53,6.87 18.35,10.3 32.37,10.3 14.06,0 24.69,-3.24 31.89,-9.74 7.19,-6.49 10.81,-14.86 10.81,-25.16 0,-8.28 -2.39,-15.57 -7.24,-21.83 -4.8,-6.25 -11.33,-10.39 -19.57,-12.41z"/>
  <path id="1" class="fil2" d="M28488.57 17966.76l-18.58 0c14.44,9.27 21.68,22.91 21.68,40.92 0,11.67 -3.19,22.39 -9.64,32.13 -6.4,9.78 -15.38,17.35 -26.86,22.76 -11.52,5.37 -24.74,8.05 -39.69,8.05 -14.59,0 -27.8,-2.45 -39.7,-7.29 -11.86,-4.9 -20.98,-12.19 -27.29,-21.92 -6.35,-9.69 -9.5,-20.61 -9.5,-32.6 0,-8.84 1.88,-16.7 5.6,-23.56 3.72,-6.87 8.61,-12.47 14.58,-16.8l-72.67 0 0 -24.83 202.07 0 0 23.14zm-73.05 78.46c18.72,0 32.69,-3.95 41.96,-11.9 9.26,-7.91 13.87,-17.27 13.87,-28.04 0,-10.86 -4.42,-20.08 -13.26,-27.7 -8.84,-7.57 -22.34,-11.38 -40.5,-11.38 -19.94,0 -34.62,3.85 -43.98,11.61 -9.36,7.72 -14.01,17.27 -14.01,28.6 0,11.06 4.46,20.27 13.45,27.71 8.98,7.38 23.14,11.1 42.47,11.1z"/>
  <path id="2" class="fil2" d="M28427.89 17914.22l-24.83 0 0 -76.76 24.83 0 0 76.76z"/>
  <path id="3" class="fil2" d="M28488.57 17810.36l-146.47 0 0 -22.29 20.69 0c-7.15,-4.56 -12.93,-10.68 -17.26,-18.3 -4.37,-7.62 -6.54,-16.27 -6.54,-26.01 0,-10.82 2.26,-19.71 6.73,-26.62 4.52,-6.92 10.77,-11.81 18.86,-14.63 -17.07,-11.67 -25.59,-26.77 -25.59,-45.39 0,-14.58 4,-25.83 12.04,-33.63 8.05,-7.86 20.42,-11.81 37.12,-11.81l100.42 0 0 24.84 -92.19 0c-9.88,0 -17.03,0.84 -21.4,2.44 -4.38,1.6 -7.86,4.52 -10.54,8.8 -2.68,4.23 -4,9.22 -4,14.91 0,10.35 3.44,18.91 10.26,25.73 6.86,6.82 17.82,10.2 32.87,10.2l85 0 0 24.84 -95.06 0c-11.01,0 -19.29,2.02 -24.79,6.07 -5.5,4.04 -8.28,10.67 -8.28,19.85 0,6.96 1.84,13.4 5.51,19.33 3.66,5.93 9.03,10.21 16.13,12.89 7.05,2.63 17.26,3.95 30.57,3.95l75.92 0 0 24.83z"/>
  <path id="4" class="fil2" d="M28470.23 17479.6c7.85,9.22 13.35,18.11 16.6,26.62 3.25,8.52 4.84,17.64 4.84,27.43 0,16.08 -3.9,28.45 -11.75,37.11 -7.81,8.65 -17.83,12.98 -30.01,12.98 -7.15,0 -13.69,-1.65 -19.62,-4.89 -5.93,-3.29 -10.63,-7.57 -14.2,-12.84 -3.58,-5.32 -6.31,-11.24 -8.14,-17.88 -1.27,-4.89 -2.49,-12.27 -3.72,-22.1 -2.35,-20.04 -5.22,-34.86 -8.51,-44.31 -3.39,-0.1 -5.55,-0.14 -6.44,-0.14 -10.07,0 -17.17,2.35 -21.31,7.05 -5.6,6.35 -8.37,15.81 -8.37,28.32 0,11.71 2.07,20.36 6.16,25.92 4.09,5.59 11.38,9.68 21.78,12.37l-3.39 24.27c-10.4,-2.21 -18.82,-5.84 -25.21,-10.92 -6.4,-5.08 -11.29,-12.41 -14.77,-22.01 -3.44,-9.55 -5.18,-20.7 -5.18,-33.3 0,-12.51 1.46,-22.72 4.42,-30.57 2.97,-7.81 6.64,-13.6 11.11,-17.27 4.46,-3.67 10.11,-6.25 16.93,-7.76 4.23,-0.8 11.85,-1.22 22.81,-1.22l32.93 0c23,0 37.53,-0.52 43.69,-1.55 6.17,-0.99 12.05,-3.06 17.69,-6.07l0 25.96c-5.22,2.5 -11.34,4.1 -18.34,4.8zm-55.04 1.98c3.67,9.03 6.78,22.57 9.32,40.64 1.45,10.25 3.1,17.49 4.93,21.73 1.84,4.23 4.52,7.48 8,9.78 3.53,2.31 7.43,3.48 11.76,3.48 6.54,0 12.04,-2.49 16.42,-7.52 4.37,-5.04 6.58,-12.38 6.58,-22.02 0,-9.55 -2.07,-18.06 -6.25,-25.54 -4.14,-7.43 -9.84,-12.93 -17.03,-16.41 -5.6,-2.69 -13.83,-4 -24.7,-4l-9.03 -0.14z"/>
  <path id="5" class="fil2" d="M28544.73 17418.31l-202.63 0 0 -22.57 19.24 0c-7.44,-5.32 -13.03,-11.34 -16.75,-18.07 -3.72,-6.68 -5.6,-14.81 -5.6,-24.36 0,-12.51 3.2,-23.52 9.65,-33.07 6.39,-9.55 15.47,-16.74 27.14,-21.63 11.71,-4.85 24.5,-7.3 38.47,-7.3 14.91,0 28.37,2.69 40.36,8.05 11.95,5.36 21.12,13.17 27.52,23.42 6.35,10.21 9.54,20.98 9.54,32.27 0,8.28 -1.74,15.71 -5.22,22.25 -3.48,6.58 -7.85,11.94 -13.17,16.18l71.45 0 0 24.83zm-128.5 -22.57c18.77,0 32.69,-3.81 41.67,-11.39 8.99,-7.62 13.45,-16.84 13.45,-27.65 0,-11.01 -4.65,-20.42 -13.97,-28.23 -9.31,-7.85 -23.7,-11.76 -43.22,-11.76 -18.63,0 -32.55,3.81 -41.82,11.48 -9.26,7.67 -13.87,16.79 -13.87,27.42 0,10.54 4.94,19.85 14.77,27.94 9.87,8.14 24.17,12.19 42.99,12.19z"/>
  <path id="6" class="fil2" d="M28444.83 17271.23l-3.96 -24.55c9.84,-1.37 17.36,-5.22 22.63,-11.53 5.22,-6.3 7.85,-15.14 7.85,-26.43 0,-11.43 -2.3,-19.9 -6.96,-25.45 -4.61,-5.5 -10.06,-8.28 -16.32,-8.28 -5.6,0 -10.02,2.5 -13.22,7.44 -2.21,3.48 -4.98,11.94 -8.42,25.4 -4.56,18.15 -8.51,30.71 -11.85,37.77 -3.39,7 -7.99,12.32 -13.92,15.94 -5.88,3.62 -12.42,5.46 -19.57,5.46 -6.54,0 -12.56,-1.51 -18.11,-4.47 -5.55,-3.01 -10.16,-7.06 -13.83,-12.18 -2.82,-3.86 -5.22,-9.13 -7.19,-15.76 -1.98,-6.68 -2.97,-13.78 -2.97,-21.4 0,-11.48 1.65,-21.54 4.99,-30.2 3.29,-8.7 7.81,-15.1 13.45,-19.24 5.69,-4.09 13.27,-6.96 22.77,-8.51l3.38 24.27c-7.62,1.08 -13.59,4.28 -17.87,9.55 -4.28,5.27 -6.4,12.7 -6.4,22.34 0,11.34 1.88,19.47 5.65,24.32 3.76,4.84 8.18,7.29 13.21,7.29 3.2,0 6.12,-0.99 8.71,-3.01 2.63,-2.02 4.84,-5.18 6.58,-9.5 0.94,-2.5 3.06,-9.74 6.35,-21.87 4.66,-17.5 8.52,-29.73 11.48,-36.69 2.96,-6.96 7.34,-12.42 12.98,-16.37 5.69,-4 12.75,-5.98 21.21,-5.98 8.24,0 16,2.4 23.29,7.25 7.29,4.84 12.93,11.8 16.93,20.88 4,9.13 5.97,19.43 5.97,30.91 0,19 -3.95,33.53 -11.8,43.5 -7.9,9.98 -19.57,16.33 -35.04,19.1z"/>
  <path id="7" class="fil2" d="M28488.57 17113.19l-28.22 0 0 -28.22 28.22 0 0 28.22z"/>
  <path id="8" class="fil2" d="M28434.95 16946.16l3.38 -24.27c16.7,2.68 29.73,9.45 39.19,20.41 9.45,10.96 14.15,24.46 14.15,40.41 0,19.99 -6.53,36.08 -19.61,48.21 -13.08,12.18 -31.8,18.25 -56.16,18.25 -15.81,0 -29.59,-2.63 -41.39,-7.85 -11.86,-5.22 -20.75,-13.17 -26.63,-23.9 -5.92,-10.68 -8.89,-22.29 -8.89,-34.9 0,-15.85 4,-28.88 12.04,-38.95 8.05,-10.11 19.48,-16.6 34.25,-19.42l3.67 23.99c-9.83,2.3 -17.22,6.35 -22.2,12.23 -4.94,5.83 -7.44,12.88 -7.44,21.16 0,12.51 4.47,22.67 13.41,30.53 8.98,7.81 23.09,11.71 42.47,11.71 19.66,0 33.92,-3.76 42.81,-11.29 8.89,-7.57 13.35,-17.4 13.35,-29.49 0,-9.78 -2.96,-17.92 -8.93,-24.41 -5.93,-6.54 -15.1,-10.68 -27.47,-12.42z"/>
  <path id="9" class="fil2" d="M28415.33 16910.04c-27.04,0 -47.08,-7.53 -60.11,-22.63 -10.82,-12.56 -16.23,-27.94 -16.23,-46.05 0,-20.08 6.59,-36.54 19.76,-49.34 13.12,-12.75 31.33,-19.14 54.51,-19.14 18.82,0 33.59,2.82 44.36,8.46 10.77,5.65 19.14,13.88 25.12,24.7 5.97,10.77 8.93,22.58 8.93,35.32 0,20.51 -6.53,37.07 -19.66,49.72 -13.12,12.65 -32.03,18.96 -56.68,18.96zm0.05 -25.4c18.72,0 32.74,-4.1 42,-12.28 9.32,-8.23 13.97,-18.53 13.97,-31 0,-12.32 -4.65,-22.57 -14.01,-30.81 -9.36,-8.18 -23.61,-12.27 -42.76,-12.27 -18.06,0 -31.75,4.14 -41.01,12.37 -9.32,8.23 -13.97,18.48 -13.97,30.71 0,12.47 4.61,22.77 13.87,31 9.27,8.18 23.24,12.28 41.91,12.28z"/>
  <path id="10" class="fil2" d="M28488.57 16743.76l-146.47 0 0 -22.29 20.69 0c-7.15,-4.56 -12.93,-10.68 -17.26,-18.3 -4.37,-7.62 -6.54,-16.27 -6.54,-26.01 0,-10.82 2.26,-19.71 6.73,-26.62 4.52,-6.92 10.77,-11.81 18.86,-14.63 -17.07,-11.67 -25.59,-26.77 -25.59,-45.39 0,-14.58 4,-25.83 12.04,-33.63 8.05,-7.86 20.42,-11.81 37.12,-11.81l100.42 0 0 24.84 -92.19 0c-9.88,0 -17.03,0.84 -21.4,2.44 -4.38,1.6 -7.86,4.52 -10.54,8.8 -2.68,4.23 -4,9.22 -4,14.91 0,10.35 3.44,18.91 10.26,25.73 6.86,6.82 17.82,10.2 32.87,10.2l85 0 0 24.84 -95.06 0c-11.01,0 -19.29,2.02 -24.79,6.07 -5.5,4.04 -8.28,10.67 -8.28,19.85 0,6.96 1.84,13.4 5.51,19.33 3.66,5.93 9.03,10.21 16.13,12.89 7.05,2.63 17.26,3.95 30.57,3.95l75.92 0 0 24.83z"/>
  <g id="_3029122342112">
   <g>
    <path class="fil3 str2" d="M25486.29 17363.36l499.82 0 0 99.16 -499.82 0 0 -99.16z"/>
    <path class="fil4 str2" d="M25986.11 17363.36l499.82 0 0 99.16 -499.82 0 0 -99.16z"/>
    <path class="fil3 str2" d="M26485.92 17363.36l499.82 0 0 99.16 -499.82 0 0 -99.16z"/>
    <path class="fil4 str2" d="M26985.86 17363.36l499.82 0 0 99.16 -499.82 0 0 -99.16z"/>
    <path class="fil3 str2" d="M27485.69 17363.36l499.82 0 0 99.16 -499.82 0 0 -99.16z"/>
    <path class="fil4 str2" d="M27086.85 17662.3l799.41 0 0 99.16 -799.41 0 0 -99.16z"/>
    <path class="fil3 str2" d="M26287.44 17662.3l799.42 0 0 99.16 -799.42 0 0 -99.16z"/>
    <path class="fil4 str2" d="M25488.04 17662.3l799.41 0 0 99.16 -799.41 0 0 -99.16z"/>
   </g>
   <path class="fil2" d="M26466.01 16933.95l-13.47 29.28 -70.55 0 -15.47 31.28c30.81,4.52 55.04,15.81 72.79,33.98 15.23,15.64 22.82,33.99 22.82,55.15 0,12.29 -2.47,23.7 -7.47,34.11 -5,10.46 -11.29,19.4 -18.87,26.75 -7.53,7.35 -16,13.29 -25.29,17.75 -13.17,6.3 -26.69,9.47 -40.57,9.47 -13.99,0 -24.16,-2.35 -30.57,-7.11 -6.35,-4.71 -9.53,-9.94 -9.53,-15.64 0,-3.18 1.3,-6 3.94,-8.47 2.65,-2.47 6,-3.65 10,-3.65 2.94,0 5.58,0.42 7.82,1.36 2.23,0.88 6,3.23 11.4,6.99 8.59,5.94 17.35,8.88 26.17,8.88 13.4,0 25.22,-5.11 35.39,-15.29 10.12,-10.17 15.23,-22.57 15.23,-37.21 0,-14.12 -4.52,-27.34 -13.58,-39.57 -9.11,-12.29 -21.58,-21.76 -37.57,-28.4 -12.46,-5.18 -29.52,-8.18 -51.09,-9l44.8 -90.66 83.67 0z"/>
   <path id="1" class="fil2" d="M26501.99 17052.25c0,-26.64 4,-49.51 12.05,-68.74 8.06,-19.22 18.7,-33.57 32.05,-42.98 10.29,-7.47 20.99,-11.17 31.98,-11.17 17.94,0 33.99,9.11 48.22,27.34 17.81,22.64 26.69,53.27 26.69,91.96 0,27.05 -3.88,50.09 -11.7,69.03 -7.82,18.93 -17.76,32.63 -29.87,41.21 -12.11,8.53 -23.81,12.82 -35.04,12.82 -22.29,0 -40.81,-13.11 -55.62,-39.39 -12.53,-22.17 -18.76,-48.86 -18.76,-80.08zm33.87 4.23c0,32.1 3.94,58.33 11.82,78.67 6.52,17.11 16.28,25.63 29.22,25.63 6.17,0 12.58,-2.76 19.22,-8.34 6.65,-5.59 11.65,-14.88 15.11,-27.99 5.24,-19.7 7.88,-47.57 7.88,-83.43 0,-26.64 -2.76,-48.86 -8.23,-66.62 -4.11,-13.23 -9.46,-22.58 -15.99,-28.05 -4.65,-3.82 -10.35,-5.7 -16.99,-5.7 -7.76,0 -14.7,3.53 -20.76,10.52 -8.23,9.53 -13.87,24.46 -16.81,44.92 -3,20.41 -4.47,40.52 -4.47,60.39z"/>
   <path id="2" class="fil2" d="M26811.74 16922.66l0 157.16 39.98 -36.63c8.52,-7.82 13.46,-12.76 14.81,-14.82 0.95,-1.41 1.42,-2.76 1.42,-4.17 0,-2.29 -1,-4.23 -2.89,-5.94 -1.88,-1.65 -4.99,-2.59 -9.4,-2.82l0 -5.65 68.61 0 0 5.65c-9.35,0.23 -17.17,1.7 -23.4,4.35 -6.23,2.7 -13.05,7.47 -20.52,14.29l-40.63 37.22 40.34 51.33c11.29,14.05 18.81,23.04 22.58,26.98 5.58,5.24 10.4,8.65 14.58,10.17 2.94,1.12 7.99,1.71 15.17,1.71l0 6.35 -76.73 0 0 -6.35c4.41,-0.12 7.35,-0.76 8.88,-1.94 1.58,-1.24 2.35,-2.88 2.35,-5.06 0,-2.64 -2.3,-6.88 -6.88,-12.7l-48.27 -61.79 0 52.21c0,10.23 0.7,16.93 2.11,20.17 1.47,3.17 3.47,5.46 6.12,6.88 2.64,1.35 8.35,2.11 17.17,2.23l0 6.35 -80.08 0 0 -6.35c7.99,0 14.05,-1 18.05,-2.94 2.41,-1.23 4.23,-3.17 5.46,-5.76 1.71,-3.76 2.59,-10.29 2.59,-19.52l0 -143.94c0,-18.05 -0.41,-29.1 -1.18,-33.16 -0.82,-4.05 -2.11,-6.82 -3.99,-8.35 -1.83,-1.58 -4.24,-2.35 -7.18,-2.35 -2.41,0 -6.05,1 -10.82,2.94l-2.93 -6.35 46.74 -19.4 7.94 0z"/>
   <path id="3" class="fil2" d="M26988.48 17038.96c11.41,-11.53 18.17,-18.17 20.22,-19.93 5.12,-4.36 10.65,-7.77 16.59,-10.18 5.93,-2.41 11.81,-3.64 17.63,-3.64 9.88,0 18.29,2.88 25.4,8.64 7.06,5.76 11.82,14.11 14.17,25.11 11.88,-13.88 21.88,-22.93 30.05,-27.28 8.17,-4.3 16.58,-6.47 25.22,-6.47 8.35,0 15.82,2.17 22.35,6.47 6.46,4.29 11.64,11.34 15.4,21.16 2.53,6.65 3.82,17.11 3.82,31.4l0 67.97c0,9.82 0.71,16.58 2.18,20.23 1.12,2.46 3.23,4.64 6.23,6.4 3.06,1.77 8,2.65 14.88,2.65l0 6.35 -77.26 0 0 -6.35 3.29 0c6.7,0 11.99,-1.29 15.76,-3.94 2.64,-1.82 4.52,-4.76 5.64,-8.76 0.47,-1.94 0.71,-7.47 0.71,-16.58l0 -67.91c0,-12.88 -1.53,-21.93 -4.65,-27.22 -4.52,-7.35 -11.7,-11.06 -21.63,-11.06 -6.06,0 -12.23,1.53 -18.41,4.59 -6.11,3 -13.58,8.7 -22.34,16.93l-0.35 1.94 0.7 7.41 0 75.32c0,10.7 0.59,17.4 1.77,20.05 1.23,2.59 3.46,4.82 6.76,6.58 3.29,1.77 8.93,2.65 16.87,2.65l0 6.35 -79.37 0 0 -6.35c8.64,0 14.58,-1 17.81,-3.06 3.24,-2.06 5.47,-5.17 6.7,-9.29 0.59,-1.94 0.89,-7.58 0.89,-16.93l0 -67.91c0,-12.88 -1.88,-22.17 -5.65,-27.87 -5.05,-7.41 -12.05,-11.11 -21.11,-11.11 -6.17,0 -12.28,1.7 -18.34,5.05 -9.47,5.06 -16.82,10.82 -21.93,17.17l0 84.67c0,10.29 0.7,16.93 2.12,20.05 1.41,3.06 3.52,5.35 6.35,6.94 2.76,1.53 8.4,2.29 16.93,2.29l0 6.35 -77.97 0 0 -6.35c7.24,0 12.29,-0.76 15.17,-2.29 2.89,-1.59 5.06,-4 6.59,-7.41 1.47,-3.35 2.23,-9.88 2.23,-19.58l0 -60.33c0,-17.28 -0.53,-28.45 -1.53,-33.51 -0.82,-3.82 -2.05,-6.41 -3.82,-7.82 -1.7,-1.47 -4.05,-2.18 -6.99,-2.18 -3.24,0 -7.06,0.89 -11.53,2.59l-2.58 -6.35 47.62 -19.4 7.41 0 0 33.75z"/>
   <path class="fil2" d="M26321.19 17948.63c6.64,-15.76 15.11,-27.93 25.28,-36.51 10.17,-8.59 22.87,-12.88 38.04,-12.88 18.76,0 33.11,6.06 43.1,18.23 7.59,9.05 11.41,18.75 11.41,29.1 0,16.99 -10.7,34.57 -32.11,52.68 14.41,5.65 25.29,13.64 32.7,24.11 7.35,10.41 11.05,22.7 11.05,36.81 0,20.22 -6.47,37.69 -19.34,52.5 -16.76,19.29 -41.1,28.93 -72.97,28.93 -15.76,0 -26.46,-1.94 -32.16,-5.88 -5.71,-3.88 -8.53,-8.11 -8.53,-12.58 0,-3.35 1.35,-6.23 4.06,-8.76 2.7,-2.53 5.94,-3.82 9.76,-3.82 2.88,0 5.82,0.47 8.82,1.41 1.94,0.59 6.35,2.7 13.29,6.35 6.88,3.64 11.7,5.82 14.34,6.52 4.24,1.3 8.82,1.94 13.64,1.94 11.76,0 21.93,-4.52 30.64,-13.64 8.7,-9.05 13.05,-19.81 13.05,-32.22 0,-9.05 -2,-17.93 -6.06,-26.51 -3,-6.47 -6.29,-11.35 -9.82,-14.65 -4.99,-4.58 -11.76,-8.76 -20.4,-12.52 -8.64,-3.7 -17.46,-5.58 -26.46,-5.58l-5.52 0 0 -5.3c9.11,-1.17 18.16,-4.41 27.34,-9.82 9.11,-5.4 15.75,-11.87 19.87,-19.46 4.17,-7.58 6.23,-15.87 6.23,-24.99 0,-11.81 -3.7,-21.34 -11.11,-28.63 -7.47,-7.29 -16.7,-10.94 -27.75,-10.94 -17.82,0 -32.69,9.65 -44.69,28.87l-5.7 -2.76z"/>
   <path id="1" class="fil2" d="M26492.64 18022.13c0,-26.64 4,-49.51 12.05,-68.74 8.06,-19.22 18.7,-33.57 32.05,-42.98 10.29,-7.47 20.99,-11.17 31.98,-11.17 17.94,0 33.99,9.11 48.22,27.34 17.81,22.64 26.69,53.27 26.69,91.96 0,27.05 -3.88,50.09 -11.7,69.03 -7.82,18.93 -17.76,32.63 -29.87,41.21 -12.11,8.53 -23.81,12.82 -35.04,12.82 -22.29,0 -40.81,-13.11 -55.62,-39.39 -12.53,-22.17 -18.76,-48.86 -18.76,-80.08zm33.87 4.23c0,32.1 3.94,58.33 11.82,78.67 6.52,17.11 16.28,25.63 29.22,25.63 6.17,0 12.58,-2.76 19.22,-8.34 6.65,-5.59 11.65,-14.88 15.11,-27.99 5.24,-19.7 7.88,-47.57 7.88,-83.43 0,-26.64 -2.76,-48.86 -8.23,-66.62 -4.11,-13.23 -9.46,-22.58 -15.99,-28.05 -4.65,-3.82 -10.35,-5.7 -16.99,-5.7 -7.76,0 -14.7,3.53 -20.76,10.52 -8.23,9.53 -13.87,24.46 -16.81,44.92 -3,20.41 -4.47,40.52 -4.47,60.39z"/>
   <path id="2" class="fil2" d="M26802.74 18008.84c11.41,-11.53 18.17,-18.17 20.22,-19.93 5.12,-4.36 10.65,-7.77 16.59,-10.18 5.93,-2.41 11.81,-3.64 17.63,-3.64 9.88,0 18.29,2.88 25.4,8.64 7.06,5.76 11.82,14.11 14.17,25.11 11.88,-13.88 21.88,-22.93 30.05,-27.28 8.17,-4.3 16.58,-6.47 25.22,-6.47 8.35,0 15.82,2.17 22.35,6.47 6.46,4.29 11.64,11.34 15.4,21.16 2.53,6.65 3.82,17.11 3.82,31.4l0 67.97c0,9.82 0.71,16.58 2.18,20.23 1.12,2.46 3.23,4.64 6.23,6.4 3.06,1.77 8,2.65 14.88,2.65l0 6.35 -77.26 0 0 -6.35 3.29 0c6.7,0 11.99,-1.29 15.76,-3.94 2.64,-1.82 4.52,-4.76 5.64,-8.76 0.47,-1.94 0.71,-7.47 0.71,-16.58l0 -67.91c0,-12.88 -1.53,-21.93 -4.65,-27.22 -4.52,-7.35 -11.7,-11.06 -21.63,-11.06 -6.06,0 -12.23,1.53 -18.41,4.59 -6.11,3 -13.58,8.7 -22.34,16.93l-0.35 1.94 0.7 7.41 0 75.32c0,10.7 0.59,17.4 1.77,20.05 1.23,2.59 3.46,4.82 6.76,6.58 3.29,1.77 8.93,2.65 16.87,2.65l0 6.35 -79.37 0 0 -6.35c8.64,0 14.58,-1 17.81,-3.06 3.24,-2.06 5.47,-5.17 6.7,-9.29 0.59,-1.94 0.89,-7.58 0.89,-16.93l0 -67.91c0,-12.88 -1.88,-22.17 -5.65,-27.87 -5.05,-7.41 -12.05,-11.11 -21.11,-11.11 -6.17,0 -12.28,1.7 -18.34,5.05 -9.47,5.06 -16.82,10.82 -21.93,17.17l0 84.67c0,10.29 0.7,16.93 2.12,20.05 1.41,3.06 3.52,5.35 6.35,6.94 2.76,1.53 8.4,2.29 16.93,2.29l0 6.35 -77.97 0 0 -6.35c7.24,0 12.29,-0.76 15.17,-2.29 2.89,-1.59 5.06,-4 6.59,-7.41 1.47,-3.35 2.23,-9.88 2.23,-19.58l0 -60.33c0,-17.28 -0.53,-28.45 -1.53,-33.51 -0.82,-3.82 -2.05,-6.41 -3.82,-7.82 -1.7,-1.47 -4.05,-2.18 -6.99,-2.18 -3.24,0 -7.06,0.89 -11.53,2.59l-2.58 -6.35 47.62 -19.4 7.41 0 0 33.75z"/>
   <path id="3" class="fil2" d="M27070.38 17892.54c4.76,0 8.88,1.7 12.29,5.05 3.35,3.41 5.05,7.53 5.05,12.29 0,4.82 -1.7,9 -5.05,12.41 -3.41,3.47 -7.53,5.17 -12.29,5.17 -4.82,0 -9,-1.7 -12.41,-5.17 -3.47,-3.41 -5.17,-7.59 -5.17,-12.41 0,-4.76 1.7,-8.88 5.05,-12.29 3.41,-3.35 7.59,-5.05 12.53,-5.05zm14.17 82.55l0 127c0,9.82 0.7,16.34 2.17,19.58 1.41,3.29 3.53,5.7 6.35,7.29 2.82,1.59 8,2.41 15.47,2.41l0 6.35 -76.56 0 0 -6.35c7.65,0 12.82,-0.76 15.41,-2.23 2.64,-1.47 4.7,-3.94 6.29,-7.35 1.53,-3.41 2.29,-10 2.29,-19.7l0 -61.03c0,-16.99 -0.53,-27.99 -1.53,-33.05 -0.82,-3.64 -2.05,-6.17 -3.82,-7.58 -1.7,-1.47 -4.06,-2.18 -7,-2.18 -3.23,0 -7.11,0.89 -11.7,2.59l-2.41 -6.35 47.45 -19.4 7.59 0z"/>
  </g>
  <rect class="fil5 str3" x="1000" y="1000" width="27700" height="17585.26"/>
  <g id="_3029122335936">
   <path class="fil1 str1" d="M24411.6 16758.5l815.93 0 0 1592.89 -815.93 0 0 -1592.89z"/>
   <path class="fil6" d="M24759.7 17194.63c-0.92,3.32 -1.63,6.35 -2.07,9.15 -0.44,2.79 -0.65,5.18 -0.65,7.22 0,5.59 1.8,9.56 5.29,11.89 3.49,2.33 9.55,3.49 18.05,3.49l4.15 0 -4.96 22.72 -78.17 0 5.29 -22.72 2.89 0c7.36,0 12.82,-1.51 16.48,-4.54 3.6,-2.97 6.32,-8.39 8.12,-16.14l37.59 -153.79c0.6,-2.74 1.14,-5.54 1.52,-8.45 0.33,-2.91 0.55,-5.77 0.55,-8.62 0,-5.36 -1.96,-9.15 -5.95,-11.36 -3.92,-2.22 -10.69,-3.32 -20.23,-3.32l-3.06 0 5.29 -22.72 72.33 0 62.14 183.5 31.31 -129.03c1.08,-4.2 1.85,-7.63 2.34,-10.31 0.49,-2.68 0.71,-4.72 0.71,-6.06 0,-5.6 -1.8,-9.56 -5.35,-11.89 -3.6,-2.33 -9.71,-3.49 -18.32,-3.49l-4.15 0 4.96 -22.72 78.5 0 -5.62 22.72 -2.84 0c-7.37,0 -12.87,1.51 -16.47,4.54 -3.66,2.97 -6.33,8.33 -8.18,15.96l-50.68 208.44 -21.54 0 -72.06 -209.48 -37.21 155.01z"/>
   <path class="fil5 str4" d="M24820.39 18218.19l0 -769.27"/>
   <path class="fil5 str4" d="M24538.34 17942.14l563.14 0"/>
   <path class="fil5 str4" d="M24675.49 18082.13l294.22 -286.81"/>
   <path class="fil5 str4" d="M24672.35 17795.08l297.98 288.85"/>
   <path class="fil5 str4" d="M24820.25 17451.65l-95.47 118.01"/>
   <path class="fil5 str4" d="M24820.87 17451.61l87.89 118.05"/>
  </g>
  <g id="_3029122334080">
   <path class="fil1 str1" d="M23649.6 17877.69l0 473.7 -2309.37 0 0 -473.7 2309.37 0z"/>
   <path class="fil6" d="M22417.57 18216.16l0 -202.07 40.07 0 47.79 143.04c4.42,13.31 7.62,23.28 9.64,29.91 2.31,-7.33 5.93,-18.15 10.82,-32.4l48.64 -140.55 35.79 0 0 202.07 -25.68 0 0 -169.05 -58.98 169.05 -24.09 0 -58.32 -172.15 0 172.15 -25.68 0z"/>
   <path id="1" class="fil6" d="M22750.02 18168.75l25.68 3.38c-3.99,14.91 -11.47,26.53 -22.39,34.76 -10.91,8.24 -24.83,12.37 -41.81,12.37 -21.36,0 -38.29,-6.58 -50.8,-19.75 -12.51,-13.12 -18.77,-31.61 -18.77,-55.36 0,-24.56 6.31,-43.65 18.96,-57.2 12.65,-13.59 29.07,-20.37 49.25,-20.37 19.52,0 35.46,6.64 47.83,19.95 12.37,13.31 18.58,32.03 18.58,56.16 0,1.46 -0.05,3.67 -0.14,6.58l-109.08 0c0.94,16.04 5.46,28.37 13.64,36.88 8.14,8.51 18.35,12.79 30.53,12.79 9.08,0 16.84,-2.39 23.24,-7.19 6.44,-4.8 11.52,-12.47 15.28,-23zm-81.28 -39.8l81.56 0c-1.08,-12.32 -4.23,-21.54 -9.36,-27.7 -7.85,-9.55 -18.1,-14.35 -30.66,-14.35 -11.39,0 -20.93,3.81 -28.7,11.43 -7.71,7.62 -11.99,17.83 -12.84,30.62z"/>
   <path id="2" class="fil6" d="M22806.79 18216.16l0 -146.47 22.3 0 0 22.43c5.69,-10.39 10.96,-17.26 15.8,-20.55 4.85,-3.34 10.16,-4.99 15.95,-4.99 8.37,0 16.89,2.64 25.54,7.86l-8.84 22.91c-6.02,-3.39 -12.04,-5.08 -18.06,-5.08 -5.41,0 -10.26,1.64 -14.54,4.89 -4.28,3.24 -7.34,7.76 -9.17,13.54 -2.78,8.8 -4.14,18.44 -4.14,28.93l0 76.53 -24.84 0z"/>
   <path id="3" class="fil6" d="M22996.73 18162.54l24.27 3.38c-2.68,16.7 -9.45,29.73 -20.41,39.19 -10.96,9.45 -24.46,14.15 -40.41,14.15 -19.99,0 -36.08,-6.53 -48.21,-19.61 -12.18,-13.08 -18.25,-31.8 -18.25,-56.16 0,-15.81 2.63,-29.59 7.85,-41.44 5.22,-11.81 13.17,-20.7 23.9,-26.58 10.68,-5.92 22.29,-8.89 34.9,-8.89 15.85,0 28.88,4 38.95,12.04 10.11,8.05 16.6,19.48 19.42,34.25l-23.99 3.67c-2.3,-9.83 -6.35,-17.22 -12.23,-22.2 -5.83,-4.94 -12.88,-7.44 -21.16,-7.44 -12.51,0 -22.67,4.47 -30.53,13.41 -7.81,8.98 -11.71,23.09 -11.71,42.47 0,19.66 3.76,33.92 11.29,42.81 7.57,8.89 17.4,13.35 29.49,13.35 9.78,0 17.92,-2.96 24.41,-8.93 6.54,-5.93 10.68,-15.1 12.42,-27.47z"/>
   <path id="4" class="fil6" d="M23137.84 18197.82c-9.22,7.85 -18.11,13.35 -26.62,16.6 -8.52,3.25 -17.64,4.84 -27.43,4.84 -16.08,0 -28.45,-3.9 -37.11,-11.75 -8.65,-7.81 -12.98,-17.83 -12.98,-30.01 0,-7.15 1.65,-13.69 4.89,-19.62 3.29,-5.93 7.57,-10.63 12.84,-14.2 5.32,-3.58 11.24,-6.31 17.88,-8.14 4.89,-1.27 12.27,-2.49 22.1,-3.72 20.04,-2.35 34.86,-5.22 44.31,-8.51 0.1,-3.39 0.14,-5.55 0.14,-6.44 0,-10.07 -2.35,-17.17 -7.05,-21.31 -6.35,-5.6 -15.81,-8.37 -28.32,-8.37 -11.71,0 -20.36,2.07 -25.92,6.16 -5.59,4.09 -9.68,11.33 -12.37,21.78l-24.27 -3.39c2.21,-10.4 5.84,-18.82 10.92,-25.21 5.08,-6.4 12.41,-11.29 22.01,-14.77 9.55,-3.44 20.7,-5.18 33.3,-5.18 12.51,0 22.72,1.46 30.57,4.42 7.81,2.97 13.6,6.64 17.27,11.11 3.67,4.46 6.25,10.11 7.76,16.93 0.8,4.23 1.22,11.85 1.22,22.81l0 32.93c0,23 0.52,37.53 1.55,43.69 0.99,6.17 3.06,12.05 6.07,17.69l-25.96 0c-2.5,-5.22 -4.1,-11.34 -4.8,-18.34zm-1.98 -55.04c-9.03,3.67 -22.57,6.78 -40.64,9.32 -10.25,1.45 -17.49,3.1 -21.73,4.93 -4.23,1.84 -7.48,4.52 -9.78,8 -2.31,3.53 -3.48,7.43 -3.48,11.76 0,6.54 2.49,12.04 7.52,16.42 5.04,4.37 12.38,6.58 22.02,6.58 9.55,0 18.06,-2.07 25.54,-6.25 7.43,-4.14 12.93,-9.84 16.41,-17.03 2.69,-5.6 4,-13.83 4,-24.7l0.14 -9.03z"/>
   <path id="5" class="fil6" d="M23253.03 18194.01l3.39 21.91c-6.96,1.46 -13.22,2.22 -18.68,2.22 -8.98,0 -15.94,-1.42 -20.93,-4.28 -4.94,-2.87 -8.42,-6.59 -10.44,-11.25 -2.02,-4.65 -3.01,-14.44 -3.01,-29.35l0 -84.38 -18.34 0 0 -19.19 18.34 0 0 -36.22 24.84 -14.91 0 51.13 24.83 0 0 19.19 -24.83 0 0 85.79c0,7.11 0.42,11.67 1.31,13.69 0.85,2.02 2.26,3.62 4.24,4.85 1.97,1.17 4.79,1.78 8.46,1.78 2.73,0 6.35,-0.33 10.82,-0.98z"/>
   <path id="6" class="fil6" d="M23268.22 18142.92c0,-27.04 7.53,-47.08 22.63,-60.11 12.56,-10.82 27.94,-16.23 46.05,-16.23 20.08,0 36.54,6.59 49.34,19.76 12.75,13.12 19.14,31.33 19.14,54.51 0,18.82 -2.82,33.59 -8.46,44.36 -5.65,10.77 -13.88,19.14 -24.7,25.12 -10.77,5.97 -22.58,8.93 -35.32,8.93 -20.51,0 -37.07,-6.53 -49.72,-19.66 -12.65,-13.12 -18.96,-32.03 -18.96,-56.68zm25.4 0.05c0,18.72 4.1,32.74 12.28,42 8.23,9.32 18.53,13.97 31,13.97 12.32,0 22.57,-4.65 30.81,-14.01 8.18,-9.36 12.27,-23.61 12.27,-42.76 0,-18.06 -4.14,-31.75 -12.37,-41.01 -8.23,-9.32 -18.48,-13.97 -30.71,-13.97 -12.47,0 -22.77,4.61 -31,13.87 -8.18,9.27 -12.28,23.24 -12.28,41.91z"/>
   <path id="7" class="fil6" d="M23434.21 18216.16l0 -146.47 22.3 0 0 22.43c5.69,-10.39 10.96,-17.26 15.8,-20.55 4.85,-3.34 10.16,-4.99 15.95,-4.99 8.37,0 16.89,2.64 25.54,7.86l-8.84 22.91c-6.02,-3.39 -12.04,-5.08 -18.06,-5.08 -5.41,0 -10.26,1.64 -14.54,4.89 -4.28,3.24 -7.34,7.76 -9.17,13.54 -2.78,8.8 -4.14,18.44 -4.14,28.93l0 76.53 -24.84 0z"/>
   <circle class="fil7 str5" cx="21558.6" cy="18110.84" r="118.79"/>
   <rect class="fil7 str5" x="22016.53" y="18002.56" width="226.91" height="226.91"/>
   <path class="fil5 str6" d="M21732.5 18109.97l220.31 0"/>
   <path class="fil5 str6" d="M21950.15 18110.63l-64.02 65.38"/>
   <path class="fil5 str6" d="M21950.32 18109.49l-63.42 -61.39"/>
  </g>
 </g>
</svg>
