<?xml version="1.0" encoding="UTF-8"?>
<!DOCTYPE svg PUBLIC "-//W3C//DTD SVG 1.1//EN" "http://www.w3.org/Graphics/SVG/1.1/DTD/svg11.dtd">
<!-- Creator: CorelDRAW -->
<svg xmlns="http://www.w3.org/2000/svg" xml:space="preserve" width="210mm" height="297mm" version="1.1" style="shape-rendering:geometricPrecision; text-rendering:geometricPrecision; image-rendering:optimizeQuality; fill-rule:evenodd; clip-rule:evenodd"
viewBox="0 0 21000 29700"
 xmlns:xlink="http://www.w3.org/1999/xlink">
 <defs>
  <style type="text/css">
   <![CDATA[
    .str1 {stroke:black;stroke-width:10;stroke-miterlimit:3.864;stroke-opacity:0.501961}
    .str6 {stroke:black;stroke-width:50;stroke-miterlimit:22.9256}
    .str4 {stroke:#434242;stroke-width:10;stroke-miterlimit:22.9256}
    .str0 {stroke:black;stroke-width:10;stroke-miterlimit:22.9256}
    .str2 {stroke:black;stroke-width:10;stroke-miterlimit:3.864}
    .str5 {stroke:#2B2A29;stroke-width:7.62;stroke-miterlimit:22.9256}
    .str3 {stroke:black;stroke-width:7.62;stroke-miterlimit:22.9256}
    .fil6 {fill:none}
    .fil0 {fill:#FEFEFE}
    .fil7 {fill:#D9DADA}
    .fil4 {fill:#FEFEFE;fill-rule:nonzero}
    .fil3 {fill:#D9DADA;fill-rule:nonzero}
    .fil5 {fill:#434242;fill-rule:nonzero}
    .fil2 {fill:black;fill-rule:nonzero}
    .fil1 {fill:#FEFEFE;fill-rule:nonzero;fill-opacity:0.501961}
   ]]>
  </style>
 </defs>
 <g id="Plan_x0020_1">
  <metadata id="CorelCorpID_0Corel-Layer"/>
  <path class="fil0 str0" d="M9211.54 18222.52c50.37,33.42 66.48,38.89 124.47,41.01 43.15,1.57 72.14,-37.51 91.62,-70.34 4.69,-7.89 18.99,-24.53 28.77,-26.12 9.28,-1.51 55.02,21.57 89.54,21.06 37.42,-0.55 60.52,6.3 72.08,41.69 8.51,26.07 95.64,92.44 121.48,122.46 60.18,69.93 101.16,89.36 138.15,181.81 23.57,58.89 19.68,116.77 103.83,115.85 47.66,-0.52 87.54,-117.61 113.66,-76.84 35.09,54.74 76.91,83.64 126.78,122.91 72.27,56.93 11.29,88.26 139.78,115.21 73.56,15.43 55.87,62.6 127,63.39 25.52,0.28 73.21,12 88.1,33.08l6.62 9.37c39,54.21 42.75,61.23 88.63,107.15 33.9,33.92 45.89,87.78 97.59,92.95 42.91,4.29 94.12,19.53 113.74,62.18 29.33,63.74 44.17,152.1 93.7,206.9 35.11,38.84 80.38,57.02 125.79,81.27 28.2,15.06 114.23,38.08 103.64,73.51 -13.89,46.46 -67.96,73.14 -99.56,112.38 -44.05,54.71 -70.06,32.19 -86.97,129.04 -4.55,26.04 -1.02,53.72 -5.06,86.37l-0.23 3.4c-16.31,38.05 -13.78,54.34 -8.39,91.69 5.48,37.96 57.64,90.06 84.66,114.36l0 0c41.09,-56.64 88.74,-100.95 160.62,-161.24 29.33,-35.5 67.45,-88.54 97.32,-119.03 51.58,-52.64 118.36,-178.53 129.88,-253.29 6.79,-44.05 16.78,-63.11 26.91,-102.42 12.1,-46.98 20.67,-64.23 38.02,-107.46 22.02,-54.84 119.42,-140.49 168.24,-173.31 53.18,-35.75 57.26,-50.7 97.79,-91.28 74.24,-74.35 11.5,-38.54 -10.36,-39.57 -30.48,-1.43 -134.46,50.18 -150.59,35.49 -23.8,-21.68 54.83,-164.07 64.49,-184.98l6.16 -9.91c55.46,-114.94 126.13,-73.21 162.94,-140.15 46.63,-84.77 63.64,-29.74 71.33,-132.75 10.43,-139.64 54.6,-113.61 67.92,-174.14 8.98,-40.75 36.78,-55.88 70,-77.29 54.72,-35.26 80.79,22.02 122.05,-28.01 25.91,-31.41 24.91,44.25 24.8,56.55 -0.96,104.59 15.06,127.66 -79.38,194.81 -26.8,34.1 -28.64,58.82 -68.49,91.96 -79.65,66.24 -11.21,89.47 -25.32,138.23 -23.07,79.64 -89.08,86.94 -128.4,135.24 -16.9,20.76 -50.91,51.62 -59.68,72.12 -20.69,48.32 57.19,-30.24 58.77,-31.64 38.57,-34.06 69.4,-58.72 104.06,-98.99 9.67,-12.89 21.24,-24.31 32.77,-35.53 32.63,-31.77 47.6,-49.13 76.69,-82.1 40.7,-46.13 61.44,-88.07 97.14,-132.29 39.03,-48.34 42.24,-65.26 72.54,-112.45 35.9,-55.93 64.52,-111.54 101.52,-167.14 52.2,-78.44 25.85,-183.78 86.33,-253.32 56.99,-65.54 88.26,-184.96 136.26,-264.93 18.62,-30.13 35.55,-63.89 56.32,-93.66 32.04,-45.94 72.57,-99.21 112.26,-138.31 39.85,-39.24 174.91,-151.52 221.99,-172.62 79.33,-35.56 105.83,-120.15 109.5,-200.74 4.34,-95.35 24.67,-193 73.74,-276.19 15.96,-27.07 40.77,-50.91 7.83,-65.58 -38.28,-17.05 -38.07,-26.53 -25.67,-64.94 11.84,-36.66 12.34,-53.2 22.15,-89.96l-3.51 -17.91c-8.34,-42.49 -34.35,-94.89 -47.22,-146.24 -19.03,-75.95 -46.9,-155.91 4.09,-227.09 26.62,-37.16 -16.01,-41.5 -46.83,-69.02 -42.03,-37.53 -33.17,-89.77 15.87,-105.38 33.25,-10.58 2.33,-35.43 35.91,-63.84 24.89,-21.07 -50.94,-45.34 -46.83,-64.71 12.77,-60.21 88.6,-68.8 94.91,-97.79 14.05,-64.56 -120.1,-50.41 -104.4,-99.67 16.52,-51.8 51.44,-61.39 94.04,-88.64 8.13,-8.35 14.82,-15.48 24.5,-22.18 131.7,-91.09 152.55,32.13 225.01,-33.72 44.46,-40.41 33.24,-74.19 45.73,-96.8 23.72,-42.93 24.04,-59.14 64.6,-90.37 31.48,-24.25 34.54,-16.39 52.58,-26.35 29.25,-16.15 66.86,-23.28 87.54,-35.6 31.54,-18.81 47.26,-27.93 81.45,-43.89 25.91,-12.09 117.04,-94.91 129.99,-119.63 21.29,-40.65 25.01,-68.8 79.94,-83.23 113.55,-29.82 89.21,-104.18 215.41,-118.08 82.53,-9.1 58.18,-66.69 142.42,-68.45 95.75,-2.01 95.55,-5.21 181.7,-50.16 7.41,-2.61 13.52,-5.23 20.82,-8.05 21.27,-8.24 54.4,-8.52 59.99,-12.13 24.56,-15.87 11.75,-45.18 87.54,-83.35 65.12,-32.79 101.7,-101.95 170.32,-117.06 97.16,-21.4 102.86,-180.77 215.29,-158.22 67.24,13.48 138.36,39.08 202.07,-2.31 38.05,-24.72 120.47,33.28 155.12,51.37 28.08,14.67 50.87,-12.43 61.2,-35.72 35,-78.94 48.59,-31.77 85.77,-68.11 50.34,-49.21 36.52,-119.33 98,35.49 31.31,78.85 105.11,45.3 161.74,39.12 59.18,-6.45 62.58,-4.53 125.45,-20.71 51.46,-17.49 74.13,1.91 116.42,-25.13 39.02,-24.95 59.53,-123.36 59.53,-167.11 0,-46.08 34.31,-86.58 79.37,-97.03 8.05,-1.86 93.17,-27.8 98.24,-29.89 60.85,-25.1 59.69,-46.65 122.46,-64.37 94.26,-26.62 87.54,-64.81 87.54,-153.39 0,-85.02 -38.64,-155.68 22.49,-221.12 45.93,-49.16 32.9,-140.07 113.32,-209.02 47.51,-40.73 40.26,-24.72 89.09,-83.34 19.07,-38.74 35.06,-59.89 67.24,-87.96 36.87,-32.15 96.02,-129.34 96.92,-179.81 2.13,-118.83 11.26,-96.53 86.33,-171.21 11.73,-11.68 48.02,-40.87 51.59,-45.1 66.37,-78.57 56.11,-157.18 50.8,-252.79 -2.33,-42.05 -2.03,-66.46 -2.3,-107.61 -0.54,-83.16 17.93,-150.3 18.52,-235.03 1.26,0.37 24.32,-70.87 28.99,-82.43 22.52,-55.85 84.99,-148.62 141.78,-175.31 58.77,-27.61 119.58,-43.51 90.19,-125.23 -42.3,-117.6 -33.7,-177.01 -28.13,-299.09 2.83,-62.07 34.93,-203.12 57.23,-260.85 42.22,-109.26 67.19,-171.22 71.1,-291.38 -1.81,-25.57 -9.01,-53.18 -10.93,-79.37 -4.07,-55.46 -20.36,-112.56 -24.56,-168.02 -5.37,-70.84 -33.3,-124.09 -33.3,-186.64 0,-112.45 91.35,-236.01 11.56,-340.75 -32.39,-42.52 -27.24,-47.42 -48.61,-88.75 -27,-52.24 0.17,-111.8 33.08,-155.35 36.09,-47.75 27.43,-36.95 58.21,-97.67l7.93 -17.95c15.84,-42.21 24.39,-39.56 3.63,-77.19 -11.13,-20.18 -9.36,-47.06 6.96,-62.63 47.25,-45.07 -29.18,-99.89 -17.54,-150.17 15.12,-65.31 84.28,29.93 138.91,6.31 41.6,-17.98 90.58,108.52 156.1,64.83 47.79,-31.87 88.67,-104.51 118.08,-152.78 48.91,-80.28 95.24,-160.5 144.09,-240.47 40.41,-66.16 68.02,-157.21 106.93,-211.67 28.11,-39.33 46.17,-67.97 72.23,-107.8 34.78,-53.15 51.57,-98.42 97.44,-144.54 18.08,-29.12 43.41,-69.08 71.44,-89.96 38.26,-28.49 68.18,-48.63 105.83,-79.6 30,-24.68 34.54,-23.44 62.41,-42.22 26.91,-18.14 41.04,-19.14 62.52,-31.1 72.66,-40.49 86.42,-144.52 162.26,-212.66 26.95,-24.21 67.39,-66.12 93.14,-86.52 34.51,-27.34 41.19,-36.33 71.36,-65.73 41.89,-40.83 122.78,-173.85 150.78,-227.39 41.71,-79.78 89.6,-157.13 114.56,-244.33 7.6,-24.71 17.02,-57.6 27.78,-80.69 19.6,-42.06 24.78,-65.44 36.06,-109.05 13.9,-53.75 9.13,-84.81 17.73,-130.94 8.87,-47.59 8.05,-108.34 15.34,-154.89 4.64,-29.6 -1.93,-136.35 -8.27,-164.04 -13.07,-57.06 -24.55,-110.38 -33.53,-168.35 -10.01,-64.58 -14.75,-185.83 -33.94,-241.12 -1.74,-13.03 -23.13,-66.5 -29.11,-90.71 -19.15,-77.65 -45.48,-133.87 -73.21,-207.51 -30.15,-80.05 -23.64,-157.46 -117.74,-194.36 -96.63,-37.88 -140.25,-21.86 -236.13,-19.28 -136.66,3.69 -188.67,62.25 -325.66,4.84 -44.28,-18.55 -88.16,-22.09 -118.31,-62.4 -59.28,-79.27 -80.59,-52.71 -155.95,-78.24 -71.92,-24.36 -89.87,-61.96 -142.39,-99.03 -41.15,-29.06 -68.23,-66.25 -104.74,-97.67 -64.57,-55.58 -105.8,-101.25 -165.21,-159.74 -29.72,-23.48 -41.69,-50.21 -69.7,-72.11 -41.25,-32.27 -89.31,-63.58 -129.42,-98.66 -36.62,-32.01 -68.03,-42.11 -96.31,-65.58 -40.98,-34.01 -84.82,-61.45 -131.42,-87.31 -67.45,-37.42 -226.2,-144.82 -286.32,-164.95 -71.39,-23.9 -112.25,-10.36 -179.84,-11.45 -50.15,-0.81 -100.54,9.81 -146.92,9.26 -48.9,-0.58 -104.76,9.57 -151.08,9.26 -51.86,-0.35 -93.13,4.91 -142.88,7.07 -18.9,0.81 -141.95,-18.45 -167.52,-23.93 -64.56,-13.85 -50.48,-24.71 -131.08,-24.15 -45.58,0 -156.74,-7.19 -196.71,-23.17 -48.41,-19.36 -89.8,-34.98 -136.97,-57.3 -22.36,-10.59 -30.96,-22.52 -46.98,-30.66 -59.51,-30.21 -64.33,-27.35 -120.84,-72.65 -30.96,-24.81 -55.41,-74.55 -80.25,-6.19 -16.39,45.1 -67.18,104.22 -120.61,99.67 -43.14,-3.67 -64.85,3.11 -107.04,10.58 -62.4,11.05 -64.04,-17.16 -99.57,54.81 -34.22,69.31 -39.33,52.85 -99.85,76.16 -95.37,36.73 -90.16,17.45 -163.71,102.17 -18.33,21.11 -54.29,85.97 -80.93,74.23 -39.79,-17.54 -8.8,-55.63 6.35,-77.14 14.01,-19.9 50.66,-45.18 52.51,-62.56 4.71,-44.25 4.09,-53.56 29.56,-96.46 29.06,-48.96 15.54,-84.82 66.21,-122.12 29.99,-22.07 -12.22,-44.54 -33.6,-49.29 -45.62,-10.14 -44.21,9.6 -82.02,-30.43 1.92,-17.28 1.33,-32.17 1.33,-49.4 0,-81.07 108.7,-105.46 67.92,-147.6 -40.5,-41.83 -162.43,3.73 -154.9,-62.29 4.91,-43.04 -15.35,-40.7 -46.45,-55.9 -106.38,-52 -122.39,81.31 -167.56,49.17 -8.4,-5.98 -45.19,-61.2 -57.87,-76.96 -20.96,-26.03 -81.18,-75.88 -113.47,-85.76 -73.89,-22.62 -42.55,-53.86 -91.2,-69.21 -78.43,-24.73 -163.13,33.37 -200.71,7.79 -42.34,-28.83 -20.17,-41.61 -91.47,-73.4 -63.42,-28.28 -99.57,-58.76 -160.3,-87.32l-12.4 -4.72c-64.67,-24.62 -77.55,-33.47 -128.59,-77.18 -68.51,-58.68 -149.97,21.6 -232.95,-7.6 -64.18,-22.59 -87.91,10.59 -146.31,11.34 -20.44,0.26 -98.48,80.27 -92.38,-2.65 2.56,-34.91 -15.38,-52.14 -11.45,-79.6 17.39,-121.42 69.62,-123.78 -100.58,-101.19 -38.49,5.11 -117.74,-7.6 -155.24,-19.65 -32.98,-10.6 -54.19,-13.32 -84.1,-21.7 -70.44,-19.74 -84.4,-19.69 -91.7,-101.86 -14.12,-20.01 -32.15,-17.89 -54.35,-18.41 -41.74,-0.97 -19.85,2.26 -44.87,9.03 -38.71,10.48 24.95,-87.46 28.01,-99.21 7.34,-28.17 -52.32,-31.53 -69.84,-29.98 -96.19,8.53 -132.24,53.84 -145.68,-63.84 -4.86,-42.51 -10.74,-29.68 -27.26,-48.95 -37.52,-43.77 8.36,-125.6 29.45,-166.58 34.83,-67.68 35.45,-159.34 12.02,-231.28 -21.01,-64.51 8.06,-108.89 -69.09,-99.22 -72.48,9.09 -149.11,-51.48 -181.4,-112.71 -39.57,-75.05 -82.13,-145.78 -130.51,-215.71l-2.76 -6.5c-23.57,-64.34 -48.8,-129.3 -82.14,-189.53 -38.78,-70.05 -52.73,-234.55 -57.98,-318.48 -3.27,-52.35 -9.55,-80.42 -19.5,-130.17 -18.25,-91.2 -21.11,-81.02 -74.54,-147.87 -28.71,-35.92 -42,-103.04 -87.61,-69.13 -18.18,13.51 -38.6,52.39 -50.84,47.21l0 0c0,4.12 1.68,21.05 2.49,24.91 4.75,22.73 3.09,34.25 3.63,56.21 0.9,36.58 -32.05,92.15 -55.9,118.76 -48.35,53.93 -88.46,105.5 -129.31,165.67 -11.23,15.32 -23.89,31.5 -34.17,47.28 -41.01,62.93 -74.13,59.96 -84.44,137.93 -12.72,96.25 -27.37,71.72 -57,138.9 -20.23,45.87 -76.07,142.72 -113.31,175.61 -99.74,88.1 -97.12,32.94 -182.91,44.98 -83.64,11.74 -43.71,-31.04 -100.66,-32.84 -66.11,-2.1 -80.66,31.01 -133.61,21.05 -49.72,-9.35 -37.37,-58.01 -78.28,-17.09 -28.74,28.75 -74.34,61.96 -111.92,76.85 -58.86,23.31 -142.17,-27.92 -202.18,-67.61l0 0c-14.13,-9.34 -26.98,-18.06 -37.91,-25 -11.63,-9.88 -44.02,-21.2 -59.87,-26 -105.57,-31.99 -34.67,-83.85 -139.14,-54.7 -44.63,12.46 -66.41,2.02 -106.06,22.83 -32.52,17.07 -110.76,39.35 -147.6,39.35 -72.7,0 -97.59,-54.46 -117.74,-45.32 -38.18,17.32 -15.49,44.08 -63.39,81.5 -41.51,32.43 72.46,126.82 23.7,196.54 -18.59,26.6 -184.17,-23.11 -211.44,-30.31l0 0 -2.76 -0.11c-61.83,5.38 -104.3,38.27 -161.82,10.81 -45.07,-21.53 -65.59,19.16 -84.93,-7.19 -23.11,-31.49 -54.28,-37.1 -90.6,-22.03 -39.82,16.52 -111.38,88.73 -145.4,119.06 -25.48,5.58 -34.21,8.11 -60.52,11.91 -38.96,5.63 -43.15,-6.23 -59.53,-3.74 -45.74,6.94 -50.25,34.73 -73.33,54.01 -87.68,73.26 -114.31,8.35 -137.47,9.26 -49.49,1.95 -77.21,34.76 -84.21,82.66 -10.05,68.81 -64.65,24.35 -127,73.45 -26.15,20.59 -49.68,3.79 -58.32,-21.17 -16.85,-48.64 -71.7,-52.16 -114.23,-63.62 -73.08,-19.68 -75.73,-58.05 -112.79,-78.61 -47.93,-26.59 -57.55,-68.8 -85.65,-89.28 -75.65,-55.16 -36.14,-69.21 -51.82,-141.9 -11.55,-53.51 -1,-71.85 -41.2,-110.1 -22.08,-21.01 -22.9,-32.45 -36.74,-53.07 -26.2,-39.04 -20.4,-66.03 -27.78,-103.72 -5.75,-29.37 6.13,-70.64 4.42,-94.49 -3.47,-48.57 -1.11,-72.48 14.33,-119.41 20.5,-62.34 41.18,-38.48 34.51,-119.48 0.99,-18.43 -9,-21.79 2.87,-50.04 36.46,-86.77 94.22,-51.09 119.29,-139.25 7.09,-24.9 -6.83,-78.73 -23.28,-98.12 -37.04,-43.65 -41,-39.71 -37.92,-98.69 5.83,-111.46 -153.77,-63.62 -180.14,-123.86 -9.52,-21.75 16.5,-82.02 26.46,-104.29 16.41,-36.73 10.08,-35.94 16.33,-70.27 6.17,-33.92 -29.3,-104.84 -59.88,-119.93 -31.11,-15.34 -108.62,27.24 -130.96,22.38 -26.69,-5.8 -64.8,4.11 -91.29,8.16l0 0c-3.1,12.13 10.45,25.03 15.01,41.58 20.45,74.14 10.16,103.3 -60.1,144.62 -29.11,17.11 -45.23,47.65 -66.79,55.22 -39.86,14 -95.99,58.62 -124.58,62.52 -51.7,7.04 -59.58,6.82 -114.11,22.83 -14.3,6.64 -24.76,17.04 -33.08,30.31 -43.38,69.14 -42.91,76.84 -124.8,76.84 -81.69,0 -133.49,69.92 -210.24,33.83 -25.29,-11.89 -75.74,-19.46 -89.61,12.02 -27.12,61.55 -81.36,20.66 -108.6,51.71 -58.14,66.29 31.49,106.28 -37.8,118.95 -17.15,3.13 -97.58,79.73 -106.28,12.36 -6.54,-50.68 -66.88,-50.78 -91.29,-89.09 -19.88,-31.2 -39.41,-43.22 -78.46,-26.46 -68.42,29.36 -40.64,38.44 -123.03,9.72 -88.62,-30.89 -103.37,38.54 -165.41,-21.63 -38.64,-37.46 -21.57,-40.68 -79.33,-57.64 -20.44,-5.99 -102.09,-9.37 -127.12,-9.37 -36.41,0 -72.12,-29.5 -98.69,-39.35 -6.98,-2.59 -22.57,89.08 38.36,110.45 45.64,16 69.88,58.78 107.39,86.1 6.46,4.71 49.82,40.77 50.04,40.9 31.57,18.51 60.58,59.95 79.38,88.97 -6.68,43.66 -6.26,62.62 -20.19,105.2 -18.42,56.29 -55.11,70.11 16.74,107.79 18.85,9.89 48.54,40.71 49.86,63.28 2.68,45.77 12.77,74.58 -7.07,118.83 -25.72,57.37 78.33,52.22 109.16,54.59 34,2.61 80.51,1.23 109.35,17.65 25.75,14.66 83.91,7.52 75.18,31.29 -6.64,18.09 -3.18,46.07 -5.29,53.49 -12.01,42.27 -17.39,43.5 -65.8,56.43 -13.52,6.59 -37.57,22.07 -49.74,31.22 -31.67,23.82 -51.18,35.42 -93.37,34.93 -130.02,-1.52 -52.84,146.75 -142.19,181.24 -35.52,13.71 -47.18,86.55 -89.55,58.21 -42.52,-28.45 -49.49,-7.69 -84.21,16.85 -35.62,25.19 -48.2,74.55 -84.21,62.63 -72.77,-24.07 -61.73,19.89 -84.03,43.89 -43.55,46.87 -66.27,-35.7 -89.5,39.12 -32.71,105.34 -46.62,55.33 -61.42,75.52 -16.39,22.35 23.65,20.55 -46.04,86.97 -33.71,32.14 -70.94,25.13 -70.04,-19.91 1.96,-98.17 42.62,-104.43 -74.09,-139.71 -10.76,5.78 -20.48,12.46 -30.76,18.18 -66.91,37.25 -140.57,131.54 -231.63,108.48 -16.42,-4.16 -66.76,-42.38 -76.92,-56.2 -26.5,-36.09 -62.8,-63.57 -98.23,-89.96 -10.51,-7.84 -37.24,-18.86 -61.84,-27.1l0 0c-17.65,-5.91 -34.23,-10.41 -42.9,-11.27 -124.69,-12.38 -74.3,-83.89 -81.15,-105.19 -10.34,-32.15 -8.92,-48.95 -8.92,-82.25 0,-39.69 -14.63,-60.9 -20.19,-90.07 -1.32,-6.94 -34.22,-43.88 -41.88,-47.93 -71.81,-37.99 -13.1,-79.53 -45.85,-95.59 -49.67,-24.36 -75.58,47.19 -90.07,54.01 -46.82,22.05 -37.71,-52.62 -105.08,32.97 -21.6,27.44 -81.16,46.13 -105.83,22.83 -24.01,-22.68 -75.29,-38.12 -75.29,16.33 0,35.69 9.05,29.12 5.29,76.27l-706.45 -3.97 -3.22 267.2c45.2,-7.31 27.82,-18.46 73.86,-1.32 16.64,6.19 69.03,-13.44 116.41,1.85 40.54,13.09 55.04,-10.91 84.33,32.96 22.9,34.32 -15.74,107.83 0.02,167.58 -50.23,8.91 -74.12,-12.19 -89.7,-19.57 -54.1,-25.6 -70.02,3.85 -110.9,16.74 -47.69,15.04 -75.67,62.47 -132.22,50.16 -30.89,-6.72 -34.3,53.85 -33.83,73.64 1.22,50.94 -24.33,246.93 20.19,278.15 29.64,20.78 38.68,18.1 73.74,47.96 52.54,44.75 56.43,33.55 89.09,100.66 28.13,57.79 11.86,108.07 56.32,150.92 13.98,13.48 37.12,80.78 43.77,97.79l-127 756.71 -104.51 534.46 -33.53 79.74 0 0 -5.83 13.86c-17.12,18.8 -60.45,33.37 -87.31,26.46 -40.73,-10.48 -35.01,-42.35 -96.46,-68.34 -56.35,-23.82 -93.73,-22.31 -150.93,-0.45 -38.68,15.85 -33.31,10.66 -65.28,37.95 -46.58,39.77 -43.7,48.1 -102.73,73.18 -136.45,57.96 -260.95,-16 -396.2,88.18 -52.54,40.47 -82.89,57.01 -137.06,90.75 -20.03,12.48 -137.82,98.27 -147.41,101.53 -50.58,17.17 -88.81,70.82 -101.52,120.72 -11.46,45 -31.8,140.7 -56.55,177.39 -34.83,51.63 -42.65,82.59 -85.99,134.48 -2.19,17.1 -9.7,38.55 -4.95,55.91 15.83,57.89 41.84,48.54 38.14,121.71 -1.86,36.87 -66.96,87.66 -97.55,99.86 -52.4,20.91 -132.98,50.72 -151.73,109.69 -20.54,64.61 -40.55,68.67 -40.55,143.33 0,27.1 39.33,90.93 -10.59,84.77 -14.29,-1.76 -42.79,8.82 -49.06,15.66 -22.05,24.03 -6.18,44.79 8.05,68.9 36.84,45.44 37.27,47.38 80.23,74.48 22.49,14.18 -56.79,70.83 7.6,105.49 24.28,13.07 31.99,39.58 43.88,62.75 23.02,44.87 24.18,126.89 71.98,151.34 88.83,45.46 27.4,70.88 101.33,109.58 20.1,10.52 59.42,39.32 71.44,59.19 25.24,41.76 38.86,23.6 37.15,95.82 -0.13,5.64 -1,11.6 -1.44,17.31 -15.85,22.37 -73.33,116.1 -31.75,141.89 30.92,19.17 95.53,-23.55 116.76,-0.68 16.91,18.21 95.1,13.03 129.65,24.49 74.86,24.84 51.35,46.77 84.33,103.31 33.67,57.71 24.98,39.27 39.23,105.27 10.24,47.46 63.07,51.81 101.45,42.78 47.76,-11.25 163.22,10.26 213.86,-1.66 79.11,-18.63 199.6,-86.38 257.97,-142.99 4.49,-4.36 9.52,-8.12 14.55,-11.8 37.27,-15.15 73.96,-37.24 103.98,-64.29 25.66,-23.11 61.6,-28.51 53.79,24.15 -12.24,82.61 -40.94,117.25 -38.7,212.46 0.79,33.47 -10.18,110.07 -5.64,139.55 5.88,38.13 0.41,92.61 8.62,136.72 5.29,28.42 -0.85,67.79 10.25,103.53 23.22,74.76 19.04,46.66 77.94,79.38 44.57,24.75 130.02,-27.1 171,-43.13 100.42,-39.3 76.05,45.3 175.45,11.38 20.42,-6.97 30.42,-9.72 51.86,-9.72l0 0c54.53,2.01 70.78,4.42 120.8,10.24 27.62,3.21 56.77,0.13 85.35,3.97 40.69,5.46 120.26,-7.77 143.1,32.09 16.96,29.6 37.27,27.44 72.19,26.57 53.06,-1.32 97.87,-51.56 137.17,-81.49 51.51,-39.22 54.27,-68.33 98.88,-101.18 34.9,-25.7 115.93,15.94 196.02,-62.52 34.91,-34.2 103.16,-114.69 151.57,-116.19 87.12,-2.7 98.69,-52.92 161.17,-98.01 34.41,-24.83 64.48,-67.14 111.85,-85.77 27.03,-10.63 97.26,-27.02 124.99,-27.67l8.47 -1.43c57.15,-10.45 78.84,-1.46 132.29,-9.26 74.99,-10.94 50.86,-35.01 128.9,0.98 45.69,21.08 84.47,-3.7 117.17,-34.05 9.07,-8.43 35.43,-22.59 46.66,-27.93 4.2,9.74 10.37,20.23 18.87,31.37 16.69,21.89 14.09,35.78 23.35,51.82 9.36,16.21 17.07,104.78 10.7,118.72 -14.72,32.23 -21.31,85.52 -49.4,108.48 -6.36,140.67 -1.77,75.42 27.6,180.05 12.39,44.14 -15.55,73.43 0,104.7 11.66,23.43 -25.99,93.12 -8.4,132.53 10.15,22.75 14.81,41.51 26.92,66.25 19.57,39.95 -24.06,92.67 40.02,119.07 85,35.03 38.76,89.12 94.23,107.15 26.13,8.49 47.52,27.28 70.8,41.01 55.02,32.45 47.79,47.53 88.98,82.14 54.94,46.15 81.15,90.03 157.2,111.35 36.21,10.14 22.47,18.18 73.85,18.18 70.27,0 124.44,-42.26 207.17,-6.73 39.14,16.81 47.88,80.53 126.14,70.57 62.38,-7.94 82.62,18.99 117.36,62.25 35.44,44.12 76.63,23.79 134.63,81.38 45.55,45.24 67.3,11.72 116.31,54.47 65.71,57.3 101.99,-9.19 164.16,58.55 23.69,25.8 8,30.93 54.87,67.58 24.44,19.12 47.97,46.64 79.61,53.79 47.02,10.63 48.31,14.88 84.97,23.81 43.84,10.67 138.91,-19.91 215.67,-2.3 21.88,5.01 5.53,25.82 84.45,29.97 25.43,1.34 80.7,23.56 103.3,36.29 49.58,27.93 27.75,24.35 58.66,48.83 27.08,21.44 65.43,35.33 77.82,77.3 20.22,68.52 -2.75,81.49 -0.56,140.64 2.11,56.83 50.26,91.51 70.34,145.22 0.71,1.92 1.69,3.73 2.53,5.6l18.11 52.23 -1.32 181.25 -142.88 -1.33 162.72 182.57 6.62 227.54 -0.67 140.89 833.45 18.52c4.02,30.46 14.95,63.2 -6.62,88.41 -43.33,50.66 -58.83,53.21 -54.13,130.86 6.25,103.13 31.76,160.11 96.01,240.31 70.88,88.48 116.68,37.71 184.34,97.38 20.37,17.96 30.52,90.09 45.1,121.48 23.89,51.43 25.8,71.97 59.75,125.79 7.95,12.6 21.8,39.06 28.77,53.03 15.33,75.83 -3.74,49.84 -27.9,106.14 -15.23,35.51 -16.77,121.04 -40.55,150.85 -4.82,6.04 -42.93,67.84 -44.64,71.74 -16.55,37.57 5.11,56.65 -4.99,93.96 -9.98,36.87 -31.89,76.36 -41.01,116.08 -17.02,74.08 -88.32,115.11 -88.3,195.11 0.01,26.58 37.74,77.13 52.92,100.89l29.97 36.37c-28.27,19.43 -60.86,35.68 -89.75,51.59 -10.41,5.74 -21.4,15.71 -27.53,27.25l0 0c-6.94,13.06 -7.7,28.16 5.57,41.43 18.4,18.4 24.7,30.19 46.42,46.76 68.75,52.42 -22.08,90.59 48.3,174.74 39.37,47.08 44.54,60.26 40.33,125.22 -2.77,42.83 -3.94,60.65 -5.18,99.11 -1.13,35.15 -62.33,83.41 -27.44,137.47 6.45,10.01 -11.78,72.74 -13.57,95.59 -7.1,90.13 34.29,61.61 -1.55,156.97 -6.96,18.51 -9.7,35.16 -9.41,50.62 94.09,34.57 38.46,19.91 112.67,9.28 58.76,-8.42 57.62,51.25 145.18,51.25 43.72,0 72.64,5.28 115.74,12.89 34.49,6.09 98.51,-7.21 137.92,0 45.94,8.4 123.54,-36.36 155.57,-65.73 61.95,-56.78 52.45,13.72 74.62,30.69 47.49,36.36 109.45,48.78 166.35,61.39 26.81,5.94 86.19,27.45 88.97,59.11 4.86,55.48 41.96,111.07 42.34,129.76 0.24,11.9 -9.26,45.65 -9.26,72.84 0,66.99 31.34,117.82 56.54,176.18 21.15,48.98 -1.21,74.45 7.3,118.42l0.98 5.06c-8.79,54.02 3.47,67.5 9.49,115.66 8.32,66.67 35.45,166.24 121.06,155.2 85.27,-11 81.82,-14.57 155.77,-50.61 97.97,-47.75 157.25,-66.48 228.3,28.91 2.74,3.67 32.84,21.42 36.75,25.36 -34.78,33.92 -26.63,61.44 -6.57,102.06 14.18,28.69 -12.11,105.58 -10.58,139.78 2.99,66.63 -20.34,124.37 -36.18,187.74 -10.22,40.9 6.96,117.85 -22.26,139.02 -14.34,10.4 -46.87,63.72 -50.5,80.47 -2.81,12.97 -1.61,28.39 -3.51,41.46 -2.68,18.41 -5.16,31.78 -7.32,42.29l0 0c36.15,41.18 32.5,37.52 80.02,38.44 27.01,0.52 88.9,-27.49 94.91,-24.27 95.06,50.85 146.62,-42.15 144.2,121.52 -1.59,107.7 131.79,142.67 91.05,223.12 -13.59,26.83 -32.96,87.68 -23.47,117.85 17.08,54.31 -27.63,52.65 -8.5,122.36 9.37,34.14 34.63,45.08 13.04,78.92 -6.75,10.57 -14.28,43.27 -21.85,53.71 -42.36,114.07 -50.68,49.06 -115.21,119.06 -25.64,27.82 -14.54,43.26 -65.46,30.77 -39.67,-9.73 -21.2,53.8 -96.16,59.08 -59.5,4.19 -103.08,61.11 -186.84,71.55 -45.42,5.66 -33.36,74.25 -68.37,98.58 -38.47,26.73 -64.63,-4.96 -110.9,49.93 -21.67,25.7 -17.48,25.16 -44.42,49.13 -22.47,20.02 -27.47,14.45 -54.8,33.76 -24.86,17.56 -30.12,26.97 -50.27,46.41 -59.77,35.53 -35.21,19.06 -73.86,33.95 -31.56,12.15 33.89,74.88 -15.24,94.04 -33.17,12.93 -75.18,-6.36 -57.52,32.09 11.68,25.43 -35.81,51.42 -54.58,59.64 -40.18,17.6 -10.77,82.85 -78.35,97.33 -59.64,12.79 -60.38,133.49 -126.59,152.93 -33.79,9.92 3.9,32.35 -57,48.95 -18.59,5.07 -32.02,73.1 -61.2,103.19 -20.76,21.41 -46.29,74.07 -79.26,105.83 -47.93,46.18 -77.79,113.49 -143.32,121.82 -35.3,4.49 -52.79,9.24 -57.19,53.33 -0.56,5.62 -0.23,11.97 -0.23,17.66 -9.81,48.23 -6.31,60.89 -47.29,85.88 -15,9.15 -44.6,36.42 -48.95,53.89 -0.94,3.8 0.68,2.19 -1.66,5.75l0 0zm-8211.54 -17222.52l19000 0 0 19606.59 -19000 0 0 -19606.59z"/>
  <path class="fil1 str1" d="M16476.4 18783.25l2927.98 0 0 1592.9 -2927.98 0 0 -1592.9z"/>
  <path class="fil2" d="M17481.34 18949.76l0 6.7c-15.12,1.47 -27.46,4.47 -37.05,9 -9.58,4.53 -19.05,11.41 -28.34,20.7 -9.35,9.23 -17.11,19.58 -23.22,30.92 -6.12,11.41 -11.23,24.93 -15.35,40.57 16.47,-11.23 32.99,-16.87 49.63,-16.87 15.93,0 29.69,6.41 41.39,19.28 11.7,12.82 17.52,29.34 17.52,49.51 0,19.46 -5.88,37.28 -17.7,53.33 -14.23,19.46 -33.04,29.22 -56.44,29.22 -15.93,0 -29.52,-5.29 -40.63,-15.82 -21.81,-20.57 -32.69,-47.21 -32.69,-79.9 0,-20.87 4.17,-40.75 12.58,-59.56 8.35,-18.82 20.35,-35.51 35.87,-50.1 15.58,-14.52 30.45,-24.34 44.68,-29.39 14.23,-5.06 27.46,-7.59 39.75,-7.59l10 0zm-106.9 120.48c-2.11,15.52 -3.17,28.04 -3.17,37.57 0,11.05 2.06,22.99 6.11,35.92 4.06,12.94 10.12,23.17 18.11,30.75 5.82,5.41 12.94,8.12 21.29,8.12 9.93,0 18.87,-4.71 26.69,-14.12 7.82,-9.46 11.76,-22.87 11.76,-40.33 0,-19.64 -3.88,-36.63 -11.64,-51.04 -7.82,-14.34 -18.82,-21.52 -33.1,-21.52 -4.36,0 -9.06,0.95 -14,2.77 -5,1.82 -12.35,5.82 -22.05,11.88z"/>
  <path id="1" class="fil2" d="M17512.38 19072.65c0,-26.64 4,-49.51 12.05,-68.74 8.06,-19.22 18.7,-33.57 32.05,-42.98 10.29,-7.47 20.99,-11.17 31.98,-11.17 17.94,0 33.99,9.11 48.22,27.34 17.81,22.64 26.69,53.27 26.69,91.96 0,27.05 -3.88,50.09 -11.7,69.03 -7.82,18.93 -17.76,32.63 -29.87,41.21 -12.11,8.53 -23.81,12.82 -35.04,12.82 -22.29,0 -40.81,-13.11 -55.62,-39.39 -12.53,-22.17 -18.76,-48.86 -18.76,-80.08zm33.87 4.23c0,32.1 3.94,58.33 11.82,78.67 6.52,17.11 16.28,25.63 29.22,25.63 6.17,0 12.58,-2.76 19.22,-8.34 6.65,-5.59 11.65,-14.88 15.11,-27.99 5.24,-19.7 7.88,-47.57 7.88,-83.43 0,-26.64 -2.76,-48.86 -8.23,-66.62 -4.11,-13.23 -9.46,-22.58 -15.99,-28.05 -4.65,-3.82 -10.35,-5.7 -16.99,-5.7 -7.76,0 -14.7,3.53 -20.76,10.52 -8.23,9.53 -13.87,24.46 -16.81,44.92 -3,20.41 -4.47,40.52 -4.47,60.39z"/>
  <path id="2" class="fil2" d="M17688.77 19072.65c0,-26.64 4,-49.51 12.05,-68.74 8.06,-19.22 18.7,-33.57 32.05,-42.98 10.29,-7.47 20.99,-11.17 31.98,-11.17 17.94,0 33.99,9.11 48.22,27.34 17.81,22.64 26.69,53.27 26.69,91.96 0,27.05 -3.88,50.09 -11.7,69.03 -7.82,18.93 -17.76,32.63 -29.87,41.21 -12.11,8.53 -23.81,12.82 -35.04,12.82 -22.29,0 -40.81,-13.11 -55.62,-39.39 -12.53,-22.17 -18.76,-48.86 -18.76,-80.08zm33.87 4.23c0,32.1 3.94,58.33 11.82,78.67 6.52,17.11 16.28,25.63 29.22,25.63 6.17,0 12.58,-2.76 19.22,-8.34 6.65,-5.59 11.65,-14.88 15.11,-27.99 5.24,-19.7 7.88,-47.57 7.88,-83.43 0,-26.64 -2.76,-48.86 -8.23,-66.62 -4.11,-13.23 -9.46,-22.58 -15.99,-28.05 -4.65,-3.82 -10.35,-5.7 -16.99,-5.7 -7.76,0 -14.7,3.53 -20.76,10.52 -8.23,9.53 -13.87,24.46 -16.81,44.92 -3,20.41 -4.47,40.52 -4.47,60.39z"/>
  <path id="3" class="fil2" d="M17998.52 18943.06l0 157.16 39.98 -36.63c8.52,-7.82 13.46,-12.76 14.81,-14.82 0.95,-1.41 1.42,-2.76 1.42,-4.17 0,-2.29 -1,-4.23 -2.89,-5.94 -1.88,-1.65 -4.99,-2.59 -9.4,-2.82l0 -5.65 68.61 0 0 5.65c-9.35,0.23 -17.17,1.7 -23.4,4.35 -6.23,2.7 -13.05,7.47 -20.52,14.29l-40.63 37.22 40.34 51.33c11.29,14.05 18.81,23.04 22.58,26.98 5.58,5.24 10.4,8.65 14.58,10.17 2.94,1.12 7.99,1.71 15.17,1.71l0 6.35 -76.73 0 0 -6.35c4.41,-0.12 7.35,-0.76 8.88,-1.94 1.58,-1.24 2.35,-2.88 2.35,-5.06 0,-2.64 -2.3,-6.88 -6.88,-12.7l-48.27 -61.79 0 52.21c0,10.23 0.7,16.93 2.11,20.17 1.47,3.17 3.47,5.46 6.12,6.88 2.64,1.35 8.35,2.11 17.17,2.23l0 6.35 -80.08 0 0 -6.35c7.99,0 14.05,-1 18.05,-2.94 2.41,-1.23 4.23,-3.17 5.46,-5.76 1.71,-3.76 2.59,-10.29 2.59,-19.52l0 -143.94c0,-18.05 -0.41,-29.1 -1.18,-33.16 -0.82,-4.05 -2.11,-6.82 -3.99,-8.35 -1.83,-1.58 -4.24,-2.35 -7.18,-2.35 -2.41,0 -6.05,1 -10.82,2.94l-2.93 -6.35 46.74 -19.4 7.94 0z"/>
  <path id="4" class="fil2" d="M18175.26 19059.36c11.41,-11.53 18.17,-18.17 20.22,-19.93 5.12,-4.36 10.65,-7.77 16.59,-10.18 5.93,-2.41 11.81,-3.64 17.63,-3.64 9.88,0 18.29,2.88 25.4,8.64 7.06,5.76 11.82,14.11 14.17,25.11 11.88,-13.88 21.88,-22.93 30.05,-27.28 8.17,-4.3 16.58,-6.47 25.22,-6.47 8.35,0 15.82,2.17 22.35,6.47 6.46,4.29 11.64,11.34 15.4,21.16 2.53,6.65 3.82,17.11 3.82,31.4l0 67.97c0,9.82 0.71,16.58 2.18,20.23 1.12,2.46 3.23,4.64 6.23,6.4 3.06,1.77 8,2.65 14.88,2.65l0 6.35 -77.26 0 0 -6.35 3.29 0c6.7,0 11.99,-1.29 15.76,-3.94 2.64,-1.82 4.52,-4.76 5.64,-8.76 0.47,-1.94 0.71,-7.47 0.71,-16.58l0 -67.91c0,-12.88 -1.53,-21.93 -4.65,-27.22 -4.52,-7.35 -11.7,-11.06 -21.63,-11.06 -6.06,0 -12.23,1.53 -18.41,4.59 -6.11,3 -13.58,8.7 -22.34,16.93l-0.35 1.94 0.7 7.41 0 75.32c0,10.7 0.59,17.4 1.77,20.05 1.23,2.59 3.46,4.82 6.76,6.58 3.29,1.77 8.93,2.65 16.87,2.65l0 6.35 -79.37 0 0 -6.35c8.64,0 14.58,-1 17.81,-3.06 3.24,-2.06 5.47,-5.17 6.7,-9.29 0.59,-1.94 0.89,-7.58 0.89,-16.93l0 -67.91c0,-12.88 -1.88,-22.17 -5.65,-27.87 -5.05,-7.41 -12.05,-11.11 -21.11,-11.11 -6.17,0 -12.28,1.7 -18.34,5.05 -9.47,5.06 -16.82,10.82 -21.93,17.17l0 84.67c0,10.29 0.7,16.93 2.12,20.05 1.41,3.06 3.52,5.35 6.35,6.94 2.76,1.53 8.4,2.29 16.93,2.29l0 6.35 -77.97 0 0 -6.35c7.24,0 12.29,-0.76 15.17,-2.29 2.89,-1.59 5.06,-4 6.59,-7.41 1.47,-3.35 2.23,-9.88 2.23,-19.58l0 -60.33c0,-17.28 -0.53,-28.45 -1.53,-33.51 -0.82,-3.82 -2.05,-6.41 -3.82,-7.82 -1.7,-1.47 -4.05,-2.18 -6.99,-2.18 -3.24,0 -7.06,0.89 -11.53,2.59l-2.58 -6.35 47.62 -19.4 7.41 0 0 33.75z"/>
  <path class="fil2" d="M17617.98 20072.04l0 24.34 -31.39 0 0 61.74 -28.58 0 0 -61.74 -98.43 0 0 -21.93 107.96 -154.81 19.05 0 0 152.4 31.39 0zm-59.97 0l0 -116.06 -81.61 116.06 81.61 0z"/>
  <path id="1" class="fil2" d="M17643.03 20042.53c0,-26.64 4,-49.51 12.05,-68.74 8.06,-19.22 18.7,-33.57 32.05,-42.98 10.29,-7.47 20.99,-11.17 31.98,-11.17 17.94,0 33.99,9.11 48.22,27.34 17.81,22.64 26.69,53.27 26.69,91.96 0,27.05 -3.88,50.09 -11.7,69.03 -7.82,18.93 -17.76,32.63 -29.87,41.21 -12.11,8.53 -23.81,12.82 -35.04,12.82 -22.29,0 -40.81,-13.11 -55.62,-39.39 -12.53,-22.17 -18.76,-48.86 -18.76,-80.08zm33.87 4.23c0,32.1 3.94,58.33 11.82,78.67 6.52,17.11 16.28,25.63 29.22,25.63 6.17,0 12.58,-2.76 19.22,-8.34 6.65,-5.59 11.65,-14.88 15.11,-27.99 5.24,-19.7 7.88,-47.57 7.88,-83.43 0,-26.64 -2.76,-48.86 -8.23,-66.62 -4.11,-13.23 -9.46,-22.58 -15.99,-28.05 -4.65,-3.82 -10.35,-5.7 -16.99,-5.7 -7.76,0 -14.7,3.53 -20.76,10.52 -8.23,9.53 -13.87,24.46 -16.81,44.92 -3,20.41 -4.47,40.52 -4.47,60.39z"/>
  <path id="2" class="fil2" d="M17819.42 20042.53c0,-26.64 4,-49.51 12.05,-68.74 8.06,-19.22 18.7,-33.57 32.05,-42.98 10.29,-7.47 20.99,-11.17 31.98,-11.17 17.94,0 33.99,9.11 48.22,27.34 17.81,22.64 26.69,53.27 26.69,91.96 0,27.05 -3.88,50.09 -11.7,69.03 -7.82,18.93 -17.76,32.63 -29.87,41.21 -12.11,8.53 -23.81,12.82 -35.04,12.82 -22.29,0 -40.81,-13.11 -55.62,-39.39 -12.53,-22.17 -18.76,-48.86 -18.76,-80.08zm33.87 4.23c0,32.1 3.94,58.33 11.82,78.67 6.52,17.11 16.28,25.63 29.22,25.63 6.17,0 12.58,-2.76 19.22,-8.34 6.65,-5.59 11.65,-14.88 15.11,-27.99 5.24,-19.7 7.88,-47.57 7.88,-83.43 0,-26.64 -2.76,-48.86 -8.23,-66.62 -4.11,-13.23 -9.46,-22.58 -15.99,-28.05 -4.65,-3.82 -10.35,-5.7 -16.99,-5.7 -7.76,0 -14.7,3.53 -20.76,10.52 -8.23,9.53 -13.87,24.46 -16.81,44.92 -3,20.41 -4.47,40.52 -4.47,60.39z"/>
  <path id="3" class="fil2" d="M18129.52 20029.24c11.41,-11.53 18.17,-18.17 20.22,-19.93 5.12,-4.36 10.65,-7.77 16.59,-10.18 5.93,-2.41 11.81,-3.64 17.63,-3.64 9.88,0 18.29,2.88 25.4,8.64 7.06,5.76 11.82,14.11 14.17,25.11 11.88,-13.88 21.88,-22.93 30.05,-27.28 8.17,-4.3 16.58,-6.47 25.22,-6.47 8.35,0 15.82,2.17 22.35,6.47 6.46,4.29 11.64,11.34 15.4,21.16 2.53,6.65 3.82,17.11 3.82,31.4l0 67.97c0,9.82 0.71,16.58 2.18,20.23 1.12,2.46 3.23,4.64 6.23,6.4 3.06,1.77 8,2.65 14.88,2.65l0 6.35 -77.26 0 0 -6.35 3.29 0c6.7,0 11.99,-1.29 15.76,-3.94 2.64,-1.82 4.52,-4.76 5.64,-8.76 0.47,-1.94 0.71,-7.47 0.71,-16.58l0 -67.91c0,-12.88 -1.53,-21.93 -4.65,-27.22 -4.52,-7.35 -11.7,-11.06 -21.63,-11.06 -6.06,0 -12.23,1.53 -18.41,4.59 -6.11,3 -13.58,8.7 -22.34,16.93l-0.35 1.94 0.7 7.41 0 75.32c0,10.7 0.59,17.4 1.77,20.05 1.23,2.59 3.46,4.82 6.76,6.58 3.29,1.77 8.93,2.65 16.87,2.65l0 6.35 -79.37 0 0 -6.35c8.64,0 14.58,-1 17.81,-3.06 3.24,-2.06 5.47,-5.17 6.7,-9.29 0.59,-1.94 0.89,-7.58 0.89,-16.93l0 -67.91c0,-12.88 -1.88,-22.17 -5.65,-27.87 -5.05,-7.41 -12.05,-11.11 -21.11,-11.11 -6.17,0 -12.28,1.7 -18.34,5.05 -9.47,5.06 -16.82,10.82 -21.93,17.17l0 84.67c0,10.29 0.7,16.93 2.12,20.05 1.41,3.06 3.52,5.35 6.35,6.94 2.76,1.53 8.4,2.29 16.93,2.29l0 6.35 -77.97 0 0 -6.35c7.24,0 12.29,-0.76 15.17,-2.29 2.89,-1.59 5.06,-4 6.59,-7.41 1.47,-3.35 2.23,-9.88 2.23,-19.58l0 -60.33c0,-17.28 -0.53,-28.45 -1.53,-33.51 -0.82,-3.82 -2.05,-6.41 -3.82,-7.82 -1.7,-1.47 -4.05,-2.18 -6.99,-2.18 -3.24,0 -7.06,0.89 -11.53,2.59l-2.58 -6.35 47.62 -19.4 7.41 0 0 33.75z"/>
  <path id="4" class="fil2" d="M18397.16 19912.94c4.76,0 8.88,1.7 12.29,5.05 3.35,3.41 5.05,7.53 5.05,12.29 0,4.82 -1.7,9 -5.05,12.41 -3.41,3.47 -7.53,5.17 -12.29,5.17 -4.82,0 -9,-1.7 -12.41,-5.17 -3.47,-3.41 -5.17,-7.59 -5.17,-12.41 0,-4.76 1.7,-8.88 5.05,-12.29 3.41,-3.35 7.59,-5.05 12.53,-5.05zm14.17 82.55l0 127c0,9.82 0.7,16.34 2.17,19.58 1.41,3.29 3.53,5.7 6.35,7.29 2.82,1.59 8,2.41 15.47,2.41l0 6.35 -76.56 0 0 -6.35c7.65,0 12.82,-0.76 15.41,-2.23 2.64,-1.47 4.7,-3.94 6.29,-7.35 1.53,-3.41 2.29,-10 2.29,-19.7l0 -61.03c0,-16.99 -0.53,-27.99 -1.53,-33.05 -0.82,-3.64 -2.05,-6.17 -3.82,-7.58 -1.7,-1.47 -4.06,-2.18 -7,-2.18 -3.23,0 -7.11,0.89 -11.7,2.59l-2.41 -6.35 47.45 -19.4 7.59 0z"/>
  <path class="fil2" d="M19583.11 20283.25c0,-17.45 4.47,-34.48 13.46,-51.13 8.93,-16.61 21.77,-29.59 38.43,-38.86 16.69,-9.26 34.1,-13.92 52.16,-13.92 17.92,0 35.18,4.56 51.69,13.74 16.56,9.12 29.4,21.92 38.53,38.43 9.17,16.51 13.73,33.77 13.73,51.74 0,18.01 -4.56,35.27 -13.73,51.78 -9.13,16.51 -21.97,29.35 -38.53,38.53 -16.51,9.17 -33.77,13.78 -51.69,13.78 -18.06,0 -35.47,-4.66 -52.16,-13.97 -16.66,-9.36 -29.5,-22.34 -38.43,-38.95 -8.99,-16.65 -13.46,-33.68 -13.46,-51.17zm17.22 0c0,14.62 3.76,28.88 11.24,42.7 7.48,13.83 18.2,24.65 32.13,32.46 13.92,7.81 28.41,11.71 43.46,11.71 15,0 29.35,-3.85 43.08,-11.52 13.74,-7.67 24.46,-18.39 32.13,-32.17 7.67,-13.79 11.52,-28.18 11.52,-43.18 0,-14.96 -3.85,-29.36 -11.52,-43.14 -7.67,-13.78 -18.39,-24.5 -32.13,-32.12 -13.73,-7.62 -28.08,-11.43 -43.08,-11.43 -15.05,0 -29.54,3.9 -43.46,11.66 -13.93,7.76 -24.65,18.58 -32.13,32.46 -7.48,13.87 -11.24,28.08 -11.24,42.57zm103.57 -33.35l5.08 -16.94c11.53,2.78 20.7,8.61 27.52,17.55 6.87,8.98 10.3,19.85 10.3,32.59 0,16.19 -5.22,29.31 -15.71,39.42 -10.49,10.11 -24.98,15.15 -43.55,15.15 -12.14,0 -22.68,-2.31 -31.61,-6.92 -8.99,-4.56 -15.71,-11.15 -20.28,-19.61 -4.56,-8.52 -6.82,-18.25 -6.82,-29.16 0,-12.23 2.92,-22.39 8.8,-30.48 5.88,-8.09 13.88,-13.6 23.94,-16.56l4.23 16.37c-6.91,2.77 -12.23,6.82 -15.89,12.23 -3.72,5.41 -5.55,11.71 -5.55,19 0,10.58 3.76,19.33 11.28,26.2 7.53,6.87 18.35,10.3 32.37,10.3 14.06,0 24.69,-3.24 31.89,-9.74 7.19,-6.49 10.81,-14.86 10.81,-25.16 0,-8.28 -2.39,-15.57 -7.24,-21.83 -4.8,-6.25 -11.33,-10.39 -19.57,-12.41z"/>
  <path id="1" class="fil2" d="M19788.57 19988.09l-18.58 0c14.44,9.27 21.68,22.91 21.68,40.92 0,11.67 -3.19,22.39 -9.64,32.13 -6.4,9.78 -15.38,17.35 -26.86,22.76 -11.52,5.37 -24.74,8.05 -39.69,8.05 -14.59,0 -27.8,-2.45 -39.7,-7.29 -11.86,-4.9 -20.98,-12.19 -27.29,-21.92 -6.35,-9.69 -9.5,-20.61 -9.5,-32.6 0,-8.84 1.88,-16.7 5.6,-23.56 3.72,-6.87 8.61,-12.47 14.58,-16.8l-72.67 0 0 -24.83 202.07 0 0 23.14zm-73.05 78.46c18.72,0 32.69,-3.95 41.96,-11.9 9.26,-7.91 13.87,-17.27 13.87,-28.04 0,-10.86 -4.42,-20.08 -13.26,-27.7 -8.84,-7.57 -22.34,-11.38 -40.5,-11.38 -19.94,0 -34.62,3.85 -43.98,11.61 -9.36,7.72 -14.01,17.27 -14.01,28.6 0,11.06 4.46,20.27 13.45,27.71 8.98,7.38 23.14,11.1 42.47,11.1z"/>
  <path id="2" class="fil2" d="M19727.89 19935.55l-24.83 0 0 -76.76 24.83 0 0 76.76z"/>
  <path id="3" class="fil2" d="M19788.57 19831.69l-146.47 0 0 -22.29 20.69 0c-7.15,-4.56 -12.93,-10.68 -17.26,-18.3 -4.37,-7.62 -6.54,-16.27 -6.54,-26.01 0,-10.82 2.26,-19.71 6.73,-26.62 4.52,-6.92 10.77,-11.81 18.86,-14.63 -17.07,-11.67 -25.59,-26.77 -25.59,-45.39 0,-14.58 4,-25.83 12.04,-33.63 8.05,-7.86 20.42,-11.81 37.12,-11.81l100.42 0 0 24.84 -92.19 0c-9.88,0 -17.03,0.84 -21.4,2.44 -4.38,1.6 -7.86,4.52 -10.54,8.8 -2.68,4.23 -4,9.22 -4,14.91 0,10.35 3.44,18.91 10.26,25.73 6.86,6.82 17.82,10.2 32.87,10.2l85 0 0 24.84 -95.06 0c-11.01,0 -19.29,2.02 -24.79,6.07 -5.5,4.04 -8.28,10.67 -8.28,19.85 0,6.96 1.84,13.4 5.51,19.33 3.66,5.93 9.03,10.21 16.13,12.89 7.05,2.63 17.26,3.95 30.57,3.95l75.92 0 0 24.83z"/>
  <path id="4" class="fil2" d="M19770.23 19500.93c7.85,9.22 13.35,18.11 16.6,26.62 3.25,8.52 4.84,17.64 4.84,27.43 0,16.08 -3.9,28.45 -11.75,37.11 -7.81,8.65 -17.83,12.98 -30.01,12.98 -7.15,0 -13.69,-1.65 -19.62,-4.89 -5.93,-3.29 -10.63,-7.57 -14.2,-12.84 -3.58,-5.32 -6.31,-11.24 -8.14,-17.88 -1.27,-4.89 -2.49,-12.27 -3.72,-22.1 -2.35,-20.04 -5.22,-34.86 -8.51,-44.31 -3.39,-0.1 -5.55,-0.14 -6.44,-0.14 -10.07,0 -17.17,2.35 -21.31,7.05 -5.6,6.35 -8.37,15.81 -8.37,28.32 0,11.71 2.07,20.36 6.16,25.92 4.09,5.59 11.38,9.68 21.78,12.37l-3.39 24.27c-10.4,-2.21 -18.82,-5.84 -25.21,-10.92 -6.4,-5.08 -11.29,-12.41 -14.77,-22.01 -3.44,-9.55 -5.18,-20.7 -5.18,-33.3 0,-12.51 1.46,-22.72 4.42,-30.57 2.97,-7.81 6.64,-13.6 11.11,-17.27 4.46,-3.67 10.11,-6.25 16.93,-7.76 4.23,-0.8 11.85,-1.22 22.81,-1.22l32.93 0c23,0 37.53,-0.52 43.69,-1.55 6.17,-0.99 12.05,-3.06 17.69,-6.07l0 25.96c-5.22,2.5 -11.34,4.1 -18.34,4.8zm-55.04 1.98c3.67,9.03 6.78,22.57 9.32,40.64 1.45,10.25 3.1,17.49 4.93,21.73 1.84,4.23 4.52,7.48 8,9.78 3.53,2.31 7.43,3.48 11.76,3.48 6.54,0 12.04,-2.49 16.42,-7.52 4.37,-5.04 6.58,-12.38 6.58,-22.02 0,-9.55 -2.07,-18.06 -6.25,-25.54 -4.14,-7.43 -9.84,-12.93 -17.03,-16.41 -5.6,-2.69 -13.83,-4 -24.7,-4l-9.03 -0.14z"/>
  <path id="5" class="fil2" d="M19844.73 19439.64l-202.63 0 0 -22.57 19.24 0c-7.44,-5.32 -13.03,-11.34 -16.75,-18.07 -3.72,-6.68 -5.6,-14.81 -5.6,-24.36 0,-12.51 3.2,-23.52 9.65,-33.07 6.39,-9.55 15.47,-16.74 27.14,-21.63 11.71,-4.85 24.5,-7.3 38.47,-7.3 14.91,0 28.37,2.69 40.36,8.05 11.95,5.36 21.12,13.17 27.52,23.42 6.35,10.21 9.54,20.98 9.54,32.27 0,8.28 -1.74,15.71 -5.22,22.25 -3.48,6.58 -7.85,11.94 -13.17,16.18l71.45 0 0 24.83zm-128.5 -22.57c18.77,0 32.69,-3.81 41.67,-11.39 8.99,-7.62 13.45,-16.84 13.45,-27.65 0,-11.01 -4.65,-20.42 -13.97,-28.23 -9.31,-7.85 -23.7,-11.76 -43.22,-11.76 -18.63,0 -32.55,3.81 -41.82,11.48 -9.26,7.67 -13.87,16.79 -13.87,27.42 0,10.54 4.94,19.85 14.77,27.94 9.87,8.14 24.17,12.19 42.99,12.19z"/>
  <path id="6" class="fil2" d="M19744.83 19292.56l-3.96 -24.55c9.84,-1.37 17.36,-5.22 22.63,-11.53 5.22,-6.3 7.85,-15.14 7.85,-26.43 0,-11.43 -2.3,-19.9 -6.96,-25.45 -4.61,-5.5 -10.06,-8.28 -16.32,-8.28 -5.6,0 -10.02,2.5 -13.22,7.44 -2.21,3.48 -4.98,11.94 -8.42,25.4 -4.56,18.15 -8.51,30.71 -11.85,37.77 -3.39,7 -7.99,12.32 -13.92,15.94 -5.88,3.62 -12.42,5.46 -19.57,5.46 -6.54,0 -12.56,-1.51 -18.11,-4.47 -5.55,-3.01 -10.16,-7.06 -13.83,-12.18 -2.82,-3.86 -5.22,-9.13 -7.19,-15.76 -1.98,-6.68 -2.97,-13.78 -2.97,-21.4 0,-11.48 1.65,-21.54 4.99,-30.2 3.29,-8.7 7.81,-15.1 13.45,-19.24 5.69,-4.09 13.27,-6.96 22.77,-8.51l3.38 24.27c-7.62,1.08 -13.59,4.28 -17.87,9.55 -4.28,5.27 -6.4,12.7 -6.4,22.34 0,11.34 1.88,19.47 5.65,24.32 3.76,4.84 8.18,7.29 13.21,7.29 3.2,0 6.12,-0.99 8.71,-3.01 2.63,-2.02 4.84,-5.18 6.58,-9.5 0.94,-2.5 3.06,-9.74 6.35,-21.87 4.66,-17.5 8.52,-29.73 11.48,-36.69 2.96,-6.96 7.34,-12.42 12.98,-16.37 5.69,-4 12.75,-5.98 21.21,-5.98 8.24,0 16,2.4 23.29,7.25 7.29,4.84 12.93,11.8 16.93,20.88 4,9.13 5.97,19.43 5.97,30.91 0,19 -3.95,33.53 -11.8,43.5 -7.9,9.98 -19.57,16.33 -35.04,19.1z"/>
  <path id="7" class="fil2" d="M19788.57 19134.52l-28.22 0 0 -28.22 28.22 0 0 28.22z"/>
  <path id="8" class="fil2" d="M19734.95 18967.49l3.38 -24.27c16.7,2.68 29.73,9.45 39.19,20.41 9.45,10.96 14.15,24.46 14.15,40.41 0,19.99 -6.53,36.08 -19.61,48.21 -13.08,12.18 -31.8,18.25 -56.16,18.25 -15.81,0 -29.59,-2.63 -41.39,-7.85 -11.86,-5.22 -20.75,-13.17 -26.63,-23.9 -5.92,-10.68 -8.89,-22.29 -8.89,-34.9 0,-15.85 4,-28.88 12.04,-38.95 8.05,-10.11 19.48,-16.6 34.25,-19.42l3.67 23.99c-9.83,2.3 -17.22,6.35 -22.2,12.23 -4.94,5.83 -7.44,12.88 -7.44,21.16 0,12.51 4.47,22.67 13.41,30.53 8.98,7.81 23.09,11.71 42.47,11.71 19.66,0 33.92,-3.76 42.81,-11.29 8.89,-7.57 13.35,-17.4 13.35,-29.49 0,-9.78 -2.96,-17.92 -8.93,-24.41 -5.93,-6.54 -15.1,-10.68 -27.47,-12.42z"/>
  <path id="9" class="fil2" d="M19715.33 18931.37c-27.04,0 -47.08,-7.53 -60.11,-22.63 -10.82,-12.56 -16.23,-27.94 -16.23,-46.05 0,-20.08 6.59,-36.54 19.76,-49.34 13.12,-12.75 31.33,-19.14 54.51,-19.14 18.82,0 33.59,2.82 44.36,8.46 10.77,5.65 19.14,13.88 25.12,24.7 5.97,10.77 8.93,22.58 8.93,35.32 0,20.51 -6.53,37.07 -19.66,49.72 -13.12,12.65 -32.03,18.96 -56.68,18.96zm0.05 -25.4c18.72,0 32.74,-4.1 42,-12.28 9.32,-8.23 13.97,-18.53 13.97,-31 0,-12.32 -4.65,-22.57 -14.01,-30.81 -9.36,-8.18 -23.61,-12.27 -42.76,-12.27 -18.06,0 -31.75,4.14 -41.01,12.37 -9.32,8.23 -13.97,18.48 -13.97,30.71 0,12.47 4.61,22.77 13.87,31 9.27,8.18 23.24,12.28 41.91,12.28z"/>
  <path id="10" class="fil2" d="M19788.57 18765.09l-146.47 0 0 -22.29 20.69 0c-7.15,-4.56 -12.93,-10.68 -17.26,-18.3 -4.37,-7.62 -6.54,-16.27 -6.54,-26.01 0,-10.82 2.26,-19.71 6.73,-26.62 4.52,-6.92 10.77,-11.81 18.86,-14.63 -17.07,-11.67 -25.59,-26.77 -25.59,-45.39 0,-14.58 4,-25.83 12.04,-33.63 8.05,-7.86 20.42,-11.81 37.12,-11.81l100.42 0 0 24.84 -92.19 0c-9.88,0 -17.03,0.84 -21.4,2.44 -4.38,1.6 -7.86,4.52 -10.54,8.8 -2.68,4.23 -4,9.22 -4,14.91 0,10.35 3.44,18.91 10.26,25.73 6.86,6.82 17.82,10.2 32.87,10.2l85 0 0 24.84 -95.06 0c-11.01,0 -19.29,2.02 -24.79,6.07 -5.5,4.04 -8.28,10.67 -8.28,19.85 0,6.96 1.84,13.4 5.51,19.33 3.66,5.93 9.03,10.21 16.13,12.89 7.05,2.63 17.26,3.95 30.57,3.95l75.92 0 0 24.83z"/>
  <g id="_2771698455168">
   <path class="fil3 str2" d="M16601.72 19382.93l839.49 0 0 99.16 -839.49 0 0 -99.16z"/>
   <path class="fil4 str2" d="M17441.21 19382.93l839.5 0 0 99.16 -839.5 0 0 -99.16z"/>
   <path class="fil3 str2" d="M18280.7 19382.93l839.49 0 0 99.16 -839.49 0 0 -99.16z"/>
   <path class="fil3 str2" d="M17947.34 19681.87l1342.68 0 0 99.16 -1342.68 0 0 -99.16z"/>
   <path class="fil4 str2" d="M16604.66 19681.87l1342.69 0 0 99.16 -1342.69 0 0 -99.16z"/>
  </g>
  <g id="_2771698452896">
   <path class="fil1 str1" d="M15508.13 18779.83l815.93 0 0 1592.89 -815.93 0 0 -1592.89z"/>
   <path class="fil5" d="M15856.23 19215.96c-0.92,3.32 -1.63,6.35 -2.07,9.15 -0.44,2.79 -0.65,5.18 -0.65,7.22 0,5.59 1.8,9.56 5.29,11.89 3.49,2.33 9.55,3.49 18.05,3.49l4.15 0 -4.96 22.72 -78.17 0 5.29 -22.72 2.89 0c7.36,0 12.82,-1.51 16.48,-4.54 3.6,-2.97 6.32,-8.39 8.12,-16.14l37.59 -153.79c0.6,-2.74 1.14,-5.54 1.52,-8.45 0.33,-2.91 0.55,-5.77 0.55,-8.62 0,-5.36 -1.96,-9.15 -5.95,-11.36 -3.92,-2.22 -10.69,-3.32 -20.23,-3.32l-3.06 0 5.29 -22.72 72.33 0 62.14 183.5 31.31 -129.03c1.08,-4.2 1.85,-7.63 2.34,-10.31 0.49,-2.68 0.71,-4.72 0.71,-6.06 0,-5.6 -1.8,-9.56 -5.35,-11.89 -3.6,-2.33 -9.71,-3.49 -18.32,-3.49l-4.15 0 4.96 -22.72 78.5 0 -5.62 22.72 -2.84 0c-7.37,0 -12.87,1.51 -16.47,4.54 -3.66,2.97 -6.33,8.33 -8.18,15.96l-50.68 208.44 -21.54 0 -72.06 -209.48 -37.21 155.01z"/>
   <path class="fil6 str3" d="M15916.92 20239.52l0 -769.27"/>
   <path class="fil6 str3" d="M15634.87 19963.47l563.14 0"/>
   <path class="fil6 str3" d="M15772.02 20103.46l294.22 -286.81"/>
   <path class="fil6 str3" d="M15768.88 19816.41l297.98 288.85"/>
   <path class="fil6 str3" d="M15916.78 19472.98l-95.47 118.01"/>
   <path class="fil6 str3" d="M15917.4 19472.94l87.89 118.05"/>
  </g>
  <g id="_2771698442368">
   <path class="fil1 str1" d="M14746.13 19899.02l0 473.7 -2309.37 0 0 -473.7 2309.37 0z"/>
   <path class="fil5" d="M13514.1 20237.49l0 -202.07 40.07 0 47.79 143.04c4.42,13.31 7.62,23.28 9.64,29.91 2.31,-7.33 5.93,-18.15 10.82,-32.4l48.64 -140.55 35.79 0 0 202.07 -25.68 0 0 -169.05 -58.98 169.05 -24.09 0 -58.32 -172.15 0 172.15 -25.68 0z"/>
   <path id="1" class="fil5" d="M13846.55 20190.08l25.68 3.38c-3.99,14.91 -11.47,26.53 -22.39,34.76 -10.91,8.24 -24.83,12.37 -41.81,12.37 -21.36,0 -38.29,-6.58 -50.8,-19.75 -12.51,-13.12 -18.77,-31.61 -18.77,-55.36 0,-24.56 6.31,-43.65 18.96,-57.2 12.65,-13.59 29.07,-20.37 49.25,-20.37 19.52,0 35.46,6.64 47.83,19.95 12.37,13.31 18.58,32.03 18.58,56.16 0,1.46 -0.05,3.67 -0.14,6.58l-109.08 0c0.94,16.04 5.46,28.37 13.64,36.88 8.14,8.51 18.35,12.79 30.53,12.79 9.08,0 16.84,-2.39 23.24,-7.19 6.44,-4.8 11.52,-12.47 15.28,-23zm-81.28 -39.8l81.56 0c-1.08,-12.32 -4.23,-21.54 -9.36,-27.7 -7.85,-9.55 -18.1,-14.35 -30.66,-14.35 -11.39,0 -20.93,3.81 -28.7,11.43 -7.71,7.62 -11.99,17.83 -12.84,30.62z"/>
   <path id="2" class="fil5" d="M13903.32 20237.49l0 -146.47 22.3 0 0 22.43c5.69,-10.39 10.96,-17.26 15.8,-20.55 4.85,-3.34 10.16,-4.99 15.95,-4.99 8.37,0 16.89,2.64 25.54,7.86l-8.84 22.91c-6.02,-3.39 -12.04,-5.08 -18.06,-5.08 -5.41,0 -10.26,1.64 -14.54,4.89 -4.28,3.24 -7.34,7.76 -9.17,13.54 -2.78,8.8 -4.14,18.44 -4.14,28.93l0 76.53 -24.84 0z"/>
   <path id="3" class="fil5" d="M14093.26 20183.87l24.27 3.38c-2.68,16.7 -9.45,29.73 -20.41,39.19 -10.96,9.45 -24.46,14.15 -40.41,14.15 -19.99,0 -36.08,-6.53 -48.21,-19.61 -12.18,-13.08 -18.25,-31.8 -18.25,-56.16 0,-15.81 2.63,-29.59 7.85,-41.44 5.22,-11.81 13.17,-20.7 23.9,-26.58 10.68,-5.92 22.29,-8.89 34.9,-8.89 15.85,0 28.88,4 38.95,12.04 10.11,8.05 16.6,19.48 19.42,34.25l-23.99 3.67c-2.3,-9.83 -6.35,-17.22 -12.23,-22.2 -5.83,-4.94 -12.88,-7.44 -21.16,-7.44 -12.51,0 -22.67,4.47 -30.53,13.41 -7.81,8.98 -11.71,23.09 -11.71,42.47 0,19.66 3.76,33.92 11.29,42.81 7.57,8.89 17.4,13.35 29.49,13.35 9.78,0 17.92,-2.96 24.41,-8.93 6.54,-5.93 10.68,-15.1 12.42,-27.47z"/>
   <path id="4" class="fil5" d="M14234.37 20219.15c-9.22,7.85 -18.11,13.35 -26.62,16.6 -8.52,3.25 -17.64,4.84 -27.43,4.84 -16.08,0 -28.45,-3.9 -37.11,-11.75 -8.65,-7.81 -12.98,-17.83 -12.98,-30.01 0,-7.15 1.65,-13.69 4.89,-19.62 3.29,-5.93 7.57,-10.63 12.84,-14.2 5.32,-3.58 11.24,-6.31 17.88,-8.14 4.89,-1.27 12.27,-2.49 22.1,-3.72 20.04,-2.35 34.86,-5.22 44.31,-8.51 0.1,-3.39 0.14,-5.55 0.14,-6.44 0,-10.07 -2.35,-17.17 -7.05,-21.31 -6.35,-5.6 -15.81,-8.37 -28.32,-8.37 -11.71,0 -20.36,2.07 -25.92,6.16 -5.59,4.09 -9.68,11.33 -12.37,21.78l-24.27 -3.39c2.21,-10.4 5.84,-18.82 10.92,-25.21 5.08,-6.4 12.41,-11.29 22.01,-14.77 9.55,-3.44 20.7,-5.18 33.3,-5.18 12.51,0 22.72,1.46 30.57,4.42 7.81,2.97 13.6,6.64 17.27,11.11 3.67,4.46 6.25,10.11 7.76,16.93 0.8,4.23 1.22,11.85 1.22,22.81l0 32.93c0,23 0.52,37.53 1.55,43.69 0.99,6.17 3.06,12.05 6.07,17.69l-25.96 0c-2.5,-5.22 -4.1,-11.34 -4.8,-18.34zm-1.98 -55.04c-9.03,3.67 -22.57,6.78 -40.64,9.32 -10.25,1.45 -17.49,3.1 -21.73,4.93 -4.23,1.84 -7.48,4.52 -9.78,8 -2.31,3.53 -3.48,7.43 -3.48,11.76 0,6.54 2.49,12.04 7.52,16.42 5.04,4.37 12.38,6.58 22.02,6.58 9.55,0 18.06,-2.07 25.54,-6.25 7.43,-4.14 12.93,-9.84 16.41,-17.03 2.69,-5.6 4,-13.83 4,-24.7l0.14 -9.03z"/>
   <path id="5" class="fil5" d="M14349.56 20215.34l3.39 21.91c-6.96,1.46 -13.22,2.22 -18.68,2.22 -8.98,0 -15.94,-1.42 -20.93,-4.28 -4.94,-2.87 -8.42,-6.59 -10.44,-11.25 -2.02,-4.65 -3.01,-14.44 -3.01,-29.35l0 -84.38 -18.34 0 0 -19.19 18.34 0 0 -36.22 24.84 -14.91 0 51.13 24.83 0 0 19.19 -24.83 0 0 85.79c0,7.11 0.42,11.67 1.31,13.69 0.85,2.02 2.26,3.62 4.24,4.85 1.97,1.17 4.79,1.78 8.46,1.78 2.73,0 6.35,-0.33 10.82,-0.98z"/>
   <path id="6" class="fil5" d="M14364.75 20164.25c0,-27.04 7.53,-47.08 22.63,-60.11 12.56,-10.82 27.94,-16.23 46.05,-16.23 20.08,0 36.54,6.59 49.34,19.76 12.75,13.12 19.14,31.33 19.14,54.51 0,18.82 -2.82,33.59 -8.46,44.36 -5.65,10.77 -13.88,19.14 -24.7,25.12 -10.77,5.97 -22.58,8.93 -35.32,8.93 -20.51,0 -37.07,-6.53 -49.72,-19.66 -12.65,-13.12 -18.96,-32.03 -18.96,-56.68zm25.4 0.05c0,18.72 4.1,32.74 12.28,42 8.23,9.32 18.53,13.97 31,13.97 12.32,0 22.57,-4.65 30.81,-14.01 8.18,-9.36 12.27,-23.61 12.27,-42.76 0,-18.06 -4.14,-31.75 -12.37,-41.01 -8.23,-9.32 -18.48,-13.97 -30.71,-13.97 -12.47,0 -22.77,4.61 -31,13.87 -8.18,9.27 -12.28,23.24 -12.28,41.91z"/>
   <path id="7" class="fil5" d="M14530.74 20237.49l0 -146.47 22.3 0 0 22.43c5.69,-10.39 10.96,-17.26 15.8,-20.55 4.85,-3.34 10.16,-4.99 15.95,-4.99 8.37,0 16.89,2.64 25.54,7.86l-8.84 22.91c-6.02,-3.39 -12.04,-5.08 -18.06,-5.08 -5.41,0 -10.26,1.64 -14.54,4.89 -4.28,3.24 -7.34,7.76 -9.17,13.54 -2.78,8.8 -4.14,18.44 -4.14,28.93l0 76.53 -24.84 0z"/>
   <circle class="fil7 str4" cx="12655.13" cy="20132.17" r="118.79"/>
   <rect class="fil7 str4" x="13113.06" y="20023.89" width="226.91" height="226.91"/>
   <path class="fil6 str5" d="M12829.03 20131.3l220.31 0"/>
   <path class="fil6 str5" d="M13046.68 20131.96l-64.02 65.38"/>
   <path class="fil6 str5" d="M13046.85 20130.82l-63.42 -61.39"/>
  </g>
  <rect class="fil6 str6" x="1000" y="1000" width="19000" height="19606.59"/>
 </g>
</svg>
