<?xml version="1.0" encoding="UTF-8"?>
<!DOCTYPE svg PUBLIC "-//W3C//DTD SVG 1.1//EN" "http://www.w3.org/Graphics/SVG/1.1/DTD/svg11.dtd">
<!-- Creator: CorelDRAW -->
<svg xmlns="http://www.w3.org/2000/svg" xml:space="preserve" width="297mm" height="210mm" version="1.1" style="shape-rendering:geometricPrecision; text-rendering:geometricPrecision; image-rendering:optimizeQuality; fill-rule:evenodd; clip-rule:evenodd"
viewBox="0 0 29700 21000"
 xmlns:xlink="http://www.w3.org/1999/xlink">
 <defs>
  <style type="text/css">
   <![CDATA[
    .str1 {stroke:black;stroke-width:10;stroke-miterlimit:3.864;stroke-opacity:0.501961}
    .str3 {stroke:black;stroke-width:50;stroke-miterlimit:22.9256}
    .str5 {stroke:#434242;stroke-width:10;stroke-miterlimit:22.9256}
    .str0 {stroke:black;stroke-width:10;stroke-miterlimit:22.9256}
    .str2 {stroke:black;stroke-width:10;stroke-miterlimit:3.864}
    .str6 {stroke:#2B2A29;stroke-width:7.62;stroke-miterlimit:22.9256}
    .str4 {stroke:black;stroke-width:7.62;stroke-miterlimit:22.9256}
    .fil5 {fill:none}
    .fil0 {fill:#FEFEFE}
    .fil7 {fill:#D9DADA}
    .fil4 {fill:#FEFEFE;fill-rule:nonzero}
    .fil3 {fill:#D9DADA;fill-rule:nonzero}
    .fil6 {fill:#434242;fill-rule:nonzero}
    .fil2 {fill:black;fill-rule:nonzero}
    .fil1 {fill:#FEFEFE;fill-rule:nonzero;fill-opacity:0.501961}
   ]]>
  </style>
 </defs>
 <g id="Plan_x0020_1">
  <metadata id="CorelCorpID_0Corel-Layer"/>
  <path class="fil0 str0" d="M11899.21 2084.19c-15.12,-18.21 -29.63,-43.67 -50.18,-55.75 -9.8,-5.77 -26.62,-11.22 -33.76,-20.1 -3.55,-4.4 -16.61,-26.57 -20.08,-27.42 -3.13,-22.28 -93.52,-13.19 -110.4,-17.36 0,-17.43 38.52,-54.84 54.75,-54.84 32.16,0 52.6,28.96 72.99,49.35 35.28,35.28 82.83,41.86 111.32,89.56l58.39 97.79c20.47,34.27 72.49,63.44 76.64,104.18 3.04,29.79 -33.16,-3.99 -40.14,-10.97 -21.31,-21.31 -38.16,-48.32 -58.4,-71.28l-61.13 -83.16zm-239.06 4520.9c3.05,-13.14 -12.5,-69.78 -18.24,-81.33 -10.87,-21.91 20.38,-66 36.49,-79.51 12.52,-10.49 37.65,41.03 48.36,48.44 20.75,14.35 54.13,13.07 78.47,10.05 42.38,-5.26 87.92,13.71 134.13,13.71 70.49,0 134.65,28.33 203.47,28.33 30.02,0 39.29,-37.47 66.61,-37.47 31.89,0 12.08,26.43 16.42,48.43l54.74 -25.58c26.14,-12.22 3.65,47.73 3.65,65.79 0,31.65 -30.27,13.08 -39.23,49.35 -25.01,0 -18.82,-28.52 -41.06,13.71 -7.96,15.11 -52.18,85.84 -71.17,81.34 -14.76,-3.5 -98.4,-16.7 -99.45,-2.75 -1.62,21.6 24.58,41.7 15.51,73.11 -12.23,42.39 -30.57,55.3 -67.52,76.77 -49.62,28.85 -48.55,-4.94 -60.22,-40.21 -12.25,0 -78.76,-10.76 -42.89,-31.99 85.34,-50.51 -98.91,-191.91 -156.93,-191.91l-61.14 -18.28zm13502.1 10378.81l52.92 -5.49c111.55,-7.33 23.05,-126.35 41.98,-175.46 14.92,-38.74 190.24,-37.37 230.84,-39.3 69.65,-3.31 107.55,-51.09 172.45,-60.31 64.04,-9.09 107.02,-64.26 174.27,-48.44 27.83,6.55 68.57,32.45 66.61,-12.79 -1.26,-29.25 -22.55,-77.17 -37.41,-102.35 -10.41,-17.62 -69.7,-90.2 -60.22,-100.53 25.25,-27.53 84.58,-33.49 90.33,-84.08 77.38,-50.31 87.39,-117.27 23.72,-180.94 -58.95,-58.95 -19.14,-117.53 -100.36,-153.53 -56.32,-24.97 -38.86,-52.42 -62.05,-92.3 -11.15,-19.19 -34.23,-41.77 -48.36,-60.32 -53.85,-70.73 -54.23,89.41 -124.09,56.66 -12.94,-6.07 -57.79,-68.68 -68.43,-84.07 -29.41,-42.49 -68.35,-35.72 -108.58,-56.66 -42.5,-22.11 -76.65,-58.85 -106.75,-95.96 0,-43.44 -12.55,-78.27 6.38,-120.63 16.04,-35.87 -22.17,-46.04 -31.93,-81.33 -15.82,-57.25 -112.81,-143.85 -82.12,-209.28 8.46,-18.03 70.83,-73.75 90.33,-76.77 28.22,-4.36 -10.04,-49.32 -10.04,-66.71 0,-40.66 28.83,-48.44 58.4,-64.88 46.96,-26.09 59.57,-41.18 69.34,-95.96 3.6,-42.9 79.31,0.72 87.6,-64.88 19.53,-11.24 19.06,-22.85 46.53,-22.85 16.89,-23.71 -30.86,-84.11 -43.8,-105.09 -35.23,-57.15 -39.25,-63.19 -109.49,-55.75 -44.79,4.75 -38.33,-22.5 -58.39,-45.69 -10.4,-12.03 -32.17,-12.2 -45.62,-21.94 -13.44,-9.72 -14.36,-39.85 -20.08,-54.83 -34.49,-90.41 -3.02,-58.64 41.06,-126.11 14.78,-22.61 20.59,-48.03 19.16,-74.94 -1.73,-32.36 -69.13,-22.37 -83.94,-47.52 -5.34,-9.06 17.34,-86.4 17.34,-108.75 4.02,-53.12 0.66,-75.36 -26.46,-119.72 -18.4,-30.08 3.56,-69.08 10.95,-100.52 17.12,-72.88 29,-123.51 -25.55,-178.21 -30.33,-30.42 -81.12,78.52 -114.06,27.42 -26.05,-40.4 -43.99,-103.73 -45.62,-152.62 -1.81,-54.01 -26.46,-14.99 -58.39,-25.59 -20.94,-6.96 -56.47,-64.48 -55.66,-85.9 1.96,-52.1 16.84,-96.31 -14.6,-144.39 -27.94,-42.07 -34.69,-72.15 -33.09,-100.47 -9.18,-27.71 -52.21,-95.9 -46.29,-126.17 6.11,-31.24 25.2,-58.5 29.2,-90.47 5.68,-45.43 17.8,-159.29 -31.03,-183.69 -25.64,-12.82 -21.93,-31.32 -24.63,-57.57 32.68,-47.65 56.06,-71.09 36.5,-131.6 -15.49,-47.89 -51.71,-102.38 -41.98,-153.53 22.63,-118.96 180.32,-11.53 240.88,-114.24 35.53,-60.28 46.21,-174.61 17.34,-238.51 0,-54.46 -1.49,-99.74 7.3,-153.53 7.15,-43.7 29.22,-86.66 14.6,-130.69l-6.39 -4.57 -7.3 0.92c-27.66,19.39 -81.21,106.57 -110.4,101.44 -48.59,-8.53 -75.97,-42.09 -95.81,-83.17 -73.65,-152.42 -85.02,-81.33 -231.75,-81.33 -56.91,0 -76.66,-82.09 -118.62,-114.23 -75.41,-57.75 -104.99,-129.56 -212.59,-117.89 -72.2,-9.49 -86.79,-74.25 -157.85,-66.72 -77.38,8.19 -87.73,-25.46 -135.04,-78.59 -101.83,-114.33 -259.34,10.62 -357.67,-91.38 -83.49,-86.62 -159.66,-69.2 -269.17,-41.13 -79.49,9.96 -122.87,20.66 -188.87,-20.1 -42.6,-26.32 -86.44,46.49 -136.87,10.05 -72.76,-52.57 -199.59,-96.63 -281.94,-31.07 -47.32,37.66 -27.57,124.48 -38.32,177.29 -13.12,64.48 -84.53,156.45 -130.91,203.03 23.4,51.69 106.38,104.64 26.89,134.19 -18.88,7.01 -43.51,-16.93 -56.57,-26.51 -85.27,-62.59 -106.11,18.72 -166.06,53.01 -19.88,8.28 -37.81,17.34 -52.01,-8.23 -6.54,-11.76 -14.71,-33.72 -29.19,-37.47 -30.2,-7.81 -63.69,32.55 -93.07,5.49 -18.55,-17.1 -16.88,-19.79 -43.8,-22.85 -10.19,-1.15 -18.32,-9.17 -26.46,-13.71 -9.6,-5.37 -9.65,-16.93 -19.16,-25.59 -1.81,-27.56 -44.94,-120.72 -68.43,-128.85 -88.54,-30.68 -80.33,63.17 -158.76,-22.85 -29.12,-31.93 -61.91,-48.27 -98.55,-68.54 -82.42,-45.58 -9.12,-63.13 -9.12,-126.11 0,-28.34 -27.15,-24.02 -31.93,-47.52 -3.17,-15.64 25.12,-59.9 -1.83,-63.97 -12.24,-1.85 -34.55,-50.37 -50.18,-54.84 -1.29,-10.27 -10.39,-52.67 -22.81,-55.74 -2.31,-18.41 -4.21,-29.24 -19.17,-41.13 -11.27,-8.97 4.57,-37.3 4.57,-51.17 0,-51.94 -88.33,-17.82 -85.77,-63.06 1.67,-29.45 20.62,-69.25 26.46,-101.44 13.54,-36.34 -4.36,-26.66 38.32,-36.55 21.42,-4.97 7.67,-33.61 0,-43.87 -32.63,-43.68 -40.2,-88.48 -65.69,-134.34 -12.59,-22.67 -42.54,-56.63 -43.8,-83.16 -2.52,-53.07 -23.85,-31.53 -65.69,-45.69 -47.66,-16.14 -20.08,-79.83 -20.08,-123.38 0,-34.97 19.94,-26.69 31.02,-53.91 7.64,-18.76 6.93,-47.05 11.87,-67.63 5.85,-24.42 68.43,-5.67 68.43,-38.38 0,-46.99 18.79,-49.12 41.97,-84.08 28.44,-42.92 87.2,30.37 96.72,-7.31 3.82,0 5.09,1.97 8.21,2.74 5.36,38.14 44.86,63.43 72.99,30.16 34.8,-41.18 33.92,85.8 73,42.95 20.07,-22.02 29.21,-55.79 44.71,-83.16 52.63,-90.7 5.28,-77.7 0.91,-163.58 -4.14,-81.19 -39.32,-93.57 -66.61,-159.02 -9.54,-22.9 -17.62,-80.63 -41.06,-76.76 -15.76,2.61 -57.34,-0.99 -68.43,6.4 -13.2,8.81 -12.01,41.89 -32.85,52.09 -20.26,9.93 -43.22,-38.03 -69.34,-1.83 -26.21,36.34 -46.94,-22.62 -52.92,-42.04 -8.93,-29.02 5,-74.83 -8.21,-100.52 -17.13,-33.34 -80.19,-27.53 -66.61,-68.54 11.77,-35.51 8.34,-55.48 -2.74,-87.74 -7.28,-21.23 33.74,-11.08 14.6,-37.46 -16.55,-22.79 -39.39,-19.79 -48.36,-53.92 0,-61.43 -94.38,-73.12 -83.94,-94.13 14.06,-28.32 66.42,-90.02 -26.46,-66.71 -22.42,5.63 -13.64,-54.96 -20.08,-71.29 -21.17,-53.59 6.88,-67.32 -50.18,-77.67 -24.12,-4.38 -18.59,-28.73 -23.72,-49.35 -6.85,-27.56 -67.66,-134.07 -101.28,-128.86 -53.63,8.31 -79.38,42.91 -121.35,-9.14 -10.57,-13.12 -10.54,-29.92 -9.39,-45.87 35.04,-41.85 75.31,-48.78 106.1,-98.52 15.65,-25.3 12.85,-71.43 22.81,-99.61 15.68,-44.4 63.24,-77.71 104.93,-96.87 61.1,-28.09 79.99,-82.32 89.42,-142.56 -2.34,-37.9 0.62,-73.24 -4.56,-111.5 -6.39,-47.11 -44.18,-91.03 -45.62,-138.9 -1.14,-38.15 16.12,-75.91 31.93,-109.67l31.02 -42.04 0 0c-4.47,-6.2 -80.5,-6.39 -93.98,-6.39 -42.23,0 -85.04,63.33 -125,54.83l-34.67 -41.12 -34.67 27.41 -59.31 19.19c-40.5,-8.05 -96.87,-43.95 -135.04,-64.88 -35.97,-19.71 -60.18,41.75 -114.05,10.05 -13.49,-7.94 -29.44,37.25 -64.79,32.9 -59.12,-7.29 -24.87,28.54 -55.65,51.18 -31.7,23.3 -114.47,-19.59 -154.2,-8.23 -6.74,46.92 -28.64,36.54 -48.36,68.54 -18.55,30.12 -88.09,-20.6 -63.87,33.81 32.53,73.1 32.11,151.71 -69.35,151.71 -22.87,32.15 -201.95,26.77 -242.7,31.07 -39.99,18.16 0.49,100.52 -61.14,100.52 -54.94,0 -42.52,-58.67 -92.15,3.66 -37.19,46.69 -204.03,-28.88 -250.01,-49.35 -71.18,-31.68 -73.75,0 -147.81,0 -41.02,0 -6.08,38.27 -31.02,42.95l-87.59 16.45c-27.35,5.14 -86.73,-40.17 -94.9,-36.55 -39.65,17.55 -88.38,18.56 -121.35,39.29 -41.69,26.23 -79.75,-32.1 -90.33,-74.93 -17.97,-4.54 -58.74,12.27 -77.56,17.36 -30.52,15.26 -88.79,90.47 -104.93,90.47 -31.07,0 -68.99,-30.38 -108.57,-35.64 -35.72,-4.74 -26.38,-29.36 -38.33,-53 -70.19,0 -144.81,163.93 -166.06,12.79 -52.81,-30.22 -238.07,-60.49 -255.48,-129.77l-0.91 -0.91 -1.82 -0.92c-26.05,0 -44.42,34.8 -72.09,31.08 -31.16,-4.18 -41.21,3.65 -69.34,3.65 -84.46,0 -74.78,-86.74 -129.57,22.85 -11.07,35.6 -58.48,144.08 -112.22,121.54 -15.38,-6.44 -63.87,-69.01 -63.87,-83.16 0,-35.27 -38.42,-44.08 -67.52,-40.21l-144.17 19.19c-69.33,9.23 21.79,102.93 -3.65,112.41 -69.5,25.89 -167.11,24.58 -237.23,33.81 -38.44,5.05 -45.56,50.73 -108.58,48.44 -69.6,-2.54 -81.08,-43.18 -109.49,28.33 -9.85,24.82 -41.25,25.31 -62.96,29.24 -7.1,1.29 -2.03,38.85 -20.07,58.49 -22.12,30.15 -19.37,52.64 -9.12,85.9 5.01,16.29 -23.5,30.62 -31.03,46.61 -15.18,32.24 -14.52,116.13 -55.65,124.28 0,29.75 14.57,34.05 -29.2,42.96 -38.6,7.85 -7.11,52.09 -47.45,52.09 -19.07,0 -19.78,30.74 -15.51,44.78 6.48,21.25 7.57,65.68 -24.63,67.62 -109.18,6.58 -58.65,-188.17 -113.15,-227.55 -27.12,-19.59 -63.63,10.46 -64.78,-36.56 -2.15,-28.44 -14.39,-51.02 -20.07,-74.02 -43.19,0 -41.05,1.51 -74.82,-21.02 -28.13,-18.78 -89.85,22.3 -120.44,28.33 -59.26,11.7 -90.07,-99.43 -106.75,-144.39 -12.97,-34.99 12.37,-81.81 -1.83,-106.01 -10.87,-18.51 -32.41,-19.6 -28.28,-46.61 3.67,-23.95 10.98,-42.01 -5.48,-62.14 -5.2,-6.37 -63.74,-48.66 -70.26,-50.26 -0.54,-2.18 -1.41,-2.74 -3.65,-2.74 -2.91,14.76 -13.85,25.85 -26.46,32.9 -46,69.25 -68.01,24.67 -120.44,24.67 -66.11,0 -45.02,66.71 -78.47,66.71 -45.22,0 -38.75,-3.26 -56.57,34.73 -27.72,59.1 -24.83,33.42 -71.17,48.44 -36.05,11.69 10.58,84.1 -48.35,106 -63,23.4 -124.95,12.39 -187.05,28.33 -17.84,4.57 -22.59,-21.84 -38.32,-22.84 -16.84,-1.08 -19.09,10.48 -31.94,15.53 -31.47,12.39 -71.15,48.18 -106.75,41.13 -19.47,-79.2 -82.72,-141.23 -115.88,-212.02 -66.96,-36.13 88.11,-120.68 24.63,-133.43 0,-12.04 44.41,-20.44 54.75,-27.41 22.24,-14.97 36.14,-26.89 52.92,-49.35 40.81,-54.6 1.79,-84 -8.21,-136.17 -5.62,-29.29 10.23,-58.81 -14.6,-81.33 -42.72,-38.77 -41.97,-57.35 -41.97,-111.49 -15.54,-3.92 -34.97,1.62 -52.01,0.91 -43.43,3.65 -90.62,44.97 -126.83,33.81 -47.13,-14.54 -78.39,-22.83 -125.91,10.06 -19.33,13.37 -92.56,11.99 -119.53,17.36 -51.66,10.28 -70.26,-4.63 -70.26,-60.31 -2.85,-0.48 -1.04,0.43 -2.73,-1.83 -75.88,14.91 -44.82,97.86 -119.53,22.84 -18.21,-18.29 -145.74,1.52 -83.03,-74.93 20.06,-24.47 -37.33,-60.81 -42.89,-83.17 -9.97,-40.11 -16.13,-84.48 -1.82,-124.28 6.49,-18.05 49.25,-29.15 40.15,-43.87 -33.79,-54.61 93.09,-101.94 28.28,-157.18 -18.45,-55.52 -56.19,-89.09 -110.4,-99.61 -49.89,-9.67 -10.19,-57.81 -80.3,-40.21 -26.64,6.68 -26.53,-40.35 -41.06,-52.09 -6.77,-5.46 -30.32,3.96 -41.06,4.56 -43.49,2.47 50.05,59.21 18.25,72.2 -24.61,10.04 -60.45,23.2 -86.68,25.59 -15.61,4.15 -89.34,4.84 -94.89,9.14 -11.97,9.29 10.53,39.15 4.56,55.74 -4.41,12.29 -15.69,19.85 -22.81,31.99 -12.52,21.31 -26.03,11.05 -43.8,10.05 -26.75,-1.52 -56.87,17.96 -74.81,7.31 -40.61,-24.13 -49.35,6.09 -95.81,-2.74 -29.13,-5.54 -41.21,-10.34 -42.88,26.5 -1.08,23.99 0.85,48.75 -0.92,72.2 -1.66,22.12 -50.22,47.62 -67.52,60.31 -4.4,16.6 -50.25,74.04 -70.25,62.15 -20.69,-12.29 -33.62,-35.47 -40.15,-56.66 -25.41,-82.51 -67.36,-8.72 -102.19,16.45 -28.84,20.83 -48.16,39.63 -87.59,31.98 -62.52,-12.12 -55.2,52.27 -105.85,39.3 -26.45,-6.78 -53.59,-1.83 -81.2,-1.83 -18.87,-9.49 -53.42,-26.76 -72.08,-37.47 -14.05,-8.06 -26.35,-11.79 -41.97,-14.62 -38.71,-7.02 -59.77,17.42 -58.4,53.92 0.74,19.62 -4.45,42.04 -29.2,42.04 -40.91,0 -24.81,18.62 -14.6,46.6 5.74,15.76 -12.24,35.59 -25.54,42.96 0,54.94 39.84,102.73 -1.83,138.9 -20.98,18.22 6.81,95.96 -38.32,95.96 -10.99,44.48 -98.55,59.51 -114.97,10.97 -28.75,0 -83.11,31.85 -116.79,11.88 -53.64,-31.79 -71.62,-84.09 -130.47,-93.22 -54.28,-8.41 -6.92,32.57 -13.69,48.44l-42.89 100.52c-34.31,80.41 -115.91,-66.63 -149.63,-68.54 -52.61,-2.99 -84.27,106.01 -154.2,106.01 -23.63,0 -118.62,-13.97 -118.62,-39.3 0,-31.12 -75.78,26.51 -104.02,-55.74 -14.97,-22.54 -37.21,-59 -32.84,-85.91 4.24,-26.17 24.96,-33.71 37.41,-54.83 9.76,-16.54 9.87,-149.14 0.91,-158.1 -25.41,-25.41 -75.21,-32.92 -101.28,-67.62 -21.48,-28.61 -30.76,-0.8 -50.18,-13.71 -23.14,-15.37 -36.74,-10.8 -51.1,-42.04l-26.46 -57.57c-7.63,-16.58 -12.66,-43.07 -15.51,-61.23 13.5,-50.88 -22.73,-50.64 -52.01,-76.77 -17.58,-15.68 -38.83,-62.87 -52.92,-69.45 -15.04,-7.03 -53.92,-4.67 -62.96,-12.79 -25.71,-23.07 -22.72,-23.35 -62.04,-3.66 -44.36,22.2 -77.05,-41.12 -109.49,-41.12 -11.61,0 -53.44,16.78 -48.36,-16.45 5.89,-38.49 -8.25,-33.95 -37.41,-41.13 -26.03,-6.42 -34.46,-59.84 -58.4,-34.72 -40.62,42.64 9.7,57.87 -67.52,63.05 -29.26,1.96 -50.57,20.02 -77.55,28.33 -35.25,62.7 -51.33,71.06 -94.9,16.45 -26.02,-32.6 -65.77,-22.5 -55.65,20.11 27.72,116.72 -129.1,31.3 -161.5,-3.66 -46.67,-50.34 -64.14,67.44 -93.07,95.04 -23.55,22.46 -69.49,2.78 -61.13,42.96 9.53,45.74 -31.6,30.28 -41.06,63.05 -29.97,103.81 -168.55,36.44 -240.88,4.57 -19.27,-8.48 8.07,-29.25 13.68,-43.86 25.15,-65.53 -59.33,-45.21 -84.85,-103.27 -21.84,-49.68 -48.3,44.02 -73,51.18 -34.67,23.07 -87.46,59.8 -118.61,0.91 -23.51,-44.46 -55.78,-14.91 -70.26,-62.14 -26.28,-85.75 -149.72,12.83 -181.57,44.78 -45.62,45.74 -90.33,-84.58 -102.2,10.96 -7.32,58.96 -137.54,143.95 -156.02,86.82 -8.14,-25.16 13.83,-71.32 -19.16,-66.71 -24.72,3.46 -4.76,-52.78 -78.47,-30.16 -74.33,22.82 -82.03,-64.74 -136.86,-35.64 -30.58,16.22 -64.59,15.48 -50.19,60.31 10.97,34.13 -17.07,34.41 -32.85,54.84 -13.69,17.74 18.74,61.02 -57.48,63.05 -35.97,0 -24.88,-58.9 -47.44,-65.8 -45.16,-13.8 -38.51,-37.56 -65.7,-51.17 -16.46,-8.25 -31.35,20.7 -52.92,-0.92 -48.36,-48.5 -116,-94.86 -202.56,-104.18 -23.21,-2.5 -28.9,-34.09 -44.71,-29.24 -38.23,11.72 -51.02,10.77 -87.59,-4.57 -49.68,-20.83 -50.1,19.59 -64.78,50.26 -11.1,23.17 -120.98,13.7 -129.57,0 -43.18,-68.87 -27.98,-23.59 -102.19,-35.64 -31.32,-5.09 -29.44,37.29 -45.62,51.18 -40.2,34.54 -51.1,121.56 -97.63,85.9 -37.06,-18.48 -42.34,45.71 -55.66,65.8 -27.61,41.67 -31.25,-35.66 -71.17,-7.31 -19.74,14.03 -17.85,42.68 -50.18,21.93 -35.65,-22.87 -41.53,6.22 -59.31,33.82 -35.42,55.01 -27.84,-72.68 -65.69,-36.56 -67.17,64.12 -78.97,29.47 -139.61,-13.71 -47.03,-33.5 -39.23,-10.66 -39.23,-74.93 0,-53.58 -57.9,56.36 -60.22,61.22 -13.11,27.48 -39.36,106 -77.56,94.13 -22.05,-6.84 -100.72,-101.25 -81.2,-118.8 48.74,-43.79 48.68,-55.34 59.31,-121.54 3.36,-20.92 30.07,-68.28 2.73,-69.46 -50.32,-2.19 -73.09,2.74 -54.74,-56.66 20.09,-60.51 -6.11,-33.83 -29.2,-74.94 -15.05,-26.79 -5.39,-67.03 -10.04,-97.78 -3.43,-22.66 -29.2,-24.26 -29.2,-50.26 0,-33.33 8.93,-55.47 27.38,-82.25 28.14,-40.82 33.05,-53.21 6.38,-105.09 -29.68,-57.76 -76.63,-97.77 -122.26,-143.48 -46.24,-46.34 -15.64,-65.43 -34.67,-117.89 1.32,-20.16 -6.46,-55.67 8.21,-89.56 91.73,-211.85 99.45,-259.69 99.45,-414.9 0,-5.1 23.85,-16.02 27.38,-27.41 3.83,-12.32 -13.75,-33.58 8.21,-29.25 18.06,73.45 57.61,-33.79 63.87,-48.43 34.4,-64.83 47.17,-117.81 36.5,-197.4 -3.83,-28.55 -63.98,-182.99 -24.64,-173.63 21.14,5.03 39.32,53.59 51.1,71.28 38.12,57.28 41.34,49.72 102.19,18.28 16.45,-8.5 57.55,39.42 68.43,54.83 50.29,71.27 21.67,161.47 31.93,244.92 23.95,5.89 43.12,-25.35 47.45,-42.96 49.32,-18.37 37.4,59.39 41.97,75.86 6.54,23.61 72.61,-20.14 79.38,-32.9 10.18,-19.22 41.56,22.61 60.22,19.19 22.63,-4.14 55.48,-32.71 65.7,-52.09 12.45,-23.58 -5.18,-101.49 -29.2,-115.15l-6.39 -74.94c-2.53,-29.61 -29,-60.16 -35.58,-93.21 0,-89.02 0.14,-145.55 35.58,-225.73 29.34,-66.37 -49.83,-90.26 29.2,-129.77 41.55,-20.77 11.74,-88.66 10.04,-118.8 -0.7,-12.39 108.16,18.53 116.79,30.16 49.97,67.4 100.22,25.33 176.1,21.02 44.02,-2.5 88.08,-3.74 132.3,2.74 32.74,4.8 78.65,106.9 100.37,80.42 17.97,-21.92 -10.55,-48.91 -4.57,-73.11 35.13,-4.94 119.12,-18.04 144.17,-43.87 171.07,-128.42 361.28,-209.28 554.75,-306.14 64.33,-32.21 158.44,-53.01 213.51,-96.87 37.47,-29.83 159.12,54.83 228.11,36.55l294.71 210.19c45.89,33.2 90.87,104.29 150.55,108.75l146.9 10.97c49.36,3.69 51.36,-7.45 95.81,-21.02 36.93,-11.28 43.61,50.87 76.64,59.4 48.37,12.49 69.58,22.89 111.32,53.92 12.54,9.33 29.9,172.3 84.85,112.41 37.51,-40.87 41.91,-16.84 93.98,-6.4 69.11,37.29 69.41,141.39 173.37,69.45 22.96,-15.88 30.5,27.18 47.44,35.64 35.88,17.94 236.02,-53.75 202.56,39.3 -17.91,49.79 84.23,49.82 102.19,90.47 53.46,120.93 -55.33,110.32 -113.14,186.43 -28.57,37.63 -84.9,99.61 -134.13,99.61 -33.78,0 -30.95,28.45 -18.24,53.92 34.04,68.25 69.57,-50.55 91.24,-59.4 28.23,-11.52 54.49,-21.53 79.38,-42.95 54,-46.5 43.15,8.62 84.86,-2.74 33.06,12.18 97.61,16.88 133.21,10.05 6,-1.15 54.46,-43.53 56.57,-47.52 8.32,-15.78 6.09,-43.27 2.74,-60.32 25.83,-17.22 65.99,0.79 87.59,-28.33 14.77,-19.93 25.67,-74.25 20.99,-98.7 -4.32,-22.52 -14.6,-44.32 -14.6,-66.71 0,-35.86 5.25,-63.63 -7.3,-96.87 -12.27,-32.52 -2.74,-97.93 -2.74,-135.25 12.61,-9.42 56.6,-7.17 74.82,-12.79 31.27,-9.64 63.56,-20.08 93.07,-35.65 83.89,-6.44 144.2,-25.71 200.73,-82.24 28.86,-28.86 97.33,-31.62 72.08,-82.25 -19.75,-39.58 1.83,-33.24 1.83,-69.46 0,-47.9 -15.45,-72.97 32.85,-91.38 66.44,-25.31 52.92,-15.48 52.92,54.83l1.82 0.91c30.29,123.2 350.92,-8.22 419.72,-8.22 49.9,0 41.23,-24.53 49.27,-71.28 8.52,-49.6 37.9,-89.92 14.6,-144.39l0 0 -51.1 2.74c-65.73,13.11 -141.94,0.91 -208.03,-2.74 -54.48,-3 -112.36,-12.49 -158.76,24.67 -38.6,30.92 -50.92,24.34 -96.72,31.99 -55.05,14.64 -103.67,21.07 -151.46,53 -31.03,20.72 -69.72,48.01 -108.58,38.38 -101.75,-25.22 -179.43,29.48 -278.29,25.59 -40.68,-1.6 -70.56,-60.6 -96.72,-86.82 -45.69,-45.82 -104.24,-102.61 -131.39,-160.84 -36.39,-78.01 26.88,-163.76 -22.81,-247.66 -20.43,-46.02 1.17,-80.31 19.16,-118.8 28.31,-60.55 -6.6,-34.5 -31.02,-68.54 -16.37,-22.83 2.29,-33.14 -34.67,-31.07l-130.48 7.31c-77.6,4.35 -106.82,1.81 -161.5,-53 -24.95,-25.02 -62.06,-17.14 -88.51,-34.73 -10.51,-7 -15.47,-21.64 -26.46,-26.5 -37.79,-16.74 -85.98,-11.81 -125,-27.42 -39.75,-15.91 -70.78,-63.55 -93.98,-96.86 0,-36.33 -66.47,-110.13 -60.69,-159.71 2.82,-24.19 35.81,-20.89 54.3,-32.21 36.85,-22.58 91.87,-39.83 133.22,-53.01 18.22,-5.81 37.03,-19.21 52.46,-28.33 26.1,-15.43 46.52,-32.41 76.64,-44.78 63.36,-26.03 42.45,-17.16 112.69,-41.12 27.66,-9.44 55.35,-18.89 83.03,-28.33 29.23,-9.98 -12.84,-28.3 11.86,-53 44.67,-44.67 12.23,-96.04 62.05,-143.48 30.16,-28.72 90.37,21.79 141.42,-17.36 69.2,-53.07 99.91,-21.34 114.97,-119.72 5.72,-37.43 48.43,-23.16 54.75,-48.44 9.83,-39.28 -1.92,-80.37 45.62,-95.04 63.53,-19.6 134.02,-94.37 184.31,-134.34 13.95,-11.09 41.21,-37.47 60.22,-37.47 15.91,0 80.39,61.47 86.68,2.75 2.42,-22.55 -47.22,-42.03 -28.29,-69.46 24.71,-35.78 85.21,-25.93 115.88,-68.54 11.18,-15.54 9.36,-34.31 15.51,-50.26 9.88,-25.6 38.63,-34.07 62.48,-42.53l-18.68 -53.43c-30.89,-55.55 -77,-97.04 -135.04,-125.2 -68.7,-33.34 -168.28,-36.5 -229.02,-77.68 -32.6,-22.09 0.91,-48.81 0.91,-78.59 0,-22.28 -20.07,-129.81 20.99,-88.64 23.16,23.21 80.38,118.38 115.88,97.78 41.71,-24.22 37.22,-52.19 -4.56,-74.94 -17.58,-56.97 -40.78,-58.81 -89.42,-83.16 -38.54,-19.29 -31.46,-58.45 -75.73,-74.94 -22.93,-8.55 -31.92,-34.08 -42.89,-53.91 -16.38,-29.64 -12.13,-62.31 -35.58,-91.39 -35.67,-44.25 -79.98,-34.54 -92.16,-98.7 -5.57,-29.32 -34.36,-55.56 -52.01,-78.59 -21.59,-43.36 -63.62,-147.65 -109.49,-171.81 -54.42,-28.68 -117.7,3.93 -117.7,-86.82 0,-57.54 0.5,-42.26 -44.71,-69.45 -38.33,-23.04 -63.98,-106.71 -100.37,-101.44 -39.72,5.76 -37.8,-25.22 -67.52,-20.1 -31.8,5.47 -84.67,38.19 -116.79,53 -40.94,18.89 -46.94,78.7 -83.94,97.78 -2.75,1.42 -14.25,7.11 -12.77,10.97 10.2,26.6 35.72,126.53 31.02,151.7 -23.09,52.15 43.47,95.96 -52.92,95.96l-0.91 0.91c0,58.25 44.17,89.58 28.28,157.19 -10.68,45.49 -123.01,103.48 -163.32,77.68 -14.96,-9.58 -125.21,41.13 -136.87,55.74 -17.42,21.84 -16.88,71.77 -29.2,83.16 -31.55,29.14 -203.18,137.56 -241.79,127.95 -42.46,-10.56 -30.99,-53.86 -86.68,-43.87 -23.78,4.27 -145.99,61.09 -145.99,71.28 0,32.99 15.66,35.41 0,74.03 -11.09,17.7 -14.96,52.73 -24.63,65.79 -11.68,15.79 -43.68,5.28 -59.31,20.11 -23.68,22.45 -72.12,94.13 -104.93,94.13 -14.43,0 -66.61,-4.16 -66.61,10.96 0,48.33 -42.91,28.51 -81.2,48.44 -22.9,11.91 -35.61,26.63 -58.4,8.22 -23.68,-19.14 -18.85,-14.82 -47.45,0.92 -36.06,19.83 -58.29,50.49 -100.36,63.97 -36.98,11.86 -98.17,2.4 -137.78,0 -84.53,0 -139.17,80.4 -236.32,84.07 -22.58,0.85 -27.37,-36.73 -43.79,-19.19l-68.44 73.11c-28.19,30.11 -30.43,82.09 -54.74,101.44 -22.56,17.97 -43.59,19.99 -40.15,52.09 4.64,43.2 -11.72,21.97 -44.71,31.07 -35.91,9.9 -55.13,51.76 -94.89,63.97 -41.1,12.61 -84.71,-21.37 -122.27,-30.15 -24.34,-5.68 -25.54,-78.72 -34.67,-105.1 -23.05,-66.65 -94.9,-43.87 -126.82,-84.07 -23.97,-30.17 -24.82,-34.23 -60.22,-56.66 -60.68,-27.01 -65.63,-109.12 -79.39,-160.84 -10.34,-38.85 -81.78,-109.43 -114.96,-134.34 -43.12,-32.39 -81.27,-18.88 -129.57,-30.16 -62.37,-14.58 -85.5,-66.72 -165.15,-77.68 -128.08,-17.62 -160.28,-10.29 -220.8,94.13 -9.31,16.08 -31.58,11.77 -37.41,23.76 -8.53,17.57 22.1,82.05 20.98,110.58 -2.16,55.28 -63.04,65.71 -73.9,122.46 -15.18,79.25 10.06,159.53 -4.57,237.6 0,56.28 14.72,94.25 25.55,146.22 7.2,34.58 -7.01,52.67 -10.03,85.9 -9.09,100.13 -109,42.85 -165.15,51.18 -23.76,3.53 -44.56,12.38 -68.44,6.4 -24.88,-6.24 -102.13,98.4 -136.86,112.4 -40.35,16.28 -58.12,-2.35 -38.32,47.52 8.29,20.86 50.06,75.01 68.43,87.74 39.14,27.11 85.93,55.31 109.49,97.78 0,11.83 7.44,24.37 4.56,35.64 -2.7,10.59 -15.51,16.83 -15.51,29.24 0,21.45 18.86,17.37 8.21,43.87 -22.17,55.19 22.09,44.37 32.85,87.73 6.22,25.05 -4.96,50.17 0.91,74.94 10.95,46.25 36.9,31.81 60.22,61.23 4.86,6.14 -4.95,39.31 -11.86,44.78 -26.31,20.87 -6.34,20.12 13.69,40.21 15.88,15.91 19.98,28.55 14.6,50.26 -3.48,14.03 12.77,68.54 8.21,73.11 49.39,41.27 105.44,49.29 93.98,120.63 -6.96,43.33 -34.67,92.4 -34.67,132.51 0,45.46 -52.91,16.77 -59.31,56.66 -3.73,23.24 -97.34,-14.27 -113.14,-23.76 -17.45,-10.47 -53.75,-37.47 -73,-37.47 0,38.85 25.96,53.58 32.85,89.56 7.25,37.91 -10.35,49.64 20.99,78.59 41.92,38.74 135.39,41.99 81.2,116.98 -16.48,22.82 -1.66,30.34 -0.91,55.74l37.46 118.76c1.07,3.35 1.18,3.02 -2.25,2.13 -32.51,-8.36 -56.84,-35.05 -89.04,-45.95 -29.43,-9.96 -60.65,-0.93 -88.51,-9.14 -38.31,-11.3 -42.39,-40.21 -87.59,-40.21 -46.18,0 -118.05,26.87 -154.2,4.57 -79.36,-16.66 -153.4,-53.01 -243.62,-46.6 -78.5,5.58 -127.6,-40.04 -199.82,-33.82 -62.88,5.41 -130.05,15.05 -191.61,29.25 -79.52,18.33 -192.3,58.79 -270.99,60.31 -101.39,25.41 -64.42,110.52 -150.55,113.32 -103.59,3.36 -90.48,75.54 -150.55,-54.83 -19.29,-41.85 -53.04,1.79 -88.51,11.88l-661.51 188.26 -7.3 9.13c0,21.77 -23.4,115.62 7.3,123.38 14.07,55.67 410.41,119.73 434.32,80.42 34.75,-57.1 88.21,-36.56 148.72,-36.56 108.37,0 118.08,-5.73 213.51,-45.69 49.98,-20.92 79.46,16.47 125.92,-8.23l103.1 -54.83c95.86,-35.98 167.74,-95.15 275.55,-90.47 23.85,1.03 53.07,19.09 70.26,18.28 20.8,-0.99 62.73,-42.02 78.47,-56.66 23.88,-22.19 68.48,-11.44 75.73,19.19 4.58,19.35 1.98,138.26 -6.39,153.53 -16.7,30.47 -28.4,33.9 -51.09,56.66 -30.12,30.19 4.59,57.52 -66.61,54.83 -32.24,-1.22 -38.13,12.27 -63.87,21.93 -13.14,39.55 10.25,76.93 32.85,110.58 23.34,34.73 -13.78,29.65 -31.94,6.4 -51.21,-65.58 -94.11,3.33 -153.28,-40.21 -35.74,-26.31 -111.35,62.13 -129.57,62.13 -10.42,-42.16 -30.15,80.58 -59.15,62.31 -32.32,-20.36 -46.87,-127.22 -79.37,-158.78 -39.23,-38.09 -93.41,2.15 -89.59,27.03 3.32,21.58 62.23,190.63 73.91,209.27 27.95,44.57 77.81,157.52 102.19,192.83 16.29,23.6 126.45,119.04 200.74,255.88 -16.18,21.64 -13.04,115.97 -32.84,121.54 -48.74,34.13 -199.83,92.04 -199.83,-21.01 0,-82.7 -1.19,-168.3 -26.46,-246.75 -70.92,-220.32 -173.89,-205.22 -163.97,-100.26 8.75,92.61 127.25,259.26 122.62,338.27 -2.28,38.88 -48.55,59.27 -61.76,49.86 -69.06,-49.17 -50.5,64.79 -62.95,115.15 -1.84,0 -1.37,0.49 -1.83,-0.91 -9.16,0 -26.52,-51.16 -37.41,-61.23 -16.97,-15.67 -15.14,-100.45 -26.46,-94.13l-63.87 35.64c-35.42,19.76 3.19,58.01 -38.32,64.88 -53.83,8.92 -88.02,2.35 -125.92,49.35 -69.94,86.75 -55.66,-9.15 -118.61,-11.88 -41.83,-1.82 -51.72,-59.62 -71.17,-15.53 -22.81,51.73 18.18,70.96 0,111.49 0,90.3 47.34,215.43 -25.55,278.73 -55.09,47.83 -134.95,173.71 -41.06,225.72 35.1,19.45 85.68,60.85 28.29,94.13 -7.73,38.6 -16.57,78.17 -18.25,116.98 -1.57,36.45 -19.94,24.94 -40.15,41.12 -15.08,12.06 -12.86,27.53 -24.63,39.3 -16.84,16.84 -39.78,-7.06 -54.75,17.36 -15.69,25.62 -15.86,74.64 -43.8,87.73 -19.58,9.18 -31.13,-14.58 -39.23,-10.96 -40.2,17.96 -41.14,97.85 -30.11,136.16 7.67,26.61 20.94,25.12 10.95,57.58 -4.34,14.08 56.41,39.75 13.69,50.26 -35.65,8.78 -84.9,41.85 -114.06,18.28 -65.5,-52.92 -61.04,8.04 -92.15,0 -16.02,-4.13 -33.88,-25.37 -49.27,-4.57 -17.88,24.15 -40.73,4.07 -66.61,-4.57 -45.28,0 -76.23,8.06 -116.79,-14.62 -32,-17.88 -51.95,-2.61 -73.91,22.84 -56.4,65.34 -104.04,-18.92 -156.02,-47.52 -46.5,-25.57 -70.1,5.59 -105.85,-30.16 -20.11,-20.11 -39.05,-17.22 -66.6,-12.79 -28.94,4.66 -53.99,-15.05 -70.26,-10.97 -40.43,10.14 -53.02,32.67 -105.84,31.07 -34.02,-1.03 -108.54,-9.34 -116.79,-51.17 -28.31,-7.15 -103.62,13.71 -139.6,19.19 -53.28,17.69 -108.75,-8.41 -149.64,-41.13 -58.57,-46.85 -46,10.88 -104.93,1.83 -33.74,-5.18 -208.87,-92.06 -221.72,-117.89 -28.66,-57.57 -117.18,16.95 -161.5,-10.96 -32.2,-20.29 -54.28,-35.61 -93.07,-40.21 -43.86,-5.19 -59.99,-21.58 -69.34,-59.4 -67.25,0 -108.1,18.76 -163.33,-36.56 -26.34,-8.78 -56.41,-53.5 -78.47,-72.2 -26.03,-22.08 -71.27,36.92 -93.06,48.44 -78.88,41.73 -171.38,-96.47 -198.91,-70.37 -53.02,50.28 -58.44,74.07 -127.74,88.65 -22.86,4.81 -106.61,95.62 -104.02,113.32 12.24,83.62 -168.31,31.84 -222.63,68.54 -52.45,35.45 -82.53,-13.05 -135.65,46.48 -23.06,5.54 -41.88,-1.37 -64.78,-1.37 -22.83,0 -47.12,10.07 -68.44,17.82 -39.5,14.35 -53.84,-13.17 -61.13,43.87 -2.56,20.03 -13.67,34.85 -18.25,53.46 -3.12,12.66 35.33,25.94 44.26,31.07 23.32,13.38 37.61,40.28 25.45,66.91l-117.41 -15.33 -50.84 -20.83 -27.67 23.75c-51.9,58.44 77.75,120.9 108.58,157.18 34.78,40.94 101.94,154.77 51.09,205.62 -15.25,15.25 12.78,19.47 12.78,34.73 0,40.02 -10.72,38.42 29.19,62.14 5.88,5.88 40.96,49.68 45.63,51.18 0,42.33 37.28,69.85 45.62,113.32 287.23,302.79 -1.42,109.78 -107.67,231.21 -11.69,13.38 -127.11,38.77 -142.34,32.9 -111.43,-42.97 -60.78,125.4 -52.01,135.25 26.1,29.19 2.13,84.96 24.64,116.06 81.56,112.68 108.76,92.95 220.81,182.78 50.82,40.74 0.8,77.67 89.41,77.67 68.13,-4.24 112.89,-9 180.66,-26.5 63.6,-16.43 41.06,13.9 94.9,35.64 95.11,38.42 64.61,34.97 97.63,116.06 20.79,51.04 100.13,21.02 138.69,21.02l0.91 107.84c0.27,32.3 -21.9,61.67 -21.9,90.47 0,34.06 -4.91,101.51 9.12,131.6 25.14,53.87 46.26,19.86 21.9,93.21 29.91,52.45 -9.88,74.98 51.1,113.32 17.06,10.73 26.99,40.12 43.79,45.7 15.46,5.13 68.77,-7.02 84.86,-14.63 37.5,-17.73 30.91,21.36 72.99,-30.15 41.59,-50.93 81.17,13.86 143.26,0.91 11.98,-2.5 37.5,-34.68 51.09,-19.19 18.66,21.29 83.86,46.01 111.32,55.75 85.71,30.39 40.98,-85.83 114.96,-65.8 47.04,12.74 30.89,-19.09 62.05,-32.9 32.23,-14.27 55.67,26.59 92.15,20.1 35.27,0 45.23,-4.05 74.82,-16.45 14.71,-6.17 33.78,-34.72 45.62,-34.72l0.92 0.91c0,34.77 71.7,70.1 99.45,78.59 40.25,12.3 50.9,-2.84 88.51,-10.05 33.19,-6.37 30.29,12.02 55.65,-21.93 22.81,-30.52 54.77,-11.09 83.04,1.83 12.18,5.57 17.55,24.21 30.11,27.41 7,1.79 35.97,-4.93 38.32,4.57 4.61,1.14 3.35,12.47 4.56,16.45 7.52,24.67 46.16,45.48 60.22,69.45 14.9,25.38 5.73,123.5 21.9,131.6 22.78,11.43 41.72,35.62 65.69,40.21 28.5,5.47 72.28,7.31 88.51,36.56 9.89,11.48 65.89,78.94 44.71,89.56 -8.25,4.14 -23.73,-3.83 -23.73,10.96 0,30.85 1.89,44.84 -21.89,65.8 -38.63,34.07 -43.53,55.04 -5.48,96.87 20.71,22.78 58,61.42 11.86,77.68 -57.57,20.28 -35.66,112.41 -100.36,112.41 -19.77,0 -70.37,-18.19 -77.56,1.82 -13.69,38.06 -51.65,40.97 -93.98,42.95 -22.81,0.6 -113.14,-17.2 -113.14,-8.22 0,33.38 -19.36,80.34 24.63,82.25 36.28,1.57 61.48,17.34 68.44,51.17 11.42,55.56 54.71,92.72 84.85,141.65 38.78,62.93 -29.75,50.58 -69.34,56.66 -49.28,7.56 -153.98,43.65 -135.95,102.36 4.24,13.79 2.15,28.82 9.12,42.04 10.82,20.49 36.85,24.82 46.53,48.43 9.28,22.65 4.29,59.42 6.39,84.99 -7.64,52.42 24.4,41.09 35.59,72.2 5.39,15.01 -22.27,28.49 -28.29,42.03 -31.42,70.55 30.12,148.63 -40.15,204.71 -51.94,41.46 -7.44,142.56 4.57,190.08 58.52,8.46 44.43,17.25 58.39,74.03 13.56,0 32.68,-31.81 43.8,-3.66l32.84 83.16c5.08,12.84 -30.38,1.63 -34.67,18.28 -4.44,17.2 28.37,29.61 39.24,42.04 37.86,66.85 -48.63,154.99 -85.77,207.45 -19.73,27.86 -38.92,54.51 -52.01,85.9 -20.77,49.84 11.2,48.28 46.53,75.85l19.88 19.98 59.85 -72.59 3.99 -3.4 72.3 -38.13c33.02,35.97 4.57,40.01 58.4,57.59 13.93,4.54 18.05,59.59 31.03,74.94 19.59,23.19 39.98,29.26 70.25,37.46 26.32,7.14 77.95,71.46 67.52,98.7 -12.45,32.48 41.33,11.95 53.84,44.78 27.45,72.04 72.77,49.16 134.12,34.73 48.18,-11.34 102.69,31.27 73.91,83.16 -20.15,54.35 -8.18,109.13 19.16,159.01 10.71,19.53 6.48,24.36 30.11,31.07 27.64,7.84 11.93,63.12 51.1,71.29 34.43,7.19 72.51,-6.05 101.28,-22.85 56.68,-33.08 52.01,8.52 52.01,55.75 0,45.55 3.83,62.35 23.72,102.35l49.56 5.22c7.87,33.63 18.87,66.52 18.87,103.53 0,71.71 -42.81,124.67 -68.43,189.17 -16.34,41.15 -21.21,90.67 -30.11,133.42 -17.78,85.35 3.8,90.58 -86.68,128.86 -22.67,9.59 -28.83,25.54 -46.54,41.12 -49.57,43.6 -48.52,104.96 -80.29,162.67 -35.59,64.65 -40.33,63.9 -62.96,127.94 -14.17,40.11 1.61,97.51 -32.84,123.38 -19.53,14.67 10.97,45.01 18.24,63.05 10.9,27.07 -27.49,41.15 -45.17,70.5l-91.69 -68.67c-39.81,-29.13 -89.74,-15.21 -135.95,-26.5 -61.63,-15.07 -78.57,13.55 -125,18.28 -16.49,1.68 -65.64,-39.18 -62.05,8.22 3.01,39.83 -23.64,143.55 -35.58,184.6 -26.81,92.22 -119.53,163.67 -119.53,256.8 0,55.5 -63.45,58.04 -66.61,110.58 -3.45,57.21 -32.05,115.52 -62.96,164.49 -9.63,14.24 -28.01,25.31 -43.79,30.16 -27.28,8.4 3.81,43.76 -34.68,62.14 -17.87,8.54 -15.65,33.41 -18.24,57.58 -3.48,32.42 -55.24,102.52 -85.77,108.75 -61.32,12.5 -104.02,113.08 -136.87,164.5l-166.97 261.36c-6.04,16.42 -14.29,35.65 -26.46,48.44 -14.6,15.36 -46.7,21.55 -52.01,42.95 -4.33,17.49 8.49,36.36 10.04,54.83l-4.5 12.79 -129.56 398.45 96.72 447.8 -136.86 409.41 -59.86 101.44 0 0c1.73,5.93 2.84,12.32 3.21,19.19 2.12,39.59 4.27,79.2 6.39,118.8 3.38,62.91 -13.32,112.19 10.04,172.72 12.29,31.86 11.1,64.25 33.76,92.3 23.79,29.45 109.09,54.07 145.99,56.66 32.28,2.27 193.27,-73.43 140.51,26.51 -43.28,81.98 55.46,187.91 130.48,216.58 64.98,24.83 19.88,69.52 50.18,113.32 16.11,23.28 44.2,14 67.52,23.76 28.32,11.85 35.58,17.49 52.92,41.13 24.67,33.64 23.38,69.18 52.92,102.35 9.46,10.63 30.15,5.36 52.94,-0.85 22.79,-6.21 47.72,-13.35 65.68,-6.46 18.42,7.07 47.2,-46.52 72.08,-62.14 78.61,-49.34 140.98,-36.1 202.56,-116.98 40.65,-53.39 192,-224 272.81,-191 43.18,17.63 59.5,72.3 125.01,62.15 56.89,-8.81 43.61,-84.63 69.34,-123.38 25.72,-38.74 8.21,-123.04 8.21,-168.15 0,-64.66 33.97,-85.34 78.49,-87.63 61.02,-3.14 141.9,28.23 182.47,28.23 36.53,0 86.63,-11.65 122.26,-20.1 68.21,-16.19 -29.9,-56.61 -1.82,-107.84 24.11,-43.99 25.92,-49.6 83.03,-31.99 90.1,27.79 97.11,-55.46 167.88,-82.24 90.14,-34.12 94.14,15.85 187.05,-52.09 31.46,-23 50.48,-69.11 94.89,-75.86 35.02,-5.32 73.21,-2.92 112.23,-20.1 9.62,-4.24 18.99,-4.72 28.31,-3.12 105.74,-32.82 48.56,-95.28 74.8,-154.98 15.69,-35.68 33.58,14.63 51.09,21.02 77.4,28.24 30.11,-93.2 30.11,-112.41 0,-93.31 58.73,-23.76 115.88,-23.76 77.36,0 206.58,-109.19 222.63,-5.48 10.82,69.87 51.33,131.05 131.39,101.44 40.25,-14.88 -32.1,-105.27 -46.53,-119.72 -60.42,-60.55 14.17,-195.79 102.19,-142.56 38.65,23.38 56.33,48.94 87.59,77.68 25.48,23.43 25.74,84.84 61.5,99.84 48.36,-3.55 108.75,-10.91 85.4,-76.08 -10.8,-30.12 -63.75,-51.34 -64.78,-76.77 -1.19,-29.34 -37.2,-98.13 10.04,-108.75 32.35,-7.27 39.47,60.45 67.52,59.4 40.7,-1.53 37.85,-35.21 85.77,-22.84 38.71,9.99 35.54,6.59 53.83,36.55 20.89,34.21 9.4,20.93 44.71,33.82 21.43,7.82 34.51,61.76 57.48,83.16 46.9,43.71 51.04,118.09 104.02,148.96 74.15,43.21 137.07,28.41 165.15,120.63 34.45,113.15 128.58,218.73 237.23,275.07 99.2,51.44 133.15,84.25 210.77,167.24 11.68,12.49 59.81,64.29 74.82,26.5 18.99,-47.82 97.87,-59.84 149.64,-66.71 57.51,-7.64 109.31,-183.17 208.03,-199.22 33.26,-5.41 50.34,-7.67 63.46,-16.19 13.53,-8.8 22.89,-24.32 41.47,-56.92 26.47,-46.41 70.25,-93.68 90.33,-142.57 6.7,-16.31 71.37,-81.21 17.26,-80.13 -30.93,0.62 -87.13,48.64 -100.83,-5.48 -5.77,-22.81 -1.29,-50.65 6.84,-72.2 14.27,-37.8 -34.19,-43.06 -30.56,-71.28 4.62,-35.87 42.68,-57.48 -7.3,-83.63 -14.09,-7.37 -6.45,-19.76 4.02,-29.94 6.45,-41.68 6.45,-44.06 -27.21,-35.68 -45.48,11.31 -40.82,-58.95 -25.54,-84.99 8.23,-14.02 -8.32,-25.14 4.56,-39.29 24.19,-26.6 28.54,-40.57 -10.95,-42.95 -26.37,-1.58 -17.11,-25.43 -11.86,-40.22 7.62,-21.48 -57.72,-53.57 -1.83,-71.28 30.21,-9.58 5.92,-20.59 -10.04,-27.41 -23.99,-10.24 -17.33,-48.6 -17.33,-71.28 27.14,-29.14 7.42,-52.64 47.45,-80.42 29.26,-20.32 10.08,-45.71 27.37,-63.06 15.09,-15.16 38.45,-15.73 55.66,-27.42 12.99,-8.83 14.35,-30.95 32.84,-43.86 35.11,-24.5 -0.09,-68.53 57.49,-74.03 29.19,-2.78 44.05,-24.48 35.58,-52.09 -5.15,-16.76 55.79,-84.12 71.17,-84.99 16.26,-0.91 38.74,9.47 46.53,-9.14 10.26,-24.54 15.86,-41.13 33.76,-63.05 29.15,-31.94 19.46,-78.43 35.59,-116.98 8.39,-20.03 39.09,-80.42 62.96,-80.42 14.32,0 30.34,37.5 61.13,40.21 42.59,3.76 103.65,-16.24 143.25,-0.91 26.61,10.31 41.94,18.28 72.08,18.28 28.55,0 95.11,-2.24 122.27,4.56 14.34,-0.08 102.33,1.24 118.61,-2.74 91.24,-22.35 191.81,-80.38 269.17,1.83 22.39,23.79 90.95,62.6 105.84,8.23 11.58,-42.27 2.78,-108.37 61.13,-114.24 44.31,-4.45 43.66,-44.73 79.38,-33.81 43.74,13.37 38.61,21.07 72.09,-10.05 66.05,-61.39 73.32,27.36 118.61,31.07 96.88,7.95 18.66,150.23 73.91,166.32 45.28,13.18 58.44,-12.79 100.36,-12.79 50.12,0 15.9,21.35 35.59,41.12 29.03,29.16 65.93,41.52 103.1,30.16 44.89,-13.72 27.95,48.94 77.56,15.54 6.56,-4.41 82.99,53.92 94.89,50.26 25.93,-7.98 32.86,-0.03 50.19,15.53 29.99,26.92 32.43,7.96 74.81,14.63 74.53,11.74 36.53,-39.3 78.47,-39.3 29.11,0 28.53,37.29 52.01,-5.48 13.38,-24.36 26.77,-48.74 40.15,-73.11 12.27,-22.33 -18.23,-45.44 -9.13,-60.32 1.44,-2.36 105.93,33.07 102.2,-3.65 -0.9,-8.92 -42.21,-25.33 -32.85,-34.73 11.9,-11.95 39.69,5.81 51.09,-9.14 21.53,-28.24 -46.82,-59.98 9.13,-89.56 10.41,-5.5 77.65,-42.24 82.12,-39.3 12.81,8.44 51.98,42.05 66.6,12.8 5.29,-10.6 -31.02,-94.73 -31.02,-121.55 0,-49.23 47.45,-13.21 47.45,-61.22 0,-31.3 -3.26,-63.48 26.46,-81.34 15.03,-9.03 63.62,-59.85 56.57,-68.54 -26.88,-33.15 -87.71,-60.05 -31.94,-106.01 25.95,-21.38 -18.46,-73.14 -3.65,-116.06 28.84,-83.56 7.92,-50.47 -21.89,-92.3 -22.75,-31.92 -20.99,-104.64 -20.99,-130.68 0,-26.08 -21.21,-16.65 -36.5,-31.07 -32.45,-30.6 -16.63,-63.6 -70.25,-58.49 -26.09,2.48 -56.78,15.55 -76.65,-9.14 -21.86,-27.17 -60.09,-8.81 -86.68,-48.44 -20.41,-30.42 -38.95,-105.73 -32.85,-142.56 5.61,-33.87 10.57,-48.1 -7.29,-74.94 -4.59,-6.91 -6.61,-106.42 -2.74,-115.14 16.79,-37.8 42.76,-78.39 66.61,-21.94 11.75,27.81 30.58,80.36 58.39,33.82 16.71,-27.97 62.35,-52.04 92.16,-63.06 20.48,-7.57 41.46,21.02 63.87,21.02 37.75,0 29.18,-20.73 5.47,-35.64 -23.06,-14.5 -16.45,-28.52 -11.86,-49.35 5.09,-23.1 -12.49,-29.81 -16.43,-48.44 -13.5,-63.87 56.83,11.76 64.79,15.54 26.3,12.49 32.63,-32.6 35.58,-47.52 1.61,-8.15 79.63,-63.94 80.3,-63.97 12.89,-0.71 30.45,13.02 37.41,-3.66 12.51,-29.98 13.1,-40.69 36.49,-67.62 24.01,-27.65 53.41,-36.92 69.3,-69.38 8.79,-17.96 -3.36,-50.55 10.04,-58.49 16.37,-9.7 40.98,-20.31 55.66,-31.99 17.92,-14.27 24.35,-38.02 43.79,-50.26 15.27,-9.62 34.59,-14.17 49.28,-23.76 22.08,-14.42 26.87,-54.08 53.83,-75.86 25.57,-20.66 27.08,-6.88 51.1,-11.88 10.81,-2.25 73.29,-50.21 89.41,-59.4 34.94,-19.93 38.29,-13.07 76.65,-38.38 17.1,-11.29 6.59,-57.49 1.82,-77.68 -11,-46.56 6.87,-59.85 22.82,-103.27 10.34,-28.14 5.39,-75.62 28.28,-95.96 93.06,-82.7 68.39,-260.55 193.44,-320.78 46.98,-22.63 108.91,-24.66 72.08,-94.13 -15.85,-29.9 7.3,-48.91 20.07,-73.11 11.58,-21.94 1.86,-53.36 0,-80.42 -7.41,-107.89 93.45,-25.36 126.83,-42.04 20.18,-10.09 13.1,-35.17 47.45,-46.61 21.28,-7.08 122.32,-62.75 61.13,-87.73 -90.94,-37.13 -3.21,-173.86 49.28,-135.26 50.61,37.22 162.94,-16.75 173.36,-74.02 6.57,-36.13 55.17,-119.4 100.37,-76.77 16.68,15.73 43.96,75.22 78.47,46.61 17.53,-14.54 19.99,-44.9 52.92,-35.64 35.11,9.88 12.1,66.92 60.22,39.3 47.13,-27.05 13.1,-105.37 76.64,-106.01 42.3,-0.42 68.46,4.4 68.46,51.14 0,38.22 85.54,132.94 97.63,77.67 14.83,-67.82 114.96,31.26 78.47,-67.62 -2.82,-7.63 -81.81,-125.7 0,-91.39 67.73,28.4 65.39,-49.35 111.32,-49.35 31.99,0 11.88,61.14 52,72.2 35.95,9.91 65.7,-2.79 65.7,46.61 0,23.26 22.44,122.63 32.85,141.64 17.42,31.79 6.28,78.5 48.36,94.13 50.42,18.73 19.54,-39.41 26.46,-60.31 2.18,-6.6 41.86,4.62 59.3,-9.14 24.53,-19.35 50.39,-40.7 70.26,-1.83 5.46,10.69 -8.42,27 -7.3,39.3 1.37,14.96 35.59,-2.38 44.71,2.74 14.2,7.98 14.07,25.76 23.72,31.98 0.81,0.52 -0.04,2.71 0.92,2.75 18.58,0.89 51.91,-40.37 54.74,-25.59 12.44,64.92 -10.92,37.78 41.06,53.92 44.81,13.91 41.91,148 82.12,178.2 19.59,14.71 43.94,3.84 67.52,27.42 13.59,13.59 25.59,38.32 42.88,46.6 22.33,10.7 49.64,12.54 70.26,26.51 38.27,25.92 37.93,56.19 95.8,46.6 21.33,-3.53 51.9,-23.67 73,-15.53 14.34,5.53 20.51,20.55 34.67,22.84 84.83,13.78 45.55,14.95 52.01,87.74 5.01,56.43 88.86,14.39 114.96,66.71 13.35,26.77 27.44,54.18 20.99,85.9 -3.95,19.46 -20.41,54.86 -16.42,73.11 10.42,47.7 60.21,65.97 2.73,112.41 -28.53,23.05 75.2,235.12 -22.81,191.91 -26.44,-11.65 -54.81,38.67 -61.13,59.4 -13.58,44.52 15.94,61.69 -34.67,99.61 -1.22,0.92 -6,21.69 -10.95,27.42 -25.23,29.21 -21.99,-2.05 -12.77,34.73 6.5,25.92 10.91,88.64 -8.22,107.83 -24.83,24.9 -18.71,73.53 -34.67,87.73 -15.4,13.7 -44.46,-22.23 -62.96,9.14 -17.83,30.24 73.59,59.18 17.34,109.67 -11.31,10.15 -31.4,10.45 -42.88,21.93 -24.72,24.72 38.84,33.89 -18.25,59.4 -35.38,15.8 19.47,87.98 -1.83,114.23 -39.94,49.21 3.9,64.95 -32.84,106.93 -38.86,44.39 31.29,93.71 55.65,53 73.17,-122.26 91.26,32.85 120.44,79.51 71.78,114.76 62.58,55.01 177.93,-2.74 30.66,-15.34 64.47,-19.2 98.54,-14.63 24.3,3.26 120.33,-60.59 152.37,-74.02 34.94,-14.65 98.86,-41.87 122.27,-68.54 54.69,-62.33 162.18,17.91 223.54,32.9 39.7,9.7 58.81,30.51 65.4,57.6 5.82,23.89 1.93,52.73 -6.09,83.14 -13.05,49.5 36.27,75.13 16.43,132.51 -43.3,125.19 -1.88,115.59 15.51,233.03 8.61,58.2 -127.36,82.48 -170.63,138 -37.64,48.3 19.16,99.39 29.2,155.35 7.74,43.15 -12.5,81.04 -30.11,118.81 -31.16,66.82 -48.36,130.61 -48.36,205.62 0,89 -82.56,148.96 -62.04,237.6 11.27,48.69 12.34,82.31 -11.86,124.29 -17.72,30.75 -33.42,32.79 -13.69,68.54 17.54,31.78 13.69,33.72 13.69,71.28 0,54.52 43.99,104.25 58.18,153.03 9.71,33.38 5.49,66.35 -36.29,100.11 -42,33.93 1.9,84.65 -32.84,107.84 -17.27,11.52 -2.91,37.62 0.91,53 9.2,36.99 -26.16,33.93 -51.1,36.56 -25.58,2.7 -30.15,33.24 -26.46,54.83 4.25,24.85 9.72,21.62 30.11,30.16 26.97,11.3 27.32,22.56 23.73,49.35 -4.18,31.24 -15.57,60.9 -11.87,93.21 2.75,24.06 -4.17,74.62 29.2,83.16 19.95,5.1 41.17,27.74 38.32,49.35 -3.37,25.51 -49.48,16.75 -44.7,69.46 3.46,38.23 -14.08,38.34 -20.08,68.54 -3.76,18.95 1.85,40.37 2.74,59.4 0.99,21.02 -15.77,25.54 -24.64,43.86 -10.42,21.52 17.46,41.58 -2.73,68.54 -21.29,28.44 -58.51,39.13 -73,76.77 -10.79,28.03 28.94,92.91 14.6,109.66 -22.15,25.87 -49.72,-2.74 -47.45,47.52 1.11,24.71 6.89,49.36 11.87,73.11 4.86,23.19 -8.78,34.73 -18.25,52.09 -6.99,12.83 -7.63,96.54 -4.56,113.32 8.75,47.86 -5.5,45.62 -26.47,79.51 -21.18,34.24 -17.02,124.14 4.57,157.19 31.75,48.61 77,75.37 93.98,132.51 9.39,31.59 30.95,88.19 20.98,120.63 -21.67,70.56 -25.72,105.1 5.48,176.37 8.93,20.42 26.58,22.75 43.79,33.82 21.89,14.09 -9.69,69.2 38.33,93.21 56.98,28.48 41.54,102.09 75.73,144.39 10.8,13.37 9.03,45.25 22.81,65.8 23.2,34.57 30.28,54.71 39.23,96.87 36.28,170.86 107.49,331.53 235.41,466.07 39.16,41.18 45.18,65.18 92.15,70.37 46.75,5.17 48.22,40.69 83.95,57.58 91.19,43.13 330.84,-26.51 441.61,-26.51 73.44,0 138.32,-19.62 174.28,-87.73 18.33,-34.72 84.47,-130.64 124.09,-129.77 93.58,2.05 131.69,-124.46 202.55,-150.79 39.7,-14.75 93.51,-68.93 120.45,-102.35 13.78,-17.09 13.19,-33.55 36.49,-43.86 71.01,-31.45 74.1,-97.79 164.24,-97.79 22.96,0 95.41,-6.62 100.37,-33.81 7,-38.32 -6.34,-84.69 46.53,-95.96 58.18,-12.4 195.38,-129.76 222.63,-179.12 25.12,-45.51 44.53,-33.51 84.86,-43.86 27.4,-7.03 28.68,-38.37 58.39,-47.52 82.43,-25.37 96.78,-68.83 162.42,-104.18 48.22,-25.97 70.93,-23.05 109.49,-63.97 30.63,-32.51 125.65,-6.73 175.18,-16.45 67.8,-13.31 83.9,-98.83 177.93,-46.61 26.27,14.59 55.3,41.22 86.68,40.21 21.75,-0.69 35.66,-29.24 62.04,-29.24 51.79,0 59.72,15.19 108.58,-11.88 26.68,-14.77 76.66,-10.2 107.67,-14.63 65.25,-9.34 113.27,-89.16 182.48,-92.3 53.62,-2.43 48.96,61.96 117.71,44.78 106.6,-26.64 10.55,-102.54 71.16,-154.44 24.31,-20.82 41.88,-9.76 40.15,-52.09 -2.36,-57.87 13.89,-43.84 45.62,-76.77 113.77,-118.1 133.36,-325.88 227.2,-454.19 25.2,-34.46 73.11,-84.52 112.23,-100.53 66.72,-27.32 72.97,47.98 137.77,3.66 69.04,-47.21 139.71,-92.15 207.12,-141.65 26.37,-19.36 23.69,-66.21 55.66,-81.33 22.47,-10.62 33.85,10.44 62.05,-9.14 33.8,-23.47 105.93,-71.36 148.72,-60.32 65.55,16.93 54.03,12.92 119.53,-21.02 80.29,-41.6 136.86,-36.23 136.86,-128.85 0,-102.68 9.6,-54.37 79.39,-95.04 27.68,-16.13 31.49,-78.62 52,-106.01 41.01,-54.76 114.4,-46.98 171.54,-24.68 69.41,27.08 113.21,-99.41 161.5,-116.97 48.85,-17.76 76.84,-57.07 111.32,-84.99 32.45,-26.27 67.84,-24.83 107.66,-36.56 47.41,-13.97 50.7,20.22 83.03,21.94 24.7,1.31 48.36,-18.45 48.36,19.19 0,86.23 70.15,38.87 110.41,3.65 83.07,-72.67 154.42,-77.68 266.42,-77.68 111.14,0 127.41,17.64 216.25,64.89 18.44,9.8 34.36,23.76 51.55,35.63l121.81 18.29 120.44 29.24 79.38 -42.95 165.15 23.76 99.46 -4.57 32.84 15.54c-14.26,32.36 -23.72,93.49 -23.72,128.85l0 166.32c0,17.77 6.3,49.64 17.34,62.15 28.15,31.93 -31.3,37.85 -43.8,48.43 -18.57,-4.64 -18.66,33.06 -24.64,41.13 -15.36,20.7 -98.99,46.81 -123.17,54.83 -19.81,6.58 -28.79,-11.81 -56.57,-2.74 -12.68,4.13 -34.21,16.62 -48.36,13.71 -27.59,-5.69 -37.49,-72.26 -62.05,-20.11 -6.36,13.5 -39.44,37.5 -25.55,53.92 28.33,33.51 -1.58,94.63 -37.4,63.97 -15.36,-13.16 -58.4,39.86 -58.4,59.4 30.98,0 28.29,19.08 28.29,42.04 0,26.86 79.32,104.21 96.71,70.37 30.58,-59.47 40.28,-32.66 91.25,-56.66 18.14,-8.53 66.71,28.6 99.45,23.76 8.07,-1.19 119.36,128.49 133.21,86.81 15.14,-45.58 54.93,-69.41 92.16,-29.24 30.52,32.92 46.65,-13.42 83.94,6.4 88.2,46.86 64.89,-62.77 83.03,-92.3 14.72,-23.95 43.47,-29.25 69.35,-29.25 37.36,0 44.96,-35.56 68.43,-61.23 46.02,-12.05 158.86,-72.56 184.31,5.49 6.42,0 16.29,-84.99 60.22,-84.99 80.78,0 127.5,84.81 171.54,-30.16 13.66,-35.65 33.5,7.46 42.88,13.71 6.19,4.13 43.52,-23.04 54.75,-28.33 38.22,-17.98 -19.42,-76.33 42.88,-52.09 24.33,9.47 86.46,43.25 108.58,4.57 13.6,-23.8 28.6,-27.36 53.83,-19.19 42.49,13.75 62.05,-43.78 102.19,-56.66 66.31,-21.29 63.9,26.7 114.06,17.36 27.42,-0.56 56.09,-36.47 84.85,-50.26 18.5,-8.86 101.25,-109.91 74.82,-121.55 -37.68,-16.59 -45.92,-98.38 -19.16,-125.2 24.51,-24.58 246.99,92.8 260.96,36.56 8,-32.25 56.89,12.35 72.08,-37.47 21.73,-71.24 99.76,-51.91 118.61,6.4 16.18,50.07 40.82,95.12 106.76,80.42 28.69,-6.4 35.41,-71.48 52.01,-93.22 25.68,-33.65 89.41,86.92 89.41,-2.74 0,-28.23 24.08,-57.79 42.89,-22.85 12.48,23.16 3.7,54.14 17.33,71.29 13.8,4.74 21.66,18.95 35.59,21.01 22.09,3.26 45.39,-16.46 64.78,-25.58 36.46,-17.14 76.57,-20.85 114.97,-8.23 31.61,10.38 8.24,60.03 14.6,83.16l27.82 55.76c8.92,-8.29 14.6,-19.48 29.66,-28.34 14.29,-8.41 38.96,-4.94 54.74,-2.74 34.51,4.83 67.3,-36.7 105.85,-10.97 19.43,12.97 28.96,23.51 42.88,0.91 15.84,-25.71 74.24,-20.82 101.28,-41.12 15.7,-11.79 24.2,-24.65 31.93,-41.12 3.6,-7.69 8.8,-14.5 14.63,-20.97l41.94 55.69c7.9,13.32 7.87,42.95 22.82,47.52 20.68,6.31 44.48,10.97 65.69,10.97 25.02,0 45.06,23.55 66.61,35.64 44.52,25 136.99,23.23 167.88,56.66 12.2,13.19 15.68,27.5 21.9,43.87 11.31,29.8 50.19,12.8 61.13,48.43 15.02,48.87 25.61,100.58 63.87,138.91 39.32,39.41 70.26,59.08 70.26,116.06 4.03,6.16 8,15.21 15.51,17.37 9.29,2.66 17.58,2.36 20.08,12.79 6.72,28.01 2.73,66.29 2.73,95.96l0 0zm-24162.25 -15983.9l25741.94 0 0 19000 -25741.94 0 0 -19000z"/>
  <path class="fil1 str1" d="M23122.53 1231.11l3033.79 0 0 1592.89 -3033.79 0 0 -1592.89z"/>
  <path class="fil2" d="M26325.05 2958.2c0,-17.45 4.47,-34.48 13.46,-51.13 8.93,-16.61 21.77,-29.59 38.43,-38.86 16.69,-9.26 34.1,-13.92 52.16,-13.92 17.92,0 35.18,4.56 51.69,13.74 16.56,9.12 29.4,21.92 38.53,38.43 9.17,16.51 13.73,33.77 13.73,51.74 0,18.01 -4.56,35.27 -13.73,51.78 -9.13,16.51 -21.97,29.35 -38.53,38.53 -16.51,9.17 -33.77,13.78 -51.69,13.78 -18.06,0 -35.47,-4.66 -52.16,-13.97 -16.66,-9.36 -29.5,-22.34 -38.43,-38.95 -8.99,-16.65 -13.46,-33.68 -13.46,-51.17zm17.22 0c0,14.62 3.76,28.88 11.24,42.7 7.48,13.83 18.2,24.65 32.13,32.46 13.92,7.81 28.41,11.71 43.46,11.71 15,0 29.35,-3.85 43.08,-11.52 13.74,-7.67 24.46,-18.39 32.13,-32.17 7.67,-13.79 11.52,-28.18 11.52,-43.18 0,-14.96 -3.85,-29.36 -11.52,-43.14 -7.67,-13.78 -18.39,-24.5 -32.13,-32.12 -13.73,-7.62 -28.08,-11.43 -43.08,-11.43 -15.05,0 -29.54,3.9 -43.46,11.66 -13.93,7.76 -24.65,18.58 -32.13,32.46 -7.48,13.87 -11.24,28.08 -11.24,42.57zm103.57 -33.35l5.08 -16.94c11.53,2.78 20.7,8.61 27.52,17.55 6.87,8.98 10.3,19.85 10.3,32.59 0,16.19 -5.22,29.31 -15.71,39.42 -10.49,10.11 -24.98,15.15 -43.55,15.15 -12.14,0 -22.68,-2.31 -31.61,-6.92 -8.99,-4.56 -15.71,-11.15 -20.28,-19.61 -4.56,-8.52 -6.82,-18.25 -6.82,-29.16 0,-12.23 2.92,-22.39 8.8,-30.48 5.88,-8.09 13.88,-13.6 23.94,-16.56l4.23 16.37c-6.91,2.77 -12.23,6.82 -15.89,12.23 -3.72,5.41 -5.55,11.71 -5.55,19 0,10.58 3.76,19.33 11.28,26.2 7.53,6.87 18.35,10.3 32.37,10.3 14.06,0 24.69,-3.24 31.89,-9.74 7.19,-6.49 10.81,-14.86 10.81,-25.16 0,-8.28 -2.39,-15.57 -7.24,-21.83 -4.8,-6.25 -11.33,-10.39 -19.57,-12.41z"/>
  <path id="1" class="fil2" d="M26530.51 2663.04l-18.58 0c14.44,9.27 21.68,22.91 21.68,40.92 0,11.67 -3.19,22.39 -9.64,32.13 -6.4,9.78 -15.38,17.35 -26.86,22.76 -11.52,5.37 -24.74,8.05 -39.69,8.05 -14.59,0 -27.8,-2.45 -39.7,-7.29 -11.86,-4.9 -20.98,-12.19 -27.29,-21.92 -6.35,-9.69 -9.5,-20.61 -9.5,-32.6 0,-8.84 1.88,-16.7 5.6,-23.56 3.72,-6.87 8.61,-12.47 14.58,-16.8l-72.67 0 0 -24.83 202.07 0 0 23.14zm-73.05 78.46c18.72,0 32.69,-3.95 41.96,-11.9 9.26,-7.91 13.87,-17.27 13.87,-28.04 0,-10.86 -4.42,-20.08 -13.26,-27.7 -8.84,-7.57 -22.34,-11.38 -40.5,-11.38 -19.94,0 -34.62,3.85 -43.98,11.61 -9.36,7.72 -14.01,17.27 -14.01,28.6 0,11.06 4.46,20.27 13.45,27.71 8.98,7.38 23.14,11.1 42.47,11.1z"/>
  <path id="2" class="fil2" d="M26469.83 2610.5l-24.83 0 0 -76.76 24.83 0 0 76.76z"/>
  <path id="3" class="fil2" d="M26530.51 2506.64l-146.47 0 0 -22.29 20.69 0c-7.15,-4.56 -12.93,-10.68 -17.26,-18.3 -4.37,-7.62 -6.54,-16.27 -6.54,-26.01 0,-10.82 2.26,-19.71 6.73,-26.62 4.52,-6.92 10.77,-11.81 18.86,-14.63 -17.07,-11.67 -25.59,-26.77 -25.59,-45.39 0,-14.58 4,-25.83 12.04,-33.63 8.05,-7.86 20.42,-11.81 37.12,-11.81l100.42 0 0 24.84 -92.19 0c-9.88,0 -17.03,0.84 -21.4,2.44 -4.38,1.6 -7.86,4.52 -10.54,8.8 -2.68,4.23 -4,9.22 -4,14.91 0,10.35 3.44,18.91 10.26,25.73 6.86,6.82 17.82,10.2 32.87,10.2l85 0 0 24.84 -95.06 0c-11.01,0 -19.29,2.02 -24.79,6.07 -5.5,4.04 -8.28,10.67 -8.28,19.85 0,6.96 1.84,13.4 5.51,19.33 3.66,5.93 9.03,10.21 16.13,12.89 7.05,2.63 17.26,3.95 30.57,3.95l75.92 0 0 24.83z"/>
  <path id="4" class="fil2" d="M26512.17 2175.88c7.85,9.22 13.35,18.11 16.6,26.62 3.25,8.52 4.84,17.64 4.84,27.43 0,16.08 -3.9,28.45 -11.75,37.11 -7.81,8.65 -17.83,12.98 -30.01,12.98 -7.15,0 -13.69,-1.65 -19.62,-4.89 -5.93,-3.29 -10.63,-7.57 -14.2,-12.84 -3.58,-5.32 -6.31,-11.24 -8.14,-17.88 -1.27,-4.89 -2.49,-12.27 -3.72,-22.1 -2.35,-20.04 -5.22,-34.86 -8.51,-44.31 -3.39,-0.1 -5.55,-0.14 -6.44,-0.14 -10.07,0 -17.17,2.35 -21.31,7.05 -5.6,6.35 -8.37,15.81 -8.37,28.32 0,11.71 2.07,20.36 6.16,25.92 4.09,5.59 11.38,9.68 21.78,12.37l-3.39 24.27c-10.4,-2.21 -18.82,-5.84 -25.21,-10.92 -6.4,-5.08 -11.29,-12.41 -14.77,-22.01 -3.44,-9.55 -5.18,-20.7 -5.18,-33.3 0,-12.51 1.46,-22.72 4.42,-30.57 2.97,-7.81 6.64,-13.6 11.11,-17.27 4.46,-3.67 10.11,-6.25 16.93,-7.76 4.23,-0.8 11.85,-1.22 22.81,-1.22l32.93 0c23,0 37.53,-0.52 43.69,-1.55 6.17,-0.99 12.05,-3.06 17.69,-6.07l0 25.96c-5.22,2.5 -11.34,4.1 -18.34,4.8zm-55.04 1.98c3.67,9.03 6.78,22.57 9.32,40.64 1.45,10.25 3.1,17.49 4.93,21.73 1.84,4.23 4.52,7.48 8,9.78 3.53,2.31 7.43,3.48 11.76,3.48 6.54,0 12.04,-2.49 16.42,-7.52 4.37,-5.04 6.58,-12.38 6.58,-22.02 0,-9.55 -2.07,-18.06 -6.25,-25.54 -4.14,-7.43 -9.84,-12.93 -17.03,-16.41 -5.6,-2.69 -13.83,-4 -24.7,-4l-9.03 -0.14z"/>
  <path id="5" class="fil2" d="M26586.67 2114.59l-202.63 0 0 -22.57 19.24 0c-7.44,-5.32 -13.03,-11.34 -16.75,-18.07 -3.72,-6.68 -5.6,-14.81 -5.6,-24.36 0,-12.51 3.2,-23.52 9.65,-33.07 6.39,-9.55 15.47,-16.74 27.14,-21.63 11.71,-4.85 24.5,-7.3 38.47,-7.3 14.91,0 28.37,2.69 40.36,8.05 11.95,5.36 21.12,13.17 27.52,23.42 6.35,10.21 9.54,20.98 9.54,32.27 0,8.28 -1.74,15.71 -5.22,22.25 -3.48,6.58 -7.85,11.94 -13.17,16.18l71.45 0 0 24.83zm-128.5 -22.57c18.77,0 32.69,-3.81 41.67,-11.39 8.99,-7.62 13.45,-16.84 13.45,-27.65 0,-11.01 -4.65,-20.42 -13.97,-28.23 -9.31,-7.85 -23.7,-11.76 -43.22,-11.76 -18.63,0 -32.55,3.81 -41.82,11.48 -9.26,7.67 -13.87,16.79 -13.87,27.42 0,10.54 4.94,19.85 14.77,27.94 9.87,8.14 24.17,12.19 42.99,12.19z"/>
  <path id="6" class="fil2" d="M26486.77 1967.51l-3.96 -24.55c9.84,-1.37 17.36,-5.22 22.63,-11.53 5.22,-6.3 7.85,-15.14 7.85,-26.43 0,-11.43 -2.3,-19.9 -6.96,-25.45 -4.61,-5.5 -10.06,-8.28 -16.32,-8.28 -5.6,0 -10.02,2.5 -13.22,7.44 -2.21,3.48 -4.98,11.94 -8.42,25.4 -4.56,18.15 -8.51,30.71 -11.85,37.77 -3.39,7 -7.99,12.32 -13.92,15.94 -5.88,3.62 -12.42,5.46 -19.57,5.46 -6.54,0 -12.56,-1.51 -18.11,-4.47 -5.55,-3.01 -10.16,-7.06 -13.83,-12.18 -2.82,-3.86 -5.22,-9.13 -7.19,-15.76 -1.98,-6.68 -2.97,-13.78 -2.97,-21.4 0,-11.48 1.65,-21.54 4.99,-30.2 3.29,-8.7 7.81,-15.1 13.45,-19.24 5.69,-4.09 13.27,-6.96 22.77,-8.51l3.38 24.27c-7.62,1.08 -13.59,4.28 -17.87,9.55 -4.28,5.27 -6.4,12.7 -6.4,22.34 0,11.34 1.88,19.47 5.65,24.32 3.76,4.84 8.18,7.29 13.21,7.29 3.2,0 6.12,-0.99 8.71,-3.01 2.63,-2.02 4.84,-5.18 6.58,-9.5 0.94,-2.5 3.06,-9.74 6.35,-21.87 4.66,-17.5 8.52,-29.73 11.48,-36.69 2.96,-6.96 7.34,-12.42 12.98,-16.37 5.69,-4 12.75,-5.98 21.21,-5.98 8.24,0 16,2.4 23.29,7.25 7.29,4.84 12.93,11.8 16.93,20.88 4,9.13 5.97,19.43 5.97,30.91 0,19 -3.95,33.53 -11.8,43.5 -7.9,9.98 -19.57,16.33 -35.04,19.1z"/>
  <path id="7" class="fil2" d="M26530.51 1809.47l-28.22 0 0 -28.22 28.22 0 0 28.22z"/>
  <path id="8" class="fil2" d="M26476.89 1642.44l3.38 -24.27c16.7,2.68 29.73,9.45 39.19,20.41 9.45,10.96 14.15,24.46 14.15,40.41 0,19.99 -6.53,36.08 -19.61,48.21 -13.08,12.18 -31.8,18.25 -56.16,18.25 -15.81,0 -29.59,-2.63 -41.39,-7.85 -11.86,-5.22 -20.75,-13.17 -26.63,-23.9 -5.92,-10.68 -8.89,-22.29 -8.89,-34.9 0,-15.85 4,-28.88 12.04,-38.95 8.05,-10.11 19.48,-16.6 34.25,-19.42l3.67 23.99c-9.83,2.3 -17.22,6.35 -22.2,12.23 -4.94,5.83 -7.44,12.88 -7.44,21.16 0,12.51 4.47,22.67 13.41,30.53 8.98,7.81 23.09,11.71 42.47,11.71 19.66,0 33.92,-3.76 42.81,-11.29 8.89,-7.57 13.35,-17.4 13.35,-29.49 0,-9.78 -2.96,-17.92 -8.93,-24.41 -5.93,-6.54 -15.1,-10.68 -27.47,-12.42z"/>
  <path id="9" class="fil2" d="M26457.27 1606.32c-27.04,0 -47.08,-7.53 -60.11,-22.63 -10.82,-12.56 -16.23,-27.94 -16.23,-46.05 0,-20.08 6.59,-36.54 19.76,-49.34 13.12,-12.75 31.33,-19.14 54.51,-19.14 18.82,0 33.59,2.82 44.36,8.46 10.77,5.65 19.14,13.88 25.12,24.7 5.97,10.77 8.93,22.58 8.93,35.32 0,20.51 -6.53,37.07 -19.66,49.72 -13.12,12.65 -32.03,18.96 -56.68,18.96zm0.05 -25.4c18.72,0 32.74,-4.1 42,-12.28 9.32,-8.23 13.97,-18.53 13.97,-31 0,-12.32 -4.65,-22.57 -14.01,-30.81 -9.36,-8.18 -23.61,-12.27 -42.76,-12.27 -18.06,0 -31.75,4.14 -41.01,12.37 -9.32,8.23 -13.97,18.48 -13.97,30.71 0,12.47 4.61,22.77 13.87,31 9.27,8.18 23.24,12.28 41.91,12.28z"/>
  <path id="10" class="fil2" d="M26530.51 1440.04l-146.47 0 0 -22.29 20.69 0c-7.15,-4.56 -12.93,-10.68 -17.26,-18.3 -4.37,-7.62 -6.54,-16.27 -6.54,-26.01 0,-10.82 2.26,-19.71 6.73,-26.62 4.52,-6.92 10.77,-11.81 18.86,-14.63 -17.07,-11.67 -25.59,-26.77 -25.59,-45.39 0,-14.58 4,-25.83 12.04,-33.63 8.05,-7.86 20.42,-11.81 37.12,-11.81l100.42 0 0 24.84 -92.19 0c-9.88,0 -17.03,0.84 -21.4,2.44 -4.38,1.6 -7.86,4.52 -10.54,8.8 -2.68,4.23 -4,9.22 -4,14.91 0,10.35 3.44,18.91 10.26,25.73 6.86,6.82 17.82,10.2 32.87,10.2l85 0 0 24.84 -95.06 0c-11.01,0 -19.29,2.02 -24.79,6.07 -5.5,4.04 -8.28,10.67 -8.28,19.85 0,6.96 1.84,13.4 5.51,19.33 3.66,5.93 9.03,10.21 16.13,12.89 7.05,2.63 17.26,3.95 30.57,3.95l75.92 0 0 24.83z"/>
  <g id="_2483144513616">
   <g>
    <path class="fil3 str2" d="M23271.61 1832.51l691.74 0 0 99.16 -691.74 0 0 -99.16z"/>
    <path class="fil4 str2" d="M23963.35 1832.51l691.74 0 0 99.16 -691.74 0 0 -99.16z"/>
    <path class="fil3 str2" d="M24655.09 1832.51l691.74 0 0 99.16 -691.74 0 0 -99.16z"/>
    <path class="fil4 str2" d="M25346.99 1832.51l691.74 0 0 99.16 -691.74 0 0 -99.16z"/>
    <path class="fil3 str2" d="M24380.39 2131.45l1106.37 0 0 99.16 -1106.37 0 0 -99.16z"/>
    <path class="fil4 str2" d="M23274.03 2131.45l1106.37 0 0 99.16 -1106.37 0 0 -99.16z"/>
   </g>
   <path class="fil2" d="M24251.56 1541.21c-18.63,-15.17 -30.63,-27.34 -35.98,-36.51 -5.35,-9.17 -8.05,-18.7 -8.05,-28.58 0,-15.17 5.88,-28.22 17.64,-39.16 11.75,-10.99 27.34,-16.46 46.8,-16.46 18.93,0 34.1,5.12 45.62,15.35 11.53,10.17 17.29,21.81 17.29,34.92 0,8.7 -3.12,17.64 -9.29,26.7 -6.23,9.05 -19.17,19.75 -38.81,31.98 20.29,15.64 33.69,27.93 40.28,36.87 8.76,11.7 13.11,24.04 13.11,36.98 0,16.4 -6.29,30.46 -18.81,42.1 -12.59,11.64 -29.05,17.46 -49.45,17.46 -22.23,0 -39.57,-6.94 -51.98,-20.81 -9.93,-11.12 -14.87,-23.29 -14.87,-36.52 0,-10.29 3.47,-20.52 10.46,-30.69 6.94,-10.17 18.99,-21.34 36.04,-33.63zm27.11 -18.46c13.88,-12.47 22.64,-22.29 26.34,-29.52 3.71,-7.17 5.53,-15.34 5.53,-24.46 0,-12.11 -3.41,-21.58 -10.23,-28.45 -6.82,-6.88 -16.11,-10.29 -27.87,-10.29 -11.82,0 -21.4,3.41 -28.75,10.23 -7.41,6.76 -11.12,14.75 -11.12,23.87 0,6 1.53,11.99 4.59,17.99 3.06,6 7.41,11.7 13.11,17.11l28.4 23.52zm-18.99 25.05c-9.58,7.99 -16.64,16.69 -21.29,26.16 -4.58,9.41 -6.87,19.64 -6.87,30.63 0,14.76 4.05,26.58 12.17,35.46 8.11,8.88 18.46,13.29 31.04,13.29 12.41,0 22.4,-3.47 29.87,-10.47 7.47,-7 11.23,-15.46 11.23,-25.4 0,-8.23 -2.18,-15.64 -6.59,-22.17 -8.17,-12.11 -24.69,-27.98 -49.56,-47.5z"/>
   <path id="1" class="fil2" d="M24372.98 1543.39c0,-26.64 4,-49.51 12.05,-68.74 8.06,-19.22 18.7,-33.57 32.05,-42.98 10.29,-7.47 20.99,-11.17 31.98,-11.17 17.94,0 33.99,9.11 48.22,27.34 17.81,22.64 26.69,53.27 26.69,91.96 0,27.05 -3.88,50.09 -11.7,69.03 -7.82,18.93 -17.76,32.63 -29.87,41.21 -12.11,8.53 -23.81,12.82 -35.04,12.82 -22.29,0 -40.81,-13.11 -55.62,-39.39 -12.53,-22.17 -18.76,-48.86 -18.76,-80.08zm33.87 4.23c0,32.1 3.94,58.33 11.82,78.67 6.52,17.11 16.28,25.63 29.22,25.63 6.17,0 12.58,-2.76 19.22,-8.34 6.65,-5.59 11.65,-14.88 15.11,-27.99 5.24,-19.7 7.88,-47.57 7.88,-83.43 0,-26.64 -2.76,-48.86 -8.23,-66.62 -4.11,-13.23 -9.46,-22.58 -15.99,-28.05 -4.65,-3.82 -10.35,-5.7 -16.99,-5.7 -7.76,0 -14.7,3.53 -20.76,10.52 -8.23,9.53 -13.87,24.46 -16.81,44.92 -3,20.41 -4.47,40.52 -4.47,60.39z"/>
   <path id="2" class="fil2" d="M24682.73 1413.8l0 157.16 39.98 -36.63c8.52,-7.82 13.46,-12.76 14.81,-14.82 0.95,-1.41 1.42,-2.76 1.42,-4.17 0,-2.29 -1,-4.23 -2.89,-5.94 -1.88,-1.65 -4.99,-2.59 -9.4,-2.82l0 -5.65 68.61 0 0 5.65c-9.35,0.23 -17.17,1.7 -23.4,4.35 -6.23,2.7 -13.05,7.47 -20.52,14.29l-40.63 37.22 40.34 51.33c11.29,14.05 18.81,23.04 22.58,26.98 5.58,5.24 10.4,8.65 14.58,10.17 2.94,1.12 7.99,1.71 15.17,1.71l0 6.35 -76.73 0 0 -6.35c4.41,-0.12 7.35,-0.76 8.88,-1.94 1.58,-1.24 2.35,-2.88 2.35,-5.06 0,-2.64 -2.3,-6.88 -6.88,-12.7l-48.27 -61.79 0 52.21c0,10.23 0.7,16.93 2.11,20.17 1.47,3.17 3.47,5.46 6.12,6.88 2.64,1.35 8.35,2.11 17.17,2.23l0 6.35 -80.08 0 0 -6.35c7.99,0 14.05,-1 18.05,-2.94 2.41,-1.23 4.23,-3.17 5.46,-5.76 1.71,-3.76 2.59,-10.29 2.59,-19.52l0 -143.94c0,-18.05 -0.41,-29.1 -1.18,-33.16 -0.82,-4.05 -2.11,-6.82 -3.99,-8.35 -1.83,-1.58 -4.24,-2.35 -7.18,-2.35 -2.41,0 -6.05,1 -10.82,2.94l-2.93 -6.35 46.74 -19.4 7.94 0z"/>
   <path id="3" class="fil2" d="M24859.47 1530.1c11.41,-11.53 18.17,-18.17 20.22,-19.93 5.12,-4.36 10.65,-7.77 16.59,-10.18 5.93,-2.41 11.81,-3.64 17.63,-3.64 9.88,0 18.29,2.88 25.4,8.64 7.06,5.76 11.82,14.11 14.17,25.11 11.88,-13.88 21.88,-22.93 30.05,-27.28 8.17,-4.3 16.58,-6.47 25.22,-6.47 8.35,0 15.82,2.17 22.35,6.47 6.46,4.29 11.64,11.34 15.4,21.16 2.53,6.65 3.82,17.11 3.82,31.4l0 67.97c0,9.82 0.71,16.58 2.18,20.23 1.12,2.46 3.23,4.64 6.23,6.4 3.06,1.77 8,2.65 14.88,2.65l0 6.35 -77.26 0 0 -6.35 3.29 0c6.7,0 11.99,-1.29 15.76,-3.94 2.64,-1.82 4.52,-4.76 5.64,-8.76 0.47,-1.94 0.71,-7.47 0.71,-16.58l0 -67.91c0,-12.88 -1.53,-21.93 -4.65,-27.22 -4.52,-7.35 -11.7,-11.06 -21.63,-11.06 -6.06,0 -12.23,1.53 -18.41,4.59 -6.11,3 -13.58,8.7 -22.34,16.93l-0.35 1.94 0.7 7.41 0 75.32c0,10.7 0.59,17.4 1.77,20.05 1.23,2.59 3.46,4.82 6.76,6.58 3.29,1.77 8.93,2.65 16.87,2.65l0 6.35 -79.37 0 0 -6.35c8.64,0 14.58,-1 17.81,-3.06 3.24,-2.06 5.47,-5.17 6.7,-9.29 0.59,-1.94 0.89,-7.58 0.89,-16.93l0 -67.91c0,-12.88 -1.88,-22.17 -5.65,-27.87 -5.05,-7.41 -12.05,-11.11 -21.11,-11.11 -6.17,0 -12.28,1.7 -18.34,5.05 -9.47,5.06 -16.82,10.82 -21.93,17.17l0 84.67c0,10.29 0.7,16.93 2.12,20.05 1.41,3.06 3.52,5.35 6.35,6.94 2.76,1.53 8.4,2.29 16.93,2.29l0 6.35 -77.97 0 0 -6.35c7.24,0 12.29,-0.76 15.17,-2.29 2.89,-1.59 5.06,-4 6.59,-7.41 1.47,-3.35 2.23,-9.88 2.23,-19.58l0 -60.33c0,-17.28 -0.53,-28.45 -1.53,-33.51 -0.82,-3.82 -2.05,-6.41 -3.82,-7.82 -1.7,-1.47 -4.05,-2.18 -6.99,-2.18 -3.24,0 -7.06,0.89 -11.53,2.59l-2.58 -6.35 47.62 -19.4 7.41 0 0 33.75z"/>
   <path class="fil2" d="M24146.6 2542.33l0 24.34 -31.39 0 0 61.74 -28.58 0 0 -61.74 -98.43 0 0 -21.93 107.96 -154.81 19.05 0 0 152.4 31.39 0zm-59.97 0l0 -116.06 -81.61 116.06 81.61 0z"/>
   <path id="1" class="fil2" d="M24171.65 2512.82c0,-26.64 4,-49.51 12.05,-68.74 8.06,-19.22 18.7,-33.57 32.05,-42.98 10.29,-7.47 20.99,-11.17 31.98,-11.17 17.94,0 33.99,9.11 48.22,27.34 17.81,22.64 26.69,53.27 26.69,91.96 0,27.05 -3.88,50.09 -11.7,69.03 -7.82,18.93 -17.76,32.63 -29.87,41.21 -12.11,8.53 -23.81,12.82 -35.04,12.82 -22.29,0 -40.81,-13.11 -55.62,-39.39 -12.53,-22.17 -18.76,-48.86 -18.76,-80.08zm33.87 4.23c0,32.1 3.94,58.33 11.82,78.67 6.52,17.11 16.28,25.63 29.22,25.63 6.17,0 12.58,-2.76 19.22,-8.34 6.65,-5.59 11.65,-14.88 15.11,-27.99 5.24,-19.7 7.88,-47.57 7.88,-83.43 0,-26.64 -2.76,-48.86 -8.23,-66.62 -4.11,-13.23 -9.46,-22.58 -15.99,-28.05 -4.65,-3.82 -10.35,-5.7 -16.99,-5.7 -7.76,0 -14.7,3.53 -20.76,10.52 -8.23,9.53 -13.87,24.46 -16.81,44.92 -3,20.41 -4.47,40.52 -4.47,60.39z"/>
   <path id="2" class="fil2" d="M24481.75 2499.53c11.41,-11.53 18.17,-18.17 20.22,-19.93 5.12,-4.36 10.65,-7.77 16.59,-10.18 5.93,-2.41 11.81,-3.64 17.63,-3.64 9.88,0 18.29,2.88 25.4,8.64 7.06,5.76 11.82,14.11 14.17,25.11 11.88,-13.88 21.88,-22.93 30.05,-27.28 8.17,-4.3 16.58,-6.47 25.22,-6.47 8.35,0 15.82,2.17 22.35,6.47 6.46,4.29 11.64,11.34 15.4,21.16 2.53,6.65 3.82,17.11 3.82,31.4l0 67.97c0,9.82 0.71,16.58 2.18,20.23 1.12,2.46 3.23,4.64 6.23,6.4 3.06,1.77 8,2.65 14.88,2.65l0 6.35 -77.26 0 0 -6.35 3.29 0c6.7,0 11.99,-1.29 15.76,-3.94 2.64,-1.82 4.52,-4.76 5.64,-8.76 0.47,-1.94 0.71,-7.47 0.71,-16.58l0 -67.91c0,-12.88 -1.53,-21.93 -4.65,-27.22 -4.52,-7.35 -11.7,-11.06 -21.63,-11.06 -6.06,0 -12.23,1.53 -18.41,4.59 -6.11,3 -13.58,8.7 -22.34,16.93l-0.35 1.94 0.7 7.41 0 75.32c0,10.7 0.59,17.4 1.77,20.05 1.23,2.59 3.46,4.82 6.76,6.58 3.29,1.77 8.93,2.65 16.87,2.65l0 6.35 -79.37 0 0 -6.35c8.64,0 14.58,-1 17.81,-3.06 3.24,-2.06 5.47,-5.17 6.7,-9.29 0.59,-1.94 0.89,-7.58 0.89,-16.93l0 -67.91c0,-12.88 -1.88,-22.17 -5.65,-27.87 -5.05,-7.41 -12.05,-11.11 -21.11,-11.11 -6.17,0 -12.28,1.7 -18.34,5.05 -9.47,5.06 -16.82,10.82 -21.93,17.17l0 84.67c0,10.29 0.7,16.93 2.12,20.05 1.41,3.06 3.52,5.35 6.35,6.94 2.76,1.53 8.4,2.29 16.93,2.29l0 6.35 -77.97 0 0 -6.35c7.24,0 12.29,-0.76 15.17,-2.29 2.89,-1.59 5.06,-4 6.59,-7.41 1.47,-3.35 2.23,-9.88 2.23,-19.58l0 -60.33c0,-17.28 -0.53,-28.45 -1.53,-33.51 -0.82,-3.82 -2.05,-6.41 -3.82,-7.82 -1.7,-1.47 -4.05,-2.18 -6.99,-2.18 -3.24,0 -7.06,0.89 -11.53,2.59l-2.58 -6.35 47.62 -19.4 7.41 0 0 33.75z"/>
   <path id="3" class="fil2" d="M24749.39 2383.23c4.76,0 8.88,1.7 12.29,5.05 3.35,3.41 5.05,7.53 5.05,12.29 0,4.82 -1.7,9 -5.05,12.41 -3.41,3.47 -7.53,5.17 -12.29,5.17 -4.82,0 -9,-1.7 -12.41,-5.17 -3.47,-3.41 -5.17,-7.59 -5.17,-12.41 0,-4.76 1.7,-8.88 5.05,-12.29 3.41,-3.35 7.59,-5.05 12.53,-5.05zm14.17 82.55l0 127c0,9.82 0.7,16.34 2.17,19.58 1.41,3.29 3.53,5.7 6.35,7.29 2.82,1.59 8,2.41 15.47,2.41l0 6.35 -76.56 0 0 -6.35c7.65,0 12.82,-0.76 15.41,-2.23 2.64,-1.47 4.7,-3.94 6.29,-7.35 1.53,-3.41 2.29,-10 2.29,-19.7l0 -61.03c0,-16.99 -0.53,-27.99 -1.53,-33.05 -0.82,-3.64 -2.05,-6.17 -3.82,-7.58 -1.7,-1.47 -4.06,-2.18 -7,-2.18 -3.23,0 -7.11,0.89 -11.7,2.59l-2.41 -6.35 47.45 -19.4 7.59 0z"/>
  </g>
  <rect class="fil5 str3" x="1000" y="1000" width="25741.94" height="19000"/>
  <g id="_2483144501648">
   <path class="fil1 str1" d="M22179.28 1233.87l815.93 0 0 1592.89 -815.93 0 0 -1592.89z"/>
   <path class="fil6" d="M22527.38 1670c-0.92,3.32 -1.63,6.35 -2.07,9.15 -0.44,2.79 -0.65,5.18 -0.65,7.22 0,5.59 1.8,9.56 5.29,11.89 3.49,2.33 9.55,3.49 18.05,3.49l4.15 0 -4.96 22.72 -78.17 0 5.29 -22.72 2.89 0c7.36,0 12.82,-1.51 16.48,-4.54 3.6,-2.97 6.32,-8.39 8.12,-16.14l37.59 -153.79c0.6,-2.74 1.14,-5.54 1.52,-8.45 0.33,-2.91 0.55,-5.77 0.55,-8.62 0,-5.36 -1.96,-9.15 -5.95,-11.36 -3.92,-2.22 -10.69,-3.32 -20.23,-3.32l-3.06 0 5.29 -22.72 72.33 0 62.14 183.5 31.31 -129.03c1.08,-4.2 1.85,-7.63 2.34,-10.31 0.49,-2.68 0.71,-4.72 0.71,-6.06 0,-5.6 -1.8,-9.56 -5.35,-11.89 -3.6,-2.33 -9.71,-3.49 -18.32,-3.49l-4.15 0 4.96 -22.72 78.5 0 -5.62 22.72 -2.84 0c-7.37,0 -12.87,1.51 -16.47,4.54 -3.66,2.97 -6.33,8.33 -8.18,15.96l-50.68 208.44 -21.54 0 -72.06 -209.48 -37.21 155.01z"/>
   <path class="fil5 str4" d="M22588.07 2693.56l0 -769.27"/>
   <path class="fil5 str4" d="M22306.02 2417.51l563.14 0"/>
   <path class="fil5 str4" d="M22443.17 2557.5l294.22 -286.81"/>
   <path class="fil5 str4" d="M22440.03 2270.45l297.98 288.85"/>
   <path class="fil5 str4" d="M22587.93 1927.02l-95.47 118.01"/>
   <path class="fil5 str4" d="M22588.55 1926.98l87.89 118.05"/>
  </g>
  <g id="_2483144560368">
   <path class="fil1 str1" d="M21413.08 1233.87l0 473.7 -2309.37 0 0 -473.7 2309.37 0z"/>
   <path class="fil6" d="M20181.05 1572.34l0 -202.07 40.07 0 47.79 143.04c4.42,13.31 7.62,23.28 9.64,29.91 2.31,-7.33 5.93,-18.15 10.82,-32.4l48.64 -140.55 35.79 0 0 202.07 -25.68 0 0 -169.05 -58.98 169.05 -24.09 0 -58.32 -172.15 0 172.15 -25.68 0z"/>
   <path id="1" class="fil6" d="M20513.5 1524.93l25.68 3.38c-3.99,14.91 -11.47,26.53 -22.39,34.76 -10.91,8.24 -24.83,12.37 -41.81,12.37 -21.36,0 -38.29,-6.58 -50.8,-19.75 -12.51,-13.12 -18.77,-31.61 -18.77,-55.36 0,-24.56 6.31,-43.65 18.96,-57.2 12.65,-13.59 29.07,-20.37 49.25,-20.37 19.52,0 35.46,6.64 47.83,19.95 12.37,13.31 18.58,32.03 18.58,56.16 0,1.46 -0.05,3.67 -0.14,6.58l-109.08 0c0.94,16.04 5.46,28.37 13.64,36.88 8.14,8.51 18.35,12.79 30.53,12.79 9.08,0 16.84,-2.39 23.24,-7.19 6.44,-4.8 11.52,-12.47 15.28,-23zm-81.28 -39.8l81.56 0c-1.08,-12.32 -4.23,-21.54 -9.36,-27.7 -7.85,-9.55 -18.1,-14.35 -30.66,-14.35 -11.39,0 -20.93,3.81 -28.7,11.43 -7.71,7.62 -11.99,17.83 -12.84,30.62z"/>
   <path id="2" class="fil6" d="M20570.27 1572.34l0 -146.47 22.3 0 0 22.43c5.69,-10.39 10.96,-17.26 15.8,-20.55 4.85,-3.34 10.16,-4.99 15.95,-4.99 8.37,0 16.89,2.64 25.54,7.86l-8.84 22.91c-6.02,-3.39 -12.04,-5.08 -18.06,-5.08 -5.41,0 -10.26,1.64 -14.54,4.89 -4.28,3.24 -7.34,7.76 -9.17,13.54 -2.78,8.8 -4.14,18.44 -4.14,28.93l0 76.53 -24.84 0z"/>
   <path id="3" class="fil6" d="M20760.21 1518.72l24.27 3.38c-2.68,16.7 -9.45,29.73 -20.41,39.19 -10.96,9.45 -24.46,14.15 -40.41,14.15 -19.99,0 -36.08,-6.53 -48.21,-19.61 -12.18,-13.08 -18.25,-31.8 -18.25,-56.16 0,-15.81 2.63,-29.59 7.85,-41.44 5.22,-11.81 13.17,-20.7 23.9,-26.58 10.68,-5.92 22.29,-8.89 34.9,-8.89 15.85,0 28.88,4 38.95,12.04 10.11,8.05 16.6,19.48 19.42,34.25l-23.99 3.67c-2.3,-9.83 -6.35,-17.22 -12.23,-22.2 -5.83,-4.94 -12.88,-7.44 -21.16,-7.44 -12.51,0 -22.67,4.47 -30.53,13.41 -7.81,8.98 -11.71,23.09 -11.71,42.47 0,19.66 3.76,33.92 11.29,42.81 7.57,8.89 17.4,13.35 29.49,13.35 9.78,0 17.92,-2.96 24.41,-8.93 6.54,-5.93 10.68,-15.1 12.42,-27.47z"/>
   <path id="4" class="fil6" d="M20901.32 1554c-9.22,7.85 -18.11,13.35 -26.62,16.6 -8.52,3.25 -17.64,4.84 -27.43,4.84 -16.08,0 -28.45,-3.9 -37.11,-11.75 -8.65,-7.81 -12.98,-17.83 -12.98,-30.01 0,-7.15 1.65,-13.69 4.89,-19.62 3.29,-5.93 7.57,-10.63 12.84,-14.2 5.32,-3.58 11.24,-6.31 17.88,-8.14 4.89,-1.27 12.27,-2.49 22.1,-3.72 20.04,-2.35 34.86,-5.22 44.31,-8.51 0.1,-3.39 0.14,-5.55 0.14,-6.44 0,-10.07 -2.35,-17.17 -7.05,-21.31 -6.35,-5.6 -15.81,-8.37 -28.32,-8.37 -11.71,0 -20.36,2.07 -25.92,6.16 -5.59,4.09 -9.68,11.33 -12.37,21.78l-24.27 -3.39c2.21,-10.4 5.84,-18.82 10.92,-25.21 5.08,-6.4 12.41,-11.29 22.01,-14.77 9.55,-3.44 20.7,-5.18 33.3,-5.18 12.51,0 22.72,1.46 30.57,4.42 7.81,2.97 13.6,6.64 17.27,11.11 3.67,4.46 6.25,10.11 7.76,16.93 0.8,4.23 1.22,11.85 1.22,22.81l0 32.93c0,23 0.52,37.53 1.55,43.69 0.99,6.17 3.06,12.05 6.07,17.69l-25.96 0c-2.5,-5.22 -4.1,-11.34 -4.8,-18.34zm-1.98 -55.04c-9.03,3.67 -22.57,6.78 -40.64,9.32 -10.25,1.45 -17.49,3.1 -21.73,4.93 -4.23,1.84 -7.48,4.52 -9.78,8 -2.31,3.53 -3.48,7.43 -3.48,11.76 0,6.54 2.49,12.04 7.52,16.42 5.04,4.37 12.38,6.58 22.02,6.58 9.55,0 18.06,-2.07 25.54,-6.25 7.43,-4.14 12.93,-9.84 16.41,-17.03 2.69,-5.6 4,-13.83 4,-24.7l0.14 -9.03z"/>
   <path id="5" class="fil6" d="M21016.51 1550.19l3.39 21.91c-6.96,1.46 -13.22,2.22 -18.68,2.22 -8.98,0 -15.94,-1.42 -20.93,-4.28 -4.94,-2.87 -8.42,-6.59 -10.44,-11.25 -2.02,-4.65 -3.01,-14.44 -3.01,-29.35l0 -84.38 -18.34 0 0 -19.19 18.34 0 0 -36.22 24.84 -14.91 0 51.13 24.83 0 0 19.19 -24.83 0 0 85.79c0,7.11 0.42,11.67 1.31,13.69 0.85,2.02 2.26,3.62 4.24,4.85 1.97,1.17 4.79,1.78 8.46,1.78 2.73,0 6.35,-0.33 10.82,-0.98z"/>
   <path id="6" class="fil6" d="M21031.7 1499.1c0,-27.04 7.53,-47.08 22.63,-60.11 12.56,-10.82 27.94,-16.23 46.05,-16.23 20.08,0 36.54,6.59 49.34,19.76 12.75,13.12 19.14,31.33 19.14,54.51 0,18.82 -2.82,33.59 -8.46,44.36 -5.65,10.77 -13.88,19.14 -24.7,25.12 -10.77,5.97 -22.58,8.93 -35.32,8.93 -20.51,0 -37.07,-6.53 -49.72,-19.66 -12.65,-13.12 -18.96,-32.03 -18.96,-56.68zm25.4 0.05c0,18.72 4.1,32.74 12.28,42 8.23,9.32 18.53,13.97 31,13.97 12.32,0 22.57,-4.65 30.81,-14.01 8.18,-9.36 12.27,-23.61 12.27,-42.76 0,-18.06 -4.14,-31.75 -12.37,-41.01 -8.23,-9.32 -18.48,-13.97 -30.71,-13.97 -12.47,0 -22.77,4.61 -31,13.87 -8.18,9.27 -12.28,23.24 -12.28,41.91z"/>
   <path id="7" class="fil6" d="M21197.69 1572.34l0 -146.47 22.3 0 0 22.43c5.69,-10.39 10.96,-17.26 15.8,-20.55 4.85,-3.34 10.16,-4.99 15.95,-4.99 8.37,0 16.89,2.64 25.54,7.86l-8.84 22.91c-6.02,-3.39 -12.04,-5.08 -18.06,-5.08 -5.41,0 -10.26,1.64 -14.54,4.89 -4.28,3.24 -7.34,7.76 -9.17,13.54 -2.78,8.8 -4.14,18.44 -4.14,28.93l0 76.53 -24.84 0z"/>
   <circle class="fil7 str5" cx="19322.08" cy="1467.02" r="118.79"/>
   <rect class="fil7 str5" x="19780.01" y="1358.74" width="226.91" height="226.91"/>
   <path class="fil5 str6" d="M19495.98 1466.15l220.31 0"/>
   <path class="fil5 str6" d="M19713.63 1466.81l-64.02 65.38"/>
   <path class="fil5 str6" d="M19713.8 1465.67l-63.42 -61.39"/>
  </g>
 </g>
</svg>
