<?xml version="1.0" encoding="UTF-8"?>
<!DOCTYPE svg PUBLIC "-//W3C//DTD SVG 1.1//EN" "http://www.w3.org/Graphics/SVG/1.1/DTD/svg11.dtd">
<!-- Creator: CorelDRAW -->
<svg xmlns="http://www.w3.org/2000/svg" xml:space="preserve" width="210mm" height="297mm" version="1.1" style="shape-rendering:geometricPrecision; text-rendering:geometricPrecision; image-rendering:optimizeQuality; fill-rule:evenodd; clip-rule:evenodd"
viewBox="0 0 21000 29700"
 xmlns:xlink="http://www.w3.org/1999/xlink">
 <defs>
  <style type="text/css">
   <![CDATA[
    .str1 {stroke:black;stroke-width:10;stroke-miterlimit:3.864;stroke-opacity:0.501961}
    .str3 {stroke:black;stroke-width:50;stroke-miterlimit:22.9256}
    .str5 {stroke:#434242;stroke-width:10;stroke-miterlimit:22.9256}
    .str0 {stroke:black;stroke-width:10;stroke-miterlimit:22.9256}
    .str2 {stroke:black;stroke-width:10;stroke-miterlimit:3.864}
    .str6 {stroke:#2B2A29;stroke-width:7.62;stroke-miterlimit:22.9256}
    .str4 {stroke:black;stroke-width:7.62;stroke-miterlimit:22.9256}
    .fil5 {fill:none}
    .fil0 {fill:#FEFEFE}
    .fil7 {fill:#D9DADA}
    .fil4 {fill:#FEFEFE;fill-rule:nonzero}
    .fil3 {fill:#D9DADA;fill-rule:nonzero}
    .fil6 {fill:#434242;fill-rule:nonzero}
    .fil2 {fill:black;fill-rule:nonzero}
    .fil1 {fill:#FEFEFE;fill-rule:nonzero;fill-opacity:0.501961}
   ]]>
  </style>
 </defs>
 <g id="Plan_x0020_1">
  <metadata id="CorelCorpID_0Corel-Layer"/>
  <path class="fil0 str0" d="M3674.07 21925.54c-20.45,-6.28 -21.77,-42.97 -48.86,-42.97 -17.84,0 -9.88,37.6 -11.92,50.14 -3.9,23.86 -23.85,36.83 -29.79,58.48 -5.61,20.48 0.61,35.39 2.39,54.91 1.85,20.38 -19.23,69.22 4.76,75.19 28.1,6.98 39.91,-4.08 64.35,-14.32 34.03,-14.27 40.52,-32.74 40.52,-69.23 0,-11.2 5.96,-19.18 5.96,-32.23 0,-17.74 -9.54,-37.68 -9.54,-58.48l-17.87 -21.49zm2314.24 4549.93c-18.19,-6.99 -50.07,-74.54 -52.44,-93.1 -4.41,-34.58 12.7,-53.41 32.18,-77.58 28.93,-35.87 -2.88,-137.95 44.09,-155.17 23.12,-8.47 30.66,73.75 33.37,89.52 4.92,28.65 10.72,59.16 10.72,88.33 0,37.63 -18.07,88.46 -7.15,124.13 4.49,14.66 10.64,38.45 5.96,53.71 -8.03,26.22 -33.79,18.82 -44.09,-3.58l-22.64 -26.26zm-797.73 -22.08c21.43,-12.4 45.16,-39.98 71.5,-39.98 24.7,0 49.02,1.79 73.88,1.79 1.97,9.74 -14.33,30.57 -19.07,39.38 -14.64,27.25 -30.24,22.09 -57.19,22.09 -10.44,0 -18.35,5.42 -28.01,8.95 -17.8,6.52 -30.76,-8.51 -45.88,-14.33l4.77 -17.9zm190.66 46.55c-6.14,-19.52 -13.38,-55.29 0,-72.81 4.66,-6.09 13.36,-7.21 20.86,-5.97 7.38,1.23 11.21,4.27 17.28,7.76 6.48,3.74 26.21,3.14 26.21,11.34 0,20.26 -9.53,38.11 -9.53,58.49 0,6.19 -1.46,17.18 -6.55,20.88 -9.27,6.72 -29.17,2.38 -36.35,-5.37l-11.92 -14.32zm145.39 -1224.02c-3.38,-18.16 -7.17,-68.63 20.85,-68.63 14.37,0 29.68,4.43 44.69,4.78 16.69,0.38 33.21,-1.2 49.45,-1.2 0,3.63 -8.76,9.5 -11.92,11.34 -27.6,16.03 -39.57,35.99 -48.26,65.65 -8.34,28.43 -32.09,35.26 -54.81,14.32l0 -26.26zm346.77 198.73c10.18,2.4 19.22,8.07 28,13.73 6.96,4.5 14.32,6.34 20.86,12.53 6.83,6.45 16.62,14.18 17.27,23.87 1.25,18.63 -41.8,-4.17 -50.05,-7.16 -10.38,-3.75 -17.45,-8.9 -26.81,-14.92 -14.38,-9.23 -20.47,-13.52 -13.11,-29.84l23.84 1.79zm-1731 -1747.99c1.86,-13.12 19.86,-33.24 27.41,-45.36 7.61,-12.2 20.71,-27.07 32.17,-37 10.96,-9.51 24.64,-15.77 35.75,-26.26 14.84,-14.03 23.84,1.08 23.84,15.52 0,30.34 -14.3,60.87 -14.3,91.9 0,42.52 -42.82,56.92 -76.27,34.62l-28.6 -33.42zm59.58 124.13c-13.68,-0.96 -32.41,-24.94 -42.9,-34.62 -14.92,-13.76 -25.63,-32.09 -42.9,-42.96 -14.42,-9.09 -34.51,-16.67 -42.9,7.16 -6.78,19.29 19.37,35.94 30.98,46.55 26.37,24.08 20.83,48.25 25.03,81.16 3.58,28.04 0.03,98.84 35.75,107.42 15.31,3.68 19.07,-33.21 19.07,-41.77 0,-24.91 9.53,-47.69 9.53,-71.62l8.34 -51.32zm651.85 436.85c-24.43,-9.18 -38.75,-34.24 -58.39,-50.13 -17.27,-13.98 -34.92,-38.36 -21.45,-60.87 17.92,-29.92 47.38,7.69 58.39,25.06 8.74,13.77 13.06,28.5 20.26,42.97 7.74,15.53 11.23,29.44 13.11,46.55l-11.92 -3.58zm6166.93 -6712.7c16.79,-46.18 -20.51,-61.85 -30.98,-102.64 -8.39,-32.73 27.72,-56.99 34.56,-88.33 1.18,-5.39 9.57,-73.41 27.41,-48.94 9.92,13.62 13.34,42.48 17.87,59.68 10.62,40.32 71.14,38.71 54.82,91.91 -9.12,29.76 -17.88,52.95 -17.88,84.74 0,7.43 14.09,128.22 -22.64,88.33 -11.7,-12.72 2.09,-49.11 -23.83,-41.78 -25.43,7.2 -50.93,8.78 -67.93,-17.9l28.6 -25.07zm-264.55 -671.98c-25.22,18.23 -43.75,41.42 -79.84,47.74 -36.31,6.35 -79.86,11.89 -77.46,-35.81 1.67,-33.07 1.37,-54.7 -4.77,-87.13 -8.76,-46.22 -59.97,-105.56 -51.24,-152.78 13.17,-71.16 56.26,-12.89 82.23,13.13 48.7,48.77 123.44,90.92 154.91,153.98 16.91,33.87 88.63,152.83 -5.95,89.51l-17.88 -28.64zm-4066 4058.17c-13.85,7.92 -44.49,-6.32 -57.2,-14.32 -16.09,-10.14 -46.04,-34.17 -58.4,-48.94 -18.48,-22.11 -42.8,-107.84 -1.19,-114.58 20.04,-3.25 31.17,4.75 50.05,7.16 30.49,3.89 71.58,-1.75 98.91,11.93 21.01,10.52 21.58,87.26 22.64,109.81 2.07,44.07 22.86,77.73 -40.51,71.62l-14.3 -22.68zm-181.14 341.36c-4.71,-36.24 -11.17,-74.29 -11.92,-111 -1.29,-62.33 53.19,-48.51 100.11,-44.16 38.1,3.54 109.72,-29.13 144.19,-11.94 0,37.29 -21.77,65.59 -16.69,105.04 4.26,33.08 5.86,59.67 -21.45,83.55 -22.02,19.24 -30.86,20.17 -44.09,44.16 -20.45,37.1 -32.01,74.98 -78.65,85.94 -69.96,16.44 -70.31,-53.16 -70.31,-101.45l-1.19 -50.14zm305.24 5376.67l59.41 -61.65c65.46,-86.32 -66.28,-177.46 42.9,-213.65 0,-29.5 -26.9,-48.43 -28.6,-75.2 -2.09,-33 29.25,-108.11 40.52,-143.23 16.95,-52.85 70.95,16.71 114.4,16.71 87.11,0 68.87,-22.16 107.25,42.97 25.95,44.06 4.39,60.05 -4.76,105.04 -1.07,5.27 114.67,136.1 133.46,143.23 37.44,14.23 177.58,17.19 179.95,20.29 61.99,80.74 147.71,33.16 222.84,94.29 96.93,78.86 129.11,-37 206.16,-37 0,53.82 46.08,44.32 91.76,58.48 49.58,15.36 52.41,87.8 60.78,130.1 3.56,32.17 18.44,61.6 26.21,91.91 7.29,28.4 3.85,55.71 8.35,83.55 3.32,20.5 88.07,74.98 113.2,79.97 45.65,9.08 83.49,-46.36 112.02,-72.81 21.85,-20.24 42.61,26.25 67.93,32.23 38.43,9.09 81.66,-10.29 117.97,-1.2 32.36,8.09 73.89,50.16 73.89,89.52 0,20.19 -72.74,47.61 -94.14,60.88 -76.98,47.71 80.86,71.9 85.8,115.77 2.9,25.74 -32.18,47.2 -32.18,76.39 0,41.66 11.92,77.7 11.92,120.55 -2.48,47.36 -27.86,149.57 -89.38,140.85 -129.76,-18.39 -105.7,152.37 -90.57,231.55 18.77,98.27 81.22,17.06 114.41,66.84 17.51,26.28 110.68,201.7 129.89,190.97 49.68,-27.73 174.23,-111.11 196.63,-161.13 40.86,-91.21 -18.73,-158.89 116.78,-152.78 68.97,3.11 73.83,-118.16 165.64,-118.16 80.6,0 99.54,14.92 172.8,-38.2 29.93,-21.69 101.6,-84.58 122.74,-29.84 13.03,33.72 50.05,55.89 86.99,59.68 18.91,1.93 16.76,57.33 19.07,74 31.44,227.04 174.64,16.94 218.08,103.85 13.58,27.16 81.03,127.35 81.03,29.84 0,-37.9 29.82,-37.83 58.39,-45.36 27.21,-7.16 33.79,-70.83 56.01,-93.1 106.74,-21.9 60.78,-92.9 60.78,-167.1 0,-61.09 27.49,-105.07 69.11,-146.81 67.75,-67.93 156.41,-76.02 216.89,-146.81 21.76,-25.48 -3.87,-67.97 -10.73,-94.29 -11.97,-45.92 -4.05,-100.99 12.05,-149.49l0 0c-145.12,-97.71 -262.15,-261.69 -411.25,-311.44 -97.28,-32.45 -185.16,-195.58 -238.33,-279.29 -50.58,-121.14 -138.97,-262.94 -209.74,-375.97 -67.66,-108.04 -224.54,-181.82 -353.92,-152.78 -98.92,22.21 -182.91,17.03 -282.43,25.06 -89.06,23.8 -195.19,-1.12 -274.08,44.17 -63.91,36.68 -186.26,-35.27 -244.29,-74 -141.88,-94.68 -330.16,-178.74 -424.24,-325.85 -55.86,-87.33 -129.84,-184.57 -204.96,-254.22 -82.36,-92.72 -142.95,-256.46 -181.14,-373.59 -36.49,-111.88 -101.99,-228.82 -121.55,-342.55 -9.96,-57.91 -37.9,-160.99 -34.55,-216.03 0,-76.04 -35.03,-169.79 -46.48,-245.88l-35.75 -237.52 -89.37 -452.36c-14.27,-56.76 -111.1,-389.42 -194.25,-368.81 0,2.41 0.64,1.79 -1.19,2.39 0,61.33 1.11,131.18 -14.3,193.36 -36.01,0 -100.65,-101.73 -120.36,-131.29 -33.79,-50.7 -97.23,-75.03 -134.66,-125.33 -95.05,-127.75 -127.26,-352.51 -143,-509.65 -8.74,-88.32 -0.03,-191.6 -15.49,-276.9 -12.86,-70.93 15.48,-168.27 -21.45,-227.97 -30.78,-49.74 -33.45,-67.73 -42.9,-126.52 -11.34,-70.61 -41.7,-118.73 -41.7,-194.55 -18.82,-8.01 -35.82,-16.38 -57.2,-22.68 -31.22,0 -120.58,-4.99 -148.96,-15.51 -51.62,-19.12 -62.75,-50.94 -97.72,5.96 -55.73,90.7 -148.42,72.17 -227.61,47.75 -57.05,-17.6 -49.97,96.46 -82.22,124.13 -63.63,54.58 -146.78,13.67 -220.46,51.32 -30.59,15.64 -53.84,-42.01 -67.93,-56.1 -44.66,-44.66 -66.85,12.72 -106.06,2.39 -59.16,-15.6 -61.4,-103.52 -81.03,-150.39 0,-55.08 68.56,-112.51 113.21,-134.87 72.26,-36.18 22.35,-62.88 -15.49,-97.87 -30.27,-27.98 -52.6,-66.32 -69.12,-103.84 -59.48,-135.11 -233.66,-439.95 -152.53,-587.23 29.55,-63.65 3.65,-168.4 15.49,-239.91 12.18,-73.63 33.92,-121.81 -1.19,-189.78 -47.32,-91.59 39.85,-244.96 133.46,-268.55 0,-8.96 -1.79,-7.16 -4.76,-13.13 -10.32,0 -54.87,-13.7 -57.2,-25.06 -8.27,-40.26 -19.31,-41.17 -54.82,-64.45 -16.24,-40.75 -47.09,-99.09 8.34,-125.33 20.45,-9.67 103.78,-23.86 117.98,-2.38 34.93,0 45.99,-0.55 76.26,-10.75 0,-119.16 -124.16,-143.23 -85.8,-275.71 32.39,-111.85 135.63,-222.57 206.16,-315.1 53.78,-70.57 138.8,-117.29 141.81,-214.84 0,-49.36 26.59,-85.67 72.69,-89.52 14.7,-1.23 34.53,15.48 45.29,7.17 8.14,-6.3 -14.08,-141.96 -7.15,-176.65 26.8,-134.24 -86.9,-321.84 69.11,-408.2 23.69,-13.12 51.39,12.55 67.93,2.39 10.57,-6.5 -39.51,-62.54 -45.28,-77.58 -14.14,-36.87 9.61,-95.35 10.72,-133.68 78.1,-250.31 229.83,-585.58 413.51,-769.85 27.83,-27.93 17.87,-152.8 17.87,-196.93 7.47,-111.57 88.82,-205.88 139.43,-299.59 50.75,-93.95 144.03,-157.43 197.81,-242.29 31.26,-49.31 -8.23,-91.73 -20.25,-140.84 -20.94,-85.58 -16.29,-127.34 23.83,-207.68 -50.24,-252.63 -71.51,-477.15 -20.26,-728.07 11.75,-57.52 73.47,-139.8 70.31,-192.16 0,-125.35 92.58,-183.54 135.85,-280.49 33.5,-75.05 -104.08,-25.71 -64.35,-122.94 34.15,-83.6 -4.63,-87.61 -60.77,-126.52 -25.57,-17.71 -127.52,-129.64 -107.26,-159.93l157.3 -235.13c85.86,-10.76 186.19,-79.33 271.7,-109.81 25.24,-9 75.45,-52.44 94.15,-51.32 123.06,7.36 377.83,60.27 490.96,-23.88 75.5,-56.17 65.17,-44.89 151.35,-1.19 84.78,42.98 230.35,43.78 325.32,57.29 39.13,1.27 85.55,27.75 125.12,35.81 32.7,6.67 72.23,-1.65 102.49,5.97 0,46.31 27.76,158.77 3.57,196.93 -18.65,29.44 -29.31,15.65 -54.81,10.75 -14.78,-2.83 -66.76,49.95 -67.93,64.45 -2.11,25.98 45.33,30.23 28.6,68.03 -18.98,42.85 -32.91,78.81 -14.3,130.1 26.72,73.68 -1.55,106.53 -42.9,163.52 -5.43,29.08 -24.09,88.51 10.73,95.48 67.46,13.5 36.49,35.7 26.21,89.52 -10.06,52.7 -22.42,115.05 -77.46,137.26 -59.74,24.12 33.66,64.79 44.1,107.42 10.92,44.64 26.21,71.56 26.21,120.55 0,69.41 -81.68,121.99 -46.47,214.84 19.54,51.55 82.22,-14.74 82.22,88.32 0,17.43 57.2,83.01 57.2,27.45 0,-91.55 217.01,-125.93 287.2,-132.48 110.03,-10.26 286.23,47.35 380.14,105.03 35.64,10.5 120.66,82.81 146.57,76.39 16.8,-67.78 32.12,-90.71 121.55,-90.71 32.35,0 56.76,18.45 89.38,10.74 59.71,-14.13 64.47,-65.57 147.76,-38.19 67.53,22.19 129.85,-167.46 275.28,-70.42 74.89,49.98 112.06,134.44 176.36,173.06 68.98,41.44 53.8,85.19 148.96,106.23 64.13,14.17 139.18,99.18 196.63,140.84 71.51,51.84 131.57,138.22 199.01,198.13 78.89,85.91 98.7,100.9 125.12,208.87 26.56,108.5 77.27,0.64 134.66,53.71 39.85,36.84 80.36,57.42 134.66,66.84 77.58,13.45 121.4,-24.58 168.02,45.36 15.95,23.92 25.03,52.11 25.03,82.35 0,30.93 27.43,37.51 40.51,57.3 32.63,0 -34.84,-132.67 -28.6,-146.81 13.55,-30.66 19.13,-112.17 28.6,-150.39 3.35,-0.82 5.59,-1.19 9.54,-1.19 50.01,70.21 173.04,168.83 241.91,226.77 45.9,38.63 72.31,93.21 94.14,148 19.86,49.82 -14.86,137.8 22.64,175.46 8.01,61.16 89.5,141.53 126.32,189.77 48.7,63.81 59.58,132.81 79.32,202.32l0 0 5.3 -105.6c12.44,-79.99 -92.53,-170.93 -131.09,-226.78 -77.43,-112.18 -26.85,-257.72 -81.03,-366.43 -23.27,-46.71 -93.61,-69.56 -115.6,-119.35 -34.18,-77.35 -20.25,-132.87 -20.25,-216.04 6.67,-46.21 11.97,-141.26 42.9,-176.65 31.34,-35.84 77.82,-28.68 83.41,-87.13 3.67,-38.33 -20.94,-57.04 -52.43,-72.81 -57.11,-28.59 -60.14,-98.4 -109.63,-144.42 -21.75,-20.23 -35.87,-30.87 -51.25,-56.1 -11.33,-18.57 -7.24,-37.75 -20.26,-57.29 -18.76,-28.14 -57.83,-23.88 -76.26,-68.04 -24.59,-58.89 -94.41,-17.9 -140.62,-46.55 -56.04,-34.73 -20.05,-100.71 -38.13,-155.16 28.12,-29.31 92.97,-63.16 52.43,-103.84 -74.13,-74.36 -43.77,-86.04 -54.82,-182.62 -3.09,-26.99 -12.36,-54.48 -14.3,-82.36 -2.38,-34.27 85.65,-50.43 26.22,-83.55 -33.78,-18.82 -43.36,-58.25 -59.58,-90.71 -24.11,-48.22 -73.58,-56.01 -100.11,-119.36 -26.55,-63.38 -47.58,-139.97 -64.35,-206.49 -29.24,-36.63 -100.37,-93.67 -69.11,-136.07 50.58,-68.63 91,-228.42 48.86,-312.72 -142.85,-285.7 281.62,20.75 357.5,-151.58 35.68,-81.05 -83.68,-156.75 34.56,-226.78 92.65,-54.86 190.6,-6.8 237.14,-146.81 47.94,-88.46 56.67,-200.81 123.94,-276.91 26.74,-30.26 54.21,-66.23 92.95,-83.55 71.96,-32.16 97.58,-4.94 109.63,-100.26 7.87,-62.22 -18.79,-65.95 34.56,-119.36 47.15,-47.22 -18.35,-131.34 30.98,-150.39 73.4,-28.33 131.69,-66.96 166.84,-137.26 97.39,-40.82 119.46,-62.94 225.23,-65.65 91.77,-2.36 177.88,-64.45 275.27,-64.45 89.71,0 80.01,16.38 137.05,-44.17 33.09,-35.14 59.81,15.56 100.1,4.78 94.27,-25.22 125.49,-118.65 220.46,-63.26 47.7,27.81 75.21,-41.78 133.46,-41.78 80.14,0 44.33,-3.92 63.16,53.71 4.62,14.13 125.23,82.36 140.62,82.36 29.81,0 49.66,-41.43 84.61,-29.84 24.12,8 39.59,44.41 50.05,45.36 104.36,40.62 150.38,-23.08 263.36,1.19 27.43,5.89 94.85,26.9 117.98,1.19 76.87,-85.41 29.8,-49.31 119.17,-32.22 32.96,6.3 32.23,-22.7 58.39,-27.45 68.16,-12.37 21.87,-47.38 104.87,-31.04l290.77 57.29c86.71,17.07 115.15,-27.24 194.24,5.97 119.03,50 117.31,-120.26 227.61,-74 43,18.04 46.27,-51.25 86.99,-34.61 60.36,24.65 33.51,34.93 109.64,1.19l157.3 25.06c40.7,6.47 225.44,2.82 208.54,74.01 -17.78,74.86 53.84,225.02 120.36,264.97 51.39,30.87 127.75,-2.11 154.92,-51.32 19.94,-36.1 16.47,-136.54 38.13,-152.78l52.44 -13.13 0 0c22.27,-11.13 44.11,-15.13 64.35,-28.65 16.3,-10.88 48.62,-4.3 67.92,-9.54 39.34,-10.67 63.74,-87.86 102.49,-63.26 31.5,19.99 75.06,18.63 86.99,-22.68 7.66,-26.5 19.14,-19.41 38.13,-33.42l45.29 -33.42c0.76,-2.32 22.69,-20.62 27.41,-28.65 9.62,-16.33 18.77,-28.75 26.21,-46.55 41.45,-48.97 123.94,-112.26 123.94,-179.04 0,-72.05 -44.39,-138.24 -47.67,-211.26 -1.86,-41.39 39.7,-91.73 34.56,-113.39 -10.62,-44.75 -85.16,-113.51 9.53,-126.52 47.67,-6.55 18.23,-31.24 15.49,-54.9 -2.64,-22.88 43.8,-4.27 22.65,-62.07 -24.33,-66.46 -45.94,-46.65 34.55,-93.1 86.22,-5.69 53.3,-45.75 16.69,-82.36 -38.17,-38.17 -65.83,-87.4 -101.29,-122.93 -70.58,-70.7 -145.24,-218.21 -21.46,-287.66 37.35,-20.95 158.93,-113.08 170.41,-152.78 -38.48,-39.44 -73.25,-31.03 -128.7,-31.03 -29.97,0 -97.22,-1.33 -116.55,-29.19 -6.44,-9.27 -7.57,-21.52 -0.23,-37.65 41.8,-91.76 225.05,-42.12 233.57,-139.65 7.47,-85.5 -38.73,-135.41 17.87,-212.46 29.54,-40.21 40.04,-108.59 29.8,-156.35 -23,-107.25 -108.84,-130.96 -197.82,-186.2 -69.23,-42.98 -93.96,48.05 -144.2,4.77 -28.55,-24.59 -174.25,-331.87 -160.87,-360.46 32.64,-69.7 164.57,-43.25 184.71,-83.55 4.27,-8.56 -68.64,-29.66 -92.95,-31.03 -147.76,-8.33 -299.18,-67.08 -445.69,-93.1 -107.46,-19.09 -202.05,-81.23 -206.16,-190.98 -5.23,-139.56 -94.8,-239.65 -208.55,-312.71 -78.22,-50.24 -84.6,-152.69 -150.15,-219.62 -91.93,-93.86 -150.42,-127.19 -119.16,-270.95 13.37,-61.51 19.93,-152.07 11.91,-214.84 -9.37,-73.32 -60.68,-124.48 -3.57,-185 30.96,-32.81 -5.87,-95.14 -16.69,-131.3 -18.69,-62.41 -13.18,-136.29 -10.72,-201.71 2.4,-63.81 56.03,-133.36 78.65,-188.59 35.68,-87.12 33.37,-142.89 33.37,-241.1 0,-109.86 12.4,-201.46 -36.95,-297.2 -39.02,-75.7 -122.54,-162.48 -196.62,-202.91 -108.08,-58.98 -291.63,-145.21 -361.08,-244.69 -71.11,-101.84 -142.21,-203.71 -213.31,-305.55 -15.08,-21.61 -63.39,-16.83 -88.19,-39.39 -24.95,-22.7 -40.66,-61.85 -58.39,-90.71 -43.5,-70.8 -52.71,-138.89 -100.1,-207.69 -35.61,-51.69 -91.03,-91.11 -129.89,-142.03 -35.36,-46.34 -56.95,-99.91 -78.65,-153.97 -14.55,-36.25 -144.27,-265.1 -170.41,-270.95 -72.11,-16.16 -142.23,99.9 -214.5,87.13 -98.17,-17.35 30.65,-94.29 -132.28,-94.29 -72.35,0 -205.23,28.43 -238.34,-54.9 -23.12,-58.19 -26.37,-85.46 -100.1,-91.91 -86.63,-7.58 -177.55,-7.5 -262.17,-29.84 -165.66,-43.74 -175.18,22.42 -299.11,113.39 -90.62,66.51 75.08,82.63 75.08,102.65 0,52.26 -148.41,59.49 -179.94,84.74 -71.54,57.3 -67.54,172.1 -120.36,214.85 -60.57,49.02 -97.33,68.07 -91.76,162.33 2.77,46.94 5.57,93.89 8.34,140.84 3.9,66.04 -204.68,-14.33 -251.45,-14.33 -74.72,0 -161.98,68.19 -214.5,114.59 -85.7,75.7 -167.44,105.89 -196.62,214.84 -13.85,51.72 -117.29,-8.83 -153.73,-45.35 -30.86,-30.93 -7.97,-84.94 4.77,-121.75 58.34,-168.48 -174,-82.13 -291.97,-132.49 -74.21,-31.68 -133.99,-136.8 -213.31,-139.64 -132.97,-4.77 -201.51,-159.8 -258.59,-253.04 -26.36,-43.07 -90.8,-41.78 -139.43,-41.78 -88.35,0 -86.93,129.27 -144.19,146.81 -78.29,23.98 -117.61,79.66 -143,156.36 -27.03,81.66 -88.04,21.99 -137.04,-1.19 -140.49,-66.48 -145.48,90.08 -188.29,185 -37.82,83.86 -49.89,108.89 -153.72,93.1 -68.61,-10.43 -46.44,50.9 -78.66,71.62 -15.38,9.89 -45.99,1.04 -52.43,14.32l-27.41 62.07c0,26.54 29.39,17.96 27.41,51.32 -1.22,20.46 -46.76,19.1 -60.77,19.1 -51.24,0 -21.41,90.12 -60.78,70.42 -13.14,-6.58 -40.31,-46.42 -54.82,-26.26 -18.04,25.04 -68.12,49.42 -73.88,66.84 -21.45,64.77 -51.22,34.28 -95.34,70.42 -25.56,20.95 -44.56,29.11 -72.69,46.55 -73.35,45.46 -134.59,132.72 -182.32,201.72 -27.72,40.06 -81.79,30.19 -92.96,77.58 -27.21,115.33 -195.15,-33.59 -240.71,-84.75 -32.62,-37.14 -132.82,-44.04 -85.81,-114.58 26.86,-40.29 3.54,-94.1 26.22,-136.07 12.73,-23.58 37.77,-52.18 21.45,-79.97 -23.14,-39.43 -82.7,-41.58 -27.41,-103.84 26.54,-29.88 15.49,-16.2 15.49,-53.71 0,-39.51 37.87,-26.37 54.82,-45.36 15.17,-16.98 -7.58,-74.78 7.15,-102.64 17.04,-32.21 58,-37.2 84.61,-58.49 66.6,-53.31 46.65,-73.41 76.27,-142.04 65.07,-97.89 121.54,-74.04 69.12,-205.29 -17.88,-44.75 43.25,-166.79 13.1,-176.65 -39.84,-13.02 -56.37,-75.19 -34.55,-111 16.96,-27.85 -1.2,-35.94 -1.2,-64.46 0,-27.1 22.65,-44.83 22.65,-63.26 -1.47,-0.48 -1.91,-0.91 -2.39,-2.38 -34.5,-8.69 -103.85,-22.84 -128.7,-47.75 -43.16,-43.25 -70.73,-127.61 -15.49,-171.87 36.03,-27.09 29.5,-65.54 45.28,-99.07 19.58,-41.57 38.08,-32.83 75.08,-46.55 107.03,-39.67 5.89,-98.73 58.39,-133.68 41.68,-27.76 76.81,13.97 106.06,-56.1 30.82,-73.81 -28.68,-92.4 -30.98,-151.58 -1.29,-33.2 8.57,-53.14 20.26,-84.75 15.76,-42.57 3.14,-83.92 15.49,-124.13 -3.15,-41.44 10.49,-83.84 33.36,-116.97 21.95,-31.78 61.2,-21.81 50.05,-77.58 -23.7,-118.57 92.96,-63.8 92.96,-165.91 0,-45.83 -88.86,-84.66 -116.79,-116.97 -55.2,-63.84 -56.24,-118.52 -67.92,-201.72 -4.1,-29.2 -33.06,-130.69 -28.6,-148 4.15,-42.01 37.59,-52.8 -13.11,-84.75 -33.52,-21.11 -63.64,-54.28 -54.82,-96.68 5.23,-25.17 28.08,-29.28 36.94,-48.93 8.2,-18.21 0.66,-65.13 9.53,-74 18.8,-18.8 92.4,26.99 96.53,-32.23 3.82,-54.89 7.97,-121.68 4.77,-175.46 -1.67,-28.04 -54.25,-23.58 -79.84,-28.64 -70.66,-13.97 -42.81,-9.14 -82.23,37 -9.97,11.68 -135.22,3.42 -154.92,0 -77.14,-13.38 -38.26,-96.62 -146.58,-88.33 -59.05,13.94 -153.59,-12.42 -197.81,1.2 -33.09,10.18 -99.29,119.36 -122.75,150.39 -101.75,134.62 -121.3,69.62 -239.52,-11.94 -90.91,-62.73 -113.51,-25.42 -159.69,62.07 -34.76,65.88 -163.32,-66.84 -182.33,-103.84 -27.37,-53.24 7.69,-78.3 -45.28,-125.33 -54.95,-48.77 -41.71,-81.27 -41.71,-155.17 -78.28,-19.4 -22.93,-93.79 -1.19,-126.52 47.72,-71.81 -11.48,-76.58 78.65,-130.1 98.89,-34.35 119.37,-335.2 143,-427.3 10.61,-41.33 7,-91.35 20.26,-130.1 -51.7,-51.87 -63.72,76.4 -128.7,33.42 -28.51,-18.85 -68.44,-95.54 -78.65,-128.9 -19.2,-62.7 -75.63,-74.98 -96.53,-143.23 -19.09,-62.32 -53.93,-154.73 -116.78,-186.2 -174.75,-87.51 -135.12,112.93 -231.19,163.52 -56.48,29.74 -44.08,106.37 -72.69,114.58 -80.95,23.25 -105.96,-69.77 -115.59,-122.94 -3.76,-20.76 -2.11,-43.28 2.67,-66.06l0 0 -78.94 -67.62c-51.56,-32.28 -21.29,-122.74 -89.37,-146.81 -78.82,-27.88 -233.76,41.89 -263.37,119.36 -25.58,66.96 -67.32,128.79 -147.76,125.33 -39.32,-1.69 -53.04,-15.01 -79.85,16.71 -76.41,35.68 -84.81,-48.1 -144.19,-38.2 -58.2,9.7 -79.72,27.29 -135.85,-20.29 -42.82,-36.31 -169.34,-121.68 -158.49,-28.65 3.95,33.85 50.39,64.76 73.88,88.33 37.23,37.34 12.53,132.43 50.05,165.91 32.75,29.24 68.14,43.37 52.43,93.1 -51.55,163.2 -311.66,188.7 -445.68,150.39 -68.44,-19.57 -144.29,-64.46 -215.7,-64.46 -60.34,0 -158.2,93.99 -212.12,127.72 -59.42,59.59 43.45,92.35 -5.95,136.07 -62.37,55.22 3.84,37.88 -21.45,91.9 -16.99,36.27 -32.97,34.04 -33.37,79.97l-1.19 136.07c-0.27,31.11 -42.95,141.93 -69.12,143.23 -53.14,2.63 -41.95,-36.08 -76.27,-50.13 -45.38,-18.57 -86.2,-19.16 -133.47,-45.36 -42.92,-23.78 -60.72,-14.81 -86.99,32.23 -43.07,77.09 -101.41,30.75 -160.87,27.45 -58.95,-3.28 -137.78,87.92 -213.31,95.49 -21.44,16.04 -28.15,48.05 -40.52,70.42 -2.96,0 -3.52,0.69 -4.77,-1.19 -41.24,0 -63.28,-109.51 -120.36,-76.39 -53.97,31.33 -48.64,89.48 -127.51,40.58 -93.12,-57.72 -257.42,110.04 -318.18,-27.45 -15,-33.96 -145.33,-125.33 -183.51,-125.33 -45.89,0 -79.85,11.13 -79.85,-51.32 -21.17,-3.55 -56.54,-1.98 -78.65,2.38 -16.43,50.14 -45.54,186.53 -23.83,238.72 53.78,129.22 -113.38,25.09 -106.06,130.1 2.89,41.4 -120.85,60.48 -150.15,50.13 -23.88,20.24 -52.09,19 -45.28,58.49 9.83,57.04 95.67,49.69 33.36,112.19 -25.59,25.68 -44.8,59.16 -71.5,85.94 -29.73,29.84 -107.39,63.92 -61.97,116.97 22.1,25.8 85.81,99.87 85.81,133.68 -1.45,0.48 -3.09,2.79 -3.58,4.78 -35.19,4.99 -81.59,5.58 -100.1,41.77 -11.28,22.04 74.04,55.02 86.99,90.71 -5.79,64.11 9.54,132.74 9.54,195.75 0,64.9 -67.64,22.81 -100.11,57.29 -23.97,25.44 5.21,73.32 -33.36,81.17 -21.39,4.36 -42.04,-17.08 -39.33,19.09 6.02,80.07 -45.46,154.51 -120.36,173.07 0,18.69 104.92,65.44 108.45,126.52 3.86,66.64 28.76,115.76 34.55,180.23 -3.96,16.8 -7.15,42.54 -7.15,59.68 0,20.33 30.99,42.64 30.99,72.81 0,72.86 8.34,150.35 8.34,218.42l-114.4 -3.58c-34.75,-1.09 -71.87,-2.31 -106.06,2.39 -20.87,2.86 -27.4,8.65 -44.09,19.1 -5.09,3.19 -12.36,9.67 -15.5,15.52 -19.07,35.53 2.26,12.58 -67.92,46.54 -15.4,13.58 -29.67,23.55 -44.09,37.01 -8.94,8.36 -38.76,75.49 -58.4,38.19 -30.16,-57.25 -65.7,15.97 -107.25,-22.68 -20.63,-19.18 -13.75,-50.83 -29.79,-70.42 -21.53,-26.27 -53.46,-14.75 -81.03,-25.06l-47.8 -4.37c-1.86,17.34 -2.86,34.43 4.9,50.92 25.81,54.81 73.26,86.53 88.18,150.39 9.76,41.74 31.72,75.33 53.63,111 41.62,67.74 -30.08,208.82 115.59,214.84 68.88,2.84 101.46,-186.86 176.37,-96.68 41.76,50.27 35.57,104.14 26.21,164.72 -14.15,91.6 66.11,102.82 95.34,173.07 17.56,42.23 -10.96,93.92 4.77,133.68 19.35,48.9 53.1,44.23 73.88,85.94 21.22,42.59 14.28,123.2 -22.64,152.77 -74,59.28 -53.1,69.99 -67.93,165.91l102.49 78.78c61.06,39.54 37.19,127.51 76.26,187.39 37.88,58.07 221.71,157.07 225.23,216.04 4.5,75.47 37.72,68.29 91.76,99.07 53.01,30.18 87.16,64.6 116.78,118.16 32.79,63.96 42.07,106.28 114.41,124.13 0.59,2.4 1.19,3.15 1.19,5.97l3.57 51.32c6.41,92.13 109.76,173.33 181.14,214.85 63.81,37.11 94.16,84.88 126.32,149.2 20.76,41.52 27.17,120.32 59.58,152.77 66.18,66.29 164.79,11.81 207.35,103.85 34.51,74.61 125.74,1.18 108.44,121.74 0,43.93 80.51,82.17 57.2,121.75 -5.67,9.62 -96.83,62.89 -36.94,77.58 20.59,5.05 74.52,48.62 38.14,66.84 -48.21,24.13 -109.64,38.29 -109.64,108.62 0,56.76 56.74,56.51 73.89,105.03 14.76,41.79 11.57,67.74 60.77,77.58 75.78,15.17 33.04,46.63 53.63,100.26 23.35,60.85 51.69,100.69 98.91,148.01 20.75,85.79 26.13,177.02 51.24,259 13.59,44.35 2.87,173.07 64.35,173.07 31.35,0 33.01,-80.07 52.43,-105.03 22.01,-28.27 65.31,-18.99 83.42,-41.78 36.45,-45.89 65.24,-135.11 128.7,-144.42 99.53,-14.6 154.01,109.2 123.94,190.97l-33.37 90.72c-21.21,57.67 -71.75,64.68 -85.8,133.68 -18.19,89.3 17.52,204.38 -119.17,125.32 -30.95,-17.89 -125.34,-18.52 -159.68,-7.16 -32.37,10.72 -26.7,65.49 -45.29,69.23l-56.01 79.97c-13.44,19.2 -55.81,-43.32 -104.86,-33.42 -7.5,15 -12.2,39.85 1.19,54.9 53.87,78.55 36.86,102.67 20.26,188.59 -9.37,48.55 44.1,70.1 30.98,122.94 -17.98,72.44 -39.13,150.67 -67.93,219.62 -36.83,88.21 -17.94,185.21 -11.91,276.91 5.7,58.62 25.8,121.65 34.56,181.42 5.45,37.15 43.38,193.68 3.57,214.85 -37.35,19.85 -64.87,-33.72 -106.06,-28.65 -50.64,6.24 -97.89,58.76 -122.74,100.26 -37.42,40.24 -64.16,106.87 -131.09,75.2 -28.48,-13.48 -97.11,-56.65 -112.01,-11.94 -8.7,26.14 -48.73,88.21 -76.27,96.68 -33.43,10.29 -57.89,-19.57 -89.38,9.55 -11.53,10.65 -1.91,123.34 -28.6,163.52 -67.71,101.89 96.22,128.37 44.09,230.36 -36.67,71.72 69.02,102.48 33.37,186.2l17.88 56.1c8.76,120.48 27.94,164.43 110.82,257.81l143 161.13c26.48,29.83 74.73,59.48 90.57,93.1 12.5,26.55 0.67,90.71 41.71,90.71 116.74,0 91.41,207.89 156.11,266.17 15.49,24.06 39.84,24.85 52.43,54.91 26.99,64.46 18.72,87.87 95.34,112.19 72.35,22.97 179.11,128.64 245.48,176.65 61.32,44.37 107.58,89.83 159.69,142.04 30.59,30.66 85.96,27.65 126.32,42.97 22.96,8.72 20.12,105.3 69.11,137.26 58.7,38.28 -13.83,99.4 83.42,138.46 27.11,23.88 29.75,52.56 65.54,64.45 56.87,18.88 22.31,64.7 36.95,109.81 3.73,11.49 22.91,20.86 28.6,35.81 11.94,31.33 -4.25,64.27 21.45,94.29 14.88,17.37 46.64,19.45 56,44.16 13.78,36.33 4.63,84.89 1.2,124.13 -6.56,75.07 12.58,104.08 29.79,173.07 7.2,34.09 29.48,54.69 30.98,91.91l11.92 296.01c1.36,33.88 -5.41,54.16 -19.07,84.74 -17.38,38.94 17.88,125.27 17.88,170.68 0,73.19 -46.09,3.58 -77.46,3.58 -27.65,0 -45.88,16.99 -64.35,37 -19.66,21.32 29.38,79.97 35.75,116.98 8.74,50.84 -42.42,54.68 -58.39,90.71 33.24,91.15 148.96,89.17 148.96,199.33 0,64.1 -10.08,133.56 5.95,195.74 9.29,36.01 39.93,60.33 46.48,101.46 5.53,34.79 2.51,69.1 15.49,101.45 15.89,39.57 83.17,16.94 88.19,60.87 8.24,71.97 45.64,58.67 92.95,95.49 50.43,48.6 175.26,98.71 151.34,180.23 -7.54,25.72 -4.77,56.51 -4.77,83.55 0,47.14 -75.72,47.68 -17.87,97.87 103.92,90.14 -0.94,107.32 36.94,193.36 13.64,31 45.79,56.45 63.16,88.33 15.59,28.64 -0.72,85.03 7.15,119.36 37.43,68.32 0.67,60.98 11.92,115.78 5.04,24.53 11.92,77.87 35.75,91.9 21.22,12.5 71.5,-21.47 71.5,22.68 0,28.44 -15.5,56.2 -15.5,87.13 0,40.88 14.45,46.74 50.05,59.68 75.24,27.34 11.98,207.71 79.85,275.72 14.68,14.7 105.73,47.14 79.84,79.97 -37.4,47.4 -48.86,67.24 -48.86,131.29 -8.15,28.21 -40.55,66.76 -54.82,99.07 -13.28,30.05 -28.82,82.47 -65.54,89.52 -70.1,13.47 -124.11,-63.17 -148.96,56.09 -13.3,63.88 -0.27,116.15 -33.37,175.46 -41.55,74.47 -96.52,-5.83 -96.52,124.13 0,108.68 -43.88,82.76 -92.95,150.39 -16.73,42.96 -36.46,125.99 -70.31,152.78 -53.62,42.45 -70.22,20.52 -83.42,102.65 -8.73,54.35 -46.37,73.53 -54.82,115.78 -7.07,35.4 -25.61,70.2 -61.96,78.77 -28.28,6.66 -32.75,52.46 -44.1,75.2 -24.88,49.86 -83.71,11.68 -107.25,76.39 -7.21,19.85 -28.25,101.45 -57.2,101.45 -28.4,0 -119.16,-65.96 -119.16,14.33 0,59.38 65.98,126.81 -21.45,170.68 -25.4,52.53 -51.05,51.32 -103.68,51.32 -32.46,0 -40.83,51.56 -81.03,62.07 -146.07,38.18 -205.39,189.48 -152.54,321.07 52.24,130.09 18.38,250.4 -60.78,359.27l-100.1 311.52 0 0c0,31.32 -28.39,113.42 -42.9,140.85 -19.74,37.34 -46.51,66.84 -65.54,105.03 -26.82,53.83 -74.23,102.9 -83.42,162.33 -14.04,90.7 27.15,99.62 -64.35,168.29 -12.91,15.88 -38.88,30.35 -44.09,51.33 -6.04,24.37 33.64,54.36 30.98,87.13 -0.93,11.41 -30.48,20.11 -38.13,33.42 -8.27,14.36 -22.88,47.26 -23.83,63.26 -1.46,24.68 54.91,-7.04 69.11,7.16 19.52,19.52 -10.28,70.35 -22.64,88.32 9.23,62.89 -85.02,20.44 -42.9,68.04 14.38,16.24 44.14,42.9 21.45,65.64 -25.81,25.88 -100.54,-45.4 -84.61,41.78 6.4,35 178.94,-1.28 63.16,63.26 -42.22,23.52 -101.29,-28.21 -101.29,48.94 0,72.95 -49.81,166.18 -85.8,224.39 -17.12,27.68 -11.82,77.38 -20.26,109.81 -13.2,50.76 -29.2,103.75 -59.58,148 18.19,99.21 -58.4,25.79 -58.4,83.55 0,33.29 26.22,55.27 26.22,88.33 0,50.87 -11.32,80.05 32.18,115.78 50.63,41.6 3.58,38.42 -36.95,46.55 -6.02,24.32 -22.09,69.91 -15.49,96.68 40.27,9.98 56.01,-4.31 56.01,45.35 -45.06,11.36 -74.78,-30.16 -122.74,-32.23 -35.13,-1.51 -97.88,-27.6 -50.05,37.01 31.03,41.93 -1.5,158.97 2.38,210.07 3,39.44 1.81,73.92 -1.19,113.39 -3.32,43.53 -31.02,75.23 -33.37,120.55 -5.81,60.36 4.77,132.12 4.77,194.55 0,35.16 17.75,94.6 10.73,122.94 -128.25,-76.34 -43.28,32.73 -33.37,102.65 16.18,114.23 43.53,212.83 77.46,323.46 1.42,57.66 21.88,125.2 32.17,182.62 9.58,53.51 -6.99,100.54 -11.91,150.39 -40.04,28.55 -24.31,81.14 -23.84,121.74l2.39 205.3c7.15,17.67 18.81,37.48 3.57,53.71 -31.31,33.36 10.05,52.95 22.64,79.97 5.44,11.67 5.49,155.41 50.05,119.36 21.64,-17.52 3.09,-108 69.12,-78.78 33.84,14.98 52.75,-7.9 57.2,-39.39 2.76,-19.51 30.95,-44.28 38.13,-66.84 15.83,-49.7 -13.6,-66.17 -23.83,-109.81 -4.9,-20.89 11.5,-34.27 21.45,-50.13 12.84,-20.44 23.85,-58.53 26.22,-82.35 -0.92,11.94 24.51,-102.19 2.38,-95.49 -35.02,10.59 -51.92,4.54 -77.46,-27.45 -8.07,-10.1 -14.07,-43.35 -27.41,-44.17 -41.88,-2.57 -91.76,-75.82 -91.76,-115.77 53.53,0 88.49,106.06 131.09,95.48 13.28,-3.3 19.96,-19.93 35.75,-22.67 25.23,-4.37 39.01,7.43 60.77,-14.33 5.45,-5.45 30.11,-105.89 28.61,-114.58 -5.45,-31.57 24.54,-57.09 15.49,-78.78 -9.49,-22.71 -36.28,-98.11 -10.73,-115.78 12.99,-8.99 51.92,5.74 66.74,9.55 33.93,8.71 86.1,-23.35 109.63,-44.16 36.01,-46.98 202.88,-106.49 196.21,-74.73 -3.48,16.6 -52.14,46.37 -60.36,58.02 -13.01,18.42 -24.92,79.56 -28.6,102.65 -12.69,79.77 137.21,-31.32 136.99,-18.87 -0.99,50.94 -16.45,79.2 21.5,120.32 28.94,31.37 15.49,80.43 29.8,121.75 13.69,39.55 10.37,186.89 42.9,199.33 48.83,18.69 74.87,25.4 112.01,64.45 43.63,45.89 102.06,-1.82 151.35,-25.07 33.45,12.45 36.79,27.33 38.13,63.26 0.93,24.94 10.93,54.93 27.41,74.01 18.37,21.26 27.13,116.73 47.67,118.16 25.39,1.76 60.51,-19.1 91.76,-19.1 17.32,0 32.85,-2.4 48.85,-9.55 17.67,-7.91 53.61,-26.15 35.76,9.55 -15.31,30.62 -12.81,60.34 -45.29,82.36 -42.97,29.12 -56.01,55.92 -56.01,108.62l44.09 149.19c21.27,71.96 -55.56,130.48 -25.02,224.4 17.8,54.73 37.2,126.76 79.84,169.49 85.45,85.66 19.48,-64.96 11.92,-90.72 -8.31,-28.35 -26.79,-79.64 -1.19,-103.84 24.64,-23.28 56.21,21.93 63.16,-39.39 6.14,-54.21 -26.18,-117.94 -15.5,-157.55 3.34,-12.39 16.61,-121.63 40.52,-102.65 59.24,47.05 39.7,146.99 144.19,162.33 1.82,0.26 93.92,3.48 63.16,23.87 -75.52,50.05 42.36,71.93 57.2,112.2l36.95 100.26c6.57,17.81 -39.66,47.23 -4.77,65.65 118.24,62.46 -9.13,216.39 92.95,273.33 27.6,11.72 195.44,130.59 215.69,84.74 17.58,-39.78 -38.07,-63.87 -10.72,-105.04 11.61,-17.47 11.5,-76.38 36.94,-76.38 0,20.6 15.26,175.45 33.37,175.45 2.26,6.92 14.92,-3.99 16.68,-7.16 9.86,-17.77 57.17,-71.61 78.65,-71.61 0,77.75 -116.33,129.26 -64.35,181.42 39.22,39.34 61.73,149.98 108.44,163.52 52.06,15.1 70.03,-72.09 110.83,-1.19 29.71,51.65 158.98,10.34 114.4,70.42 -60.96,82.17 -98.91,78.79 -98.91,198.13 0.82,26.84 40.72,27.98 35.75,44.16 -19.13,62.26 -9.17,61 -3.57,119.36 10.47,109.17 123.66,56.31 158.49,161.14 20.65,62.18 88.3,31.05 117.98,95.48 22.74,49.35 95.74,57.99 102.48,83.55 15,56.92 84.21,74.81 73.88,128.91 -9.36,48.99 11.79,55.19 51.25,70.42 33.5,12.94 55.22,55.99 78.65,82.36 23.61,24.59 50.86,75.58 72.69,16.71 19.57,-52.75 29.79,-4.31 29.79,19.1 0,64.59 60.53,96.01 51.24,146.81 -1.36,7.44 -2.07,14.87 -2.21,22.26l0 0zm-5814.31 -25679.16l16435.32 0 0 27696.56 -16435.32 0 0 -27696.56z"/>
  <path class="fil1 str1" d="M14016.57 26876.66l2823.13 0 0 1592.9 -2823.13 0 0 -1592.9z"/>
  <path class="fil2" d="M17018.43 28376.66c0,-17.45 4.47,-34.48 13.46,-51.13 8.93,-16.61 21.77,-29.59 38.43,-38.86 16.69,-9.26 34.1,-13.92 52.16,-13.92 17.92,0 35.18,4.56 51.69,13.74 16.56,9.12 29.4,21.92 38.53,38.43 9.17,16.51 13.73,33.77 13.73,51.74 0,18.01 -4.56,35.27 -13.73,51.78 -9.13,16.51 -21.97,29.35 -38.53,38.53 -16.51,9.17 -33.77,13.78 -51.69,13.78 -18.06,0 -35.47,-4.66 -52.16,-13.97 -16.66,-9.36 -29.5,-22.34 -38.43,-38.95 -8.99,-16.65 -13.46,-33.68 -13.46,-51.17zm17.22 0c0,14.62 3.76,28.88 11.24,42.7 7.48,13.83 18.2,24.65 32.13,32.46 13.92,7.81 28.41,11.71 43.46,11.71 15,0 29.35,-3.85 43.08,-11.52 13.74,-7.67 24.46,-18.39 32.13,-32.17 7.67,-13.79 11.52,-28.18 11.52,-43.18 0,-14.96 -3.85,-29.36 -11.52,-43.14 -7.67,-13.78 -18.39,-24.5 -32.13,-32.12 -13.73,-7.62 -28.08,-11.43 -43.08,-11.43 -15.05,0 -29.54,3.9 -43.46,11.66 -13.93,7.76 -24.65,18.58 -32.13,32.46 -7.48,13.87 -11.24,28.08 -11.24,42.57zm103.57 -33.35l5.08 -16.94c11.53,2.78 20.7,8.61 27.52,17.55 6.87,8.98 10.3,19.85 10.3,32.59 0,16.19 -5.22,29.31 -15.71,39.42 -10.49,10.11 -24.98,15.15 -43.55,15.15 -12.14,0 -22.68,-2.31 -31.61,-6.92 -8.99,-4.56 -15.71,-11.15 -20.28,-19.61 -4.56,-8.52 -6.82,-18.25 -6.82,-29.16 0,-12.23 2.92,-22.39 8.8,-30.48 5.88,-8.09 13.88,-13.6 23.94,-16.56l4.23 16.37c-6.91,2.77 -12.23,6.82 -15.89,12.23 -3.72,5.41 -5.55,11.71 -5.55,19 0,10.58 3.76,19.33 11.28,26.2 7.53,6.87 18.35,10.3 32.37,10.3 14.06,0 24.69,-3.24 31.89,-9.74 7.19,-6.49 10.81,-14.86 10.81,-25.16 0,-8.28 -2.39,-15.57 -7.24,-21.83 -4.8,-6.25 -11.33,-10.39 -19.57,-12.41z"/>
  <path id="1" class="fil2" d="M17223.89 28081.5l-18.58 0c14.44,9.27 21.68,22.91 21.68,40.92 0,11.67 -3.19,22.39 -9.64,32.13 -6.4,9.78 -15.38,17.35 -26.86,22.76 -11.52,5.37 -24.74,8.05 -39.69,8.05 -14.59,0 -27.8,-2.45 -39.7,-7.29 -11.86,-4.9 -20.98,-12.19 -27.29,-21.92 -6.35,-9.69 -9.5,-20.61 -9.5,-32.6 0,-8.84 1.88,-16.7 5.6,-23.56 3.72,-6.87 8.61,-12.47 14.58,-16.8l-72.67 0 0 -24.83 202.07 0 0 23.14zm-73.05 78.46c18.72,0 32.69,-3.95 41.96,-11.9 9.26,-7.91 13.87,-17.27 13.87,-28.04 0,-10.86 -4.42,-20.08 -13.26,-27.7 -8.84,-7.57 -22.34,-11.38 -40.5,-11.38 -19.94,0 -34.62,3.85 -43.98,11.61 -9.36,7.72 -14.01,17.27 -14.01,28.6 0,11.06 4.46,20.27 13.45,27.71 8.98,7.38 23.14,11.1 42.47,11.1z"/>
  <path id="2" class="fil2" d="M17163.21 28028.96l-24.83 0 0 -76.76 24.83 0 0 76.76z"/>
  <path id="3" class="fil2" d="M17223.89 27925.1l-146.47 0 0 -22.29 20.69 0c-7.15,-4.56 -12.93,-10.68 -17.26,-18.3 -4.37,-7.62 -6.54,-16.27 -6.54,-26.01 0,-10.82 2.26,-19.71 6.73,-26.62 4.52,-6.92 10.77,-11.81 18.86,-14.63 -17.07,-11.67 -25.59,-26.77 -25.59,-45.39 0,-14.58 4,-25.83 12.04,-33.63 8.05,-7.86 20.42,-11.81 37.12,-11.81l100.42 0 0 24.84 -92.19 0c-9.88,0 -17.03,0.84 -21.4,2.44 -4.38,1.6 -7.86,4.52 -10.54,8.8 -2.68,4.23 -4,9.22 -4,14.91 0,10.35 3.44,18.91 10.26,25.73 6.86,6.82 17.82,10.2 32.87,10.2l85 0 0 24.84 -95.06 0c-11.01,0 -19.29,2.02 -24.79,6.07 -5.5,4.04 -8.28,10.67 -8.28,19.85 0,6.96 1.84,13.4 5.51,19.33 3.66,5.93 9.03,10.21 16.13,12.89 7.05,2.63 17.26,3.95 30.57,3.95l75.92 0 0 24.83z"/>
  <path id="4" class="fil2" d="M17205.55 27594.34c7.85,9.22 13.35,18.11 16.6,26.62 3.25,8.52 4.84,17.64 4.84,27.43 0,16.08 -3.9,28.45 -11.75,37.11 -7.81,8.65 -17.83,12.98 -30.01,12.98 -7.15,0 -13.69,-1.65 -19.62,-4.89 -5.93,-3.29 -10.63,-7.57 -14.2,-12.84 -3.58,-5.32 -6.31,-11.24 -8.14,-17.88 -1.27,-4.89 -2.49,-12.27 -3.72,-22.1 -2.35,-20.04 -5.22,-34.86 -8.51,-44.31 -3.39,-0.1 -5.55,-0.14 -6.44,-0.14 -10.07,0 -17.17,2.35 -21.31,7.05 -5.6,6.35 -8.37,15.81 -8.37,28.32 0,11.71 2.07,20.36 6.16,25.92 4.09,5.59 11.38,9.68 21.78,12.37l-3.39 24.27c-10.4,-2.21 -18.82,-5.84 -25.21,-10.92 -6.4,-5.08 -11.29,-12.41 -14.77,-22.01 -3.44,-9.55 -5.18,-20.7 -5.18,-33.3 0,-12.51 1.46,-22.72 4.42,-30.57 2.97,-7.81 6.64,-13.6 11.11,-17.27 4.46,-3.67 10.11,-6.25 16.93,-7.76 4.23,-0.8 11.85,-1.22 22.81,-1.22l32.93 0c23,0 37.53,-0.52 43.69,-1.55 6.17,-0.99 12.05,-3.06 17.69,-6.07l0 25.96c-5.22,2.5 -11.34,4.1 -18.34,4.8zm-55.04 1.98c3.67,9.03 6.78,22.57 9.32,40.64 1.45,10.25 3.1,17.49 4.93,21.73 1.84,4.23 4.52,7.48 8,9.78 3.53,2.31 7.43,3.48 11.76,3.48 6.54,0 12.04,-2.49 16.42,-7.52 4.37,-5.04 6.58,-12.38 6.58,-22.02 0,-9.55 -2.07,-18.06 -6.25,-25.54 -4.14,-7.43 -9.84,-12.93 -17.03,-16.41 -5.6,-2.69 -13.83,-4 -24.7,-4l-9.03 -0.14z"/>
  <path id="5" class="fil2" d="M17280.05 27533.05l-202.63 0 0 -22.57 19.24 0c-7.44,-5.32 -13.03,-11.34 -16.75,-18.07 -3.72,-6.68 -5.6,-14.81 -5.6,-24.36 0,-12.51 3.2,-23.52 9.65,-33.07 6.39,-9.55 15.47,-16.74 27.14,-21.63 11.71,-4.85 24.5,-7.3 38.47,-7.3 14.91,0 28.37,2.69 40.36,8.05 11.95,5.36 21.12,13.17 27.52,23.42 6.35,10.21 9.54,20.98 9.54,32.27 0,8.28 -1.74,15.71 -5.22,22.25 -3.48,6.58 -7.85,11.94 -13.17,16.18l71.45 0 0 24.83zm-128.5 -22.57c18.77,0 32.69,-3.81 41.67,-11.39 8.99,-7.62 13.45,-16.84 13.45,-27.65 0,-11.01 -4.65,-20.42 -13.97,-28.23 -9.31,-7.85 -23.7,-11.76 -43.22,-11.76 -18.63,0 -32.55,3.81 -41.82,11.48 -9.26,7.67 -13.87,16.79 -13.87,27.42 0,10.54 4.94,19.85 14.77,27.94 9.87,8.14 24.17,12.19 42.99,12.19z"/>
  <path id="6" class="fil2" d="M17180.15 27385.97l-3.96 -24.55c9.84,-1.37 17.36,-5.22 22.63,-11.53 5.22,-6.3 7.85,-15.14 7.85,-26.43 0,-11.43 -2.3,-19.9 -6.96,-25.45 -4.61,-5.5 -10.06,-8.28 -16.32,-8.28 -5.6,0 -10.02,2.5 -13.22,7.44 -2.21,3.48 -4.98,11.94 -8.42,25.4 -4.56,18.15 -8.51,30.71 -11.85,37.77 -3.39,7 -7.99,12.32 -13.92,15.94 -5.88,3.62 -12.42,5.46 -19.57,5.46 -6.54,0 -12.56,-1.51 -18.11,-4.47 -5.55,-3.01 -10.16,-7.06 -13.83,-12.18 -2.82,-3.86 -5.22,-9.13 -7.19,-15.76 -1.98,-6.68 -2.97,-13.78 -2.97,-21.4 0,-11.48 1.65,-21.54 4.99,-30.2 3.29,-8.7 7.81,-15.1 13.45,-19.24 5.69,-4.09 13.27,-6.96 22.77,-8.51l3.38 24.27c-7.62,1.08 -13.59,4.28 -17.87,9.55 -4.28,5.27 -6.4,12.7 -6.4,22.34 0,11.34 1.88,19.47 5.65,24.32 3.76,4.84 8.18,7.29 13.21,7.29 3.2,0 6.12,-0.99 8.71,-3.01 2.63,-2.02 4.84,-5.18 6.58,-9.5 0.94,-2.5 3.06,-9.74 6.35,-21.87 4.66,-17.5 8.52,-29.73 11.48,-36.69 2.96,-6.96 7.34,-12.42 12.98,-16.37 5.69,-4 12.75,-5.98 21.21,-5.98 8.24,0 16,2.4 23.29,7.25 7.29,4.84 12.93,11.8 16.93,20.88 4,9.13 5.97,19.43 5.97,30.91 0,19 -3.95,33.53 -11.8,43.5 -7.9,9.98 -19.57,16.33 -35.04,19.1z"/>
  <path id="7" class="fil2" d="M17223.89 27227.93l-28.22 0 0 -28.22 28.22 0 0 28.22z"/>
  <path id="8" class="fil2" d="M17170.27 27060.9l3.38 -24.27c16.7,2.68 29.73,9.45 39.19,20.41 9.45,10.96 14.15,24.46 14.15,40.41 0,19.99 -6.53,36.08 -19.61,48.21 -13.08,12.18 -31.8,18.25 -56.16,18.25 -15.81,0 -29.59,-2.63 -41.39,-7.85 -11.86,-5.22 -20.75,-13.17 -26.63,-23.9 -5.92,-10.68 -8.89,-22.29 -8.89,-34.9 0,-15.85 4,-28.88 12.04,-38.95 8.05,-10.11 19.48,-16.6 34.25,-19.42l3.67 23.99c-9.83,2.3 -17.22,6.35 -22.2,12.23 -4.94,5.83 -7.44,12.88 -7.44,21.16 0,12.51 4.47,22.67 13.41,30.53 8.98,7.81 23.09,11.71 42.47,11.71 19.66,0 33.92,-3.76 42.81,-11.29 8.89,-7.57 13.35,-17.4 13.35,-29.49 0,-9.78 -2.96,-17.92 -8.93,-24.41 -5.93,-6.54 -15.1,-10.68 -27.47,-12.42z"/>
  <path id="9" class="fil2" d="M17150.65 27024.78c-27.04,0 -47.08,-7.53 -60.11,-22.63 -10.82,-12.56 -16.23,-27.94 -16.23,-46.05 0,-20.08 6.59,-36.54 19.76,-49.34 13.12,-12.75 31.33,-19.14 54.51,-19.14 18.82,0 33.59,2.82 44.36,8.46 10.77,5.65 19.14,13.88 25.12,24.7 5.97,10.77 8.93,22.58 8.93,35.32 0,20.51 -6.53,37.07 -19.66,49.72 -13.12,12.65 -32.03,18.96 -56.68,18.96zm0.05 -25.4c18.72,0 32.74,-4.1 42,-12.28 9.32,-8.23 13.97,-18.53 13.97,-31 0,-12.32 -4.65,-22.57 -14.01,-30.81 -9.36,-8.18 -23.61,-12.27 -42.76,-12.27 -18.06,0 -31.75,4.14 -41.01,12.37 -9.32,8.23 -13.97,18.48 -13.97,30.71 0,12.47 4.61,22.77 13.87,31 9.27,8.18 23.24,12.28 41.91,12.28z"/>
  <path id="10" class="fil2" d="M17223.89 26858.5l-146.47 0 0 -22.29 20.69 0c-7.15,-4.56 -12.93,-10.68 -17.26,-18.3 -4.37,-7.62 -6.54,-16.27 -6.54,-26.01 0,-10.82 2.26,-19.71 6.73,-26.62 4.52,-6.92 10.77,-11.81 18.86,-14.63 -17.07,-11.67 -25.59,-26.77 -25.59,-45.39 0,-14.58 4,-25.83 12.04,-33.63 8.05,-7.86 20.42,-11.81 37.12,-11.81l100.42 0 0 24.84 -92.19 0c-9.88,0 -17.03,0.84 -21.4,2.44 -4.38,1.6 -7.86,4.52 -10.54,8.8 -2.68,4.23 -4,9.22 -4,14.91 0,10.35 3.44,18.91 10.26,25.73 6.86,6.82 17.82,10.2 32.87,10.2l85 0 0 24.84 -95.06 0c-11.01,0 -19.29,2.02 -24.79,6.07 -5.5,4.04 -8.28,10.67 -8.28,19.85 0,6.96 1.84,13.4 5.51,19.33 3.66,5.93 9.03,10.21 16.13,12.89 7.05,2.63 17.26,3.95 30.57,3.95l75.92 0 0 24.83z"/>
  <g id="_1804609344672">
   <g>
    <path class="fil3 str2" d="M14156.15 27474.32l801.83 0 0 99.16 -801.83 0 0 -99.16z"/>
    <path class="fil4 str2" d="M14957.98 27474.32l801.82 0 0 99.16 -801.82 0 0 -99.16z"/>
    <path class="fil3 str2" d="M15759.8 27474.32l801.82 0 0 99.16 -801.82 0 0 -99.16z"/>
    <path class="fil3 str2" d="M15441.39 27773.26l1282.44 0 0 99.16 -1282.44 0 0 -99.16z"/>
    <path class="fil4 str2" d="M14158.96 27773.26l1282.44 0 0 99.16 -1282.44 0 0 -99.16z"/>
   </g>
   <path class="fil2" d="M14923.01 27070.62l57.09 -27.52 5.71 0 0 197.2c0,13.12 0.53,21.35 1.64,24.58 1.12,3.18 3.36,5.71 6.82,7.41 3.47,1.71 10.53,2.7 21.17,2.94l0 6.35 -88.19 0 0 -6.35c11.05,-0.24 18.16,-1.18 21.34,-2.88 3.23,-1.65 5.47,-3.88 6.76,-6.7 1.24,-2.83 1.88,-11.29 1.88,-25.35l0 -126.29c0,-16.99 -0.59,-27.93 -1.7,-32.75 -0.83,-3.7 -2.3,-6.41 -4.41,-8.11 -2.18,-1.71 -4.71,-2.59 -7.71,-2.59 -4.29,0 -10.23,1.76 -17.81,5.35l-2.59 -5.29z"/>
   <path id="1" class="fil2" d="M15557.32 27036.4l0 157.16 39.98 -36.63c8.52,-7.82 13.46,-12.76 14.81,-14.82 0.95,-1.41 1.42,-2.76 1.42,-4.17 0,-2.29 -1,-4.23 -2.89,-5.94 -1.88,-1.65 -4.99,-2.59 -9.4,-2.82l0 -5.65 68.61 0 0 5.65c-9.35,0.23 -17.17,1.7 -23.4,4.35 -6.23,2.7 -13.05,7.47 -20.52,14.29l-40.63 37.22 40.34 51.33c11.29,14.05 18.81,23.04 22.58,26.98 5.58,5.24 10.4,8.65 14.58,10.17 2.94,1.12 7.99,1.71 15.17,1.71l0 6.35 -76.73 0 0 -6.35c4.41,-0.12 7.35,-0.76 8.88,-1.94 1.58,-1.24 2.35,-2.88 2.35,-5.06 0,-2.64 -2.3,-6.88 -6.88,-12.7l-48.27 -61.79 0 52.21c0,10.23 0.7,16.93 2.11,20.17 1.47,3.17 3.47,5.46 6.12,6.88 2.64,1.35 8.35,2.11 17.17,2.23l0 6.35 -80.08 0 0 -6.35c7.99,0 14.05,-1 18.05,-2.94 2.41,-1.23 4.23,-3.17 5.46,-5.76 1.71,-3.76 2.59,-10.29 2.59,-19.52l0 -143.94c0,-18.05 -0.41,-29.1 -1.18,-33.16 -0.82,-4.05 -2.11,-6.82 -3.99,-8.35 -1.83,-1.58 -4.24,-2.35 -7.18,-2.35 -2.41,0 -6.05,1 -10.82,2.94l-2.93 -6.35 46.74 -19.4 7.94 0z"/>
   <path id="2" class="fil2" d="M15734.06 27152.7c11.41,-11.53 18.17,-18.17 20.22,-19.93 5.12,-4.36 10.65,-7.77 16.59,-10.18 5.93,-2.41 11.81,-3.64 17.63,-3.64 9.88,0 18.29,2.88 25.4,8.64 7.06,5.76 11.82,14.11 14.17,25.11 11.88,-13.88 21.88,-22.93 30.05,-27.28 8.17,-4.3 16.58,-6.47 25.22,-6.47 8.35,0 15.82,2.17 22.35,6.47 6.46,4.29 11.64,11.34 15.4,21.16 2.53,6.65 3.82,17.11 3.82,31.4l0 67.97c0,9.82 0.71,16.58 2.18,20.23 1.12,2.46 3.23,4.64 6.23,6.4 3.06,1.77 8,2.65 14.88,2.65l0 6.35 -77.26 0 0 -6.35 3.29 0c6.7,0 11.99,-1.29 15.76,-3.94 2.64,-1.82 4.52,-4.76 5.64,-8.76 0.47,-1.94 0.71,-7.47 0.71,-16.58l0 -67.91c0,-12.88 -1.53,-21.93 -4.65,-27.22 -4.52,-7.35 -11.7,-11.06 -21.63,-11.06 -6.06,0 -12.23,1.53 -18.41,4.59 -6.11,3 -13.58,8.7 -22.34,16.93l-0.35 1.94 0.7 7.41 0 75.32c0,10.7 0.59,17.4 1.77,20.05 1.23,2.59 3.46,4.82 6.76,6.58 3.29,1.77 8.93,2.65 16.87,2.65l0 6.35 -79.37 0 0 -6.35c8.64,0 14.58,-1 17.81,-3.06 3.24,-2.06 5.47,-5.17 6.7,-9.29 0.59,-1.94 0.89,-7.58 0.89,-16.93l0 -67.91c0,-12.88 -1.88,-22.17 -5.65,-27.87 -5.05,-7.41 -12.05,-11.11 -21.11,-11.11 -6.17,0 -12.28,1.7 -18.34,5.05 -9.47,5.06 -16.82,10.82 -21.93,17.17l0 84.67c0,10.29 0.7,16.93 2.12,20.05 1.41,3.06 3.52,5.35 6.35,6.94 2.76,1.53 8.4,2.29 16.93,2.29l0 6.35 -77.97 0 0 -6.35c7.24,0 12.29,-0.76 15.17,-2.29 2.89,-1.59 5.06,-4 6.59,-7.41 1.47,-3.35 2.23,-9.88 2.23,-19.58l0 -60.33c0,-17.28 -0.53,-28.45 -1.53,-33.51 -0.82,-3.82 -2.05,-6.41 -3.82,-7.82 -1.7,-1.47 -4.05,-2.18 -6.99,-2.18 -3.24,0 -7.06,0.89 -11.53,2.59l-2.58 -6.35 47.62 -19.4 7.41 0 0 33.75z"/>
   <path id="3" class="fil2" d="M15211.59 27047.69l-13.47 29.28 -70.55 0 -15.47 31.28c30.81,4.52 55.04,15.81 72.79,33.98 15.23,15.64 22.82,33.99 22.82,55.15 0,12.29 -2.47,23.7 -7.47,34.11 -5,10.46 -11.29,19.4 -18.87,26.75 -7.53,7.35 -16,13.29 -25.29,17.75 -13.17,6.3 -26.69,9.47 -40.57,9.47 -13.99,0 -24.16,-2.35 -30.57,-7.11 -6.35,-4.71 -9.53,-9.94 -9.53,-15.64 0,-3.18 1.3,-6 3.94,-8.47 2.65,-2.47 6,-3.65 10,-3.65 2.94,0 5.58,0.42 7.82,1.36 2.23,0.88 6,3.23 11.4,6.99 8.59,5.94 17.35,8.88 26.17,8.88 13.4,0 25.22,-5.11 35.39,-15.29 10.12,-10.17 15.23,-22.57 15.23,-37.21 0,-14.12 -4.52,-27.34 -13.58,-39.57 -9.11,-12.29 -21.58,-21.76 -37.57,-28.4 -12.46,-5.18 -29.52,-8.18 -51.09,-9l44.8 -90.66 83.67 0z"/>
   <path id="4" class="fil2" d="M15247.57 27165.99c0,-26.64 4,-49.51 12.05,-68.74 8.06,-19.22 18.7,-33.57 32.05,-42.98 10.29,-7.47 20.99,-11.17 31.98,-11.17 17.94,0 33.99,9.11 48.22,27.34 17.81,22.64 26.69,53.27 26.69,91.96 0,27.05 -3.88,50.09 -11.7,69.03 -7.82,18.93 -17.76,32.63 -29.87,41.21 -12.11,8.53 -23.81,12.82 -35.04,12.82 -22.29,0 -40.81,-13.11 -55.62,-39.39 -12.53,-22.17 -18.76,-48.86 -18.76,-80.08zm33.87 4.23c0,32.1 3.94,58.33 11.82,78.67 6.52,17.11 16.28,25.63 29.22,25.63 6.17,0 12.58,-2.76 19.22,-8.34 6.65,-5.59 11.65,-14.88 15.11,-27.99 5.24,-19.7 7.88,-47.57 7.88,-83.43 0,-26.64 -2.76,-48.86 -8.23,-66.62 -4.11,-13.23 -9.46,-22.58 -15.99,-28.05 -4.65,-3.82 -10.35,-5.7 -16.99,-5.7 -7.76,0 -14.7,3.53 -20.76,10.52 -8.23,9.53 -13.87,24.46 -16.81,44.92 -3,20.41 -4.47,40.52 -4.47,60.39z"/>
   <path class="fil2" d="M14993.66 28040.5l57.09 -27.52 5.71 0 0 197.2c0,13.12 0.53,21.35 1.64,24.58 1.12,3.18 3.36,5.71 6.82,7.41 3.47,1.71 10.53,2.7 21.17,2.94l0 6.35 -88.19 0 0 -6.35c11.05,-0.24 18.16,-1.18 21.34,-2.88 3.23,-1.65 5.47,-3.88 6.76,-6.7 1.24,-2.83 1.88,-11.29 1.88,-25.35l0 -126.29c0,-16.99 -0.59,-27.93 -1.7,-32.75 -0.83,-3.7 -2.3,-6.41 -4.41,-8.11 -2.18,-1.71 -4.71,-2.59 -7.71,-2.59 -4.29,0 -10.23,1.76 -17.81,5.35l-2.59 -5.29z"/>
   <path id="1" class="fil2" d="M15628.32 28122.58c11.41,-11.53 18.17,-18.17 20.22,-19.93 5.12,-4.36 10.65,-7.77 16.59,-10.18 5.93,-2.41 11.81,-3.64 17.63,-3.64 9.88,0 18.29,2.88 25.4,8.64 7.06,5.76 11.82,14.11 14.17,25.11 11.88,-13.88 21.88,-22.93 30.05,-27.28 8.17,-4.3 16.58,-6.47 25.22,-6.47 8.35,0 15.82,2.17 22.35,6.47 6.46,4.29 11.64,11.34 15.4,21.16 2.53,6.65 3.82,17.11 3.82,31.4l0 67.97c0,9.82 0.71,16.58 2.18,20.23 1.12,2.46 3.23,4.64 6.23,6.4 3.06,1.77 8,2.65 14.88,2.65l0 6.35 -77.26 0 0 -6.35 3.29 0c6.7,0 11.99,-1.29 15.76,-3.94 2.64,-1.82 4.52,-4.76 5.64,-8.76 0.47,-1.94 0.71,-7.47 0.71,-16.58l0 -67.91c0,-12.88 -1.53,-21.93 -4.65,-27.22 -4.52,-7.35 -11.7,-11.06 -21.63,-11.06 -6.06,0 -12.23,1.53 -18.41,4.59 -6.11,3 -13.58,8.7 -22.34,16.93l-0.35 1.94 0.7 7.41 0 75.32c0,10.7 0.59,17.4 1.77,20.05 1.23,2.59 3.46,4.82 6.76,6.58 3.29,1.77 8.93,2.65 16.87,2.65l0 6.35 -79.37 0 0 -6.35c8.64,0 14.58,-1 17.81,-3.06 3.24,-2.06 5.47,-5.17 6.7,-9.29 0.59,-1.94 0.89,-7.58 0.89,-16.93l0 -67.91c0,-12.88 -1.88,-22.17 -5.65,-27.87 -5.05,-7.41 -12.05,-11.11 -21.11,-11.11 -6.17,0 -12.28,1.7 -18.34,5.05 -9.47,5.06 -16.82,10.82 -21.93,17.17l0 84.67c0,10.29 0.7,16.93 2.12,20.05 1.41,3.06 3.52,5.35 6.35,6.94 2.76,1.53 8.4,2.29 16.93,2.29l0 6.35 -77.97 0 0 -6.35c7.24,0 12.29,-0.76 15.17,-2.29 2.89,-1.59 5.06,-4 6.59,-7.41 1.47,-3.35 2.23,-9.88 2.23,-19.58l0 -60.33c0,-17.28 -0.53,-28.45 -1.53,-33.51 -0.82,-3.82 -2.05,-6.41 -3.82,-7.82 -1.7,-1.47 -4.05,-2.18 -6.99,-2.18 -3.24,0 -7.06,0.89 -11.53,2.59l-2.58 -6.35 47.62 -19.4 7.41 0 0 33.75z"/>
   <path id="2" class="fil2" d="M15895.96 28006.28c4.76,0 8.88,1.7 12.29,5.05 3.35,3.41 5.05,7.53 5.05,12.29 0,4.82 -1.7,9 -5.05,12.41 -3.41,3.47 -7.53,5.17 -12.29,5.17 -4.82,0 -9,-1.7 -12.41,-5.17 -3.47,-3.41 -5.17,-7.59 -5.17,-12.41 0,-4.76 1.7,-8.88 5.05,-12.29 3.41,-3.35 7.59,-5.05 12.53,-5.05zm14.17 82.55l0 127c0,9.82 0.7,16.34 2.17,19.58 1.41,3.29 3.53,5.7 6.35,7.29 2.82,1.59 8,2.41 15.47,2.41l0 6.35 -76.56 0 0 -6.35c7.65,0 12.82,-0.76 15.41,-2.23 2.64,-1.47 4.7,-3.94 6.29,-7.35 1.53,-3.41 2.29,-10 2.29,-19.7l0 -61.03c0,-16.99 -0.53,-27.99 -1.53,-33.05 -0.82,-3.64 -2.05,-6.17 -3.82,-7.58 -1.7,-1.47 -4.06,-2.18 -7,-2.18 -3.23,0 -7.11,0.89 -11.7,2.59l-2.41 -6.35 47.45 -19.4 7.59 0z"/>
   <path id="3" class="fil2" d="M15141.83 28135.87c0,-26.64 4,-49.51 12.05,-68.74 8.06,-19.22 18.7,-33.57 32.05,-42.98 10.29,-7.47 20.99,-11.17 31.98,-11.17 17.94,0 33.99,9.11 48.22,27.34 17.81,22.64 26.69,53.27 26.69,91.96 0,27.05 -3.88,50.09 -11.7,69.03 -7.82,18.93 -17.76,32.63 -29.87,41.21 -12.11,8.53 -23.81,12.82 -35.04,12.82 -22.29,0 -40.81,-13.11 -55.62,-39.39 -12.53,-22.17 -18.76,-48.86 -18.76,-80.08zm33.87 4.23c0,32.1 3.94,58.33 11.82,78.67 6.52,17.11 16.28,25.63 29.22,25.63 6.17,0 12.58,-2.76 19.22,-8.34 6.65,-5.59 11.65,-14.88 15.11,-27.99 5.24,-19.7 7.88,-47.57 7.88,-83.43 0,-26.64 -2.76,-48.86 -8.23,-66.62 -4.11,-13.23 -9.46,-22.58 -15.99,-28.05 -4.65,-3.82 -10.35,-5.7 -16.99,-5.7 -7.76,0 -14.7,3.53 -20.76,10.52 -8.23,9.53 -13.87,24.46 -16.81,44.92 -3,20.41 -4.47,40.52 -4.47,60.39z"/>
   <path id="4" class="fil2" d="M15318.22 28135.87c0,-26.64 4,-49.51 12.05,-68.74 8.06,-19.22 18.7,-33.57 32.05,-42.98 10.29,-7.47 20.99,-11.17 31.98,-11.17 17.94,0 33.99,9.11 48.22,27.34 17.81,22.64 26.69,53.27 26.69,91.96 0,27.05 -3.88,50.09 -11.7,69.03 -7.82,18.93 -17.76,32.63 -29.87,41.21 -12.11,8.53 -23.81,12.82 -35.04,12.82 -22.29,0 -40.81,-13.11 -55.62,-39.39 -12.53,-22.17 -18.76,-48.86 -18.76,-80.08zm33.87 4.23c0,32.1 3.94,58.33 11.82,78.67 6.52,17.11 16.28,25.63 29.22,25.63 6.17,0 12.58,-2.76 19.22,-8.34 6.65,-5.59 11.65,-14.88 15.11,-27.99 5.24,-19.7 7.88,-47.57 7.88,-83.43 0,-26.64 -2.76,-48.86 -8.23,-66.62 -4.11,-13.23 -9.46,-22.58 -15.99,-28.05 -4.65,-3.82 -10.35,-5.7 -16.99,-5.7 -7.76,0 -14.7,3.53 -20.76,10.52 -8.23,9.53 -13.87,24.46 -16.81,44.92 -3,20.41 -4.47,40.52 -4.47,60.39z"/>
  </g>
  <rect class="fil5 str3" x="1000" y="1000" width="16435.32" height="27696.56"/>
  <g id="_1804609340672">
   <path class="fil1 str1" d="M1313.57 26873.24l815.93 0 0 1592.89 -815.93 0 0 -1592.89z"/>
   <path class="fil6" d="M1661.67 27309.37c-0.92,3.32 -1.63,6.35 -2.07,9.15 -0.44,2.79 -0.65,5.18 -0.65,7.22 0,5.59 1.8,9.56 5.29,11.89 3.49,2.33 9.55,3.49 18.05,3.49l4.15 0 -4.96 22.72 -78.17 0 5.29 -22.72 2.89 0c7.36,0 12.82,-1.51 16.48,-4.54 3.6,-2.97 6.32,-8.39 8.12,-16.14l37.59 -153.79c0.6,-2.74 1.14,-5.54 1.52,-8.45 0.33,-2.91 0.55,-5.77 0.55,-8.62 0,-5.36 -1.96,-9.15 -5.95,-11.36 -3.92,-2.22 -10.69,-3.32 -20.23,-3.32l-3.06 0 5.29 -22.72 72.33 0 62.14 183.5 31.31 -129.03c1.08,-4.2 1.85,-7.63 2.34,-10.31 0.49,-2.68 0.71,-4.72 0.71,-6.06 0,-5.6 -1.8,-9.56 -5.35,-11.89 -3.6,-2.33 -9.71,-3.49 -18.32,-3.49l-4.15 0 4.96 -22.72 78.5 0 -5.62 22.72 -2.84 0c-7.37,0 -12.87,1.51 -16.47,4.54 -3.66,2.97 -6.33,8.33 -8.18,15.96l-50.68 208.44 -21.54 0 -72.06 -209.48 -37.21 155.01z"/>
   <path class="fil5 str4" d="M1722.36 28332.93l0 -769.27"/>
   <path class="fil5 str4" d="M1440.31 28056.88l563.14 0"/>
   <path class="fil5 str4" d="M1577.46 28196.87l294.22 -286.81"/>
   <path class="fil5 str4" d="M1574.32 27909.82l297.98 288.85"/>
   <path class="fil5 str4" d="M1722.22 27566.39l-95.47 118.01"/>
   <path class="fil5 str4" d="M1722.84 27566.35l87.89 118.05"/>
  </g>
  <g id="_1804609339136">
   <path class="fil1 str1" d="M5196.81 27992.43l0 473.7 -2309.37 0 0 -473.7 2309.37 0z"/>
   <path class="fil6" d="M3964.78 28330.9l0 -202.07 40.07 0 47.79 143.04c4.42,13.31 7.62,23.28 9.64,29.91 2.31,-7.33 5.93,-18.15 10.82,-32.4l48.64 -140.55 35.79 0 0 202.07 -25.68 0 0 -169.05 -58.98 169.05 -24.09 0 -58.32 -172.15 0 172.15 -25.68 0z"/>
   <path id="1" class="fil6" d="M4297.23 28283.49l25.68 3.38c-3.99,14.91 -11.47,26.53 -22.39,34.76 -10.91,8.24 -24.83,12.37 -41.81,12.37 -21.36,0 -38.29,-6.58 -50.8,-19.75 -12.51,-13.12 -18.77,-31.61 -18.77,-55.36 0,-24.56 6.31,-43.65 18.96,-57.2 12.65,-13.59 29.07,-20.37 49.25,-20.37 19.52,0 35.46,6.64 47.83,19.95 12.37,13.31 18.58,32.03 18.58,56.16 0,1.46 -0.05,3.67 -0.14,6.58l-109.08 0c0.94,16.04 5.46,28.37 13.64,36.88 8.14,8.51 18.35,12.79 30.53,12.79 9.08,0 16.84,-2.39 23.24,-7.19 6.44,-4.8 11.52,-12.47 15.28,-23zm-81.28 -39.8l81.56 0c-1.08,-12.32 -4.23,-21.54 -9.36,-27.7 -7.85,-9.55 -18.1,-14.35 -30.66,-14.35 -11.39,0 -20.93,3.81 -28.7,11.43 -7.71,7.62 -11.99,17.83 -12.84,30.62z"/>
   <path id="2" class="fil6" d="M4354 28330.9l0 -146.47 22.3 0 0 22.43c5.69,-10.39 10.96,-17.26 15.8,-20.55 4.85,-3.34 10.16,-4.99 15.95,-4.99 8.37,0 16.89,2.64 25.54,7.86l-8.84 22.91c-6.02,-3.39 -12.04,-5.08 -18.06,-5.08 -5.41,0 -10.26,1.64 -14.54,4.89 -4.28,3.24 -7.34,7.76 -9.17,13.54 -2.78,8.8 -4.14,18.44 -4.14,28.93l0 76.53 -24.84 0z"/>
   <path id="3" class="fil6" d="M4543.94 28277.28l24.27 3.38c-2.68,16.7 -9.45,29.73 -20.41,39.19 -10.96,9.45 -24.46,14.15 -40.41,14.15 -19.99,0 -36.08,-6.53 -48.21,-19.61 -12.18,-13.08 -18.25,-31.8 -18.25,-56.16 0,-15.81 2.63,-29.59 7.85,-41.44 5.22,-11.81 13.17,-20.7 23.9,-26.58 10.68,-5.92 22.29,-8.89 34.9,-8.89 15.85,0 28.88,4 38.95,12.04 10.11,8.05 16.6,19.48 19.42,34.25l-23.99 3.67c-2.3,-9.83 -6.35,-17.22 -12.23,-22.2 -5.83,-4.94 -12.88,-7.44 -21.16,-7.44 -12.51,0 -22.67,4.47 -30.53,13.41 -7.81,8.98 -11.71,23.09 -11.71,42.47 0,19.66 3.76,33.92 11.29,42.81 7.57,8.89 17.4,13.35 29.49,13.35 9.78,0 17.92,-2.96 24.41,-8.93 6.54,-5.93 10.68,-15.1 12.42,-27.47z"/>
   <path id="4" class="fil6" d="M4685.05 28312.56c-9.22,7.85 -18.11,13.35 -26.62,16.6 -8.52,3.25 -17.64,4.84 -27.43,4.84 -16.08,0 -28.45,-3.9 -37.11,-11.75 -8.65,-7.81 -12.98,-17.83 -12.98,-30.01 0,-7.15 1.65,-13.69 4.89,-19.62 3.29,-5.93 7.57,-10.63 12.84,-14.2 5.32,-3.58 11.24,-6.31 17.88,-8.14 4.89,-1.27 12.27,-2.49 22.1,-3.72 20.04,-2.35 34.86,-5.22 44.31,-8.51 0.1,-3.39 0.14,-5.55 0.14,-6.44 0,-10.07 -2.35,-17.17 -7.05,-21.31 -6.35,-5.6 -15.81,-8.37 -28.32,-8.37 -11.71,0 -20.36,2.07 -25.92,6.16 -5.59,4.09 -9.68,11.33 -12.37,21.78l-24.27 -3.39c2.21,-10.4 5.84,-18.82 10.92,-25.21 5.08,-6.4 12.41,-11.29 22.01,-14.77 9.55,-3.44 20.7,-5.18 33.3,-5.18 12.51,0 22.72,1.46 30.57,4.42 7.81,2.97 13.6,6.64 17.27,11.11 3.67,4.46 6.25,10.11 7.76,16.93 0.8,4.23 1.22,11.85 1.22,22.81l0 32.93c0,23 0.52,37.53 1.55,43.69 0.99,6.17 3.06,12.05 6.07,17.69l-25.96 0c-2.5,-5.22 -4.1,-11.34 -4.8,-18.34zm-1.98 -55.04c-9.03,3.67 -22.57,6.78 -40.64,9.32 -10.25,1.45 -17.49,3.1 -21.73,4.93 -4.23,1.84 -7.48,4.52 -9.78,8 -2.31,3.53 -3.48,7.43 -3.48,11.76 0,6.54 2.49,12.04 7.52,16.42 5.04,4.37 12.38,6.58 22.02,6.58 9.55,0 18.06,-2.07 25.54,-6.25 7.43,-4.14 12.93,-9.84 16.41,-17.03 2.69,-5.6 4,-13.83 4,-24.7l0.14 -9.03z"/>
   <path id="5" class="fil6" d="M4800.24 28308.75l3.39 21.91c-6.96,1.46 -13.22,2.22 -18.68,2.22 -8.98,0 -15.94,-1.42 -20.93,-4.28 -4.94,-2.87 -8.42,-6.59 -10.44,-11.25 -2.02,-4.65 -3.01,-14.44 -3.01,-29.35l0 -84.38 -18.34 0 0 -19.19 18.34 0 0 -36.22 24.84 -14.91 0 51.13 24.83 0 0 19.19 -24.83 0 0 85.79c0,7.11 0.42,11.67 1.31,13.69 0.85,2.02 2.26,3.62 4.24,4.85 1.97,1.17 4.79,1.78 8.46,1.78 2.73,0 6.35,-0.33 10.82,-0.98z"/>
   <path id="6" class="fil6" d="M4815.43 28257.66c0,-27.04 7.53,-47.08 22.63,-60.11 12.56,-10.82 27.94,-16.23 46.05,-16.23 20.08,0 36.54,6.59 49.34,19.76 12.75,13.12 19.14,31.33 19.14,54.51 0,18.82 -2.82,33.59 -8.46,44.36 -5.65,10.77 -13.88,19.14 -24.7,25.12 -10.77,5.97 -22.58,8.93 -35.32,8.93 -20.51,0 -37.07,-6.53 -49.72,-19.66 -12.65,-13.12 -18.96,-32.03 -18.96,-56.68zm25.4 0.05c0,18.72 4.1,32.74 12.28,42 8.23,9.32 18.53,13.97 31,13.97 12.32,0 22.57,-4.65 30.81,-14.01 8.18,-9.36 12.27,-23.61 12.27,-42.76 0,-18.06 -4.14,-31.75 -12.37,-41.01 -8.23,-9.32 -18.48,-13.97 -30.71,-13.97 -12.47,0 -22.77,4.61 -31,13.87 -8.18,9.27 -12.28,23.24 -12.28,41.91z"/>
   <path id="7" class="fil6" d="M4981.42 28330.9l0 -146.47 22.3 0 0 22.43c5.69,-10.39 10.96,-17.26 15.8,-20.55 4.85,-3.34 10.16,-4.99 15.95,-4.99 8.37,0 16.89,2.64 25.54,7.86l-8.84 22.91c-6.02,-3.39 -12.04,-5.08 -18.06,-5.08 -5.41,0 -10.26,1.64 -14.54,4.89 -4.28,3.24 -7.34,7.76 -9.17,13.54 -2.78,8.8 -4.14,18.44 -4.14,28.93l0 76.53 -24.84 0z"/>
   <circle class="fil7 str5" cx="3105.81" cy="28225.58" r="118.79"/>
   <rect class="fil7 str5" x="3563.74" y="28117.3" width="226.91" height="226.91"/>
   <path class="fil5 str6" d="M3279.71 28224.71l220.31 0"/>
   <path class="fil5 str6" d="M3497.36 28225.37l-64.02 65.38"/>
   <path class="fil5 str6" d="M3497.53 28224.23l-63.42 -61.39"/>
  </g>
 </g>
</svg>
