<?xml version="1.0" encoding="UTF-8"?>
<!DOCTYPE svg PUBLIC "-//W3C//DTD SVG 1.1//EN" "http://www.w3.org/Graphics/SVG/1.1/DTD/svg11.dtd">
<!-- Creator: CorelDRAW -->
<svg xmlns="http://www.w3.org/2000/svg" xml:space="preserve" width="297mm" height="210mm" version="1.1" style="shape-rendering:geometricPrecision; text-rendering:geometricPrecision; image-rendering:optimizeQuality; fill-rule:evenodd; clip-rule:evenodd"
viewBox="0 0 29700 21000"
 xmlns:xlink="http://www.w3.org/1999/xlink">
 <defs>
  <style type="text/css">
   <![CDATA[
    .str2 {stroke:black;stroke-width:10;stroke-miterlimit:3.864;stroke-opacity:0.501961}
    .str1 {stroke:black;stroke-width:50;stroke-miterlimit:22.9256}
    .str5 {stroke:#434242;stroke-width:10;stroke-miterlimit:22.9256}
    .str3 {stroke:#3F3E3F;stroke-width:10;stroke-miterlimit:3.864}
    .str0 {stroke:black;stroke-width:10;stroke-miterlimit:22.9256}
    .str6 {stroke:#2B2A29;stroke-width:7.62;stroke-miterlimit:22.9256}
    .str4 {stroke:black;stroke-width:7.62;stroke-miterlimit:22.9256}
    .fil1 {fill:none}
    .fil7 {fill:#D9DADA}
    .fil0 {fill:#FEFEFE;fill-rule:nonzero}
    .fil4 {fill:#D9DADA;fill-rule:nonzero}
    .fil6 {fill:#434242;fill-rule:nonzero}
    .fil3 {fill:#2B2A29;fill-rule:nonzero}
    .fil5 {fill:black;fill-rule:nonzero}
    .fil2 {fill:#FEFEFE;fill-rule:nonzero;fill-opacity:0.501961}
   ]]>
  </style>
 </defs>
 <g id="Plan_x0020_1">
  <metadata id="CorelCorpID_0Corel-Layer"/>
  <path class="fil0 str0" d="M18281.96 4453.51c27.7,6.41 46.91,16 59.66,42.64 7.5,-16 14.94,-21.32 25.62,-34.11 14.93,-18.12 23.46,-34.11 38.41,-51.17 42.63,-46.93 77.84,-71.41 98.06,-132.2 -11.7,-3.21 -22.38,-12.79 -34.11,-8.53 -7.47,2.11 -7.47,12.79 -12.79,17.06 -17.05,14.94 -23.44,29.84 -38.38,46.89 -4.25,5.37 -12.78,4.27 -17.05,8.53 -4.26,4.27 -3.21,12.8 -8.56,17.05 -41.55,37.32 -77.81,48 -110.86,93.84zm7749.47 2685.62l0 35.2 17.02 4.26c65.09,-37.31 106.67,-52.25 170.63,-89.56 57.57,-33.06 79.98,-71.43 136.47,-106.6 39.46,-24.56 63.98,-38.4 102.4,-63.99 27.73,-18.11 37.27,-39.43 59.69,-63.95 22.4,-24.53 44.75,-31.99 68.21,-55.43 22.41,-22.41 32.03,-38.41 55.46,-59.73 37.32,-34.11 68.23,-47.99 102.37,-85.31 30.9,-34.11 76.78,-46.89 76.78,-93.8 0,-6.37 -4.27,-10.64 -4.27,-17.05 -7.46,2.11 -14.93,-4.26 -21.34,0 -54.38,39.43 -69.32,87.42 -132.22,110.85 -25.54,9.62 -44.75,9.62 -68.21,21.36 -27.77,14.9 -39.47,35.17 -68.26,46.9 -60.78,25.58 -93.83,43.69 -157.79,59.69 -100.25,24.53 -145.03,74.63 -221.78,140.74 -46.93,40.51 -68.25,74.62 -89.58,132.21 -11.72,31.99 -25.58,50.1 -25.58,84.21zm-4439.85 265.48l0 0 0 -103.42c0,-26.64 11.74,-41.58 17.06,-67.16 5.31,-27.74 -7.47,-59.69 17.02,-72.49 5.38,-2.15 11.77,-2.15 17.09,-4.26 51.19,-28.79 93.83,-16.03 140.73,-51.2 4.26,-3.17 -2.15,-11.73 0,-17.05l0 0.01c5.35,-67.17 1.1,-109.82 17.06,-174.87l0 0c-49.02,-27.69 -55.43,-72.48 -76.75,-123.65 -28.79,-71.45 -47.99,-114.08 -72.52,-187.66 -23.46,-70.37 -51.16,-107.68 -89.54,-170.55 -15.99,-25.62 -26.66,-41.61 -46.93,-63.99 -4.27,-5.32 -3.21,-13.85 -8.53,-17.06 -26.64,-18.14 -52.25,-12.82 -85.3,-12.82 -20.27,0 -31.96,9.62 -51.17,12.82 -11.73,1.06 -24.52,-6.41 -34.14,0 -5.29,3.21 -4.27,11.74 -8.53,17.06 -13.85,17.05 -23.44,30.9 -34.11,51.17 -18.14,34.14 -33.05,54.36 -55.43,85.31 -19.21,25.58 -33.08,39.42 -46.93,68.21 -9.58,19.2 -6.42,40.52 -25.58,51.17 -5.33,2.14 -11.74,-4.27 -17.05,-4.27 -11.74,1.09 -22.42,1.09 -34.11,4.27 -26.68,7.47 -40.53,23.46 -68.27,29.87 -4.29,-12.78 -10.67,-21.31 -12.82,-34.14 -3.17,-19.17 5.39,-31.96 0,-51.16 -3.17,-13.85 -21.29,-19.17 -21.29,-34.11 0,-22.37 17.02,-34.11 29.82,-51.17 18.15,-24.55 25.62,-43.73 42.67,-68.25 23.47,-31.99 57.57,-42.64 64,-81.05 6.37,-38.33 -3.22,-65.01 8.52,-102.32 14.94,-44.78 34.11,-70.36 34.11,-118.33l0 -104.51c0,-49.05 -17.05,-76.75 -42.63,-118.32 -16.01,-26.64 -26.68,-44.79 -46.91,-68.26 -13.88,-15.96 -34.14,-24.49 -34.14,-46.9 0,-7.47 7.47,-10.64 8.52,-17.06 8.53,-36.25 25.62,-56.48 25.62,-93.83 0,-29.84 -35.2,-37.31 -64.03,-42.64 -27.69,-5.31 -43.68,-12.78 -68.18,-25.58 -33.09,-17.05 -49.08,-40.52 -85.34,-51.16 -30.9,-8.53 -52.26,-2.15 -85.28,0 -49.08,3.21 -72.51,-25.58 -119.45,-38.4 -19.17,-5.33 -30.9,-5.33 -51.16,-8.5 -33.02,-5.36 -53.32,6.38 -85.31,0 -33.05,-6.42 -42.64,-42.67 -76.74,-42.67 -27.77,0 -42.64,10.64 -68.26,21.31 -27.7,10.68 -46.9,22.42 -63.96,46.91 -27.72,40.52 -24.56,74.63 -46.93,119.42 38.37,15.99 65.05,15.99 102.37,34.14 -37.32,37.28 -64,63.95 -115.16,76.75 -14.94,14.93 -17.06,35.16 -17.06,56.51l0 134.33c0,40.52 0,65.04 -12.78,103.42 -36.26,-2.15 -66.11,-4.27 -85.31,-34.11 -29.85,-44.79 -25.62,-82.11 -25.62,-136.47l-41.58 0c-20.22,0 -25.59,21.31 -35.16,38.37 -10.65,19.2 -20.27,31.99 -29.85,51.16 -20.27,41.58 -37.32,68.25 -76.78,93.84 -11.74,7.46 -25.58,6.37 -34.11,17.05 -16,19.21 -8.53,42.67 -12.8,68.22 -4.26,26.67 -9.57,43.73 -21.31,68.25 -8.56,18.11 -21.36,29.85 -21.36,51.16 0,7.48 8.53,9.59 8.53,17.06 4.27,40.53 12.83,62.9 12.83,103.42l0 83.16c0,71.46 -38.41,108.78 -38.41,180.17 0,65.04 30.94,97.03 38.41,162.09 8.53,69.27 2.12,121.53 51.16,170.58 28.79,28.79 52.26,40.48 76.75,72.48 45.88,59.73 33.08,114.09 51.23,187.64 7.4,33.05 21.29,52.25 21.29,86.36l0 104.48c0,46.93 -9.59,73.57 -12.76,120.48 -1.13,21.31 2.12,34.11 0,55.45 -3.25,34.11 -17.09,51.17 -21.35,85.28 -4.27,40.52 -12.8,62.9 -21.32,102.36 -6.41,27.7 -4.26,45.84 -12.82,72.48 -15.97,49.05 -34.08,74.63 -59.7,119.42 -10.67,19.17 -14.94,33.05 -25.59,51.2 -22.37,36.23 -50.1,44.75 -85.3,68.22 -62.89,42.63 -103.42,76.74 -179.11,76.74 -26.68,0 -40.52,-18.11 -59.73,-34.11 -41.57,-35.2 -56.48,-68.25 -85.3,-115.15 -27.74,-44.78 -47.99,-70.36 -68.22,-119.39 -12.79,-30.93 -29.88,-50.14 -29.88,-84.24l0 -121.54c0,-53.3 0,-82.09 -4.27,-135.41 -5.31,-66.07 -52.22,-92.74 -76.78,-153.49 -4.26,-11.74 -3.17,-22.41 -4.26,-34.14 -4.26,-25.59 -8.5,-42.64 -12.75,-68.22 -11.78,-72.52 -29.89,-114.1 -29.89,-187.64 0,-56.52 24.53,-84.22 46.9,-136.47 6.41,-16 17.09,-24.53 17.09,-42.67 0,-24.5 -8.52,-37.28 -17.09,-59.7 -7.43,-31.96 -12.76,-60.77 -12.76,-93.8 0,-56.51 17.06,-89.56 38.38,-140.73 10.68,-25.58 25.58,-39.47 25.58,-68.25 0,-34.11 -17.05,-51.16 -17.05,-85.27 0,-54.38 19.17,-85.31 34.11,-136.48 17.05,-59.73 27.73,-95.95 51.2,-153.53 5.31,-12.78 13.84,-20.25 17.05,-34.11 11.74,-41.58 -2.12,-69.31 8.53,-110.89 1.06,-7.47 11.74,-9.58 12.79,-17.05 5.32,-19.21 3.2,-30.94 4.26,-51.2 -49.04,20.26 -89.57,31.99 -110.89,81.05 -22.37,52.26 -17.05,88.47 -46.9,136.47 -6.41,11.73 -11.73,23.46 -21.31,34.11 -9.63,10.68 -24.53,10.68 -34.15,21.31 -19.21,21.36 -22.38,43.73 -38.41,68.25 -37.28,55.44 -58.63,93.81 -119.38,123.65l0 -35.16c0,-46.9 11.73,-74.63 25.58,-118.36 8.56,-25.58 10.68,-43.7 21.36,-68.22 18.11,-41.58 42.63,-63.96 42.63,-109.79l0 -78.9c0,-49.05 23.43,-76.78 46.9,-118.36 30.94,-53.31 44.79,-85.27 72.48,-140.74 20.3,-40.52 32.03,-63.96 55.46,-102.33 10.65,-18.14 22.38,-29.88 25.59,-51.19 7.47,-45.85 -7.48,-72.49 0,-119.42l17.09 4.26c10.64,27.73 8.53,55.47 34.11,72.52 17.06,10.68 30.9,14.94 51.2,21.31 10.6,-45.83 47.95,-72.47 94.86,-72.47 6.41,0 9.57,4.26 15.99,4.26 -2.15,12.79 -3.21,23.43 -8.49,34.1 -6.42,12.8 -21.36,19.21 -21.36,34.11 0,26.64 17.09,41.58 38.38,55.47 25.62,-39.47 39.46,-66.1 63.99,-106.63 12.79,-21.31 29.85,-29.84 42.67,-51.16 19.2,-30.94 34.07,-55.46 68.22,-68.26 11.73,-4.26 22.41,0 34.1,-4.26 21.33,-7.46 32.01,-22.38 51.2,-34.1 42.64,-26.68 66.11,-44.79 102.34,-81.05 18.14,-18.12 28.82,-28.76 46.93,-46.91 5.32,-5.31 3.21,-13.84 8.56,-17.05 15.96,-10.67 30.87,-8.53 51.17,-8.53 53.28,0 84.21,8.53 136.47,17.05 6.38,1.06 10.64,7.48 17.05,8.53 25.58,5.33 43.69,4.27 68.25,12.8 29.85,10.68 36.26,46.9 68.22,46.9 14.95,0 19.21,-17.05 25.62,-29.85 9.58,-17.05 9.58,-31.99 12.76,-51.16 3.24,-19.17 8.53,-30.9 8.53,-51.16l46.93 0 123.68 42.63c18.15,-11.74 28.79,-22.37 42.67,-38.41 10.65,-11.69 21.29,-21.31 21.29,-38.33 0,-17.09 -19.17,-19.21 -34.07,-25.62 -20.3,-8.53 -32.04,-14.9 -51.2,-25.58 -40.53,-22.38 -46.94,-58.63 -85.28,-85.31 -6.41,-4.27 -4.26,-17.02 -12.83,-17.02 -13.84,0 -21.32,8.49 -34.1,12.75 -19.21,6.42 -33.05,6.42 -51.2,12.83 -54.41,20.22 -86.37,42.64 -145,42.64 -32,0 -48,-19.21 -72.49,-38.38 -21.35,-17.09 -46.93,-26.67 -46.93,-54.36l0 -104.52c0,-20.23 9.59,-31.96 17.06,-50.1l-17.06 4.26c-56.52,27.73 -83.16,53.31 -140.77,76.78 -30.9,11.74 -53.28,13.85 -85.27,25.58 -41.58,14.9 -60.79,37.32 -102.37,51.2 -60.78,20.23 -102.36,27.7 -153.52,68.22 -19.21,14.91 -23.48,33.05 -38.41,51.16 -20.26,23.47 -40.49,32 -68.26,46.9 -22.33,11.74 -34.07,25.59 -59.69,34.15l-145 -38.41 -85.3 21.35c-68.26,-10.68 -104.48,-43.73 -149.27,-93.83 -14.94,-17.06 -23.47,-30.91 -42.64,-42.64 -65.07,-40.53 -110.92,-50.1 -187.7,-59.72 -17.02,-2.12 -25.55,-8.53 -42.6,-8.53 -43.73,0 -54.38,41.58 -93.87,59.69 -6.38,2.15 -12.8,-1.06 -19.17,0 -1.1,-20.23 0,-31.97 0,-52.22 0,-53.32 3.17,-88.48 27.73,-135.41 9.59,-19.17 31.96,-20.23 51.16,-29.85 37.32,-18.12 56.48,-36.26 81.05,-68.22 18.11,-23.47 19.2,-42.64 34.11,-68.22 13.88,-24.56 23.43,-39.46 25.58,-68.25l-33.06 0c-7.43,0 -11.72,7.47 -18.1,8.52 -33.1,9.59 -52.26,20.27 -85.32,29.85 -25.61,7.47 -42.63,10.67 -68.25,21.32 -71.42,30.93 -97,76.78 -157.78,123.68 -11.74,8.53 -22.42,12.79 -34.11,21.32 -40.53,28.79 -51.2,60.78 -81.05,102.36 -4.26,6.41 -13.85,6.41 -17.06,12.79 -3.2,5.32 -2.15,12.79 -4.26,17.06 -40.52,58.63 -116.21,45.83 -144.99,110.89 -18.15,40.48 -33.1,74.63 -76.79,85.27 -25.62,6.41 -43.69,-9.59 -68.26,0 -13.84,5.32 -20.25,16 -29.84,25.62 -28.79,28.75 -43.73,52.22 -72.52,81 -17.05,17.05 -24.49,36.26 -46.89,42.65 -11.74,3.2 -22.42,2.14 -34.11,4.26 -54.41,12.79 -85.34,29.88 -140.78,38.37 -63.95,10.67 -108.73,-14.91 -167.4,12.82l0 -121.56c0,-13.85 5.35,-23.43 1.08,-36.23 -4.26,-13.88 -13.84,-21.31 -21.31,-34.14 -75.72,37.31 -130.1,35.2 -204.76,72.52 -76.71,38.36 -127.94,59.69 -214.31,59.69 -22.35,0 -36.23,-3.21 -58.64,0l0 -34.11c16,-27.73 33.09,-37.32 55.47,-59.69 29.85,-29.89 39.46,-52.26 72.48,-76.78 4.26,-3.18 12.79,-2.12 17.06,-4.27 13.88,-9.59 13.88,-22.37 25.61,-34.11 33.05,-33.05 56.52,-52.26 85.31,-89.53 43.7,-56.53 50.11,-105.57 102.36,-153.56 36.26,-33.03 58.63,-55.43 85.27,-98.07 14.94,-24.52 19.21,-46.94 42.68,-63.99 11.7,-8.53 21.34,-10.64 34.11,-17.06 34.14,-19.16 51.16,-36.21 85.3,-55.42 55.43,-31.99 93.84,-42.64 153.53,-68.25 14.94,-6.38 19.2,-18.12 34.14,-25.58 58.16,-28.58 83.48,-63.55 129.14,-104.92l0 0 -274.14 -35.82c-33.09,2.16 -54.41,2.16 -85.31,12.8 -31.99,11.73 -51.16,25.58 -85.31,25.58 -39.46,0 -49.08,-42.64 -85.31,-55.43 -18.11,-6.41 -30.94,-2.15 -51.16,-4.26 -12.79,-1.06 -21.32,-8.53 -34.14,-8.53 -17.06,0 -21.33,16 -34.11,25.58 -38.38,28.79 -61.81,59.73 -110.89,59.73 -32,0 -51.16,-10.68 -76.78,-29.89 -12.8,-9.58 -11.74,-25.58 -25.55,-34.1 -23.47,-14.94 -41.62,-14.94 -68.3,-21.32 -34.1,-8.52 -55.42,-13.85 -85.27,-29.85 -14.94,-7.47 -18.1,-26.67 -34.11,-29.87 -28.81,-6.39 -46.93,-4.27 -76.78,-4.27 -34.11,0 -41.61,36.29 -59.69,63.99 -26.67,-21.32 -30.93,-44.79 -42.67,-76.74 -13.84,-39.47 -15.25,-80.52 -40.3,-127.49 -53.67,-8.59 -99.28,37.87 -144.23,52.07 -49.06,15.51 -97.49,31.15 -149.38,20.48 -15.12,-3.11 -47.51,-14.48 -58.17,-25.21 -9.36,0 -3.22,-3.2 -16.5,1.73 -20.27,6.38 -29.64,9.09 -47.79,18.71 -12.79,7.44 -19.16,21.32 -34.11,21.32 -26.67,0 -36.22,-25.62 -51.16,-46.94 -12.79,-18.11 -30.94,-23.47 -51.2,-29.84 -30.9,-9.59 -53.32,-5.32 -85.27,-12.8 -23.47,-5.32 -35.21,-17.05 -59.73,-17.05 -43.73,0 -67.19,25.58 -110.89,25.58 -39.46,0 -69.34,-22.44 -91.21,-64.72 -28.06,-45.93 -47.14,-88.98 -61.42,-132.32 -11.77,-35.76 -32.23,-95.09 -55.82,-123.68 -13.24,-16.03 -28.56,-43.36 -45.6,-53.57 -3.13,0 -5.6,0.46 -8.64,0.79 -36.15,28.18 -41.4,67.97 -58.97,107.92 -10.75,24.42 -16.86,73.67 -32.23,92.96 -0.54,4.44 -4.35,16.27 -7.07,19.69 -0.51,4.16 -4.53,12.73 -5.86,16.46 -3858.74,282.01 -7676.44,-202.11 -11449.95,-1449.67l0 0c13.94,13.13 31.67,24.77 45.42,42.34 21.29,27.74 22.38,53.35 38.38,85.31 31.95,64 93.83,86.37 93.83,157.8 0,23.46 -7.47,42.67 -25.61,55.45 -17.06,11.7 -42.64,12.76 -42.64,34.11 0,58.64 42.64,86.33 42.64,145 0,17.03 -10.65,25.59 -8.53,42.65 0,4.25 7.47,4.25 7.47,8.52 0,9.58 -5.32,17.06 -3.21,25.58 10.68,37.31 38.41,54.37 38.41,93.84 0,24.52 -11.74,39.43 -25.62,59.69 -8.52,13.88 -11.74,26.68 -25.58,34.11 -18.11,10.67 -34.11,4.26 -51.16,17.05 -38.38,28.79 -42.64,70.37 -42.64,119.42 0,17.05 8.53,25.62 8.53,42.64 0,23.46 -7.51,37.35 -12.8,59.72 -4.26,20.23 -3.2,36.26 -17.09,51.16 -19.19,21.33 -43.73,23.43 -68.21,38.38 -28.82,17.09 -36.27,45.84 -68.26,55.46 -35.2,10.64 -56.48,21.32 -93.83,21.32 -46.9,0 -71.43,-29.88 -102.36,-63.96l0 -115.15c55.46,3.17 85.3,29.85 140.73,29.85 20.26,0 34.15,4.25 51.2,-4.27 24.49,-12.79 27.69,-38.37 38.37,-63.99 16,-38.37 27.73,-60.75 34.15,-102.32 -49.09,-20.27 -74.63,-34.11 -119.46,-64 21.36,-24.49 33.09,-44.75 59.73,-63.95 38.38,-28.79 70.4,-43.69 85.27,-89.57 -35.17,0 -61.81,-4.26 -85.27,-29.84 -4.26,-5.33 -13.84,-6.39 -17.06,-12.8 -22.4,-37.32 -38.4,-66.1 -81.03,-76.74 -78.9,-19.21 -111.95,-66.11 -187.68,-93.84 -24.49,-8.53 -42.64,-9.58 -68.22,-17.05 -38.37,-10.68 -56.52,-33.05 -89.53,-55.44 -37.36,-25.58 -62.97,-38.36 -102.4,-59.72 -29.85,-16 -36.26,-40.49 -59.69,-63.95 -17.05,-17.09 -28.79,-26.68 -46.94,-42.64 -23.43,23.43 -34.11,40.49 -51.16,68.22 -17.09,28.78 -42.64,42.64 -42.64,76.78 0,97.01 38.38,150.32 38.38,247.33 0,54.37 -17.09,86.36 -17.09,140.74 0,56.48 10.67,90.62 21.35,144.99 4.27,22.37 12.79,36.23 12.79,59.69 0,43.73 -11.73,69.32 -25.58,110.89 19.16,9.59 30.9,10.68 51.16,17.06 13.85,4.26 34.11,6.41 34.11,21.32 0,13.84 -12.79,20.26 -21.32,29.84 -23.25,26.16 -58.97,60.37 -63.95,85.31 2.11,35.17 8.53,58.63 29.84,85.27 16,20.27 38.38,28.83 38.38,55.43 0,11.73 -10.68,16.03 -17.06,25.62 -22.38,31.99 -50.11,51.16 -89.54,51.16 -1.09,20.26 3.18,32 0,51.17 -2.15,13.88 -17.09,19.2 -17.09,34.14 0,21.31 20.27,28.76 38.38,38.37 19.2,10.68 33.09,13.85 51.2,25.58 34.11,22.38 43.69,48 68.25,81.05l8.53 17.05c-62.9,-30.93 -111.98,-20.26 -174.88,-51.16 -18.15,37.28 -17.06,65.01 -34.15,102.33 -20.23,45.84 -37.28,72.48 -42.63,123.68 -2.12,20.26 6.41,30.94 4.25,51.16 -4.25,35.21 -25.58,50.14 -29.84,85.31 -2.11,20.26 2.12,33.05 -4.23,51.17 -5.39,15.99 -22.41,18.11 -25.62,34.14 -4.25,20.23 -3.2,35.17 -8.52,55.42 -11.73,38.38 -38.41,51.16 -59.69,85.28 -42.67,68.26 -66.1,111.95 -93.84,187.64 -7.47,20.25 -18.15,30.93 -25.62,51.2 -28.74,77.84 -27.69,127.9 -59.69,204.69 -35.16,85.3 -73.57,125.79 -115.14,208.95 -12.8,26.68 -32.01,37.31 -42.67,63.99 -4.27,11.73 -1.06,22.38 -4.27,34.11 -13.88,41.57 -28.76,63.95 -51.17,102.36 -23.46,40.49 -34.14,68.22 -68.25,102.32 -24.52,24.54 -49.01,33.06 -63.96,63.96 -3.2,7.47 -12.78,8.57 -12.78,17.09 0,17.06 8.52,25.58 8.52,42.64 0,33.05 -17.09,52.22 -38.41,76.78 -37.31,42.6 -57.57,68.22 -81.04,119.38 -11.74,25.58 -25.55,39.44 -25.55,68.25 0,33.02 12.79,52.23 12.79,85.28 0,49.05 -8.53,77.83 -25.62,123.68 -6.37,19.17 -17.05,30.9 -21.31,51.16 -17.09,69.32 -17.09,111.95 -17.09,183.42 0,36.21 21.35,55.42 21.35,91.64 0,19.21 -12.79,27.74 -21.35,44.79 -12.76,26.68 -21.29,45.84 -21.29,75.69 0,23.46 8.53,41.58 8.53,65.04 6.38,56.49 17.05,88.52 17.05,145.01 0,73.57 -43.73,108.74 -63.98,179.11 -8.53,31.99 -14.91,51.16 -17.02,85.27 -2.15,26.67 5.28,42.67 0,68.25 -4.27,22.37 -19.21,34.11 -34.14,51.2 -32.01,37.28 -58.65,54.37 -93.84,89.53 -29.85,29.85 -39.43,52.26 -68.26,81.01 -18.1,18.15 -42.64,28.8 -42.64,55.47 0,16 8.53,25.58 8.53,41.58l0 155.64c0,13.88 16.01,16 25.58,24.52 23.48,21.32 35.2,37.31 51.2,63.99 22.38,36.22 34.12,61.81 46.9,102.32 21.36,66.12 21.36,108.75 21.36,179.12 0,43.73 -4.27,68.25 -12.79,110.89 -2.15,11.73 -1.1,22.41 -4.3,34.11 -11.73,36.26 -29.85,55.46 -29.85,93.83 0,17.06 8.53,25.59 8.53,42.64 0,9.59 -6.41,16 -6.41,25.58 0,23.47 5.35,38.41 -2.12,59.73 -12.79,34.11 -34.11,49.01 -34.11,85.27 0,20.27 7.47,31.99 12.79,51.2 10.64,38.38 13.85,61.84 17.05,102.33 4.27,54.37 -5.35,100.21 34.12,136.47 33.05,29.85 43.72,57.58 63.99,98.1 31.99,65.01 59.69,105.54 59.69,179.11 0,37.32 -4.26,59.69 -17.06,93.8 -6.37,17.09 -17.05,24.52 -17.05,42.67 0,56.49 51.2,74.59 76.78,123.65 15.96,30.93 31.96,52.25 63.99,68.25 12.79,6.38 19.18,17.05 34.08,17.05 17.09,0 22.4,-14.93 34.14,-25.58 29.84,-27.73 43.7,-48 68.26,-81.01 6.37,41.54 -9.63,66.08 0,106.59 6.37,27.74 19.2,40.49 25.58,68.22l-8.53 34.11c8.53,25.62 14.94,41.58 17.05,68.25 -28.79,-28.79 -53.31,-37.31 -89.57,-55.46l-38.37 204.73c8.53,53.31 1.06,86.37 17.05,136.47 14.94,46.9 35.21,75.69 51.17,123.64 37.34,41.62 61.84,67.21 110.92,93.84 49.01,26.67 89.58,58.64 89.58,115.15 0,54.38 -68.3,55.44 -93.88,102.33 -21.31,38.41 -34.11,66.1 -34.11,110.89 0,40.53 27.73,58.63 46.94,93.8 40.48,73.58 69.31,113.01 98.07,191.94 15.99,44.75 26.66,72.48 34.14,119.38 8.53,53.31 -1.09,100.24 38.37,136.47 45.85,42.64 71.43,72.52 102.36,127.94 7.47,14.95 18.11,19.21 25.58,34.11 18.12,36.26 20.27,61.88 21.33,102.36 1.05,37.32 23.46,56.53 51.19,81.05 14.94,12.8 30.9,22.37 34.11,42.64 1.06,11.74 -4.26,21.32 -4.26,34.11 -1.1,33.05 6.38,52.22 8.52,85.31l-42.63 268.64c0,54.41 30.9,93.84 81.05,115.16 19.17,7.47 31.95,10.63 51.16,17.06 63.95,23.46 90.62,59.72 153.52,85.3 38.38,16 62.9,19.2 102.37,29.81 26.64,7.5 40.52,18.18 68.25,25.61 21.32,5.33 37.32,1.06 55.43,12.8 33.09,21.35 38.37,49.05 59.73,81.04 40.52,60.78 63.95,97.01 119.38,144.96l51.2 42.67c5.35,4.27 12.82,3.18 17.09,8.53 25.54,27.73 38.36,50.12 72.48,63.96 57.58,23.47 93.84,31.99 153.53,51.2 12.78,4.27 24.52,4.27 34.14,12.79 9.59,8.5 9.59,21.32 12.79,34.11 8.52,30.94 8.52,52.23 8.52,85.31 0,37.27 30.91,54.36 59.7,76.75 44.78,35.2 84.24,38.36 136.47,59.72 51.19,21.28 82.14,47.95 106.66,98.06 15.96,31.97 22.37,54.37 38.38,85.27 22.37,41.63 45.84,60.79 68.22,102.37 28.81,54.37 31.99,93.8 51.2,153.53 21.31,63.95 40.52,106.58 29.84,174.87 -8.53,26.64 -18.15,43.7 -21.28,72.45 6.34,1.1 9.55,8.57 17.02,8.57 18.15,2.11 28.78,-6.41 46.93,-8.57 7.47,46.93 0,73.57 0,120.51 0,15.32 0.11,28.77 0.6,41.48l0 0c25.62,8.53 45.23,5.39 71.91,8.63 26.64,3.18 42.63,11.7 68.25,17.02 66.1,12.83 104.44,21.36 170.54,34.15 65.08,12.76 103.46,18.14 170.62,25.58 56.52,6.37 88.52,21.32 145,21.32 94.92,0 148.2,18.15 243.13,25.62 46.91,3.16 73.57,5.28 119.38,12.78 39.5,6.38 62.97,10.65 102.4,17.02 53.28,8.57 82.11,17.09 136.47,25.62 2.12,33.01 9.59,53.31 17.06,85.27l1889.4 1117.32 1590.83 179.12 25.58 -298.53 904.88 72.58c28.74,16.16 49.76,29.48 67.56,55.37 28.64,41.69 24.56,83.14 63.96,115.15 45.89,37.28 89.37,31.17 136.47,68.22 32.87,25.87 30.55,60.87 38.42,102.33 8.11,42.73 11.74,70.4 34.1,106.66 8.53,13.83 20.27,17.03 34.11,25.55 41.57,25.61 60.74,47.04 102.37,72.51 48.97,29.98 68.09,65.36 119.41,93.84 44.61,24.78 86.56,31.88 110.89,76.74 16.14,29.76 12.9,53.3 21.31,85.32 7.57,28.74 27.92,41.5 42.64,68.22 14.05,25.51 21.12,41.7 34.14,68.25 43.44,88.56 82.01,139.69 89.58,238.8 2.03,26.67 -5.29,42.64 0,68.25 7.48,36.25 28.62,53.4 46.91,85.27 19,33.15 26.67,56.54 55.45,81.05 42.62,36.25 77.75,49.07 110.89,93.8 30.83,41.62 32.2,84.95 76.78,110.89 47.1,27.39 85.28,23.49 136.47,42.67 34.1,12.76 54.69,26.19 85.32,46.86 90.92,61.42 136.26,111.48 238.83,149.27 18.95,6.98 29.87,15.75 51.17,17.09 12.79,0.8 27.65,5.24 34.14,-4.26 7.33,-10.73 6.23,-22.48 12.79,-34.16 22.21,-39.5 68.11,-31.12 110.85,-51.12 41.48,-19.41 27.81,-68.28 51.2,-106.66 29.87,-48.98 69.8,-62.55 102.37,-110.85 2.65,-3.94 0.29,-13.56 4.26,-17.09 15.23,-13.52 32.18,-10.13 51.16,-17.02 63.08,-22.95 99.19,-33.13 145,-81.05 24.53,-25.67 50.14,-34.15 86.4,-34.15 36.25,0 72.5,0 108.75,0 62.93,0 94.87,25.74 154.58,42.64 60.78,17.19 106.52,21.51 149.29,68.29 25.43,27.83 30.97,54.34 51.2,85.27 18.12,27.68 39.53,38.36 59.69,63.96 19.28,24.49 24.53,45.9 46.91,68.25 29.85,29.84 44.9,44.31 81.04,63.95 25.47,13.86 42.48,27.86 59.69,51.18 33.94,45.97 52.12,73.68 81.08,123.67 37.14,64.09 57.56,103.49 85.27,170.62 20.23,49.03 32.18,76.63 64,119.41 30,40.37 63.91,53.3 93.8,93.8 33.02,44.78 51.23,71.44 81.04,119.39 29.86,47.98 55.89,71.2 85.3,119.42 12.18,19.97 21.39,34.13 38.42,51.16 53.32,53.29 120.56,50.11 157.76,115.19 13.95,24.43 20.9,41.7 29.87,68.18 12.34,36.44 22.2,57.71 34.11,93.83 23.23,70.44 22.45,116.23 42.67,187.68 13.87,49 29.21,76.45 55.43,119.38 12.17,19.95 27.87,29.83 38.41,51.17 29.97,60.71 19.97,105.62 38.37,170.58 19.95,70.44 77.81,91.82 145,119.41 52.17,21.42 85.31,34.18 136.47,59.73 12.78,6.38 21.52,15.63 34.15,21.32 60.89,27.35 108.63,-0.81 170.61,25.55 30.79,13.08 38.35,40.55 68.22,55.46 36.22,18.09 61.85,18.11 102.33,21.35 39.49,3.15 62.98,5.31 102.39,8.5 26.63,2.15 43.84,-0.37 68.23,8.52 66.23,24.17 93.04,97 162.09,81.04 59.46,-13.75 118.5,-29.05 177.98,-42.82l0 0c-4.36,-15.3 -7.4,-31.79 -7.4,-50.98 -37.32,0 -71.46,11.7 -93.8,-17.06 -10.68,-14.94 0,-30.93 0,-50.1l0 -87.43c0,-34.11 -14.94,-52.26 -25.62,-84.25 -12.79,-26.67 -29.88,-50.1 -42.63,-76.78 -18.15,-36.22 -18.15,-62.9 -25.62,-102.32 -6.39,-33.05 -6.39,-53.32 -17.05,-85.28 -8.5,-26.67 -25.59,-39.47 -25.59,-68.25 0,-9.59 11.7,-10.64 17.09,-17.05 20.22,-23.48 36.22,-41.62 36.22,-73.58l0 -135.42c-12.79,8.57 -21.31,12.83 -36.22,12.83 -35.2,0 -72.55,-20.22 -72.55,-55.46 0,-29.82 29.88,-51.17 59.76,-51.17 12.79,0 21.29,8.57 34.07,8.57 11.74,0 18.15,-4.31 29.89,-6.41l0 23.43c-2.16,-16 -4.27,-25.59 -4.27,-41.58 0,-30.95 10.68,-49.02 21.29,-77.84 14.93,-41.54 22.4,-66.1 29.87,-110.85 -10.68,8.52 -19.21,21.27 -34.14,21.27 -17.02,0 -27.7,-14.9 -34.08,-29.8 -5.35,-12.8 -12.82,-20.3 -12.82,-34.11 0,-19.21 24.56,-20.27 42.67,-25.62 9.62,-2.11 14.91,-8.52 25.59,-8.52 10.63,0 14.93,8.52 25.58,8.52 19.2,0 19.2,-25.58 25.61,-42.63 10.68,-26.68 25.55,-41.59 38.37,-68.22 -17.09,-4.27 -38.37,-7.48 -38.37,-25.62 0,-14.95 10.68,-21.32 17.06,-34.11 9.58,-19.17 15.96,-30.94 25.58,-51.17 23.47,17.09 36.23,34.12 51.16,59.74 12.79,-21.36 17.06,-35.21 29.88,-55.47 23.47,-36.26 54.37,-41.58 85.31,-72.49 28.79,-28.82 42.64,-53.3 81.01,-72.51l-46.93 0 0 -33.02c0,-29.88 28.82,-41.61 55.49,-52.29l29.82 0c1.05,20.26 1.05,30.94 0,51.17 58.67,-34.08 88.51,-63.93 153.56,-85.28 -39.44,-21.32 -43.73,-60.75 -46.91,-106.59l17.06 -4.26c14.9,9.55 24.49,21.31 42.63,21.31 17.06,0 28.8,-4.26 42.64,-12.78 13.85,-8.53 17.05,-25.58 34.14,-25.58 22.39,0 30.91,18.07 51.17,25.58 24.52,8.52 41.59,8.52 68.22,8.52 46.94,0 73.58,-6.38 119.46,-17.05 34.11,-8.53 57.57,-8.53 85.3,-29.89 27.69,-21.31 36.22,-43.69 63.95,-63.95 34.11,-25.58 59.73,-34.1 85.31,-68.25 9.59,-12.79 10.68,-24.5 17.06,-38.34 13.85,-27.73 30.94,-41.61 46.94,-68.25 15.99,-25.62 24.52,-44.79 42.63,-68.26 14.9,-19.13 28.78,-26.64 46.93,-42.63 4.27,-3.18 13.82,0 17.02,-4.27 3.21,-4.26 1.06,-11.73 4.27,-17.06 14.94,-22.37 19.21,-40.48 21.35,-68.21 2.11,-33.05 8.53,-52.26 8.53,-85.31 0,-27.73 -8.53,-44.79 -21.35,-68.22 11.73,-3.21 22.4,-4.26 34.14,-8.53 8.49,-3.21 10.64,-11.73 17.02,-17.09 36.3,-33.01 46.93,-66.06 93.87,-89.54 -3.21,18.12 -8.56,29.85 -8.56,49.06 0,17.02 -7.47,33.05 4.27,44.79 16.03,15.99 35.19,14.9 51.19,29.84 14.91,13.84 17.06,29.85 17.06,51.16 0,26.64 -23.44,38.38 -42.64,55.47 33.05,-7.47 53.31,-6.42 85.31,-17.09 62.89,-20.23 97.04,-45.85 153.53,-81.01 43.73,-26.64 75.72,-32 123.67,-51.2 70.37,-28.76 109.84,-45.81 183.41,-63.96 81.02,-20.26 127.95,-22.41 208.99,-38.37 28.79,-5.32 46.9,-17.05 76.78,-17.05 24.49,0 37.28,12.78 59.7,21.31 50.1,20.23 83.15,25.62 136.47,34.11 29.87,4.27 46.9,21.32 77.83,21.32 114.07,0 179.15,-1.06 293.21,-1.06 -4.27,-17.05 -8.53,-27.73 -8.53,-45.84 0,-17.06 -5.32,-29.84 4.26,-42.68 7.47,-9.54 22.42,-5.28 34.15,-8.52 7.47,-2.11 9.55,-9.54 17.05,-12.75 34.11,-19.21 41.58,-64 81.01,-64 14.94,0 21.35,14.95 34.15,21.36 24.52,11.7 42.67,12.75 68.22,21.28 17.09,-2.11 25.61,-8.53 42.63,-8.53 10.68,0 12.83,10.68 21.36,17.09 12.79,9.59 20.26,17.02 34.11,25.55 41.58,27.73 68.25,46.94 119.42,55.46 3.2,-9.58 8.52,-14.9 8.52,-25.58 0,-18.14 -10.64,-25.61 -17.05,-42.63 -4.27,-11.74 -4.27,-22.41 -8.53,-34.15 -17.09,-40.48 -52.26,-47.96 -72.52,-85.3 -20.23,-36.23 -20.23,-60.75 -29.84,-102.33l17.09 -4.27c23.43,21.32 35.17,38.41 63.95,51.2 25.58,11.7 46.9,10.68 68.25,29.85 26.64,23.43 34.11,49.01 38.38,85.31 7.47,59.69 -7.47,93.8 0,153.49 2.12,17.05 6.37,25.61 8.53,42.63l-21.33 115.16c32.01,18.15 53.32,29.84 85.28,46.93 39.47,21.32 56.52,55.43 102.39,55.43 13.86,0 21.29,-7.47 34.08,-12.79 20.3,-7.47 35.2,-17.06 46.94,-34.11 17.09,-23.47 22.37,-55.46 52.25,-55.46 39.43,0 60.75,4.26 100.25,4.26 37.28,0 49.02,42.67 86.33,42.67 14.94,0 22.38,-13.88 34.11,-21.35 18.15,-11.7 32.04,-20.23 51.23,-29.85 30.91,-14.9 63.93,-28.79 63.93,-63.95 0,-60.78 -13.86,-94.89 -25.59,-153.53 -2.11,-11.69 0,-25.62 -8.52,-34.11 -8.53,-8.53 -22.38,-5.35 -34.08,-8.53 -13.89,-4.29 -21.35,-10.67 -34.14,-17.09 -19.21,-9.58 -46.94,-11.73 -46.94,-34.11 0,-8.52 11.77,-9.58 12.8,-17.05l17.05 -68.22c21.35,5.33 32.03,16 51.23,25.58 19.14,9.62 41.55,10.65 51.17,29.85 12.78,25.58 14.9,44.79 29.8,68.22 18.15,27.7 41.62,36.26 68.29,55.46 25.55,19.17 40.49,33.06 68.18,46.94 64.03,31.95 108.79,38.34 170.63,72.45 57.61,31.99 72.51,75.72 110.92,127.94 34.08,-18.11 44.75,-44.75 72.48,-72.48 14.95,-14.91 25.62,-26.64 34.14,-46.93 7.44,-18.08 21.33,-26.61 21.33,-46.91 0,-19.21 -16.04,-27.7 -25.59,-42.64 -31.99,-47.95 -62.93,-77.83 -119.45,-89.57 -11.74,-2.11 -21.32,1.09 -34.11,0 -36.26,-4.26 -52.25,-19.16 -85.27,-34.07 -19.21,-8.57 -42.67,-12.83 -42.67,-34.15 0,-28.78 21.31,-40.52 21.31,-69.31l0 -79.95c26.68,0 42.64,-7.43 68.26,-12.79 40.52,-7.47 66.1,-9.59 102.36,-29.84 6.37,-3.21 4.23,-11.74 8.49,-17.06 -22.37,-29.85 -29.84,-58.64 -63.91,-72.52 -11.78,-4.26 -22.42,-4.26 -34.15,-8.53 -14.95,-6.37 -17.05,-29.84 -34.14,-29.84 -24.5,0 -34.11,19.2 -55.43,29.84 -44.79,23.43 -73.57,38.38 -124.74,38.38l-50.11 0c7.44,-23.47 21.32,-35.16 21.32,-59.69 0,-17.02 5.32,-34.11 -8.56,-42.63 -24.53,-14.95 -42.64,-19.21 -68.22,-34.16 -9.62,20.27 -20.23,30.95 -34.14,46.94 -14.91,17.09 -23.43,42.64 -47.97,42.64l-104.47 0c-47.99,0 -85.31,-18.12 -107.72,-59.69 -22.37,-42.67 -65.01,-57.58 -68.22,-106.63 39.46,-3.2 65.01,2.15 102.36,-8.53 22.39,-6.38 31.96,-22.37 51.17,-34.11 18.15,-10.67 33.08,-18.11 51.16,-29.84 24.56,24.52 48,30.9 81.05,42.64 38.4,13.84 61.84,24.52 102.36,34.14 65.04,15.96 99.19,42.64 166.36,42.64 24.49,0 39.42,-13.88 59.69,-25.62 33.05,-19.17 46.89,-40.48 76.78,-63.96 54.36,-43.73 86.36,-75.72 153.56,-98.09l34.07 8.56c106.66,-17.09 166.35,-26.68 272.98,-34.14 35.17,-2.16 59.73,-1.1 89.54,-17.09 13.88,-7.44 19.2,-19.18 29.88,-29.82 44.82,-44.79 66.1,-77.84 89.57,-136.47 14.91,44.75 36.23,65.02 63.95,102.36 22.38,29.85 39.47,59.66 76.78,59.66 75.73,0 116.22,-23.43 191.9,-25.55 20.3,0 35.24,7.47 51.24,-4.26 17.05,-11.74 17.05,-30.94 21.29,-51.2 7.47,-32 8.52,-52.22 8.52,-85.27 11.73,1.05 17.09,4.26 28.82,4.26 38.38,0 56.49,-25.58 94.89,-25.58 14.95,0 20.23,12.79 34.11,17.05 18.12,6.38 30.95,8.53 51.17,8.53 34.14,0 53.35,-13.88 85.3,-25.58 51.17,-19.21 82.11,-34.15 136.52,-34.15 56.48,0 83.12,34.15 136.47,51.2 24.49,7.44 42.64,-1.09 68.22,4.27 37.31,7.43 55.46,24.52 93.87,34.11l102.33 -12.8c22.4,7.47 35.16,21.33 42.67,42.64 6.37,19.21 4.26,35.2 17.02,51.2 23.46,27.7 54.4,28.79 89.57,38.38 27.73,7.47 49.08,14.9 63.99,38.36 14.9,23.48 10.64,47.97 29.85,68.22 15.99,17.09 33.05,21.36 51.16,34.11l-17.05 0c55.45,-4.26 93.83,-29.84 144.99,-51.13 25.62,-10.67 41.62,-22.4 68.29,-29.87 25.55,-7.47 49.01,0 68.18,-17.06 22.41,-19.2 24.56,-49.05 51.2,-59.69 24.53,-10.68 49.05,0 68.26,-17.05 13.84,-12.8 12.79,-30.95 12.79,-51.2 1.05,-29.85 4.26,-46.91 4.26,-76.75 34.11,0 52.26,-12.79 86.37,-12.79l83.19 0c13.82,0 21.28,5.28 35.16,4.27 13.86,-1.1 20.27,-12.8 34.15,-12.8 26.6,0 41.54,13.81 68.22,17.06 26.64,3.17 47.96,0 68.25,17.05 5.33,4.27 4.27,11.74 8.53,17.05 25.54,27.7 45.84,45.85 68.21,76.78 22.42,29.82 42.64,47.97 51.2,85.28 2.12,11.73 -4.29,22.38 0,34.11 8.53,24.52 35.17,24.52 59.7,34.1 20.26,7.47 32,19.21 51.17,29.89 89.56,52.22 147.14,70.37 238.83,119.42 59.73,31.95 89.57,69.27 115.18,132.17 10.68,25.59 34.11,38.37 34.11,67.16l0 87.43c0,53.3 25.58,81.04 25.58,134.35 0,60.75 -4.26,94.86 -4.26,155.64l0 25.58c0,50.11 11.74,77.84 21.35,126.89 5.33,26.68 10.61,43.73 21.29,68.22 5.35,12.83 2.15,34.14 17.06,34.14 21.35,0 43.76,-2.11 51.23,-21.31 7.43,-19.21 9.55,-32.04 17.02,-51.2 35.2,8.53 61.84,10.63 85.31,38.37 17.05,20.3 12.79,41.58 12.79,68.25 0,34.11 -5.33,55.43 -21.32,85.31 -13.85,25.54 -34.11,38.38 -34.11,68.18 0,22.42 21.29,30.94 34.11,46.94 12.79,15.96 20.26,29.84 25.58,51.2 10.68,42.6 19.21,67.16 42.67,102.33 36.26,52.25 73.58,69.31 127.95,102.36 20.22,11.7 31.96,24.49 51.16,38.38 15.99,-16 15.99,-31.97 25.62,-51.17 3.21,-6.42 11.73,-4.27 17.01,-8.52l51.2 0c6.42,43.69 12.83,69.27 34.11,106.58 16.01,28.79 24.54,55.43 55.43,68.25 32.03,13.86 53.35,17.06 85.35,29.82 -12.79,17.09 -29.84,28.82 -29.84,51.2 0,44.79 53.27,44.79 85.23,76.74 30.94,30.94 36.29,59.73 46.93,102.36 11.78,47.99 19.21,76.78 42.67,119.42 13.86,25.58 41.58,27.7 68.22,38.38 56.53,23.46 91.73,42.67 132.25,89.56 20.26,23.44 27.7,42.64 51.16,63.96 60.79,54.37 88.52,123.68 170.62,123.68 7.47,0 10.68,-7.47 17.05,-8.53 13.85,9.59 34.11,16.01 34.11,34.15 0,27.69 -13.88,47.96 -38.37,59.66 -10.67,4.26 -21.32,-1.02 -34.14,0 -8.53,1.08 -9.59,10.67 -17.05,12.79 22.4,28.82 49.08,38.41 85.3,38.41 52.26,0 62.89,-68.23 115.15,-68.23 29.85,0 46.94,8.53 76.75,8.53 38.41,0 53.35,-36.29 72.55,-68.25 25.55,-41.55 39.43,-69.32 46.9,-119.39l-21.35 -93.87c8.56,-71.38 30.93,-108.7 42.67,-179.1 13.88,-86.37 11.74,-134.32 25.58,-221.71l-25.58 -179.14c2.15,-23.48 1.09,-37.32 4.22,-59.69 6.42,-39.47 17.09,-61.88 17.09,-102.37 0,-68.25 -11.69,-108.74 -46.89,-166.32 -27.7,-45.84 -42.64,-74.62 -72.52,-119.41 -13.85,-20.27 -25.58,-35.17 -25.58,-59.69 0,-13.86 12.79,-20.27 12.79,-34.15 0,-49.02 -34.11,-69.24 -59.69,-110.85 -16.03,-26.68 -29.88,-41.59 -46.94,-68.25 -51.2,-76.72 -76.78,-125.81 -115.15,-208.93 -23.44,-50.1 -54.37,-70.4 -85.3,-115.15 -20.23,-29.88 -29.85,-53.35 -46.91,-85.31 -24.52,-46.9 -37.35,-76.75 -68.25,-119.42 -20.27,-28.79 -46.94,-41.58 -55.47,-76.74 64.03,5.31 94.93,31.99 153.57,55.43 -12.79,-26.68 -20.26,-44.75 -38.38,-68.23 -21.35,-26.63 -44.78,-32.03 -68.25,-55.46 -18.11,-18.11 -26.67,-33.05 -42.67,-51.16 -30.9,-34.14 -58.63,-52.22 -81.01,-93.8 -35.21,-65.05 -47.99,-108.78 -89.57,-170.61 -34.11,-50.12 -73.55,-67.17 -102.36,-119.38 -24.49,-44.79 -32,-75.74 -51.17,-123.69 -7.47,-20.26 -21.32,-30.9 -29.88,-51.16 -30.9,-69.31 -37.29,-116.22 -63.95,-187.67 -9.59,-27.74 -23.48,-41.55 -34.14,-68.22 -23.44,-58.64 -23.44,-98.1 -55.44,-153.49 -56.51,75.65 -59.69,142.81 -59.69,237.7 0,67.16 9.59,104.48 0,171.68 -12.83,-55.47 -14.93,-90.67 -29.88,-145.04 -14.91,-53.28 -46.9,-79.92 -46.9,-136.43 0,-36.26 10.68,-59.73 34.15,-85.31 4.26,-5.33 12.75,-3.17 17.02,-8.53 14.93,-16 17.05,-34.07 29.87,-51.17 12.8,-17.05 34.11,-24.52 34.11,-46.93 0,-62.9 -9.58,-99.13 -17.05,-162.05 -3.2,-33.05 -7.47,-53.28 -12.79,-85.27 -4.27,-25.59 -4.27,-42.64 -8.53,-68.22 -3.21,-18.15 -25.61,-23.48 -25.61,-42.67 0,-45.85 38.4,-65.06 38.4,-110.86 0,-23.47 -12.79,-36.29 -12.79,-59.73 0,-29.81 13.85,-46.9 17.06,-76.75 7.47,-59.72 3.21,-95.94 17.05,-153.52 11.7,-47.99 30.9,-70.37 38.37,-119.46 30.94,-34.07 63.99,-51.12 63.99,-98.05 0,-27.74 -21.34,-40.5 -21.34,-68.22 0,-50.12 46.93,-69.28 46.93,-119.43 0,-40.48 -19.21,-61.83 -25.59,-102.32 6.38,-1.06 9.59,-8.53 17.06,-8.53 21.36,0 25.62,29.81 46.94,29.81 35.16,0 33.05,-45.84 46.89,-76.71 12.76,-28.82 44.79,-28.82 72.52,-42.67 37.28,-18.11 70.36,-10.68 102.33,-38.38 23.47,-20.25 24.52,-45.83 46.93,-68.25 36.23,-36.22 66.11,-44.75 102.33,-81 26.67,-26.64 45.88,-48 51.23,-85.32 1.06,-11.73 -4.29,-22.37 0,-34.07 9.59,-25.62 39.44,-19.2 59.7,-38.41 22.41,-20.26 23.47,-45.84 42.64,-68.25 4.26,-5.33 12.78,-3.17 17.05,-8.53 24.53,-27.69 29.88,-53.31 46.93,-85.3 13.85,-25.55 30.91,-38.38 34.11,-68.19 2.15,-20.26 -8.53,-33.08 0,-51.19 5.33,-11.71 19.21,-14.92 29.89,-21.33 33.01,-21.31 41.54,-50.14 59.69,-85.31 21.31,-39.42 33.01,-62.9 55.42,-102.32 13.89,-24.53 19.21,-42.67 29.89,-68.26 30.89,-75.68 55.42,-118.32 98.09,-187.63 30.91,-50.1 67.17,-69.31 119.42,-98.07 39.43,-21.31 60.74,-41.61 102.33,-59.72 38.4,-17.06 66.14,-18.12 102.36,-38.37 52.3,-29.85 54.37,-82.07 68.26,-140.7 20.25,-81.05 19.2,-132.22 59.72,-204.73 11.69,-21.32 27.7,-28.79 42.64,-46.9 8.53,-10.68 14.9,-22.41 21.31,-34.15 22.38,-36.26 43.73,-52.22 72.52,-85.27 52.26,-59.73 74.6,-111.95 149.31,-136.47 30.86,-9.59 52.21,-5.32 85.23,-8.53 36.29,-4.27 52.29,-25.58 85.31,-38.41 20.29,-7.43 43.76,-5.28 51.16,-25.55 6.41,-18.15 3.24,-32.02 8.57,-51.16 9.58,-33.09 24.52,-50.11 29.84,-85.31 -25.59,-10.67 -39.43,-29.84 -68.22,-29.84 -19.21,0 -18.15,24.49 -34.11,34.11 -18.15,10.64 -33.05,18.11 -51.2,29.81 -24.49,16.03 -42.64,23.47 -68.25,38.41 -12.79,7.47 -19.21,21.35 -34.08,21.35 -43.76,0 -64.03,-34.15 -89.57,-68.29 52.22,-12.75 86.33,-4.26 136.48,-25.55 19.16,-7.47 20.25,-29.84 21.28,-51.2 5.38,-33.05 7.5,-54.32 17.09,-85.27 4.26,-12.78 12.79,-19.17 12.79,-33.05 0,-11.74 -3.21,-19.21 -4.27,-30.93 -46.89,0 -73.57,11.72 -119.41,4.26 -25.62,-4.26 -42.67,-10.65 -68.22,-17.06 45.81,-45.85 107.64,-13.84 153.52,-59.65l-12.78 -51.24c22.37,-22.33 40.48,-42.63 72.48,-42.63 24.52,0 41.57,11.73 55.46,29.84 12.79,16 17.06,38.41 38.37,38.41 22.38,0 30.91,-21.36 51.2,-29.89 61.81,-26.63 91.69,-62.89 119.38,-123.64 19.21,-43.73 26.67,-72.48 34.14,-119.41 5.33,-33.05 17.06,-51.17 17.06,-85.31 0,-61.81 -31.99,-103.42 -89.57,-132.21 -19.2,29.88 -26.67,50.14 -34.11,85.3 -6.37,29.89 -11.73,68.22 -42.63,68.22 -24.56,0 -39.47,-13.84 -59.73,-25.58 -6.38,-3.16 -8.53,-11.69 -17.05,-12.75 -26.68,-3.21 -42.64,0 -69.31,0l-104.52 0c-54.37,0 -67.16,52.22 -116.21,76.75 -2.11,-26.68 -8.53,-42.68 -12.79,-68.26 -5.32,-31.96 -3.21,-54.37 -12.8,-85.27 -8.52,-26.68 -18.13,-43.69 -21.31,-72.52l50.11 0c17.09,0 23.46,13.88 35.16,25.62 20.3,20.22 29.89,40.48 55.51,55.43 24.48,-24.54 43.68,-33.06 68.21,-55.43 10.64,-9.63 9.61,-27.74 21.32,-34.11 5.32,-3.21 11.73,1.05 17.05,0 11.74,-3.21 23.47,-3.21 34.14,-8.57 20.23,-10.64 15.97,-37.32 34.08,-51.16 9.62,-7.47 21.36,-8.53 34.14,-8.53 13.89,0 20.27,12.79 34.11,12.79 17.06,0 19.21,-21.31 21.32,-38.37l-106.59 -196.16 4.27 -17.09c21.31,-3.17 31.95,-7.43 51.16,-17.05 -17.05,-35.17 -40.53,-49.03 -68.22,-76.75 -15.99,-16 -22.41,-32 -34.14,-51.2 -3.21,-5.29 0,-13.85 -4.27,-17.02 -9.62,-7.48 -21.35,-4.3 -34.14,-4.3 -40.49,0 -62.9,17.09 -103.39,17.09 -39.49,0 -60.78,-1.06 -100.24,-1.06 -15.96,0 -20.23,-14.94 -35.17,-20.29 -11.74,-3.17 -22.41,-2.12 -34.15,-4.27 -49.04,-11.74 -74.62,-28.79 -123.68,-38.37 29.89,-14.91 52.26,-13.85 85.31,-21.32 20.26,-4.26 31.96,-12.79 53.31,-12.79 27.74,0 43.7,11.73 70.37,17.06 6.41,1.05 9.59,8.53 17.06,8.53 8.56,0 9.62,-10.68 17.05,-12.8 -33.05,-57.57 -66.06,-82.1 -123.68,-115.16 -24.49,-13.84 -42.64,-15.99 -63.95,-34.1 39.46,0 59.69,-18.12 93.83,-38.37 5.32,-3.21 12.79,-1.1 17.06,-4.27 18.11,-14.94 25.58,-35.17 25.58,-59.73 0,-22.37 -22.41,-29.84 -42.64,-38.36 -26.67,-11.74 -42.67,-19.18 -68.25,-34.11 -40.52,-23.48 -60.79,-43.73 -102.36,-63.96 -11.74,-5.35 -22.38,-6.41 -34.11,-12.82 -5.33,-3.18 -1.06,-11.71 -4.27,-17.02 11.74,-7.48 19.17,-21.36 34.11,-21.36 26.67,0 43.73,3.21 68.22,12.79 13.89,5.36 19.2,21.32 35.2,21.32l69.31 0 0 -82.06c0,-42.68 -34.14,-61.85 -70.37,-84.26 -5.32,-3.17 -11.73,-1.05 -17.05,-4.23 -41.58,-25.61 -50.11,-63.99 -93.84,-85.3l8.53 -17.06c28.79,0 45.84,-2.15 72.48,-12.83 14.94,-5.32 34.15,-12.75 34.15,-29.8 0,-54.41 -65.05,-56.53 -106.63,-89.58 -47.99,-38.37 -23.47,-98.06 -51.17,-153.53 -24.55,-50.1 -42.63,-81 -51.19,-136.47 -3.17,-19.2 -5.32,-33.05 -12.79,-51.16 -18.11,-41.58 -59.73,-56.52 -59.73,-102.36 0,-28.79 13.88,-42.64 25.59,-68.22 2.14,-5.36 -2.12,-11.74 0,-17.09 12.82,-29.85 30.93,-43.69 51.23,-68.22 20.22,-24.52 37.27,-37.32 55.42,-63.96 20.27,-29.87 27.7,-55.45 55.43,-76.78 2.15,37.32 21.32,56.53 21.32,93.84 0,31.99 -16,48 -29.84,76.74 -4.27,9.62 -12.8,14.95 -12.8,25.62 0,34.07 25.58,51.16 25.58,85.27 0,28.79 -25.58,39.47 -25.58,68.26 0,18.11 6.38,33.06 21.32,42.63 10.68,6.39 24.53,-3.2 34.15,4.27 10.68,8.53 9.55,21.31 12.78,34.11 7.44,26.64 10.65,47.95 34.11,63.96 17.06,10.67 42.64,12.82 42.64,34.14 0,23.43 -24.52,29.84 -42.64,42.64 22.42,54.36 55.43,86.36 110.89,106.58 18.11,6.41 36.26,1.1 51.17,12.83 17.05,12.79 18.14,30.9 25.58,51.17 7.48,19.2 18.15,30.9 21.32,51.16 7.47,39.46 9.62,69.31 38.41,98.09l132.21 0c1.09,12.8 4.26,20.27 4.26,33.07 0,86.36 -81.01,119.38 -81.01,205.78 0,68.22 33.05,102.32 38.34,170.54 9.62,-19.17 13.88,-31.96 21.35,-51.16 14.94,-36.26 42.67,-49.06 55.47,-85.31 9.58,-26.64 4.22,-45.81 12.75,-72.49 16.03,-52.25 25.62,-82.06 29.88,-136.47 3.2,-46.9 -1.05,-72.48 4.26,-119.41 9.62,-81.02 33.05,-123.65 42.64,-204.69 1.06,-12.8 8.53,-20.27 8.53,-33.05l0 -104.48c0,-34.11 -14.91,-51.16 -21.32,-84.22 -5.32,-25.59 -1.06,-43.72 -8.52,-68.26 -7.44,-24.49 -26.64,-37.31 -51.17,-46.89 -34.11,-13.86 -53.31,-24.53 -85.31,-42.64 -35.16,-20.26 -56.52,-35.2 -85.27,-63.96 -5.39,-5.35 -13.92,-6.41 -17.09,-12.82 -35.2,-58.63 -24.53,-105.54 -42.67,-170.58 -5.33,-20.26 -13.82,-29.85 -17.06,-51.16 36.26,5.32 52.25,21.31 85.31,34.11 51.2,21.31 83.16,29.87 136.51,42.63 25.58,6.41 49.05,1.1 68.18,17.06 25.62,22.4 9.66,54.4 12.82,89.56 2.12,26.68 10.68,42.64 17.06,68.26 14.95,-20.26 32,-28.82 42.67,-51.2 27.7,-55.42 23.44,-94.89 42.64,-153.53 18.14,-54.37 41.62,-81 55.43,-136.47 12.82,-51.16 8.53,-83.15 12.82,-136.43 1.06,-21.33 10.64,-30.95 17.05,-51.2 11.74,-37.32 9.59,-62.9 12.8,-102.33 9.59,-126.89 76.78,-188.73 76.78,-315.59 0,-17.09 -1.06,-26.66 -4.27,-42.67 -1.05,-5.31 2.12,-12.78 0,-17.05 -3.2,-5.32 -10.67,-5.32 -17.09,-8.53 -22.37,-11.73 -41.58,-7.47 -68.22,-8.53 -33.08,-1.05 -52.22,-6.41 -85.3,-8.52 -1.06,-11.73 -4.26,-19.2 -4.26,-30.9 0,-66.1 1.06,-108.77 25.61,-169.52 10.61,-26.68 26.64,-40.53 34.08,-68.26 7.47,-25.58 5.35,-44.75 17.09,-68.21 17.05,-35.17 34.11,-53.32 55.42,-85.32 41.62,-60.74 58.68,-101.27 110.9,-153.53 17.09,-17.02 35.16,-20.22 51.2,-38.36 19.16,-21.33 29.84,-38.38 51.16,-59.7 39.46,-39.43 68.25,-55.43 119.42,-76.74 41.58,-17.05 62.89,-33.05 102.39,-55.47 65.01,-37.32 107.65,-51.16 170.55,-93.8 14.94,-9.62 20.3,-22.4 34.14,-34.14 29.85,-25.58 52.26,-37.32 85.31,-59.69 30.91,-20.27 51.16,-34.11 85.27,-46.91 11.74,-4.29 22.42,-4.29 34.15,-8.56 8.52,-3.16 10.64,-10.63 17.05,-17.05 14.94,-14.91 26.64,-26.64 34.11,-46.9 10.68,-30.91 0,-54.37 8.53,-85.27 12.79,-46.94 38.41,-70.37 38.41,-119.42 20.26,9.59 31.96,14.91 51.16,25.58 5.32,2.11 12.79,0 17.06,4.26 14.94,14.94 10.68,30.91 17.09,51.17 49.01,-11.7 85.27,-14.91 119.38,-51.17 20.3,-21.31 19.21,-42.63 34.14,-68.25 14.91,-26.64 25.58,-42.6 42.64,-68.22 22.41,22.41 36.26,34.15 55.43,59.69 44.81,-23.43 56.52,-60.75 93.87,-93.8 23.43,-20.26 47.95,-22.4 68.22,-46.9 14.94,-18.14 21.35,-33.05 34.14,-51.2 9.55,-12.79 25.55,-16 34.11,-29.84 22.37,-34.11 34.08,-60.75 34.08,-102.33 0,-45.88 -52.23,-55.46 -93.8,-72.52 -44.79,-18.11 -68.22,-34.11 -115.13,-51.16 9.55,44.79 13.82,79.95 51.17,106.63 4.27,2.12 12.76,1.06 17.02,4.26 17.09,15.96 21.35,35.16 21.35,59.69 0,30.91 -1.09,54.37 -21.35,76.74 -19.17,20.27 -41.55,21.33 -68.19,29.85 -35.2,11.74 -56.55,21.35 -93.83,21.35 -32.03,0 -52.29,-15.99 -72.51,-38.37 -14.95,-17.09 -30.95,-26.67 -42.68,-46.94 -19.2,-31.99 -27.73,-54.36 -46.9,-85.27 -11.74,-19.19 -20.26,-34.14 -38.41,-46.93 -4.22,-2.11 -6.38,-10.64 -12.75,-10.64 -19.21,0 -30.95,2.11 -50.14,2.11 -58.63,0 -73.58,-73.54 -73.58,-132.21 0,-29.84 -4.26,-49.04 4.27,-76.74 10.68,-37.32 38.36,-50.11 55.42,-85.31 -34.08,-25.58 -62.89,-28.79 -102.33,-46.9 -11.73,-5.32 -29.87,-7.47 -29.87,-21.32 0,-12.79 7.46,-22.37 8.56,-34.11 6.37,-39.47 10.63,-62.9 17.05,-102.36 17.06,-106.63 18.12,-172.73 59.69,-272.9 10.68,-26.68 26.68,-41.63 38.37,-68.26 27.73,-61.84 33.09,-102.37 38.41,-170.59 30.9,-54.36 68.26,-67.16 119.42,-102.36 55.47,-38.37 68.25,-82.1 102.36,-140.73 14.94,-26.64 26.68,-47.96 55.43,-59.69 11.73,-4.27 24.56,-2.15 34.15,-8.53 18.11,-11.73 24.49,-29.85 29.87,-51.16 10.61,-37.32 6.34,-63.99 12.76,-102.37 3.2,-19.2 12.79,-29.84 12.79,-50.11l0 -86.36 -29.8 -85.28c19.16,-4.25 31.95,-8.52 51.16,-12.78 7.47,-1.09 8.53,-12.83 17.02,-12.83 22.4,0 24.52,27.73 34.14,46.9 9.59,19.21 16,30.94 25.58,51.2 34.11,-10.64 65.05,-8.53 85.28,-38.38 6.41,-9.62 1.12,-22.4 4.25,-34.11 5.4,-21.34 18.15,-33.08 29.89,-51.19 12.79,-19.17 21.35,-33.05 34.14,-51.17 5.32,-7.47 7.44,-17.05 17.06,-17.05 19.17,0 25.58,17.05 42.63,25.58 5.36,2.12 11.74,-1.06 17.09,0 17.02,-30.9 14.87,-55.42 34.08,-85.31 25.61,-39.42 56.51,-52.22 89.57,-85.27 17.09,-17.05 27.73,-28.79 46.9,-42.64 55.5,-41.61 73.58,-83.15 106.66,-144.99 19.2,-37.32 38.37,-59.69 38.37,-102.37 0,-20.26 -1.06,-36.26 -12.82,-51.16 -13.82,-17.05 -35.17,-18.11 -51.16,-34.11 -14.91,-14.95 -14.91,-32 -21.29,-51.2 -8.53,-23.47 -28.82,-30.91 -46.93,-46.9l0 0c-43.69,-6.37 -66.12,-38.38 -106.64,-51.18 -25.58,-8.53 -49.04,-3.21 -68.25,-21.32 -10.64,-9.58 -14.9,-22.41 -21.32,-34.15 -33.05,-53.27 -49.02,-91.64 -102.37,-123.64 -24.48,-14.93 -40.48,-21.32 -68.21,-25.58 -19.16,-3.21 -37.35,5.32 -51.17,-8.52 -13.88,-13.89 -6.41,-32 -12.82,-51.17 -23.47,-70.37 -63.96,-101.3 -89.57,-170.61 -16,-44.79 -18.12,-74.64 -34.08,-119.42 -32.03,-86.33 -56.51,-134.33 -85.31,-221.75 -12.82,-40.52 -23.46,-63.95 -42.67,-102.36 -9.62,-19.18 -12.78,-37.31 -29.84,-51.17 -26.67,-22.37 -53.35,-17.05 -85.31,-29.84 -47.99,-19.2 -75.69,-42.63 -127.98,-42.63 -31.96,0 -45.84,27.68 -59.66,55.42 -9.65,19.17 -18.15,33.05 -29.87,51.2 -41.55,27.69 -85.31,19.17 -123.69,51.16 -5.35,4.27 -4.26,11.74 -8.53,17.05 -30.93,39.44 -57.57,56.53 -98.09,85.28 -41.62,-57.58 -94.89,-67.16 -136.48,-123.68 0,63.99 -44.78,90.66 -55.42,153.56 -9.66,59.69 -22.42,94.86 -34.15,153.53 -10.68,51.16 -8.52,84.21 -17.05,136.43 -11.74,75.72 -21.36,119.42 -21.36,196.2 0,132.21 19.21,205.75 29.89,336.9l0 105.54c0,53.31 -6.41,86.36 -17.06,137.56 -6.41,35.17 -17.09,54.37 -34.11,85.24 -7.47,14.94 -19.2,19.21 -25.61,34.14 -3.21,7.47 -12.8,8.53 -12.8,17.06 0,26.64 38.41,28.79 38.41,55.43 0,35.19 -13.89,54.4 -17.09,89.57 -2.11,26.67 6.41,42.63 0,68.21 -1.06,7.47 -11.73,8.57 -17.05,12.83 -16,13.85 -30.95,23.43 -51.16,29.81 -32.01,10.68 -53.36,13.89 -85.31,25.62 -29.85,10.68 -37.36,36.26 -51.17,63.96 -13.89,27.73 -25.61,45.83 -25.61,76.78 0,17.05 5.35,26.64 8.52,42.63l-1262.43 490.43c-31.99,15.99 -70.37,5.38 -102.38,21.34 -74.54,45.92 -122.4,77.95 -166.31,153.49 -66.98,115.26 -106.03,187.88 -156.17,310.46l0 0c7.31,5.44 11.16,16.49 11.16,26.45 0,32 -15.97,49.05 -29.85,76.78 -17.05,34.11 -28.79,55.43 -51.16,85.27 -33.05,44.79 -64,62.9 -93.84,110.9 -14.93,24.52 -38.41,38.37 -38.41,68.25 0,17.06 16,25.58 29.89,34.11 26.67,18.11 47.95,25.58 81.04,25.58 24.49,0 35.16,-17.05 59.7,-17.05 7.46,0 10.66,7.47 17.05,8.53l0 101.26c0,24.53 -12.8,37.32 -25.59,56.52 -3.2,5.33 -17.09,1.06 -17.09,8.53 0,29.85 18.15,43.69 34.15,68.25 13.88,20.23 21.32,34.07 38.37,51.16 10.68,10.65 29.89,13.86 29.89,29.85 0,33.05 -30.95,42.64 -55.47,63.95 -34.11,29.85 -63.96,36.26 -102.36,59.74 -17.06,10.63 -23.47,25.58 -34.15,42.63 -12.76,19.17 -30.9,23.47 -51.16,34.11 -27.7,14.94 -46.91,25.58 -76.78,34.11 -76.75,23.47 -110.85,57.58 -183.38,93.84 -27.73,13.84 -47.98,13.84 -76.74,25.58 -41.61,17.05 -66.14,29.84 -110.93,29.84 -30.93,0 -45.84,-21.31 -76.78,-21.31 -43.69,0 -68.21,15.99 -110.85,25.58 -56.53,12.78 -85.31,29.87 -136.47,55.45 -45.88,22.39 -73.58,35.17 -119.45,55.44 -40.5,18.11 -65.02,27.73 -106.63,42.63l-0.01 0c27.73,84.25 48.15,138.57 100.37,208.94l0.01 -0.01c3.5,-1.11 7.52,-1.82 10.54,-4.24 13.84,19.21 23.46,33.05 38.37,51.2 10.64,12.8 29.84,17.05 29.84,34.11 0,29.85 -19.2,43.73 -34.14,68.22 -37.28,59.72 -72.44,85.3 -115.12,140.77 -22.37,29.81 -31.99,52.22 -59.69,76.75 -13.88,11.7 -26.67,15.96 -38.37,29.84 -21.36,24.53 -30.94,43.69 -55.5,63.96 -19.16,15.99 -34.08,22.4 -55.42,38.41 -72.49,55.42 -103.39,102.36 -157.8,174.84 -44.79,59.69 -93.83,75.68 -157.82,115.12 -42.64,26.67 -57.58,56.51 -102.37,81.04 -13.84,7.44 -25.58,7.44 -38.37,17.05 -28.79,21.33 -39.47,42.64 -68.21,63.96 -43.73,31.99 -70.41,52.26 -106.64,93.84 -22.4,26.64 -45.87,33.05 -68.25,59.69 -46.89,54.41 -71.46,104.51 -140.73,123.68 -90.67,25.58 -129.03,73.57 -213.26,115.15 -52.26,25.58 -83.19,42.64 -136.47,63.99 -7.47,2.12 -9.62,10.65 -17.09,12.75 -27.7,9.63 -49.01,8.57 -72.48,25.59 -10.67,-8.53 -20.22,-13.85 -25.61,-25.59 -10.68,-21.31 -6.39,-55.42 -30.91,-55.42l-134.32 0c-34.14,0 -54.37,-10.68 -86.37,-21.32 -30.94,-9.59 -72.52,-13.84 -72.52,-46.9 0,-39.47 29.85,-55.46 55.43,-85.3 32,-37.32 47.96,-69.31 51.2,-119.38l0 0c-5.35,-16.01 -14.63,-32.32 -10.64,-49.1 12.04,-50.43 24.15,-100.91 36.23,-151.37zm-20591.58 -6404.61l27700 0 0 19000 -27700 0 0 -19000z"/>
  <rect class="fil1 str1" x="999.99" y="1000" width="27699.99" height="19000"/>
  <path class="fil2 str2" d="M25515.27 18176.66l2589.11 0 0 1592.9 -2589.11 0 0 -1592.9z"/>
  <g id="_2842686223408">
   <path class="fil3" d="M26432.86 18503.77l0 24.34 -31.39 0 0 61.74 -28.58 0 0 -61.74 -98.43 0 0 -21.93 107.96 -154.81 19.05 0 0 152.4 31.39 0zm-59.97 0l0 -116.06 -81.61 116.06 81.61 0z"/>
   <path id="1" class="fil3" d="M26457.91 18474.26c0,-26.64 4,-49.51 12.05,-68.74 8.06,-19.22 18.7,-33.57 32.05,-42.98 10.29,-7.47 20.99,-11.17 31.98,-11.17 17.94,0 33.99,9.11 48.22,27.34 17.81,22.64 26.69,53.27 26.69,91.96 0,27.05 -3.88,50.09 -11.7,69.03 -7.82,18.93 -17.76,32.63 -29.87,41.21 -12.11,8.53 -23.81,12.82 -35.04,12.82 -22.29,0 -40.81,-13.11 -55.62,-39.39 -12.53,-22.17 -18.76,-48.86 -18.76,-80.08zm33.87 4.23c0,32.1 3.94,58.33 11.82,78.67 6.52,17.11 16.28,25.63 29.22,25.63 6.17,0 12.58,-2.76 19.22,-8.34 6.65,-5.59 11.65,-14.88 15.11,-27.99 5.24,-19.7 7.88,-47.57 7.88,-83.43 0,-26.64 -2.76,-48.86 -8.23,-66.62 -4.11,-13.23 -9.46,-22.58 -15.99,-28.05 -4.65,-3.82 -10.35,-5.7 -16.99,-5.7 -7.76,0 -14.7,3.53 -20.76,10.52 -8.23,9.53 -13.87,24.46 -16.81,44.92 -3,20.41 -4.47,40.52 -4.47,60.39z"/>
   <path id="2" class="fil3" d="M26634.3 18474.26c0,-26.64 4,-49.51 12.05,-68.74 8.06,-19.22 18.7,-33.57 32.05,-42.98 10.29,-7.47 20.99,-11.17 31.98,-11.17 17.94,0 33.99,9.11 48.22,27.34 17.81,22.64 26.69,53.27 26.69,91.96 0,27.05 -3.88,50.09 -11.7,69.03 -7.82,18.93 -17.76,32.63 -29.87,41.21 -12.11,8.53 -23.81,12.82 -35.04,12.82 -22.29,0 -40.81,-13.11 -55.62,-39.39 -12.53,-22.17 -18.76,-48.86 -18.76,-80.08zm33.87 4.23c0,32.1 3.94,58.33 11.82,78.67 6.52,17.11 16.28,25.63 29.22,25.63 6.17,0 12.58,-2.76 19.22,-8.34 6.65,-5.59 11.65,-14.88 15.11,-27.99 5.24,-19.7 7.88,-47.57 7.88,-83.43 0,-26.64 -2.76,-48.86 -8.23,-66.62 -4.11,-13.23 -9.46,-22.58 -15.99,-28.05 -4.65,-3.82 -10.35,-5.7 -16.99,-5.7 -7.76,0 -14.7,3.53 -20.76,10.52 -8.23,9.53 -13.87,24.46 -16.81,44.92 -3,20.41 -4.47,40.52 -4.47,60.39z"/>
   <path id="3" class="fil3" d="M26944.05 18344.67l0 157.16 39.98 -36.63c8.52,-7.82 13.46,-12.76 14.81,-14.82 0.95,-1.41 1.42,-2.76 1.42,-4.17 0,-2.29 -1,-4.23 -2.89,-5.94 -1.88,-1.65 -4.99,-2.59 -9.4,-2.82l0 -5.65 68.61 0 0 5.65c-9.35,0.23 -17.17,1.7 -23.4,4.35 -6.23,2.7 -13.05,7.47 -20.52,14.29l-40.63 37.22 40.34 51.33c11.29,14.05 18.81,23.04 22.58,26.98 5.58,5.24 10.4,8.65 14.58,10.17 2.94,1.12 7.99,1.71 15.17,1.71l0 6.35 -76.73 0 0 -6.35c4.41,-0.12 7.35,-0.76 8.88,-1.94 1.58,-1.24 2.35,-2.88 2.35,-5.06 0,-2.64 -2.3,-6.88 -6.88,-12.7l-48.27 -61.79 0 52.21c0,10.23 0.7,16.93 2.11,20.17 1.47,3.17 3.47,5.46 6.12,6.88 2.64,1.35 8.35,2.11 17.17,2.23l0 6.35 -80.08 0 0 -6.35c7.99,0 14.05,-1 18.05,-2.94 2.41,-1.23 4.23,-3.17 5.46,-5.76 1.71,-3.76 2.59,-10.29 2.59,-19.52l0 -143.94c0,-18.05 -0.41,-29.1 -1.18,-33.16 -0.82,-4.05 -2.11,-6.82 -3.99,-8.35 -1.83,-1.58 -4.24,-2.35 -7.18,-2.35 -2.41,0 -6.05,1 -10.82,2.94l-2.93 -6.35 46.74 -19.4 7.94 0z"/>
   <path id="4" class="fil3" d="M27120.79 18460.97c11.41,-11.53 18.17,-18.17 20.22,-19.93 5.12,-4.36 10.65,-7.77 16.59,-10.18 5.93,-2.41 11.81,-3.64 17.63,-3.64 9.88,0 18.29,2.88 25.4,8.64 7.06,5.76 11.82,14.11 14.17,25.11 11.88,-13.88 21.88,-22.93 30.05,-27.28 8.17,-4.3 16.58,-6.47 25.22,-6.47 8.35,0 15.82,2.17 22.35,6.47 6.46,4.29 11.64,11.34 15.4,21.16 2.53,6.65 3.82,17.11 3.82,31.4l0 67.97c0,9.82 0.71,16.58 2.18,20.23 1.12,2.46 3.23,4.64 6.23,6.4 3.06,1.77 8,2.65 14.88,2.65l0 6.35 -77.26 0 0 -6.35 3.29 0c6.7,0 11.99,-1.29 15.76,-3.94 2.64,-1.82 4.52,-4.76 5.64,-8.76 0.47,-1.94 0.71,-7.47 0.71,-16.58l0 -67.91c0,-12.88 -1.53,-21.93 -4.65,-27.22 -4.52,-7.35 -11.7,-11.06 -21.63,-11.06 -6.06,0 -12.23,1.53 -18.41,4.59 -6.11,3 -13.58,8.7 -22.34,16.93l-0.35 1.94 0.7 7.41 0 75.32c0,10.7 0.59,17.4 1.77,20.05 1.23,2.59 3.46,4.82 6.76,6.58 3.29,1.77 8.93,2.65 16.87,2.65l0 6.35 -79.37 0 0 -6.35c8.64,0 14.58,-1 17.81,-3.06 3.24,-2.06 5.47,-5.17 6.7,-9.29 0.59,-1.94 0.89,-7.58 0.89,-16.93l0 -67.91c0,-12.88 -1.88,-22.17 -5.65,-27.87 -5.05,-7.41 -12.05,-11.11 -21.11,-11.11 -6.17,0 -12.28,1.7 -18.34,5.05 -9.47,5.06 -16.82,10.82 -21.93,17.17l0 84.67c0,10.29 0.7,16.93 2.12,20.05 1.41,3.06 3.52,5.35 6.35,6.94 2.76,1.53 8.4,2.29 16.93,2.29l0 6.35 -77.97 0 0 -6.35c7.24,0 12.29,-0.76 15.17,-2.29 2.89,-1.59 5.06,-4 6.59,-7.41 1.47,-3.35 2.23,-9.88 2.23,-19.58l0 -60.33c0,-17.28 -0.53,-28.45 -1.53,-33.51 -0.82,-3.82 -2.05,-6.41 -3.82,-7.82 -1.7,-1.47 -4.05,-2.18 -6.99,-2.18 -3.24,0 -7.06,0.89 -11.53,2.59l-2.58 -6.35 47.62 -19.4 7.41 0 0 33.75z"/>
   <path class="fil3" d="M26261.04 19514.34l-16.34 45.39 -137.82 0 0 -6.47c40.57,-36.98 69.08,-67.14 85.61,-90.54 16.52,-23.41 24.81,-44.81 24.81,-64.21 0,-14.82 -4.53,-26.99 -13.64,-36.51 -9.06,-9.53 -19.88,-14.29 -32.52,-14.29 -11.52,0 -21.81,3.29 -30.92,9.94 -9.18,6.64 -15.88,16.4 -20.29,29.22l-6.35 0c2.88,-21.11 10.29,-37.34 22.17,-48.69 11.87,-11.28 26.75,-16.93 44.62,-16.93 18.94,0 34.81,6.12 47.51,18.29 12.7,12.17 19.05,26.51 19.05,43.09 0,11.82 -2.76,23.7 -8.29,35.52 -8.47,18.58 -22.28,38.27 -41.33,59.09 -28.64,31.16 -46.28,49.86 -53.04,56.03l60.39 0c12.29,0 20.93,-0.47 25.87,-1.35 4.94,-0.94 9.41,-2.82 13.4,-5.65 4,-2.76 7.47,-6.76 10.41,-11.93l6.7 0z"/>
   <path id="1" class="fil3" d="M26288.56 19444.14c0,-26.64 4,-49.51 12.05,-68.74 8.06,-19.22 18.7,-33.57 32.05,-42.98 10.29,-7.47 20.99,-11.17 31.98,-11.17 17.94,0 33.99,9.11 48.22,27.34 17.81,22.64 26.69,53.27 26.69,91.96 0,27.05 -3.88,50.09 -11.7,69.03 -7.82,18.93 -17.76,32.63 -29.87,41.21 -12.11,8.53 -23.81,12.82 -35.04,12.82 -22.29,0 -40.81,-13.11 -55.62,-39.39 -12.53,-22.17 -18.76,-48.86 -18.76,-80.08zm33.87 4.23c0,32.1 3.94,58.33 11.82,78.67 6.52,17.11 16.28,25.63 29.22,25.63 6.17,0 12.58,-2.76 19.22,-8.34 6.65,-5.59 11.65,-14.88 15.11,-27.99 5.24,-19.7 7.88,-47.57 7.88,-83.43 0,-26.64 -2.76,-48.86 -8.23,-66.62 -4.11,-13.23 -9.46,-22.58 -15.99,-28.05 -4.65,-3.82 -10.35,-5.7 -16.99,-5.7 -7.76,0 -14.7,3.53 -20.76,10.52 -8.23,9.53 -13.87,24.46 -16.81,44.92 -3,20.41 -4.47,40.52 -4.47,60.39z"/>
   <path id="2" class="fil3" d="M26464.95 19444.14c0,-26.64 4,-49.51 12.05,-68.74 8.06,-19.22 18.7,-33.57 32.05,-42.98 10.29,-7.47 20.99,-11.17 31.98,-11.17 17.94,0 33.99,9.11 48.22,27.34 17.81,22.64 26.69,53.27 26.69,91.96 0,27.05 -3.88,50.09 -11.7,69.03 -7.82,18.93 -17.76,32.63 -29.87,41.21 -12.11,8.53 -23.81,12.82 -35.04,12.82 -22.29,0 -40.81,-13.11 -55.62,-39.39 -12.53,-22.17 -18.76,-48.86 -18.76,-80.08zm33.87 4.23c0,32.1 3.94,58.33 11.82,78.67 6.52,17.11 16.28,25.63 29.22,25.63 6.17,0 12.58,-2.76 19.22,-8.34 6.65,-5.59 11.65,-14.88 15.11,-27.99 5.24,-19.7 7.88,-47.57 7.88,-83.43 0,-26.64 -2.76,-48.86 -8.23,-66.62 -4.11,-13.23 -9.46,-22.58 -15.99,-28.05 -4.65,-3.82 -10.35,-5.7 -16.99,-5.7 -7.76,0 -14.7,3.53 -20.76,10.52 -8.23,9.53 -13.87,24.46 -16.81,44.92 -3,20.41 -4.47,40.52 -4.47,60.39z"/>
   <path id="3" class="fil3" d="M26775.05 19430.85c11.41,-11.53 18.17,-18.17 20.22,-19.93 5.12,-4.36 10.65,-7.77 16.59,-10.18 5.93,-2.41 11.81,-3.64 17.63,-3.64 9.88,0 18.29,2.88 25.4,8.64 7.06,5.76 11.82,14.11 14.17,25.11 11.88,-13.88 21.88,-22.93 30.05,-27.28 8.17,-4.3 16.58,-6.47 25.22,-6.47 8.35,0 15.82,2.17 22.35,6.47 6.46,4.29 11.64,11.34 15.4,21.16 2.53,6.65 3.82,17.11 3.82,31.4l0 67.97c0,9.82 0.71,16.58 2.18,20.23 1.12,2.46 3.23,4.64 6.23,6.4 3.06,1.77 8,2.65 14.88,2.65l0 6.35 -77.26 0 0 -6.35 3.29 0c6.7,0 11.99,-1.29 15.76,-3.94 2.64,-1.82 4.52,-4.76 5.64,-8.76 0.47,-1.94 0.71,-7.47 0.71,-16.58l0 -67.91c0,-12.88 -1.53,-21.93 -4.65,-27.22 -4.52,-7.35 -11.7,-11.06 -21.63,-11.06 -6.06,0 -12.23,1.53 -18.41,4.59 -6.11,3 -13.58,8.7 -22.34,16.93l-0.35 1.94 0.7 7.41 0 75.32c0,10.7 0.59,17.4 1.77,20.05 1.23,2.59 3.46,4.82 6.76,6.58 3.29,1.77 8.93,2.65 16.87,2.65l0 6.35 -79.37 0 0 -6.35c8.64,0 14.58,-1 17.81,-3.06 3.24,-2.06 5.47,-5.17 6.7,-9.29 0.59,-1.94 0.89,-7.58 0.89,-16.93l0 -67.91c0,-12.88 -1.88,-22.17 -5.65,-27.87 -5.05,-7.41 -12.05,-11.11 -21.11,-11.11 -6.17,0 -12.28,1.7 -18.34,5.05 -9.47,5.06 -16.82,10.82 -21.93,17.17l0 84.67c0,10.29 0.7,16.93 2.12,20.05 1.41,3.06 3.52,5.35 6.35,6.94 2.76,1.53 8.4,2.29 16.93,2.29l0 6.35 -77.97 0 0 -6.35c7.24,0 12.29,-0.76 15.17,-2.29 2.89,-1.59 5.06,-4 6.59,-7.41 1.47,-3.35 2.23,-9.88 2.23,-19.58l0 -60.33c0,-17.28 -0.53,-28.45 -1.53,-33.51 -0.82,-3.82 -2.05,-6.41 -3.82,-7.82 -1.7,-1.47 -4.05,-2.18 -6.99,-2.18 -3.24,0 -7.06,0.89 -11.53,2.59l-2.58 -6.35 47.62 -19.4 7.41 0 0 33.75z"/>
   <path id="4" class="fil3" d="M27042.69 19314.55c4.76,0 8.88,1.7 12.29,5.05 3.35,3.41 5.05,7.53 5.05,12.29 0,4.82 -1.7,9 -5.05,12.41 -3.41,3.47 -7.53,5.17 -12.29,5.17 -4.82,0 -9,-1.7 -12.41,-5.17 -3.47,-3.41 -5.17,-7.59 -5.17,-12.41 0,-4.76 1.7,-8.88 5.05,-12.29 3.41,-3.35 7.59,-5.05 12.53,-5.05zm14.17 82.55l0 127c0,9.82 0.7,16.34 2.17,19.58 1.41,3.29 3.53,5.7 6.35,7.29 2.82,1.59 8,2.41 15.47,2.41l0 6.35 -76.56 0 0 -6.35c7.65,0 12.82,-0.76 15.41,-2.23 2.64,-1.47 4.7,-3.94 6.29,-7.35 1.53,-3.41 2.29,-10 2.29,-19.7l0 -61.03c0,-16.99 -0.53,-27.99 -1.53,-33.05 -0.82,-3.64 -2.05,-6.17 -3.82,-7.58 -1.7,-1.47 -4.06,-2.18 -7,-2.18 -3.23,0 -7.11,0.89 -11.7,2.59l-2.41 -6.35 47.45 -19.4 7.59 0z"/>
   <path class="fil4 str3" d="M25655.4 18783.76l580.73 0 0 99.16 -580.73 0 0 -99.16z"/>
   <path class="fil0 str3" d="M26236.13 18783.76l580.73 0 0 99.16 -580.73 0 0 -99.16z"/>
   <path class="fil4 str3" d="M26816.86 18783.76l580.72 0 0 99.16 -580.72 0 0 -99.16z"/>
   <path class="fil0 str3" d="M27397.72 18783.76l580.73 0 0 99.16 -580.73 0 0 -99.16z"/>
   <path class="fil4 str3" d="M26586.25 19082.7l928.81 0 0 99.16 -928.81 0 0 -99.16z"/>
   <path class="fil0 str3" d="M25657.43 19082.7l928.82 0 0 99.16 -928.82 0 0 -99.16z"/>
  </g>
  <path class="fil5" d="M28283.11 19676.66c0,-17.45 4.47,-34.48 13.46,-51.13 8.93,-16.61 21.77,-29.59 38.43,-38.86 16.69,-9.26 34.1,-13.92 52.16,-13.92 17.92,0 35.18,4.56 51.69,13.74 16.56,9.12 29.4,21.92 38.53,38.43 9.17,16.51 13.73,33.77 13.73,51.74 0,18.01 -4.56,35.27 -13.73,51.78 -9.13,16.51 -21.97,29.35 -38.53,38.53 -16.51,9.17 -33.77,13.78 -51.69,13.78 -18.06,0 -35.47,-4.66 -52.16,-13.97 -16.66,-9.36 -29.5,-22.34 -38.43,-38.95 -8.99,-16.65 -13.46,-33.68 -13.46,-51.17zm17.22 0c0,14.62 3.76,28.88 11.24,42.7 7.48,13.83 18.2,24.65 32.13,32.46 13.92,7.81 28.41,11.71 43.46,11.71 15,0 29.35,-3.85 43.08,-11.52 13.74,-7.67 24.46,-18.39 32.13,-32.17 7.67,-13.79 11.52,-28.18 11.52,-43.18 0,-14.96 -3.85,-29.36 -11.52,-43.14 -7.67,-13.78 -18.39,-24.5 -32.13,-32.12 -13.73,-7.62 -28.08,-11.43 -43.08,-11.43 -15.05,0 -29.54,3.9 -43.46,11.66 -13.93,7.76 -24.65,18.58 -32.13,32.46 -7.48,13.87 -11.24,28.08 -11.24,42.57zm103.57 -33.35l5.08 -16.94c11.53,2.78 20.7,8.61 27.52,17.55 6.87,8.98 10.3,19.85 10.3,32.59 0,16.19 -5.22,29.31 -15.71,39.42 -10.49,10.11 -24.98,15.15 -43.55,15.15 -12.14,0 -22.68,-2.31 -31.61,-6.92 -8.99,-4.56 -15.71,-11.15 -20.28,-19.61 -4.56,-8.52 -6.82,-18.25 -6.82,-29.16 0,-12.23 2.92,-22.39 8.8,-30.48 5.88,-8.09 13.88,-13.6 23.94,-16.56l4.23 16.37c-6.91,2.77 -12.23,6.82 -15.89,12.23 -3.72,5.41 -5.55,11.71 -5.55,19 0,10.58 3.76,19.33 11.28,26.2 7.53,6.87 18.35,10.3 32.37,10.3 14.06,0 24.69,-3.24 31.89,-9.74 7.19,-6.49 10.81,-14.86 10.81,-25.16 0,-8.28 -2.39,-15.57 -7.24,-21.83 -4.8,-6.25 -11.33,-10.39 -19.57,-12.41z"/>
  <path id="1" class="fil5" d="M28488.57 19381.5l-18.58 0c14.44,9.27 21.68,22.91 21.68,40.92 0,11.67 -3.19,22.39 -9.64,32.13 -6.4,9.78 -15.38,17.35 -26.86,22.76 -11.52,5.37 -24.74,8.05 -39.69,8.05 -14.59,0 -27.8,-2.45 -39.7,-7.29 -11.86,-4.9 -20.98,-12.19 -27.29,-21.92 -6.35,-9.69 -9.5,-20.61 -9.5,-32.6 0,-8.84 1.88,-16.7 5.6,-23.56 3.72,-6.87 8.61,-12.47 14.58,-16.8l-72.67 0 0 -24.83 202.07 0 0 23.14zm-73.05 78.46c18.72,0 32.69,-3.95 41.96,-11.9 9.26,-7.91 13.87,-17.27 13.87,-28.04 0,-10.86 -4.42,-20.08 -13.26,-27.7 -8.84,-7.57 -22.34,-11.38 -40.5,-11.38 -19.94,0 -34.62,3.85 -43.98,11.61 -9.36,7.72 -14.01,17.27 -14.01,28.6 0,11.06 4.46,20.27 13.45,27.71 8.98,7.38 23.14,11.1 42.47,11.1z"/>
  <path id="2" class="fil5" d="M28427.89 19328.96l-24.83 0 0 -76.76 24.83 0 0 76.76z"/>
  <path id="3" class="fil5" d="M28488.57 19225.1l-146.47 0 0 -22.29 20.69 0c-7.15,-4.56 -12.93,-10.68 -17.26,-18.3 -4.37,-7.62 -6.54,-16.27 -6.54,-26.01 0,-10.82 2.26,-19.71 6.73,-26.62 4.52,-6.92 10.77,-11.81 18.86,-14.63 -17.07,-11.67 -25.59,-26.77 -25.59,-45.39 0,-14.58 4,-25.83 12.04,-33.63 8.05,-7.86 20.42,-11.81 37.12,-11.81l100.42 0 0 24.84 -92.19 0c-9.88,0 -17.03,0.84 -21.4,2.44 -4.38,1.6 -7.86,4.52 -10.54,8.8 -2.68,4.23 -4,9.22 -4,14.91 0,10.35 3.44,18.91 10.26,25.73 6.86,6.82 17.82,10.2 32.87,10.2l85 0 0 24.84 -95.06 0c-11.01,0 -19.29,2.02 -24.79,6.07 -5.5,4.04 -8.28,10.67 -8.28,19.85 0,6.96 1.84,13.4 5.51,19.33 3.66,5.93 9.03,10.21 16.13,12.89 7.05,2.63 17.26,3.95 30.57,3.95l75.92 0 0 24.83z"/>
  <path id="4" class="fil5" d="M28470.23 18894.34c7.85,9.22 13.35,18.11 16.6,26.62 3.25,8.52 4.84,17.64 4.84,27.43 0,16.08 -3.9,28.45 -11.75,37.11 -7.81,8.65 -17.83,12.98 -30.01,12.98 -7.15,0 -13.69,-1.65 -19.62,-4.89 -5.93,-3.29 -10.63,-7.57 -14.2,-12.84 -3.58,-5.32 -6.31,-11.24 -8.14,-17.88 -1.27,-4.89 -2.49,-12.27 -3.72,-22.1 -2.35,-20.04 -5.22,-34.86 -8.51,-44.31 -3.39,-0.1 -5.55,-0.14 -6.44,-0.14 -10.07,0 -17.17,2.35 -21.31,7.05 -5.6,6.35 -8.37,15.81 -8.37,28.32 0,11.71 2.07,20.36 6.16,25.92 4.09,5.59 11.38,9.68 21.78,12.37l-3.39 24.27c-10.4,-2.21 -18.82,-5.84 -25.21,-10.92 -6.4,-5.08 -11.29,-12.41 -14.77,-22.01 -3.44,-9.55 -5.18,-20.7 -5.18,-33.3 0,-12.51 1.46,-22.72 4.42,-30.57 2.97,-7.81 6.64,-13.6 11.11,-17.27 4.46,-3.67 10.11,-6.25 16.93,-7.76 4.23,-0.8 11.85,-1.22 22.81,-1.22l32.93 0c23,0 37.53,-0.52 43.69,-1.55 6.17,-0.99 12.05,-3.06 17.69,-6.07l0 25.96c-5.22,2.5 -11.34,4.1 -18.34,4.8zm-55.04 1.98c3.67,9.03 6.78,22.57 9.32,40.64 1.45,10.25 3.1,17.49 4.93,21.73 1.84,4.23 4.52,7.48 8,9.78 3.53,2.31 7.43,3.48 11.76,3.48 6.54,0 12.04,-2.49 16.42,-7.52 4.37,-5.04 6.58,-12.38 6.58,-22.02 0,-9.55 -2.07,-18.06 -6.25,-25.54 -4.14,-7.43 -9.84,-12.93 -17.03,-16.41 -5.6,-2.69 -13.83,-4 -24.7,-4l-9.03 -0.14z"/>
  <path id="5" class="fil5" d="M28544.73 18833.05l-202.63 0 0 -22.57 19.24 0c-7.44,-5.32 -13.03,-11.34 -16.75,-18.07 -3.72,-6.68 -5.6,-14.81 -5.6,-24.36 0,-12.51 3.2,-23.52 9.65,-33.07 6.39,-9.55 15.47,-16.74 27.14,-21.63 11.71,-4.85 24.5,-7.3 38.47,-7.3 14.91,0 28.37,2.69 40.36,8.05 11.95,5.36 21.12,13.17 27.52,23.42 6.35,10.21 9.54,20.98 9.54,32.27 0,8.28 -1.74,15.71 -5.22,22.25 -3.48,6.58 -7.85,11.94 -13.17,16.18l71.45 0 0 24.83zm-128.5 -22.57c18.77,0 32.69,-3.81 41.67,-11.39 8.99,-7.62 13.45,-16.84 13.45,-27.65 0,-11.01 -4.65,-20.42 -13.97,-28.23 -9.31,-7.85 -23.7,-11.76 -43.22,-11.76 -18.63,0 -32.55,3.81 -41.82,11.48 -9.26,7.67 -13.87,16.79 -13.87,27.42 0,10.54 4.94,19.85 14.77,27.94 9.87,8.14 24.17,12.19 42.99,12.19z"/>
  <path id="6" class="fil5" d="M28444.83 18685.97l-3.96 -24.55c9.84,-1.37 17.36,-5.22 22.63,-11.53 5.22,-6.3 7.85,-15.14 7.85,-26.43 0,-11.43 -2.3,-19.9 -6.96,-25.45 -4.61,-5.5 -10.06,-8.28 -16.32,-8.28 -5.6,0 -10.02,2.5 -13.22,7.44 -2.21,3.48 -4.98,11.94 -8.42,25.4 -4.56,18.15 -8.51,30.71 -11.85,37.77 -3.39,7 -7.99,12.32 -13.92,15.94 -5.88,3.62 -12.42,5.46 -19.57,5.46 -6.54,0 -12.56,-1.51 -18.11,-4.47 -5.55,-3.01 -10.16,-7.06 -13.83,-12.18 -2.82,-3.86 -5.22,-9.13 -7.19,-15.76 -1.98,-6.68 -2.97,-13.78 -2.97,-21.4 0,-11.48 1.65,-21.54 4.99,-30.2 3.29,-8.7 7.81,-15.1 13.45,-19.24 5.69,-4.09 13.27,-6.96 22.77,-8.51l3.38 24.27c-7.62,1.08 -13.59,4.28 -17.87,9.55 -4.28,5.27 -6.4,12.7 -6.4,22.34 0,11.34 1.88,19.47 5.65,24.32 3.76,4.84 8.18,7.29 13.21,7.29 3.2,0 6.12,-0.99 8.71,-3.01 2.63,-2.02 4.84,-5.18 6.58,-9.5 0.94,-2.5 3.06,-9.74 6.35,-21.87 4.66,-17.5 8.52,-29.73 11.48,-36.69 2.96,-6.96 7.34,-12.42 12.98,-16.37 5.69,-4 12.75,-5.98 21.21,-5.98 8.24,0 16,2.4 23.29,7.25 7.29,4.84 12.93,11.8 16.93,20.88 4,9.13 5.97,19.43 5.97,30.91 0,19 -3.95,33.53 -11.8,43.5 -7.9,9.98 -19.57,16.33 -35.04,19.1z"/>
  <path id="7" class="fil5" d="M28488.57 18527.93l-28.22 0 0 -28.22 28.22 0 0 28.22z"/>
  <path id="8" class="fil5" d="M28434.95 18360.9l3.38 -24.27c16.7,2.68 29.73,9.45 39.19,20.41 9.45,10.96 14.15,24.46 14.15,40.41 0,19.99 -6.53,36.08 -19.61,48.21 -13.08,12.18 -31.8,18.25 -56.16,18.25 -15.81,0 -29.59,-2.63 -41.39,-7.85 -11.86,-5.22 -20.75,-13.17 -26.63,-23.9 -5.92,-10.68 -8.89,-22.29 -8.89,-34.9 0,-15.85 4,-28.88 12.04,-38.95 8.05,-10.11 19.48,-16.6 34.25,-19.42l3.67 23.99c-9.83,2.3 -17.22,6.35 -22.2,12.23 -4.94,5.83 -7.44,12.88 -7.44,21.16 0,12.51 4.47,22.67 13.41,30.53 8.98,7.81 23.09,11.71 42.47,11.71 19.66,0 33.92,-3.76 42.81,-11.29 8.89,-7.57 13.35,-17.4 13.35,-29.49 0,-9.78 -2.96,-17.92 -8.93,-24.41 -5.93,-6.54 -15.1,-10.68 -27.47,-12.42z"/>
  <path id="9" class="fil5" d="M28415.33 18324.78c-27.04,0 -47.08,-7.53 -60.11,-22.63 -10.82,-12.56 -16.23,-27.94 -16.23,-46.05 0,-20.08 6.59,-36.54 19.76,-49.34 13.12,-12.75 31.33,-19.14 54.51,-19.14 18.82,0 33.59,2.82 44.36,8.46 10.77,5.65 19.14,13.88 25.12,24.7 5.97,10.77 8.93,22.58 8.93,35.32 0,20.51 -6.53,37.07 -19.66,49.72 -13.12,12.65 -32.03,18.96 -56.68,18.96zm0.05 -25.4c18.72,0 32.74,-4.1 42,-12.28 9.32,-8.23 13.97,-18.53 13.97,-31 0,-12.32 -4.65,-22.57 -14.01,-30.81 -9.36,-8.18 -23.61,-12.27 -42.76,-12.27 -18.06,0 -31.75,4.14 -41.01,12.37 -9.32,8.23 -13.97,18.48 -13.97,30.71 0,12.47 4.61,22.77 13.87,31 9.27,8.18 23.24,12.28 41.91,12.28z"/>
  <path id="10" class="fil5" d="M28488.57 18158.5l-146.47 0 0 -22.29 20.69 0c-7.15,-4.56 -12.93,-10.68 -17.26,-18.3 -4.37,-7.62 -6.54,-16.27 -6.54,-26.01 0,-10.82 2.26,-19.71 6.73,-26.62 4.52,-6.92 10.77,-11.81 18.86,-14.63 -17.07,-11.67 -25.59,-26.77 -25.59,-45.39 0,-14.58 4,-25.83 12.04,-33.63 8.05,-7.86 20.42,-11.81 37.12,-11.81l100.42 0 0 24.84 -92.19 0c-9.88,0 -17.03,0.84 -21.4,2.44 -4.38,1.6 -7.86,4.52 -10.54,8.8 -2.68,4.23 -4,9.22 -4,14.91 0,10.35 3.44,18.91 10.26,25.73 6.86,6.82 17.82,10.2 32.87,10.2l85 0 0 24.84 -95.06 0c-11.01,0 -19.29,2.02 -24.79,6.07 -5.5,4.04 -8.28,10.67 -8.28,19.85 0,6.96 1.84,13.4 5.51,19.33 3.66,5.93 9.03,10.21 16.13,12.89 7.05,2.63 17.26,3.95 30.57,3.95l75.92 0 0 24.83z"/>
  <g id="_2842686258896">
   <path class="fil2 str2" d="M1296.63 18173.24l815.93 0 0 1592.89 -815.93 0 0 -1592.89z"/>
   <path class="fil6" d="M1644.73 18609.37c-0.92,3.32 -1.63,6.35 -2.07,9.15 -0.44,2.79 -0.65,5.18 -0.65,7.22 0,5.59 1.8,9.56 5.29,11.89 3.49,2.33 9.55,3.49 18.05,3.49l4.15 0 -4.96 22.72 -78.17 0 5.29 -22.72 2.89 0c7.36,0 12.82,-1.51 16.48,-4.54 3.6,-2.97 6.32,-8.39 8.12,-16.14l37.59 -153.79c0.6,-2.74 1.14,-5.54 1.52,-8.45 0.33,-2.91 0.55,-5.77 0.55,-8.62 0,-5.36 -1.96,-9.15 -5.95,-11.36 -3.92,-2.22 -10.69,-3.32 -20.23,-3.32l-3.06 0 5.29 -22.72 72.33 0 62.14 183.5 31.31 -129.03c1.08,-4.2 1.85,-7.63 2.34,-10.31 0.49,-2.68 0.71,-4.72 0.71,-6.06 0,-5.6 -1.8,-9.56 -5.35,-11.89 -3.6,-2.33 -9.71,-3.49 -18.32,-3.49l-4.15 0 4.96 -22.72 78.5 0 -5.62 22.72 -2.84 0c-7.37,0 -12.87,1.51 -16.47,4.54 -3.66,2.97 -6.33,8.33 -8.18,15.96l-50.68 208.44 -21.54 0 -72.06 -209.48 -37.21 155.01z"/>
   <path class="fil1 str4" d="M1705.42 19632.93l0 -769.27"/>
   <path class="fil1 str4" d="M1423.37 19356.88l563.14 0"/>
   <path class="fil1 str4" d="M1560.52 19496.87l294.22 -286.81"/>
   <path class="fil1 str4" d="M1557.38 19209.82l297.98 288.85"/>
   <path class="fil1 str4" d="M1705.28 18866.39l-95.47 118.01"/>
   <path class="fil1 str4" d="M1705.9 18866.35l87.89 118.05"/>
  </g>
  <g id="_2842686251568">
   <path class="fil2 str2" d="M4858.03 19296.68l0 473.7 -2248.3 0 0 -473.7 2248.3 0z"/>
   <path class="fil6" d="M3686.5 19635.15l0 -202.07 26.81 0 0 178.36 99.34 0 0 23.71 -126.15 0z"/>
   <path id="1" class="fil6" d="M3937.16 19616.81c-9.22,7.85 -18.11,13.35 -26.62,16.6 -8.52,3.25 -17.64,4.84 -27.43,4.84 -16.08,0 -28.45,-3.9 -37.11,-11.75 -8.65,-7.81 -12.98,-17.83 -12.98,-30.01 0,-7.15 1.65,-13.69 4.89,-19.62 3.29,-5.93 7.57,-10.63 12.84,-14.2 5.32,-3.58 11.24,-6.31 17.88,-8.14 4.89,-1.27 12.27,-2.49 22.1,-3.72 20.04,-2.35 34.86,-5.22 44.31,-8.51 0.1,-3.39 0.14,-5.55 0.14,-6.44 0,-10.07 -2.35,-17.17 -7.05,-21.31 -6.35,-5.6 -15.81,-8.37 -28.32,-8.37 -11.71,0 -20.36,2.07 -25.92,6.16 -5.59,4.09 -9.68,11.33 -12.37,21.78l-24.27 -3.39c2.21,-10.4 5.84,-18.82 10.92,-25.21 5.08,-6.4 12.41,-11.29 22.01,-14.77 9.55,-3.44 20.7,-5.18 33.3,-5.18 12.51,0 22.72,1.46 30.57,4.42 7.81,2.97 13.6,6.64 17.27,11.11 3.67,4.46 6.25,10.11 7.76,16.93 0.8,4.23 1.22,11.85 1.22,22.81l0 32.93c0,23 0.52,37.53 1.55,43.69 0.99,6.17 3.06,12.05 6.07,17.69l-25.96 0c-2.5,-5.22 -4.1,-11.34 -4.8,-18.34zm-1.98 -55.04c-9.03,3.67 -22.57,6.78 -40.64,9.32 -10.25,1.45 -17.49,3.1 -21.73,4.93 -4.23,1.84 -7.48,4.52 -9.78,8 -2.31,3.53 -3.48,7.43 -3.48,11.76 0,6.54 2.49,12.04 7.52,16.42 5.04,4.37 12.38,6.58 22.02,6.58 9.55,0 18.06,-2.07 25.54,-6.25 7.43,-4.14 12.93,-9.84 16.41,-17.03 2.69,-5.6 4,-13.83 4,-24.7l0.14 -9.03z"/>
   <path id="2" class="fil6" d="M3998.45 19635.15l0 -146.47 22.29 0 0 20.69c4.56,-7.15 10.68,-12.93 18.3,-17.26 7.62,-4.37 16.27,-6.54 26.01,-6.54 10.82,0 19.71,2.26 26.62,6.73 6.92,4.52 11.81,10.77 14.63,18.86 11.67,-17.07 26.77,-25.59 45.39,-25.59 14.58,0 25.83,4 33.63,12.04 7.86,8.05 11.81,20.42 11.81,37.12l0 100.42 -24.84 0 0 -92.19c0,-9.88 -0.84,-17.03 -2.44,-21.4 -1.6,-4.38 -4.52,-7.86 -8.8,-10.54 -4.23,-2.68 -9.22,-4 -14.91,-4 -10.35,0 -18.91,3.44 -25.73,10.26 -6.82,6.86 -10.2,17.82 -10.2,32.87l0 85 -24.84 0 0 -95.06c0,-11.01 -2.02,-19.29 -6.07,-24.79 -4.04,-5.5 -10.67,-8.28 -19.85,-8.28 -6.96,0 -13.4,1.84 -19.33,5.51 -5.93,3.66 -10.21,9.03 -12.89,16.13 -2.63,7.05 -3.95,17.26 -3.95,30.57l0 75.92 -24.83 0z"/>
   <path id="3" class="fil6" d="M4256.4 19635.15l-23.15 0 0 -202.07 24.84 0 0 72.11c10.49,-13.08 23.85,-19.62 40.12,-19.62 8.99,0 17.55,1.79 25.59,5.41 8.04,3.62 14.63,8.75 19.85,15.29 5.17,6.58 9.27,14.49 12.18,23.75 2.97,9.22 4.42,19.15 4.42,29.68 0,25.03 -6.21,44.41 -18.58,58.05 -12.41,13.68 -27.28,20.5 -44.63,20.5 -17.27,0 -30.81,-7.19 -40.64,-21.54l0 18.44zm-0.29 -74.32c0,17.5 2.4,30.15 7.15,37.96 7.81,12.75 18.35,19.14 31.66,19.14 10.86,0 20.23,-4.7 28.08,-14.11 7.9,-9.4 11.85,-23.42 11.85,-42.05 0,-19.09 -3.76,-33.16 -11.33,-42.24 -7.58,-9.07 -16.75,-13.64 -27.47,-13.64 -10.87,0 -20.23,4.71 -28.08,14.11 -7.9,9.41 -11.86,23.01 -11.86,40.83z"/>
   <path id="4" class="fil6" d="M4490.4 19587.74l25.68 3.38c-3.99,14.91 -11.47,26.53 -22.39,34.76 -10.91,8.24 -24.83,12.37 -41.81,12.37 -21.36,0 -38.29,-6.58 -50.8,-19.75 -12.51,-13.12 -18.77,-31.61 -18.77,-55.36 0,-24.56 6.31,-43.65 18.96,-57.2 12.65,-13.59 29.07,-20.37 49.25,-20.37 19.52,0 35.46,6.64 47.83,19.95 12.37,13.31 18.58,32.03 18.58,56.16 0,1.46 -0.05,3.67 -0.14,6.58l-109.08 0c0.94,16.04 5.46,28.37 13.64,36.88 8.14,8.51 18.35,12.79 30.53,12.79 9.08,0 16.84,-2.39 23.24,-7.19 6.44,-4.8 11.52,-12.47 15.28,-23zm-81.28 -39.8l81.56 0c-1.08,-12.32 -4.23,-21.54 -9.36,-27.7 -7.85,-9.55 -18.1,-14.35 -30.66,-14.35 -11.39,0 -20.93,3.81 -28.7,11.43 -7.71,7.62 -11.99,17.83 -12.84,30.62z"/>
   <path id="5" class="fil6" d="M4547.17 19635.15l0 -146.47 22.3 0 0 22.43c5.69,-10.39 10.96,-17.26 15.8,-20.55 4.85,-3.34 10.16,-4.99 15.95,-4.99 8.37,0 16.89,2.64 25.54,7.86l-8.84 22.91c-6.02,-3.39 -12.04,-5.08 -18.06,-5.08 -5.41,0 -10.26,1.64 -14.54,4.89 -4.28,3.24 -7.34,7.76 -9.17,13.54 -2.78,8.8 -4.14,18.44 -4.14,28.93l0 76.53 -24.84 0z"/>
   <path id="6" class="fil6" d="M4695.34 19613l3.39 21.91c-6.96,1.46 -13.22,2.22 -18.68,2.22 -8.98,0 -15.94,-1.42 -20.93,-4.28 -4.94,-2.87 -8.42,-6.59 -10.44,-11.25 -2.02,-4.65 -3.01,-14.44 -3.01,-29.35l0 -84.38 -18.34 0 0 -19.19 18.34 0 0 -36.22 24.84 -14.91 0 51.13 24.83 0 0 19.19 -24.83 0 0 85.79c0,7.11 0.42,11.67 1.31,13.69 0.85,2.02 2.26,3.62 4.24,4.85 1.97,1.17 4.79,1.78 8.46,1.78 2.73,0 6.35,-0.33 10.82,-0.98z"/>
   <circle class="fil7 str5" cx="2828.1" cy="19529.83" r="118.79"/>
   <rect class="fil7 str5" x="3286.03" y="19421.55" width="226.91" height="226.91"/>
   <g>
    <path class="fil1 str6" d="M3002 19528.96l220.31 0"/>
    <path class="fil1 str6" d="M3219.65 19529.62l-64.02 65.38"/>
    <path class="fil1 str6" d="M3219.82 19528.48l-63.42 -61.39"/>
   </g>
  </g>
 </g>
</svg>
