<?xml version="1.0" encoding="UTF-8"?>
<!DOCTYPE svg PUBLIC "-//W3C//DTD SVG 1.1//EN" "http://www.w3.org/Graphics/SVG/1.1/DTD/svg11.dtd">
<!-- Creator: CorelDRAW -->
<svg xmlns="http://www.w3.org/2000/svg" xml:space="preserve" width="210mm" height="297mm" version="1.1" style="shape-rendering:geometricPrecision; text-rendering:geometricPrecision; image-rendering:optimizeQuality; fill-rule:evenodd; clip-rule:evenodd"
viewBox="0 0 21000 29700"
 xmlns:xlink="http://www.w3.org/1999/xlink">
 <defs>
  <style type="text/css">
   <![CDATA[
    .str1 {stroke:black;stroke-width:10;stroke-opacity:0.501961}
    .str3 {stroke:black;stroke-width:50}
    .str5 {stroke:#434242;stroke-width:10}
    .str0 {stroke:black;stroke-width:10}
    .str2 {stroke:black;stroke-width:10}
    .str6 {stroke:#2B2A29;stroke-width:7.62}
    .str4 {stroke:black;stroke-width:7.62}
    .fil5 {fill:none}
    .fil0 {fill:#FEFEFE}
    .fil7 {fill:#D9DADA}
    .fil4 {fill:#FEFEFE;fill-rule:nonzero}
    .fil3 {fill:#D9DADA;fill-rule:nonzero}
    .fil6 {fill:#434242;fill-rule:nonzero}
    .fil2 {fill:black;fill-rule:nonzero}
    .fil1 {fill:#FEFEFE;fill-rule:nonzero;fill-opacity:0.501961}
   ]]>
  </style>
 </defs>
 <g id="Plan_x0020_1">
  <metadata id="CorelCorpID_0Corel-Layer"/>
  <path class="fil0 str0" d="M3148 23614c72,-12 143,-33 209,-65 124,-60 369,-154 454,-261 30,-87 30,-169 62,-257 46,-125 86,-204 42,-337 -19,-56 -72,-75 -101,-123 -49,-81 -64,-130 -86,-222 -5,-60 -14,-70 21,-119 19,-26 26,-58 26,-91 0,-67 67,-123 67,-203 0,-46 -47,-74 -57,-116 -16,-67 64,-135 64,-218 0,-36 -24,-77 -37,-110 -27,-69 -42,-67 -37,-152 14,-83 -25,-166 -99,-196 -15,-6 6,-60 2,-82 -11,-64 -36,-110 -97,-141 -72,-36 -125,-116 -198,-161 -75,-46 -69,-195 -94,-277 -23,-71 -128,-135 -176,-186 -74,-79 -205,-229 -184,-350 24,-133 -9,-298 49,-423 20,-50 10,-84 56,-123 63,-52 133,-109 133,-198 0,-142 -42,-265 -105,-380 -26,-48 4,-114 -32,-164 -11,-15 -64,-75 -77,-81 0,-60 -35,-107 -80,-140 -103,-130 -293,-194 -266,-397 11,-85 0,-178 15,-263 6,-35 20,-67 26,-101 7,-35 -5,-80 -5,-118 12,-80 -13,-227 -30,-307 -15,-72 -39,-118 -67,-184 -20,-47 -44,-250 -10,-291 31,-37 19,-75 -7,-110 -40,-53 -15,-99 -15,-161l-31 -489c-7,-104 -4,-190 23,-289 29,-105 -66,-203 19,-289 22,-101 41,-224 27,-334 -19,-146 -35,-265 -13,-414 13,-86 -40,-56 -62,-110 -20,-49 27,-135 11,-202 8,-38 -18,-180 -25,-226 -7,-42 -21,-97 -1,-136 31,-62 26,-99 -16,-150 -11,-14 -79,-63 -79,-72 90,-22 36,-185 29,-238 -176,-44 12,-124 12,-227 4,-38 -21,-62 -21,-94 0,-71 43,-183 55,-259 22,-137 70,-265 114,-394 13,-38 15,-101 -6,-135 -25,-42 -70,-55 -70,-115 -11,-16 -16,-37 -37,-32 -1,4 -4,6 -5,8 -15,0 -27,14 -49,8 -65,-17 52,-84 74,-107 61,-64 331,-360 414,-333 58,19 61,-7 97,51 21,34 26,76 45,107 24,40 60,4 73,68l36 185c20,103 133,65 137,173 4,91 24,303 63,381 73,147 400,30 305,-97 -44,-59 -108,-103 -142,-167 -43,-81 -113,-108 21,-128 10,-72 -13,-97 -66,-141 -54,-46 -8,-68 12,-116 14,-33 -80,-137 -104,-171 -27,-38 -17,-53 -66,-64 -60,-14 -56,-33 -56,-90 30,-43 21,-118 54,-161 52,-69 135,-92 156,-192 7,-33 -23,-39 -27,-70 -6,-50 52,-82 44,-144 -9,-66 -46,-128 -75,-186 -40,-81 -54,-114 -54,-209 -9,-108 -92,-87 -163,-33 -113,85 -163,88 -237,-23 -45,-68 -27,-72 12,-141 16,-29 39,-113 74,-113 8,25 110,-44 123,-53 67,-46 39,-28 97,-13 26,7 44,-64 98,-45 53,18 136,17 161,82 16,42 62,74 36,11 -12,-28 -39,-67 -44,-95 -10,-56 123,17 136,26 17,12 126,118 130,131 7,2 15,21 25,21 1,2 -11,-55 -35,-88 -46,-67 -154,-82 -193,-143 -13,-20 -12,-41 -12,-64 0,-23 -24,-25 -38,-39 -15,-15 66,-22 85,-48 20,-27 8,-42 -12,-61 -43,-40 40,-47 5,-86 -54,-60 12,-50 25,-91l6 0 1 1c8,32 -26,52 -1,91 24,39 59,81 100,101 58,29 114,-56 141,44 20,32 74,100 85,130 11,32 -20,58 -20,86 57,0 53,-126 66,-164 11,0 127,68 133,76 34,43 -32,183 -32,239 0,121 -60,210 -82,323 -18,43 -27,76 -52,115 -27,40 -73,82 -82,130 -13,71 33,15 60,56 29,47 -7,173 -18,223 -18,80 -21,132 -2,206 39,0 83,-14 126,-14 7,27 -9,72 24,92 63,39 80,-10 137,61 54,68 126,-4 100,142 9,72 32,109 58,172 28,66 37,167 133,140 37,-10 110,-41 113,-88 5,-78 -159,-89 -159,-167 0,-50 -8,-104 37,-134 29,-20 60,9 91,-21l0 -4c30,-20 -14,-64 -35,-70 -30,-17 -76,-52 -99,-78 -49,-53 7,-30 26,-70 17,-35 2,-60 4,-97 2,-44 38,-33 38,-68 0,-27 -9,-53 -6,-80 4,-36 56,-67 70,-106 10,-27 -9,-50 -18,-75 -8,-24 2,-110 15,-131 30,-48 110,-51 116,-116 -22,-37 -58,-60 -80,-99 -27,-49 127,-112 157,-158 19,-28 13,-35 2,-62 -8,-21 -6,-47 27,-30 14,7 -9,52 20,62 26,9 83,-66 86,-51 8,47 9,70 43,109 30,33 71,40 98,69 78,84 43,128 168,50 93,-58 82,-50 77,-155 -2,-52 -134,-139 -61,-158 100,-26 -82,-86 -111,-86 0,7 68,76 17,76 -90,0 -65,-102 -184,-14 -127,94 -532,-334 -573,-451 -9,-68 -17,-174 -41,-236 -17,-43 -65,-84 -50,-135 9,-30 43,-38 43,-82 0,-12 -25,-44 -31,-61 -13,-38 5,-131 11,-172 11,-76 -34,-89 -66,-147 -4,-147 29,-150 112,-260 25,-34 2,-73 23,-103 37,-54 155,-64 176,-148 4,-14 13,-127 10,-136 -1,-3 -50,-47 -61,-67 -21,-39 -66,-88 -76,-131 -17,-71 5,-130 15,-203 13,-84 -2,-110 69,-173 37,-33 75,-46 113,-74 58,-43 83,-176 130,-239 87,-116 250,160 296,208 131,139 95,110 48,288 -16,59 -10,146 66,146 56,0 97,28 97,-39 0,-125 140,-56 188,-137 20,-34 -11,-155 -11,-206 81,-20 156,-141 93,-199 -79,-73 67,-315 -111,-345 -66,-11 -151,35 -204,16 -35,-13 -3,-38 -64,-44 -56,-6 -50,-70 -50,-110 21,-25 8,-92 8,-125 0,-40 32,-51 41,-87 18,-79 -46,-77 19,-150 81,-92 35,-115 30,-210 -5,-98 69,-68 116,-80 -10,-42 -16,-53 30,-80 41,-24 55,-98 55,-142 35,-16 61,-17 97,-30 30,-11 99,-152 98,-187 -3,-78 -4,-95 20,-167 27,-80 1,-151 -21,-224 -11,-35 -10,-98 -4,-134 9,-50 -7,-108 -7,-160 3,-17 8,-33 8,-50 -96,-24 -30,-143 -69,-227 -7,-16 28,-164 39,-180 41,-57 86,214 104,235 8,9 67,92 79,58 12,-35 -12,-87 -4,-126 2,-8 1,-7 4,-1l44 117c13,34 91,-66 111,-82 65,-56 157,-107 113,-206 -8,-17 -43,-40 -6,-54 43,-16 20,4 33,26 8,14 142,7 119,-8 -93,-64 -5,-170 7,-252 4,-29 -1,-95 20,-112 38,-30 53,-60 31,-112l5 -98c3,-58 39,-109 42,-173 4,-98 -26,-147 86,-180 42,-13 90,-41 130,-62 56,-29 116,-44 174,-70 109,-43 82,-133 151,-168 36,-18 53,-96 123,-55 58,34 65,105 143,-5 71,-101 151,-212 220,-54 80,182 356,-114 466,-186 20,-13 35,-172 29,-203 -17,-88 78,-193 137,-252 66,-19 267,-137 272,-205l11 -167c1,-9 20,-62 30,-38l50 123c12,31 134,7 163,-5 35,-14 9,-51 27,-72 38,-41 24,9 24,31 47,12 86,-62 151,-10 197,157 224,-340 475,-235 23,2 47,7 69,12 50,11 65,-17 102,25 27,30 38,45 23,-11 -15,-54 -21,-100 -56,-146 -13,-18 -72,7 -72,-8 0,-9 56,-51 69,-42 105,80 167,200 265,283 244,278 627,368 891,611 26,20 134,101 130,124 -15,91 -3,196 -10,288l-14 204c17,4 90,-4 98,6 42,53 -78,34 -93,53 -38,47 8,179 32,223 37,109 181,165 224,264 9,21 -14,46 -12,70 5,60 230,205 287,241 67,42 22,335 27,420 0,69 -24,55 -38,106 -30,105 26,56 60,56 56,225 468,351 667,351 26,0 56,5 81,0 67,-13 -1,-49 75,-20 71,27 144,-69 174,-50 46,28 144,-13 199,-17 158,14 290,28 423,121 72,50 165,216 249,227 3,-2 4,-2 7,-4l14 -21c89,-32 315,58 391,109 154,104 116,47 257,-41l182 -147 195 89 -16 11 -179 -76 -175 150c27,14 52,10 79,-1 12,-5 32,-11 44,-8 16,4 68,-26 76,-9 3,6 13,61 12,63 -23,0 -35,-27 -61,-26 -23,1 -18,17 -30,27 -15,12 -26,-10 -42,-11 -24,-3 -67,19 -88,32 -18,12 -72,88 -20,86 23,-1 43,-28 66,-33 12,-2 57,-2 57,17 -8,8 -40,9 -51,12 -27,6 -56,21 -82,32 -26,11 -54,47 -43,77 12,35 121,-44 142,-53 66,-26 -23,41 -30,54 -13,21 18,29 16,54 -1,15 5,46 -2,57 -12,20 -28,-1 -44,-2 -63,-2 -94,138 -89,181 -5,62 -30,162 -6,219 22,55 101,93 101,149 -35,35 5,184 4,235l-7 351c-24,97 39,247 82,333 34,69 98,166 27,229 -26,39 -25,90 -27,135 -1,14 2,29 2,44 0,38 -10,65 -20,10 -27,-143 -72,119 -143,95 0,-36 48,-94 56,-137 5,-28 28,-185 12,-185 -26,0 -32,74 -36,93 -43,221 -274,69 -352,181 -22,32 -71,139 5,121 33,-8 46,5 68,-24 15,-19 33,-56 61,-56 0,59 -92,132 -74,206 59,0 135,-168 186,-168 12,49 -12,45 45,37 83,-11 -59,117 -70,131 -75,94 -70,166 -57,282 6,51 -16,50 -61,50 -92,7 -185,-25 -231,-110 -15,-27 2,-130 -24,-141 -30,-12 -125,-68 -150,-64 -57,99 201,279 260,326l297 234c9,-15 -36,-59 -37,-79 -2,-40 25,-61 0,-106 -20,-35 17,-95 37,-123 3,0 2,0 5,-2 21,0 31,38 75,31 74,-12 100,22 164,36 27,6 -4,60 -4,82 0,81 55,88 81,146 23,52 -44,151 -56,204 -12,41 -13,80 -60,90 -74,15 -6,302 -132,369 -23,12 -41,-13 -62,-18 -65,-15 -31,48 -104,-14 -20,-17 -81,-6 -106,-5 -85,3 -132,-77 -216,-13 -50,38 -67,118 -79,178 -30,154 149,38 189,94 18,25 -28,47 -37,63 -20,37 -25,87 -25,129 4,52 -29,118 36,127 28,4 6,160 -6,187 -21,48 -74,103 -107,144 -18,23 -50,70 -79,79 -39,11 -45,-30 -68,-55 -26,-29 -92,3 -123,13 -32,11 0,19 -5,39 -2,9 -30,37 -38,43 -14,44 -56,28 -85,10 -54,-35 -25,11 -60,21 -66,21 -140,-42 -212,4 -49,31 -75,77 -98,129 -41,92 24,98 24,179 0,32 -26,70 -36,101 -15,47 -8,108 -8,156 20,93 146,-21 132,44 -10,46 -41,93 -55,142 -25,90 -29,184 -61,272 -36,99 -107,190 -153,286 -62,99 -4,193 61,264 32,35 106,112 114,158 11,61 -2,137 45,186 41,43 199,100 213,141 12,34 -14,47 18,88 31,40 77,80 114,115 89,73 144,155 161,271 7,47 -7,179 38,202 53,27 75,17 50,70 -11,23 -28,58 -20,84 7,21 23,29 21,55 -2,29 -61,63 -26,105 26,31 41,65 41,105 -2,28 -9,122 -61,76 -11,-10 -15,-18 -30,-23 -57,-20 -65,-1 -8,26 75,36 13,68 25,115 12,47 -10,45 -50,55 0,14 33,29 33,58 0,19 -39,21 -51,43 -12,23 33,77 39,107 6,29 -62,141 -37,169 15,17 54,0 62,21 8,23 11,64 4,87 -30,70 -156,155 -83,245 47,58 159,-88 179,14 5,26 27,51 33,78 6,27 -37,30 -39,53 -8,66 1,72 -81,85 -112,18 -204,73 -204,201 0,177 226,184 340,112 81,-51 51,-52 101,-125 14,-20 55,88 50,106 -94,0 -123,76 -37,124 60,34 98,32 149,-16 16,-15 79,-99 85,-99 30,0 32,51 64,57 60,11 2,-75 64,-80 57,-5 12,61 26,112l153 192c39,49 31,66 93,56 84,-13 68,116 153,132 40,8 28,-36 48,-61 23,-30 48,-7 76,-1 5,37 -39,83 -50,122 -15,52 42,141 7,175 -56,56 -169,51 -198,121 7,70 4,145 31,211 34,83 94,134 163,187 46,35 68,99 131,115 0,20 -64,23 -64,95 0,84 24,140 -17,218 -16,30 -9,68 -24,101 -19,42 -62,29 -62,91 -16,79 11,81 55,136 -2,3 -1,5 -1,8 -15,0 -66,-42 -75,-23 -11,24 57,148 73,168 67,84 15,191 18,289 4,140 33,316 6,452 -4,50 16,113 29,161 20,79 -3,137 -23,210 -6,20 -7,55 -18,72 -25,38 -23,6 -58,-1 -15,46 -45,69 -43,131 2,57 36,110 41,168 -7,44 55,285 85,321 29,36 92,110 99,154 8,47 -15,97 -15,146 0,52 -7,165 -50,201 -28,23 -33,47 -76,39 -42,-7 -73,7 -89,49 -31,75 -22,104 -116,100 -48,-2 -75,16 -97,58 -12,24 -104,96 -94,112 17,29 79,49 79,90 -13,3 -65,-31 -68,-42 -4,0 -6,0 -10,1 -6,26 -14,50 -24,76 -3,9 30,43 39,49 17,12 70,-79 86,-98 20,-24 39,5 60,27 65,70 -32,68 -58,111 -13,21 2,60 -8,85 -16,41 -57,102 -85,135 -14,20 -10,43 -23,63 -19,32 -54,54 -70,88 -11,23 -20,49 -29,74 -10,29 -32,60 -48,86 -10,16 -29,30 -35,45l119 51 -69 152 -120 -57c-29,43 -63,82 -93,125l-130 186c-43,62 -95,99 -131,171 -11,64 -148,189 -205,216 -170,80 -183,176 -259,340 -69,150 -169,278 -191,446 -5,86 -13,181 -48,260 -26,60 -76,109 -101,171 -36,87 -20,196 -15,288 7,129 -37,172 -92,282 -59,165 -185,292 -261,444 -81,163 -137,375 -179,553 -32,105 -49,223 -95,322 -16,35 -35,77 -67,101 -36,27 -54,-8 -86,-8 -4,6 1,40 -2,53 -22,79 -65,178 -161,153 -100,-26 -135,50 -222,35 -94,12 -82,-47 -125,53 -55,127 -131,234 -100,380 27,126 25,308 -118,364 -93,57 -179,122 -255,202 -37,39 -137,162 -192,162l-5 -4c0,-28 24,-55 25,-88 2,-44 4,-135 -7,-177 -17,-67 -95,-89 -89,-162 3,-38 13,-76 -4,-113 -23,-53 -51,-50 -51,-119 33,-9 68,-122 124,-48 8,11 61,59 73,63 65,25 -21,-106 -20,-112 1,-17 63,-91 81,-94 14,23 -17,145 21,136 23,-5 37,-51 39,-72 6,-47 49,-86 61,-135 14,-56 23,-128 20,-186 -1,-29 -11,-60 -20,-86 -4,-12 -4,-61 -18,-61 -22,43 1,108 -20,138 -18,26 -27,52 -27,84 0,15 11,51 6,62 -9,20 -24,5 -39,12 -30,13 -29,123 -89,93 0,-23 26,-63 30,-92 6,-52 1,-105 1,-158 0,-23 16,-42 19,-66 3,-29 -8,-61 -8,-91 13,-32 -11,-93 5,-109 20,-20 4,-71 4,-97 -15,0 -35,71 -41,86 -20,49 -53,110 -89,147 -20,21 -86,-46 -125,-21 -23,14 -4,83 -68,60 -21,-8 -129,-71 -137,-68 -8,3 -22,151 -62,93 -20,-29 -148,-255 -159,-210l-51 208c-56,-14 38,-272 48,-306 10,-33 -11,-211 -52,-211 -11,45 27,115 14,167 -23,0 -38,-69 -75,-69 -13,51 55,64 7,127 -48,63 0,109 -54,166 -58,77 -101,-87 -122,-107 -47,-47 -60,-7 -113,2 -66,11 -51,56 -88,86 -35,28 -77,-32 -124,-30 -32,1 -110,0 -118,35 -11,48 17,47 -41,62 -50,13 -81,100 -132,18 -20,-32 -36,-76 -64,-21 -20,37 13,52 10,58 -5,10 -49,38 -61,53 -11,13 -26,24 -26,43 0,16 50,-15 50,17 0,33 5,73 -8,103 14,27 129,187 149,106 52,0 86,91 153,33 62,-54 102,28 160,26 51,-1 211,-105 254,-64 22,21 36,53 61,70 28,19 36,65 60,74 48,6 66,-14 97,-47 11,-11 35,-34 51,-23 8,5 -27,47 -31,56 -20,44 25,81 51,111 35,39 68,-25 105,17 35,40 34,156 100,159 75,3 55,-37 70,-93 14,-52 25,-84 43,-24 15,51 109,90 51,144 -56,53 -105,97 -136,172 -71,158 -15,351 -13,517l2 186c1,54 -58,103 -82,149 -9,58 -6,114 21,162l0 0 -1789 311 -186 109 -804 119 -1376 -438 -947 -690 -1069 -2082 -510 -878 0 0zm5416 -21528c30,28 60,68 105,68 48,0 106,-43 157,-48 56,-5 76,-11 129,6 -1,6 -79,6 -93,8 -12,2 -157,24 -102,51 26,13 82,-4 112,-5 64,-2 136,-30 198,-11 87,27 -29,42 -50,45 -56,8 -235,-2 -265,45 -31,49 57,75 -17,107 -25,11 -53,-5 -70,-20 -31,-28 23,-90 -12,-92 -16,-1 -2,45 -36,47 -44,2 -14,-64 -26,-91 -19,-41 -43,-61 -54,-109l24 -4zm4967 6431c12,-34 18,-55 45,-80 28,-26 61,-45 87,-73 23,-25 36,-66 77,-66 7,29 -21,75 -33,103 -22,50 -60,102 -101,137 -18,16 -28,39 -46,56 -32,29 -51,-5 -41,-37l12 -41zm-178 5276c-24,-23 -59,-48 -61,-84 -1,-17 -4,-34 5,-50 10,-18 50,28 57,38 26,34 86,42 95,90 4,19 5,19 -15,19 -17,-1 -26,7 -31,21 -18,0 -26,-3 -39,-14l-11 -18zm11 580c0,22 20,46 32,62 10,13 24,27 19,47 -4,14 -19,23 -32,23 -20,0 -35,-4 -35,-25 0,-37 -17,-31 -48,-31 -17,0 -49,-24 -58,-38 -11,-17 15,-15 24,-26 14,-18 8,-71 29,-78 23,-7 46,36 61,47l8 20zm142 218c-25,4 -52,4 -76,8 -19,4 0,22 -8,33 -8,12 -43,17 -37,38 4,15 38,10 49,13 26,8 70,21 88,41 16,17 35,26 58,25 43,-2 14,-56 1,-76 -10,-16 2,-28 5,-43 4,-18 -31,-19 -38,-29l-42 -11zm-270 705c-5,-9 -11,-24 -14,-34 -5,-17 -17,-38 3,-49 8,-4 24,-18 27,-5 3,12 2,23 9,35 5,7 9,15 13,23 5,10 15,22 13,35 -3,16 -28,15 -38,8l-12 -13zm-12235 -14296l14945 0 0 27700 -14945 0 0 -27700z"/>
  <polygon class="fil1 str1" points="12396,1231 15360,1231 15360,2824 12396,2824 "/>
  <path class="fil2" d="M15528 2958c0,-17 4,-34 13,-51 9,-17 22,-30 38,-39 17,-9 34,-14 52,-14 18,0 35,5 52,14 17,9 29,22 39,38 9,17 14,34 14,52 0,18 -5,35 -14,52 -9,17 -22,29 -39,39 -17,9 -34,14 -52,14 -18,0 -35,-5 -52,-14 -17,-9 -30,-22 -38,-39 -9,-17 -13,-34 -13,-51zm17 0c0,15 4,29 11,43 7,14 18,25 32,32 14,8 28,12 43,12 15,0 29,-4 43,-12 14,-8 24,-18 32,-32 8,-14 12,-28 12,-43 0,-15 -4,-29 -12,-43 -8,-14 -18,-25 -32,-32 -14,-8 -28,-11 -43,-11 -15,0 -30,4 -43,12 -14,8 -25,19 -32,32 -7,14 -11,28 -11,43zm104 -33l5 -17c12,3 21,9 28,18 7,9 10,20 10,33 0,16 -5,29 -16,39 -10,10 -25,15 -44,15 -12,0 -23,-2 -32,-7 -9,-5 -16,-11 -20,-20 -5,-9 -7,-18 -7,-29 0,-12 3,-22 9,-30 6,-8 14,-14 24,-17l4 16c-7,3 -12,7 -16,12 -4,5 -6,12 -6,19 0,11 4,19 11,26 8,7 18,10 32,10 14,0 25,-3 32,-10 7,-6 11,-15 11,-25 0,-8 -2,-16 -7,-22 -5,-6 -11,-10 -20,-12z"/>
  <path id="1" class="fil2" d="M15734 2663l-19 0c14,9 22,23 22,41 0,12 -3,22 -10,32 -6,10 -15,17 -27,23 -12,5 -25,8 -40,8 -15,0 -28,-2 -40,-7 -12,-5 -21,-12 -27,-22 -6,-10 -10,-21 -10,-33 0,-9 2,-17 6,-24 4,-7 9,-12 15,-17l-73 0 0 -25 202 0 0 23zm-73 78c19,0 33,-4 42,-12 9,-8 14,-17 14,-28 0,-11 -4,-20 -13,-28 -9,-8 -22,-11 -41,-11 -20,0 -35,4 -44,12 -9,8 -14,17 -14,29 0,11 4,20 13,28 9,7 23,11 42,11z"/>
  <polygon id="2" class="fil2" points="15673,2611 15648,2611 15648,2534 15673,2534 "/>
  <path id="3" class="fil2" d="M15734 2507l-146 0 0 -22 21 0c-7,-5 -13,-11 -17,-18 -4,-8 -7,-16 -7,-26 0,-11 2,-20 7,-27 5,-7 11,-12 19,-15 -17,-12 -26,-27 -26,-45 0,-15 4,-26 12,-34 8,-8 20,-12 37,-12l100 0 0 25 -92 0c-10,0 -17,1 -21,2 -4,2 -8,5 -11,9 -3,4 -4,9 -4,15 0,10 3,19 10,26 7,7 18,10 33,10l85 0 0 25 -95 0c-11,0 -19,2 -25,6 -6,4 -8,11 -8,20 0,7 2,13 6,19 4,6 9,10 16,13 7,3 17,4 31,4l76 0 0 25z"/>
  <path id="4" class="fil2" d="M15716 2176c8,9 13,18 17,27 3,9 5,18 5,27 0,16 -4,28 -12,37 -8,9 -18,13 -30,13 -7,0 -14,-2 -20,-5 -6,-3 -11,-8 -14,-13 -4,-5 -6,-11 -8,-18 -1,-5 -2,-12 -4,-22 -2,-20 -5,-35 -9,-44 -3,0 -6,0 -6,0 -10,0 -17,2 -21,7 -6,6 -8,16 -8,28 0,12 2,20 6,26 4,6 11,10 22,12l-3 24c-10,-2 -19,-6 -25,-11 -6,-5 -11,-12 -15,-22 -3,-10 -5,-21 -5,-33 0,-13 1,-23 4,-31 3,-8 7,-14 11,-17 4,-4 10,-6 17,-8 4,-1 12,-1 23,-1l33 0c23,0 38,-1 44,-2 6,-1 12,-3 18,-6l0 26c-5,3 -11,4 -18,5zm-55 2c4,9 7,23 9,41 1,10 3,17 5,22 2,4 5,7 8,10 4,2 7,3 12,3 7,0 12,-2 16,-8 4,-5 7,-12 7,-22 0,-10 -2,-18 -6,-26 -4,-7 -10,-13 -17,-16 -6,-3 -14,-4 -25,-4l-9 0z"/>
  <path id="5" class="fil2" d="M15790 2115l-203 0 0 -23 19 0c-7,-5 -13,-11 -17,-18 -4,-7 -6,-15 -6,-24 0,-13 3,-24 10,-33 6,-10 15,-17 27,-22 12,-5 25,-7 38,-7 15,0 28,3 40,8 12,5 21,13 28,23 6,10 10,21 10,32 0,8 -2,16 -5,22 -3,7 -8,12 -13,16l71 0 0 25zm-129 -23c19,0 33,-4 42,-11 9,-8 13,-17 13,-28 0,-11 -5,-20 -14,-28 -9,-8 -24,-12 -43,-12 -19,0 -33,4 -42,11 -9,8 -14,17 -14,27 0,11 5,20 15,28 10,8 24,12 43,12z"/>
  <path id="6" class="fil2" d="M15690 1968l-4 -25c10,-1 17,-5 23,-12 5,-6 8,-15 8,-26 0,-11 -2,-20 -7,-25 -5,-6 -10,-8 -16,-8 -6,0 -10,3 -13,7 -2,3 -5,12 -8,25 -5,18 -9,31 -12,38 -3,7 -8,12 -14,16 -6,4 -12,5 -20,5 -7,0 -13,-2 -18,-4 -6,-3 -10,-7 -14,-12 -3,-4 -5,-9 -7,-16 -2,-7 -3,-14 -3,-21 0,-11 2,-22 5,-30 3,-9 8,-15 13,-19 6,-4 13,-7 23,-9l3 24c-8,1 -14,4 -18,10 -4,5 -6,13 -6,22 0,11 2,19 6,24 4,5 8,7 13,7 3,0 6,-1 9,-3 3,-2 5,-5 7,-10 1,-3 3,-10 6,-22 5,-18 9,-30 11,-37 3,-7 7,-12 13,-16 6,-4 13,-6 21,-6 8,0 16,2 23,7 7,5 13,12 17,21 4,9 6,19 6,31 0,19 -4,34 -12,44 -8,10 -20,16 -35,19z"/>
  <polygon id="7" class="fil2" points="15734,1809 15706,1809 15706,1781 15734,1781 "/>
  <path id="8" class="fil2" d="M15680 1642l3 -24c17,3 30,9 39,20 9,11 14,24 14,40 0,20 -7,36 -20,48 -13,12 -32,18 -56,18 -16,0 -30,-3 -41,-8 -12,-5 -21,-13 -27,-24 -6,-11 -9,-22 -9,-35 0,-16 4,-29 12,-39 8,-10 19,-17 34,-19l4 24c-10,2 -17,6 -22,12 -5,6 -7,13 -7,21 0,13 4,23 13,31 9,8 23,12 42,12 20,0 34,-4 43,-11 9,-8 13,-17 13,-29 0,-10 -3,-18 -9,-24 -6,-7 -15,-11 -27,-12z"/>
  <path id="9" class="fil2" d="M15661 1606c-27,0 -47,-8 -60,-23 -11,-13 -16,-28 -16,-46 0,-20 7,-37 20,-49 13,-13 31,-19 55,-19 19,0 34,3 44,8 11,6 19,14 25,25 6,11 9,23 9,35 0,21 -7,37 -20,50 -13,13 -32,19 -57,19zm0 -25c19,0 33,-4 42,-12 9,-8 14,-19 14,-31 0,-12 -5,-23 -14,-31 -9,-8 -24,-12 -43,-12 -18,0 -32,4 -41,12 -9,8 -14,18 -14,31 0,12 5,23 14,31 9,8 23,12 42,12z"/>
  <path id="10" class="fil2" d="M15734 1440l-146 0 0 -22 21 0c-7,-5 -13,-11 -17,-18 -4,-8 -7,-16 -7,-26 0,-11 2,-20 7,-27 5,-7 11,-12 19,-15 -17,-12 -26,-27 -26,-45 0,-15 4,-26 12,-34 8,-8 20,-12 37,-12l100 0 0 25 -92 0c-10,0 -17,1 -21,2 -4,2 -8,5 -11,9 -3,4 -4,9 -4,15 0,10 3,19 10,26 7,7 18,10 33,10l85 0 0 25 -95 0c-11,0 -19,2 -25,6 -6,4 -8,11 -8,20 0,7 2,13 6,19 4,6 9,10 16,13 7,3 17,4 31,4l76 0 0 25z"/>
  <g id="_1474623282944">
   <g>
    <polygon class="fil3 str2" points="12538,1834 13214,1834 13214,1933 12538,1933 "/>
    <polygon class="fil4 str2" points="13214,1834 13889,1834 13889,1933 13214,1933 "/>
    <polygon class="fil3 str2" points="13889,1834 14565,1834 14565,1933 13889,1933 "/>
    <polygon class="fil4 str2" points="14565,1834 15241,1834 15241,1933 14565,1933 "/>
    <polygon class="fil3 str2" points="13621,2133 14702,2133 14702,2232 13621,2232 "/>
    <polygon class="fil4 str2" points="12540,2133 13621,2133 13621,2232 12540,2232 "/>
   </g>
   <path class="fil2" d="M13589 1615l-16 45 -138 0 0 -6c41,-37 69,-67 86,-91 17,-23 25,-45 25,-64 0,-15 -5,-27 -14,-37 -9,-10 -20,-14 -33,-14 -12,0 -22,3 -31,10 -9,7 -16,16 -20,29l-6 0c3,-21 10,-37 22,-49 12,-11 27,-17 45,-17 19,0 35,6 48,18 13,12 19,27 19,43 0,12 -3,24 -8,36 -8,19 -22,38 -41,59 -29,31 -46,50 -53,56l60 0c12,0 21,0 26,-1 5,-1 9,-3 13,-6 4,-3 7,-7 10,-12l7 0z"/>
   <path id="1" class="fil2" d="M13616 1544c0,-27 4,-50 12,-69 8,-19 19,-34 32,-43 10,-7 21,-11 32,-11 18,0 34,9 48,27 18,23 27,53 27,92 0,27 -4,50 -12,69 -8,19 -18,33 -30,41 -12,9 -24,13 -35,13 -22,0 -41,-13 -56,-39 -13,-22 -19,-49 -19,-80zm34 4c0,32 4,58 12,79 7,17 16,26 29,26 6,0 13,-3 19,-8 7,-6 12,-15 15,-28 5,-20 8,-48 8,-83 0,-27 -3,-49 -8,-67 -4,-13 -9,-23 -16,-28 -5,-4 -10,-6 -17,-6 -8,0 -15,4 -21,11 -8,10 -14,24 -17,45 -3,20 -4,41 -4,60z"/>
   <path id="2" class="fil2" d="M13926 1415l0 157 40 -37c9,-8 13,-13 15,-15 1,-1 1,-3 1,-4 0,-2 -1,-4 -3,-6 -2,-2 -5,-3 -9,-3l0 -6 69 0 0 6c-9,0 -17,2 -23,4 -6,3 -13,7 -21,14l-41 37 40 51c11,14 19,23 23,27 6,5 10,9 15,10 3,1 8,2 15,2l0 6 -77 0 0 -6c4,0 7,-1 9,-2 2,-1 2,-3 2,-5 0,-3 -2,-7 -7,-13l-48 -62 0 52c0,10 1,17 2,20 1,3 3,5 6,7 3,1 8,2 17,2l0 6 -80 0 0 -6c8,0 14,-1 18,-3 2,-1 4,-3 5,-6 2,-4 3,-10 3,-20l0 -144c0,-18 0,-29 -1,-33 -1,-4 -2,-7 -4,-8 -2,-2 -4,-2 -7,-2 -2,0 -6,1 -11,3l-3 -6 47 -19 8 0z"/>
   <path id="3" class="fil2" d="M14103 1531c11,-12 18,-18 20,-20 5,-4 11,-8 17,-10 6,-2 12,-4 18,-4 10,0 18,3 25,9 7,6 12,14 14,25 12,-14 22,-23 30,-27 8,-4 17,-6 25,-6 8,0 16,2 22,6 6,4 12,11 15,21 3,7 4,17 4,31l0 68c0,10 1,17 2,20 1,2 3,5 6,6 3,2 8,3 15,3l0 6 -77 0 0 -6 3 0c7,0 12,-1 16,-4 3,-2 5,-5 6,-9 0,-2 1,-7 1,-17l0 -68c0,-13 -2,-22 -5,-27 -5,-7 -12,-11 -22,-11 -6,0 -12,2 -18,5 -6,3 -14,9 -22,17l0 2 1 7 0 75c0,11 1,17 2,20 1,3 3,5 7,7 3,2 9,3 17,3l0 6 -79 0 0 -6c9,0 15,-1 18,-3 3,-2 5,-5 7,-9 1,-2 1,-8 1,-17l0 -68c0,-13 -2,-22 -6,-28 -5,-7 -12,-11 -21,-11 -6,0 -12,2 -18,5 -9,5 -17,11 -22,17l0 85c0,10 1,17 2,20 1,3 4,5 6,7 3,2 8,2 17,2l0 6 -78 0 0 -6c7,0 12,-1 15,-2 3,-2 5,-4 7,-7 1,-3 2,-10 2,-20l0 -60c0,-17 -1,-28 -2,-34 -1,-4 -2,-6 -4,-8 -2,-1 -4,-2 -7,-2 -3,0 -7,1 -12,3l-3 -6 48 -19 7 0 0 34z"/>
   <path class="fil2" d="M13247 2418l57 -28 6 0 0 197c0,13 1,21 2,25 1,3 3,6 7,7 3,2 11,3 21,3l0 6 -88 0 0 -6c11,0 18,-1 21,-3 3,-2 5,-4 7,-7 1,-3 2,-11 2,-25l0 -126c0,-17 -1,-28 -2,-33 -1,-4 -2,-6 -4,-8 -2,-2 -5,-3 -8,-3 -4,0 -10,2 -18,5l-3 -5z"/>
   <path id="1" class="fil2" d="M13705 2500c11,-12 18,-18 20,-20 5,-4 11,-8 17,-10 6,-2 12,-4 18,-4 10,0 18,3 25,9 7,6 12,14 14,25 12,-14 22,-23 30,-27 8,-4 17,-6 25,-6 8,0 16,2 22,6 6,4 12,11 15,21 3,7 4,17 4,31l0 68c0,10 1,17 2,20 1,2 3,5 6,6 3,2 8,3 15,3l0 6 -77 0 0 -6 3 0c7,0 12,-1 16,-4 3,-2 5,-5 6,-9 0,-2 1,-7 1,-17l0 -68c0,-13 -2,-22 -5,-27 -5,-7 -12,-11 -22,-11 -6,0 -12,2 -18,5 -6,3 -14,9 -22,17l0 2 1 7 0 75c0,11 1,17 2,20 1,3 3,5 7,7 3,2 9,3 17,3l0 6 -79 0 0 -6c9,0 15,-1 18,-3 3,-2 5,-5 7,-9 1,-2 1,-8 1,-17l0 -68c0,-13 -2,-22 -6,-28 -5,-7 -12,-11 -21,-11 -6,0 -12,2 -18,5 -9,5 -17,11 -22,17l0 85c0,10 1,17 2,20 1,3 4,5 6,7 3,2 8,2 17,2l0 6 -78 0 0 -6c7,0 12,-1 15,-2 3,-2 5,-4 7,-7 1,-3 2,-10 2,-20l0 -60c0,-17 -1,-28 -2,-34 -1,-4 -2,-6 -4,-8 -2,-1 -4,-2 -7,-2 -3,0 -7,1 -12,3l-3 -6 48 -19 7 0 0 34z"/>
   <path id="2" class="fil2" d="M13973 2384c5,0 9,2 12,5 3,3 5,8 5,12 0,5 -2,9 -5,12 -3,3 -8,5 -12,5 -5,0 -9,-2 -12,-5 -3,-3 -5,-8 -5,-12 0,-5 2,-9 5,-12 3,-3 8,-5 13,-5zm14 83l0 127c0,10 1,16 2,20 1,3 4,6 6,7 3,2 8,2 15,2l0 6 -77 0 0 -6c8,0 13,-1 15,-2 3,-1 5,-4 6,-7 2,-3 2,-10 2,-20l0 -61c0,-17 -1,-28 -2,-33 -1,-4 -2,-6 -4,-8 -2,-1 -4,-2 -7,-2 -3,0 -7,1 -12,3l-2 -6 47 -19 8 0z"/>
   <path id="3" class="fil2" d="M13395 2514c0,-27 4,-50 12,-69 8,-19 19,-34 32,-43 10,-7 21,-11 32,-11 18,0 34,9 48,27 18,23 27,53 27,92 0,27 -4,50 -12,69 -8,19 -18,33 -30,41 -12,9 -24,13 -35,13 -22,0 -41,-13 -56,-39 -13,-22 -19,-49 -19,-80zm34 4c0,32 4,58 12,79 7,17 16,26 29,26 6,0 13,-3 19,-8 7,-6 12,-15 15,-28 5,-20 8,-48 8,-83 0,-27 -3,-49 -8,-67 -4,-13 -9,-23 -16,-28 -5,-4 -10,-6 -17,-6 -8,0 -15,4 -21,11 -8,10 -14,24 -17,45 -3,20 -4,41 -4,60z"/>
  </g>
  <rect class="fil5 str3" x="1000" y="1000" width="14945" height="27700"/>
  <g id="_1474663014720">
   <polygon class="fil1 str1" points="1334,1239 2150,1239 2150,2832 1334,2832 "/>
   <path class="fil6" d="M1683 1676c-1,3 -2,6 -2,9 0,3 -1,5 -1,7 0,6 2,10 5,12 3,2 10,3 18,3l4 0 -5 23 -78 0 5 -23 3 0c7,0 13,-2 16,-5 4,-3 6,-8 8,-16l38 -154c1,-3 1,-6 2,-8 0,-3 1,-6 1,-9 0,-5 -2,-9 -6,-11 -4,-2 -11,-3 -20,-3l-3 0 5 -23 72 0 62 184 31 -129c1,-4 2,-8 2,-10 0,-3 1,-5 1,-6 0,-6 -2,-10 -5,-12 -4,-2 -10,-3 -18,-3l-4 0 5 -23 79 0 -6 23 -3 0c-7,0 -13,2 -16,5 -4,3 -6,8 -8,16l-51 208 -22 0 -72 -209 -37 155z"/>
   <line class="fil5 str4" x1="1743" y1="2699" x2="1743" y2= "1930" />
   <line class="fil5 str4" x1="1461" y1="2423" x2="2024" y2= "2423" />
   <line class="fil5 str4" x1="1598" y1="2563" x2="1893" y2= "2276" />
   <line class="fil5 str4" x1="1595" y1="2276" x2="1893" y2= "2565" />
   <line class="fil5 str4" x1="1743" y1="1933" x2="1648" y2= "2051" />
   <line class="fil5 str4" x1="1744" y1="1933" x2="1832" y2= "2051" />
  </g>
  <g id="_1474662980640">
   <polygon class="fil1 str1" points="5220,1239 5220,1713 2911,1713 2911,1239 "/>
   <path class="fil6" d="M3988 1578l0 -202 40 0 48 143c4,13 8,23 10,30 2,-7 6,-18 11,-32l49 -141 36 0 0 202 -26 0 0 -169 -59 169 -24 0 -58 -172 0 172 -26 0z"/>
   <path id="1" class="fil6" d="M4321 1531l26 3c-4,15 -11,27 -22,35 -11,8 -25,12 -42,12 -21,0 -38,-7 -51,-20 -13,-13 -19,-32 -19,-55 0,-25 6,-44 19,-57 13,-14 29,-20 49,-20 20,0 35,7 48,20 12,13 19,32 19,56 0,1 0,4 0,7l-109 0c1,16 5,28 14,37 8,9 18,13 31,13 9,0 17,-2 23,-7 6,-5 12,-12 15,-23zm-81 -40l82 0c-1,-12 -4,-22 -9,-28 -8,-10 -18,-14 -31,-14 -11,0 -21,4 -29,11 -8,8 -12,18 -13,31z"/>
   <path id="2" class="fil6" d="M4378 1578l0 -146 22 0 0 22c6,-10 11,-17 16,-21 5,-3 10,-5 16,-5 8,0 17,3 26,8l-9 23c-6,-3 -12,-5 -18,-5 -5,0 -10,2 -15,5 -4,3 -7,8 -9,14 -3,9 -4,18 -4,29l0 77 -25 0z"/>
   <path id="3" class="fil6" d="M4568 1524l24 3c-3,17 -9,30 -20,39 -11,9 -24,14 -40,14 -20,0 -36,-7 -48,-20 -12,-13 -18,-32 -18,-56 0,-16 3,-30 8,-41 5,-12 13,-21 24,-27 11,-6 22,-9 35,-9 16,0 29,4 39,12 10,8 17,19 19,34l-24 4c-2,-10 -6,-17 -12,-22 -6,-5 -13,-7 -21,-7 -13,0 -23,4 -31,13 -8,9 -12,23 -12,42 0,20 4,34 11,43 8,9 17,13 29,13 10,0 18,-3 24,-9 7,-6 11,-15 12,-27z"/>
   <path id="4" class="fil6" d="M4709 1560c-9,8 -18,13 -27,17 -9,3 -18,5 -27,5 -16,0 -28,-4 -37,-12 -9,-8 -13,-18 -13,-30 0,-7 2,-14 5,-20 3,-6 8,-11 13,-14 5,-4 11,-6 18,-8 5,-1 12,-2 22,-4 20,-2 35,-5 44,-9 0,-3 0,-6 0,-6 0,-10 -2,-17 -7,-21 -6,-6 -16,-8 -28,-8 -12,0 -20,2 -26,6 -6,4 -10,11 -12,22l-24 -3c2,-10 6,-19 11,-25 5,-6 12,-11 22,-15 10,-3 21,-5 33,-5 13,0 23,1 31,4 8,3 14,7 17,11 4,4 6,10 8,17 1,4 1,12 1,23l0 33c0,23 1,38 2,44 1,6 3,12 6,18l-26 0c-3,-5 -4,-11 -5,-18zm-2 -55c-9,4 -23,7 -41,9 -10,1 -17,3 -22,5 -4,2 -7,5 -10,8 -2,4 -3,7 -3,12 0,7 2,12 8,16 5,4 12,7 22,7 10,0 18,-2 26,-6 7,-4 13,-10 16,-17 3,-6 4,-14 4,-25l0 -9z"/>
   <path id="5" class="fil6" d="M4824 1556l3 22c-7,1 -13,2 -19,2 -9,0 -16,-1 -21,-4 -5,-3 -8,-7 -10,-11 -2,-5 -3,-14 -3,-29l0 -84 -18 0 0 -19 18 0 0 -36 25 -15 0 51 25 0 0 19 -25 0 0 86c0,7 0,12 1,14 1,2 2,4 4,5 2,1 5,2 8,2 3,0 6,0 11,-1z"/>
   <path id="6" class="fil6" d="M4839 1505c0,-27 8,-47 23,-60 13,-11 28,-16 46,-16 20,0 37,7 49,20 13,13 19,31 19,55 0,19 -3,34 -8,44 -6,11 -14,19 -25,25 -11,6 -23,9 -35,9 -21,0 -37,-7 -50,-20 -13,-13 -19,-32 -19,-57zm25 0c0,19 4,33 12,42 8,9 19,14 31,14 12,0 23,-5 31,-14 8,-9 12,-24 12,-43 0,-18 -4,-32 -12,-41 -8,-9 -18,-14 -31,-14 -12,0 -23,5 -31,14 -8,9 -12,23 -12,42z"/>
   <path id="7" class="fil6" d="M5005 1578l0 -146 22 0 0 22c6,-10 11,-17 16,-21 5,-3 10,-5 16,-5 8,0 17,3 26,8l-9 23c-6,-3 -12,-5 -18,-5 -5,0 -10,2 -15,5 -4,3 -7,8 -9,14 -3,9 -4,18 -4,29l0 77 -25 0z"/>
   <circle class="fil7 str5" cx="3129" cy="1473" r="119"/>
   <rect class="fil7 str5" x="3587" y="1364" width="227" height="227"/>
   <line class="fil5 str6" x1="3303" y1="1472" x2="3524" y2= "1472" />
   <line class="fil5 str6" x1="3521" y1="1472" x2="3457" y2= "1538" />
   <line class="fil5 str6" x1="3521" y1="1471" x2="3458" y2= "1410" />
  </g>
 </g>
</svg>
